<svg xmlns="http://www.w3.org/2000/svg" width="33.333" height="33.332" viewBox="0 0 33.333 33.332">
  <g id="Group_1778" data-name="Group 1778" transform="translate(-125.985 -6239.853)">
    <g id="Group_1777" data-name="Group 1777">
      <g id="Group_1770" data-name="Group 1770">
        <g id="Group_1769" data-name="Group 1769">
          <path id="Path_2095" data-name="Path 2095" d="M127.146,6249.927a1.161,1.161,0,0,0,1.161-1.161v-4.949l7.477,7.474a1.16,1.16,0,0,0,1.641-1.641l-7.476-7.476h4.95a1.16,1.16,0,1,0,0-2.321h-7.753a1.161,1.161,0,0,0-1.161,1.161v7.752a1.161,1.161,0,0,0,1.161,1.161Zm0,0" fill="#f4ede1"/>
        </g>
      </g>
      <g id="Group_1772" data-name="Group 1772">
        <g id="Group_1771" data-name="Group 1771">
          <path id="Path_2096" data-name="Path 2096" d="M158.157,6263.11a1.161,1.161,0,0,0-1.161,1.161v4.95l-7.707-7.707a1.161,1.161,0,1,0-1.642,1.642l7.707,7.706H150.4a1.161,1.161,0,0,0,0,2.322h7.753a1.161,1.161,0,0,0,1.161-1.161v-7.752a1.161,1.161,0,0,0-1.161-1.161Zm0,0" fill="#f4ede1"/>
        </g>
      </g>
      <g id="Group_1774" data-name="Group 1774">
        <g id="Group_1773" data-name="Group 1773">
          <path id="Path_2097" data-name="Path 2097" d="M136.014,6261.514l-7.706,7.707v-4.95a1.161,1.161,0,1,0-2.322,0v7.753a1.161,1.161,0,0,0,1.161,1.161H134.9a1.161,1.161,0,0,0,0-2.322h-4.95l7.707-7.707a1.161,1.161,0,0,0-1.642-1.642Zm0,0" fill="#f4ede1"/>
        </g>
      </g>
      <g id="Group_1776" data-name="Group 1776">
        <g id="Group_1775" data-name="Group 1775">
          <path id="Path_2098" data-name="Path 2098" d="M158.157,6239.853H150.4a1.16,1.16,0,0,0,0,2.321h4.95l-7.475,7.477a1.16,1.16,0,0,0,1.641,1.641l7.476-7.476v4.95a1.161,1.161,0,0,0,2.322,0v-7.752a1.161,1.161,0,0,0-1.161-1.161Zm0,0" fill="#f4ede1"/>
        </g>
      </g>
    </g>
  </g>
</svg>
