<svg xmlns="http://www.w3.org/2000/svg" width="94.076" height="118.24" viewBox="0 0 94.076 118.24">
  <g id="AkCflg.tif" transform="translate(-246.523 -12751.358)">
    <g id="Grupo_746" data-name="Grupo 746">
      <path id="Caminho_1063" data-name="Caminho 1063" d="M311.163,12769.224a30.2,30.2,0,0,1,3.7-1.171,10.191,10.191,0,0,1,5.435.471,4.249,4.249,0,0,1,1.832,1.367,7.776,7.776,0,0,1,1.576,5.369,46.618,46.618,0,0,0-.066,6.048,8.137,8.137,0,0,0,.806,2.688,63.917,63.917,0,0,1,2.9,9.739,5.688,5.688,0,0,1,.116,1.476c-.04,1.555-.052,3.115-.19,4.663a10.6,10.6,0,0,0,2.115,7.089,29.29,29.29,0,0,0,2.824,3.347,46.881,46.881,0,0,1,7.134,10.24,10.64,10.64,0,0,1,1.016,7.276,11.856,11.856,0,0,0,0,3.718,9.828,9.828,0,0,1-1.082,6.017,20.265,20.265,0,0,1-4.346,5.963,36.8,36.8,0,0,0-2.786,3.1c-.28.308-.639.544-.943.832-.121.115-.274.281-.276.425a6.929,6.929,0,0,1-1.546,4.035c-1.584,2.139-3.22,4.248-4.953,6.267a14.892,14.892,0,0,1-6.157,4.381c-.484.181-.929.462-1.409.655a7.08,7.08,0,0,1-1.985.689,3.163,3.163,0,0,0-1.872.937,9.2,9.2,0,0,1-2.484,1.567,20.376,20.376,0,0,1-4.544,1.261,17.254,17.254,0,0,0-2.887.761,20.817,20.817,0,0,1-6.035.494,1.717,1.717,0,0,0-.695.033,9.587,9.587,0,0,1-4.721.612q-4.414-.1-8.824-.351a13.072,13.072,0,0,1-5.421-1.891,19.76,19.76,0,0,1-4.652-3.293.435.435,0,0,0-.308-.1,8.966,8.966,0,0,1-6.552-2.315,1.171,1.171,0,0,0-.868-.257c-3.448.911-6.438-.13-9.27-2.035-1.205-.812-2.473-1.534-3.743-2.241-2.106-1.173-3.473-2.74-3.355-5.342.063-1.377-.209-2.77-.155-4.147a2.207,2.207,0,0,0-.7-2.021,2.642,2.642,0,0,1-.863-2.974,4.792,4.792,0,0,0-.123-2.091,8.635,8.635,0,0,1,2.094-7.419,1.585,1.585,0,0,0,.278-.546c.247-.855.491-1.713.7-2.578a5.166,5.166,0,0,0,.2-1.379.84.84,0,0,0-.463-.629c-2.033-.577-2.822-2.09-3.025-4a9,9,0,0,1,.5-4.388,8.178,8.178,0,0,0,.458-3.958,15.291,15.291,0,0,1,2.172-9.622,4.7,4.7,0,0,1,2.012-2.021.759.759,0,0,0,.316-.547,12.893,12.893,0,0,1,2.633-6.618,7.768,7.768,0,0,0,1.485-3.613,14.842,14.842,0,0,1,1.591-5.445c-.509-.147-.933-.264-1.353-.394a3.949,3.949,0,0,1-3.176-3.975,9.034,9.034,0,0,1,.617-4.229c.932-2.187,1.748-4.428,2.79-6.559a6.943,6.943,0,0,1,2.045-2.388,25.2,25.2,0,0,1,10.339-4.7,15.458,15.458,0,0,1,5.621.246c1.391.235,2.76.6,4.138.915.248.056.493.125.852.216,0-.595-.022-1.108,0-1.618a7.743,7.743,0,0,1,1.773-4.881,6.3,6.3,0,0,0,1.175-2.376,8.146,8.146,0,0,1,7.157-6.2c1.361-.114,2.714-.322,4.075-.426a4.59,4.59,0,0,1,2.841.7,34.815,34.815,0,0,1,3.469,2.279,10.894,10.894,0,0,0,4.852,2.149,7.514,7.514,0,0,1,3.606,1.7c3.175,2.866,3.691,6.442,2.746,10.4C311.283,12768.8,311.224,12769,311.163,12769.224Zm21.493,71.447c-1.441.674-3.019,2.283-2.832,2.91.473-.5.936-.99,1.406-1.479s.942-.963,1.413-1.444a4.257,4.257,0,0,0,2.256-1.975l-.167-.173Zm-55.289,12.89-.024-.023c.956.67,1.9,1.353,2.877,2a.983.983,0,0,0,.67.053c1.865-.395,3.73-.793,5.586-1.228,1.077-.254,2.136-.58,3.2-.867a1.775,1.775,0,0,0,1.389-1.247c.229-.765.537-1.5.8-2.256.851-2.386,1.341-4.916,2.852-7.034a1.238,1.238,0,0,0,.119-.35.845.845,0,0,0-1.205.439c-.443.775-.886,1.551-1.339,2.32-.185.313-.4.611-.6.918l-.19-.119a7.369,7.369,0,0,1,1.513-3.741l-.139-.113-1.3,1.484-.235-.095.118-1.767a3.663,3.663,0,0,0-.711.522c-.243.313-.4.694-.639,1.011-.093.124-.369.253-.459.2a.637.637,0,0,1-.282-.483,8.477,8.477,0,0,1,.191-1.138c-.609-.274-.938-.09-1.121.521a7.063,7.063,0,0,1-.575,1.286c-.073.138-.274.207-.416.308-.088-.149-.258-.3-.248-.446.048-.667.146-1.331.227-2-.7-.222-.714-.211-1.047.424-.259.5-.37,1.1-1,1.381-.46-.715-.132-1.378-.029-2.11a1.637,1.637,0,0,0-.68.5c-.24.319-.318.924-.855.7-.176-.073-.129-.686-.185-1.051a1.032,1.032,0,0,0-.045-.139c-.5-.193-.76.063-1,.48-.25.435-.577.825-.871,1.235l-.286-.122v-1.639c-1.219-.658-1.336.813-2.187,1.215v-1.426c-.712-.395-1.037-.152-1.3.435a5.42,5.42,0,0,1-.748.993l-.342-.136.213-1.775c-.465-.289-.773-.163-1.006.377a11.481,11.481,0,0,1-.76,1.282c-.708-.8-.093-1.454-.2-2.141a13.587,13.587,0,0,0-.8,1.4,3.217,3.217,0,0,1-.656.614,2.337,2.337,0,0,1-.246-.883,9.863,9.863,0,0,1,.465-1.515c-.169.044-.324.036-.367.1-.291.448-.54.924-.842,1.364a3.475,3.475,0,0,1-.563.525c-.093-.247-.29-.51-.257-.739a9.385,9.385,0,0,1,.4-1.376.867.867,0,0,0-.59.451,17,17,0,0,0-1.079,3.556c-.177,1.694,0,3.425-.026,5.14a1.376,1.376,0,0,0,.787,1.371c.6.317,1.206.625,1.8.957C274.549,12851.956,275.957,12852.761,277.367,12853.561Zm22.66-.358a5.078,5.078,0,0,0,.188,1.781,14.688,14.688,0,0,1,1.807,6.092,5.72,5.72,0,0,0-.205-3.123c-.621-1.571-1.2-3.159-1.8-4.739a7.724,7.724,0,0,1-.147-1.048,30.577,30.577,0,0,1,.061-5.341,16.363,16.363,0,0,0-.055-6.313c-.449-2.052-1.261-4.024-1.907-6.035-.082-.254-.127-.521-.189-.781.242.045.333.124.376.224.808,1.877,1.672,3.733,2.4,5.642a12.021,12.021,0,0,1,.53,6.475,17.384,17.384,0,0,0-.019,4.773,18.514,18.514,0,0,0,1.528,4.751c.343.922.627,1.864.937,2.8l.219-.068c-.295-.986-.556-1.982-.892-2.953-.856-2.472-1.832-4.916-1.6-7.611.136-1.549.367-3.092.444-4.643a10.135,10.135,0,0,0-.163-3.367c-.686-2.266-1.593-4.469-2.474-6.671a17.831,17.831,0,0,1-1.371-5.373,4.03,4.03,0,0,1,.194-1.018l.258,0c.094.3.2.6.279.9a36.22,36.22,0,0,0,1.022,4.016c.689,1.822,1.671,3.535,2.362,5.358a16.4,16.4,0,0,1,.841,3.7,24.981,24.981,0,0,1,.028,3.192l.191,0c.218-1.294.443-2.587.645-3.884a1.276,1.276,0,0,0-.073-.623c-.535-1.407-1.1-2.8-1.633-4.214-.6-1.583-1.292-3.143-1.73-4.771a17.038,17.038,0,0,1-.564-5.735,7.259,7.259,0,0,0-.149-1.434c-.761,1.1-1.589,2.177-2.272,3.337a6.67,6.67,0,0,0-.8,2.225,7.714,7.714,0,0,1-1.049,3.408,2.581,2.581,0,0,0-.27,2.466,12.616,12.616,0,0,1,.474,2.9,1.051,1.051,0,0,1-.941,1.219c-.726.025-.651-.661-.781-1.142-.284-1.054-.579-2.1-.815-2.953l-6.211.878c-.041.26-.079.61-.153.954a1.772,1.772,0,0,1-1.993,1.591,7.769,7.769,0,0,1-.983-.1c-1.213-.169-2.425-.354-3.639-.514-.992-.131-1.948-.289-2.119-1.55a10.093,10.093,0,0,1-5.121-1.279c-.355-.2-.771-.507-1.239-.105-.052.044-.42-.167-.535-.333-.232-.339-.416-.58-.809-.192-.348.342-.559.147-.758-.2a.618.618,0,0,0-1.126-.084c-.374.469-.657.419-.919-.133-.076-.16-.292-.415-.367-.391a2.389,2.389,0,0,1-1.815-.4,2.127,2.127,0,0,0-.688-.028,1.774,1.774,0,0,1-.531-.072c-.389-.148-.764-.332-1.017-.443l-.882.556-.343-.873-.873-.205.067.19-.841.69-.339-1.214c.045-.028-.013,0-.063.042-.252.209-.5.42-.753.631a5.611,5.611,0,0,0-.233-.9,2.775,2.775,0,0,0-.484-.578c-.617,1.608-.851,1.756-2.438,1.551-1.37-.176-2.735-.383-4.081-.574-.64,1.42-.533,1.65.767,2.292a14.633,14.633,0,0,0,4.663,1.348c2.947.38,5.918.64,8.4,2.578a2.659,2.659,0,0,1,1.1,1.388,24.447,24.447,0,0,1,.635,8.136c-.066,1.412-.14,2.824-.14,4.236,0,2.589.047,5.178.092,7.767a1.918,1.918,0,0,0,.228.592,34.276,34.276,0,0,0,.223-8.937,2.762,2.762,0,0,1,.119-.8l.2.006a1.374,1.374,0,0,1,.209.4c.252,1.815.538,3.628.717,5.451.15,1.521.161,3.056.259,4.582a2.112,2.112,0,0,0,.259.625l.181-.056c-.041-.34-.1-.68-.121-1.021-.2-2.864-.213-5.756-.639-8.587a36.371,36.371,0,0,1-.255-6.319.838.838,0,0,0-.012-.142c-.367-2.26.468-4.276,1.332-6.267a2.209,2.209,0,0,1,2.459-1.4c1.143.149,2.274.381,3.411.573a42.93,42.93,0,0,0,6.259,1,67.234,67.234,0,0,1,12.176,1.556c.951.194,2.111.172,2.339,1.524.006.033.067.061.106.085a1.677,1.677,0,0,1,.685,1.6c.069,2.886-.292,5.795.567,8.637.381,1.258.618,2.558.945,3.833.338,1.313.728,2.615,1.051,3.933.173.708.252,1.439.374,2.159a7.393,7.393,0,0,0-.592-5.105c-1.286-3.069-1.223-6.3-1.227-9.52,0-1.707.31-3.417.255-5.119a14.646,14.646,0,0,0-.733-3.431c-.422-1.491-.946-2.955-1.4-4.438a2.144,2.144,0,0,1,.026-.692l.207-.048a5.208,5.208,0,0,1,.417.761c.441,1.242.831,2.5,1.291,3.737a13.568,13.568,0,0,1,.944,5.6,28,28,0,0,0,.019,6.4C299.572,12851.363,299.823,12852.277,300.027,12853.2Zm-40.953-26.979c.649.191,1.289.434,1.95.563,2.259.438,4.547.749,6.784,1.275,2.9.684,5.76,1.52,8.632,2.311a3.809,3.809,0,0,0,2.278-.028c.44-.144.628-.293.658-.8.074-1.243.216-2.485.4-3.717.075-.5.42-.967.47-1.466a.915.915,0,0,1,.988-.957,13.239,13.239,0,0,1,4.966.388c1.375.483,1.941,1.2,1.73,2.641-.106.721-.312,1.426-.468,2.139-.062.283-.113.568-.173.878,2.433-.2,3.489-1.009,4.235-3.2a11.275,11.275,0,0,1,.7-2.066,11.038,11.038,0,0,1,1.606-1.917c.1-.1.419,0,.637.009a2.617,2.617,0,0,1-.17.621c-.086.154-.294.238-.4.386a5.315,5.315,0,0,0-.828,1.2c-.294.765-.426,1.59-.689,2.369a5.024,5.024,0,0,1-4.269,3.622c-.366.055-.731.118-1.13.184l-.057.93c.737-.119,1.381-.2,2.015-.327,2.3-.457,3.845-1.616,4.126-4.144a5.245,5.245,0,0,1,1.8-3.517,6.374,6.374,0,0,0,2.026-3.308,4.611,4.611,0,0,1,2.329-2.968,24.381,24.381,0,0,0,2.557-1.771c-1.236-.929-1.364-.948-2.438-.244a9.583,9.583,0,0,0-2.914,3.125c-.254.417-.56.8-.842,1.2.178-2.4,1.756-3.937,3.254-5.59-.369-.044-.777-.091-.984.091-1.019.895-1.993,1.84-2.965,2.785-.311.3-.565.663-.846,1l-.208-.138a8.356,8.356,0,0,1,2.672-4.468,1.04,1.04,0,0,0-1.516.179c-.983,1.136-1.939,2.295-2.906,3.444-.117.139-.236.275-.355.413l-.19-.125a7.863,7.863,0,0,1,2.272-4.479,1.274,1.274,0,0,0-1.6.386c-.8.989-1.585,1.988-2.393,2.97a8.439,8.439,0,0,1-.748.72l-.224-.177c.168-1.709,1.369-2.9,2.368-4.167a1.739,1.739,0,0,0-2.467.8c-.629,1.076-1.246,2.16-1.888,3.228a2.458,2.458,0,0,1-.5.465,2.135,2.135,0,0,1-.218-.67,5.855,5.855,0,0,1,1.215-3.334c.144-.2.274-.407.425-.632a1.165,1.165,0,0,0-1.579.648,15.679,15.679,0,0,1-.96,1.565,5.741,5.741,0,0,1-.624.678l-.233-.113a14.088,14.088,0,0,1,.32-1.381c.161-.481.4-.936.632-1.47-1.9-.166-1.949,1.8-3.031,2.493l-.232-.076.559-2.618a5.4,5.4,0,0,0-1.135.664c-.376.383-.631.881-.982,1.29-.132.154-.388.2-.587.3-.073-.228-.241-.473-.2-.679a9.4,9.4,0,0,1,.437-1.289c-.621-.136-1.152-.155-1.462.554a2.606,2.606,0,0,1-.515.668c-.083.09-.3.2-.334.167a.6.6,0,0,1-.208-.388c0-.343.047-.687.1-1.271a9.38,9.38,0,0,0-1.159.489,6.614,6.614,0,0,0-.818.668q-.135-.473-.272-.944c-.007-.022-.018-.043-.085-.2-.306.064-.729.032-.968.227-.742.6-.773.614-1-.295-1.094-.708-1.142.836-1.978.9a2.91,2.91,0,0,1-.092-.83c.091-.5-.168-.636-.56-.8-.455-.186-.644.058-.858.361a2.211,2.211,0,0,1-.5.589,2.924,2.924,0,0,1-.748.254,2.625,2.625,0,0,1-.115-.835,3.738,3.738,0,0,1,.4-.871c-1.255-.511-1.253-.509-2.044.462a1.835,1.835,0,0,1-.4.394,3.082,3.082,0,0,1-.547.222,1.7,1.7,0,0,1-.2-.619,8.579,8.579,0,0,1,.25-1.151c-.883-.394-.862-.377-1.5.456-.167.219-.515.3-.781.439a7.591,7.591,0,0,1-.168-.878,1.285,1.285,0,0,1,.144-.448c-.711-.206-.7-.193-1.2.236a1,1,0,0,1-.607.254c-.093,0-.183-.329-.262-.514a1.444,1.444,0,0,1-.057-.266c-.533-.178-1.017-.387-1.467.187-.21.269-.6.215-.594-.187.01-.627-.337-.739-.841-.788a1.339,1.339,0,0,1-.209.275c-.229.176-.473.331-.712.494-.062-.3-.242-.635-.164-.891.2-.637-.261-.749-.478-.911l-.976,1.227-.38-.286v-1.407c-.636-.259-.636-.259-1.051.275-.456.588-.662.589-1.117-.035a4.388,4.388,0,0,0-.345.705c-.557,1.99-1.1,3.985-1.646,5.976-.073.263-.187.513-.282.768l-.24-.078c-.533-3.027.609-5.7,1.924-8.328-.614-.307-.868.069-1.123.463a12.833,12.833,0,0,0-2.072,8.417,12.907,12.907,0,0,1-.572,5.221,12.78,12.78,0,0,0-.36,3.341,4.287,4.287,0,0,0,.392,1.314l.184-.042c-.153-1.141-.379-2.3.645-3.294.083.362.153.631.206.9.177.9.346,1.8.521,2.7.112.578.5.863,1.183,1.021.109-.522.248-1.012.307-1.509a32.436,32.436,0,0,1,.383-3.432,5.03,5.03,0,0,1,1.085-2c.459-.548,1.177-.514,1.919-.513a5.712,5.712,0,0,1,3.237,1.039,1.978,1.978,0,0,1,1.026,1.9c-.2,1.461.051,3.028-.9,4.337l-.849,1.427c1.4.464,2.615.89,3.847,1.272a13.1,13.1,0,0,0,2.123.532,46.327,46.327,0,0,1,8.424,2.047,11.633,11.633,0,0,0,5.246.859c.8-.1,1.041-.437,1.116-1.161-1.74.323-3.36-.244-5-.606-.954-.213-1.848-.688-2.8-.914-2.628-.625-5.273-1.186-7.912-1.763-1.193-.261-2.393-.488-3.583-.759C259.225,12827.063,258.872,12826.812,259.074,12826.223Zm63.957-8.588c.039-.6.07-1.179.117-1.76a3.418,3.418,0,0,1,.111-.617,3.75,3.75,0,0,0,.308-1.079,24.421,24.421,0,0,0-.357-3.22,14.364,14.364,0,0,1,.334-7.943,12.839,12.839,0,0,0,.553-6,39.528,39.528,0,0,1-.381-4.151,15.1,15.1,0,0,0-1.71-6.934c-1.623-3.126-1.484-6.38-.923-9.719a15.046,15.046,0,0,0,.1-3.915,3.434,3.434,0,0,0-2.815-2.8,7.053,7.053,0,0,0-4.4.619,14.109,14.109,0,0,1-5.163,1.618,18.469,18.469,0,0,0-4.956,1.051,10.3,10.3,0,0,1-3.315.558c-2.638-.026-5.276-.2-7.91-.371a10.133,10.133,0,0,1-2.356-.445c-1.371-.431-2.712-.951-4.062-1.445-.752-.275-1.49-.587-2.245-.854a34.341,34.341,0,0,0-3.762-1.256c-1.7-.384-3.438-.584-5.162-.847-2.305-.351-4.587-.747-6.932-.066a26.04,26.04,0,0,0-7.9,3.863,5.315,5.315,0,0,0-1.634,1.906c-.824,1.688-1.481,3.459-2.2,5.2-.146.354-.265.719-.372,1.013.606-.81,1.25-1.645,1.867-2.5.378-.525.736-1.067,1.065-1.625.5-.845.939-1.723,1.454-2.557.128-.208.444-.3.619-.411l-1.6,4.643a1.912,1.912,0,0,0,.7-.654c.629-1.153,1.27-2.306,1.814-3.5a5.947,5.947,0,0,1,1.844-2.452,5.53,5.53,0,0,1,1.034-.474l.159.226a9.972,9.972,0,0,0-.843.856,6.437,6.437,0,0,0-1.178,1.7,18.3,18.3,0,0,1-2.4,4.935,10.444,10.444,0,0,0-2.057,6.625c.025.721.038.752.839.662a1.625,1.625,0,0,0,.019-.271c-.293-3.119,1.169-5.533,3.083-7.783a4.538,4.538,0,0,0,.782-1.4,15.87,15.87,0,0,1,2.895-4.9,4,4,0,0,1,1.031-.844c.171-.1.467.013.707.028a2.228,2.228,0,0,1-.288.638c-.333.36-.78.627-1.074,1.013a14.968,14.968,0,0,0-2.474,4.419,7.578,7.578,0,0,1-.722,1.447c-.616,1.053-1.272,2.081-1.885,3.135a7.481,7.481,0,0,0-.8,4.522,3.24,3.24,0,0,0,.293.722,2.414,2.414,0,0,0,.162-.457,10.453,10.453,0,0,1,3.08-6.877,7.122,7.122,0,0,0,1.476-2.7,28.22,28.22,0,0,1,1.386-3.381,1.981,1.981,0,0,1,1.58-1.035,4.754,4.754,0,0,1-.414.859,9.646,9.646,0,0,0-1.608,3.811,7.283,7.283,0,0,1-1.689,3.142,10.762,10.762,0,0,0-2.771,6.51c-.043.5.162.679.7.758-.042-2.687,1.347-4.7,3-6.608a7.984,7.984,0,0,0,2.207-4.482,4.884,4.884,0,0,1,.675-1.689,6.669,6.669,0,0,1,.787-1c-.167,1.22-.517,2.336-.7,3.48a8.312,8.312,0,0,1-1.535,3.6c-.551.764-1.121,1.518-1.722,2.243a8.705,8.705,0,0,0-1.613,4.89c-.022.2.206.437.319.655a22.478,22.478,0,0,1,3.023-6.191,12.384,12.384,0,0,0,1.3-2.339c.586-1.386,1.061-2.818,1.607-4.222a9.143,9.143,0,0,1,.572-1.053l.206.09c-.124.555-.272,1.105-.367,1.666a14.182,14.182,0,0,1-2.419,6.489,15.6,15.6,0,0,0-2.437,5.522c-.232.842-.157.934.79,1.29.121-.4.253-.8.357-1.2a23.177,23.177,0,0,1,3.007-7.2,14.891,14.891,0,0,0,1.264-3.111c.2-.528.3-1.092.511-1.613a4.181,4.181,0,0,1,.572-.8l.231.093c-.048.4-.065.808-.151,1.2-.171.781-.345,1.563-.584,2.325a8.782,8.782,0,0,1-.9,2.353c-1.763,2.583-2.441,5.582-3.446,8.51l.849.4a11.3,11.3,0,0,0,.449-1.352c.569-2.964,2.05-5.55,3.346-8.218.614-1.265,1.106-2.589,1.659-3.884.408-.954.825-1.9,1.238-2.853l.2.058c.022.081.076.168.061.241a30.19,30.19,0,0,1-1,4.528c-.845,2.238-2.021,4.351-2.939,6.563-.594,1.432-.98,2.95-1.459,4.429l.259.084c.271-.823.509-1.659.823-2.465a25.353,25.353,0,0,1,1.188-2.705c.806-1.515,1.714-2.977,2.529-4.488,1.361-2.524,2.243-5.3,3.952-7.645a2.9,2.9,0,0,1,1.95-1.384,1.551,1.551,0,0,1,.569.155c-.074.178-.1.407-.231.524-2.2,2-3.051,4.674-3.9,7.391a31.341,31.341,0,0,1-2.209,5.558,19.581,19.581,0,0,0-1.876,4,11.38,11.38,0,0,1-4.06,6.307,8.9,8.9,0,0,0-1.008,1.039l.058.058,1.185-.889.212.2c-.973,1.736-2.828,3-2.926,5.189,1.5.83,3.128.591,4.719.57a.941.941,0,0,0,.654-.437,21.364,21.364,0,0,0,1.141-2.261,6.5,6.5,0,0,1,2.624-3.4,5.2,5.2,0,0,0,2.664-4.317,7.056,7.056,0,0,1,.247-1.385c.071-.224.332-.387.507-.577a2.1,2.1,0,0,1,.229.678,11.276,11.276,0,0,1-.17,1.542,6.139,6.139,0,0,1-3,4.786,5.5,5.5,0,0,0-2.35,2.988c-.322.783-.606,1.585-.981,2.342a1.741,1.741,0,0,1-2.293,1.124c-1.573-.475-3.359-.177-4.72-1.384-.285.885-.284,1.079.125,1.24a13.164,13.164,0,0,0,6.38,1.262,1.351,1.351,0,0,0,1.326-1.028c.355-1.173.729-2.34,1.1-3.508a5.478,5.478,0,0,1,2.44-3.177,5.5,5.5,0,0,0,2.493-3.313,18.731,18.731,0,0,0,.476-2.5c.335-2.438,1.015-4.705,3.008-6.356a3.8,3.8,0,0,0,.343-.422c-1.3.682-2.566,1.079-3.311,2.257-.165.26-.246.8-.715.521-.112-.065.051-.639.137-.966a.785.785,0,0,1,.31-.378c.864-.6,1.715-1.231,2.617-1.775a3.657,3.657,0,0,0,1.615-1.613,2.68,2.68,0,0,1,.5-.585l.276.133-.485,1.662a5.027,5.027,0,0,0,2.145-2.629c.235-.766.495-1.526.8-2.267a9,9,0,0,1,2.628-3.873,1.277,1.277,0,0,1,1.79-.021,1.3,1.3,0,0,1-.4,1.631,3.926,3.926,0,0,0-1.414,2.752c-.052.634-.146,1.264-.2,1.9a6.453,6.453,0,0,1-1.481,3.674,13.662,13.662,0,0,1-4.078,3.113,2.827,2.827,0,0,0-1.523,2.079c-.284,1.572-.551,3.148-.839,4.8l.664.127a7.436,7.436,0,0,1,1.657-4.521c.993-1.2,1.7-2.752,3.444-3.2-1.652,2.493-3.865,4.682-3.947,7.979.194-.074.382-.193.423-.35a7.107,7.107,0,0,1,2.094-3.541,10.349,10.349,0,0,0,1.925-2.589,28.624,28.624,0,0,1,2.085-2.925,3.488,3.488,0,0,1,.742-.568l.166.12a4.863,4.863,0,0,1-.3.811c-.58,1-1.273,1.937-1.76,2.976a9.02,9.02,0,0,1-2.1,2.971,6.39,6.39,0,0,0-1.847,3.112c1.239.238,1.318.206,1.744-.8a7.292,7.292,0,0,1,2.312-3.064,6.447,6.447,0,0,0,2.283-2.983c.477-1.327,1.085-2.608,1.662-3.9a1.4,1.4,0,0,1,1.182-1.028,11.358,11.358,0,0,1-.377,1.349c-.583,1.391-1.275,2.738-1.785,4.153a8.337,8.337,0,0,1-2.725,3.785,5.84,5.84,0,0,0-1.628,2.563c.659.373.987.213,1.375-.36a10.445,10.445,0,0,1,2.172-2.565,10.011,10.011,0,0,0,3.451-4.629c.223-.6.414-1.207.687-1.779.454-.953.928-1.9,1.466-2.807.176-.3.578-.462.876-.688l.225.161a6.816,6.816,0,0,1-.239.892c-.6,1.459-1.256,2.9-1.826,4.365a11.46,11.46,0,0,1-3.931,5.4,17.181,17.181,0,0,0-2.309,2.509l1.006.354a11.829,11.829,0,0,1,3.436-3.456,9.313,9.313,0,0,0,2.245-2.484c.81-1.317,1.361-2.792,2.07-4.176a28.06,28.06,0,0,1,1.461-2.5,10.71,10.71,0,0,1,1.009-1.162l.169.127c-.045.145-.079.292-.137.431-.642,1.517-1.3,3.027-1.929,4.55-1.137,2.751-2.422,5.365-5.133,6.985a12.344,12.344,0,0,0-1.947,1.843c.7.341.995.19,1.36-.319a6.954,6.954,0,0,1,1.843-1.807,11.867,11.867,0,0,0,2.872-2.687,6.206,6.206,0,0,0,1.546-2.735c.046-.253.314-.466.48-.7l.188.085a6.35,6.35,0,0,1-.126.855,10.833,10.833,0,0,1-3.769,5.248c-.808.688-1.542,1.462-2.389,2.273,1.34.363,1.339.3,1.991-.543a7.778,7.778,0,0,1,1.777-1.789c2.8-1.851,3.893-4.742,4.9-7.709.415-1.221.805-2.454,1.3-3.646.162-.393.6-.671.918-1l.219.161c-.161.455-.318.911-.484,1.365-.251.684-.542,1.354-.755,2.05-.42,1.368-.813,2.744-1.188,4.124a10.051,10.051,0,0,1-4.343,5.814,13.725,13.725,0,0,0-1.486,1.37c1.04.157,1.741.2,2.373-.621a7.4,7.4,0,0,1,2.23-2.019,4.686,4.686,0,0,0,2.392-2.743c.628-1.945,1.177-3.922,1.66-5.908a11,11,0,0,1,1.937-4.049,5.67,5.67,0,0,1,.931-.8l.28.206a7.53,7.53,0,0,1-.516,1.384,14.367,14.367,0,0,0-1.707,4.237c-.434,1.828-.951,3.643-1.557,5.421a5.853,5.853,0,0,1-2.736,3.213,14.384,14.384,0,0,0-1.9,1.572l.14.174a2.716,2.716,0,0,0,2.322-.866c.389-.5.938-.86,1.362-1.333a8.1,8.1,0,0,0,1.625-2.021,51.6,51.6,0,0,0,2.334-6.5,19.678,19.678,0,0,1,2.055-4.777,3.072,3.072,0,0,1,.671-.714c.086-.075.314-.12.374-.065a.506.506,0,0,1,.158.413,13.06,13.06,0,0,1-.546,1.449,28.719,28.719,0,0,0-1.289,2.819c-.536,1.656-.882,3.373-1.4,5.036a10.9,10.9,0,0,1-2.5,4.694c-.26.261-.508.532-.809.849a2.4,2.4,0,0,0,2.31-1.256,36.661,36.661,0,0,0,2.344-5.056,71.42,71.42,0,0,1,3.126-8.47c.159-.364.345-.717.576-1.194a3.94,3.94,0,0,1-.246,3.171,9.358,9.358,0,0,0-1.37,4.034,11.388,11.388,0,0,0,2.834-5.627,48.38,48.38,0,0,1,.708-4.895c.672-2.855,1.924-3.971,4.393-4.272.759-.092,1.335.155,1.39.646.078.7-.516.771-.974.884-.384.093-.509.25-.443.63a2.309,2.309,0,0,1,0,.7,21.18,21.18,0,0,0,.523,7.08c.408,2.054.731,4.125,1.043,6.2a6.667,6.667,0,0,1-.1,1.448l-.419.03c-.936-3.944-1.318-8.009-2.4-11.878a5.692,5.692,0,0,0-.081,3.044c.557,2.288,1.129,4.572,1.66,6.866a5.445,5.445,0,0,1-.021,3.575l-1.773-7-.278.027a15.086,15.086,0,0,0,.109,2.247c.524,2.677,1.14,5.336,1.668,8.012a2.613,2.613,0,0,1-.236,2.311c-.634-3.207-1.132-6.44-2.575-9.546a2.594,2.594,0,0,0-.172.813c.267,1.77.549,3.535.865,5.295.311,1.736.691,3.46.99,5.2a2.494,2.494,0,0,1-.326,2.074,1.635,1.635,0,0,1-.231-.391q-1.178-5.687-2.343-11.393c-.436.087-.456.448-.469.845a19.729,19.729,0,0,0,.935,5.762,20.4,20.4,0,0,1,.669,6.151,4.611,4.611,0,0,1-.222.906l-.232-.01c-.265-2.068-.459-4.149-.814-6.2s-.876-4.1-1.324-6.149l-.193-.013a2.066,2.066,0,0,0-.183.678c.157,1.73.238,3.479.549,5.184.46,2.518,1.12,5,1.629,7.511a10.445,10.445,0,0,1,.02,2.033l-.243.014-3.045-12.966a18.187,18.187,0,0,0,.468,5.8c.423,2.168.946,4.317,1.363,6.487a5.4,5.4,0,0,1-.131,1.491l-.3.008a6.149,6.149,0,0,1-.321-.889c-.342-1.73-.623-3.475-1-5.2-.306-1.381-.725-2.737-1.093-4.1l-.244.042a12.5,12.5,0,0,0,.382,4.354c.458,1.506.931,3.01,1.326,4.534a6.215,6.215,0,0,1,.02,1.526l-.215.016q-1.113-3.357-2.228-6.714l-.229.048a7.317,7.317,0,0,0-.1.893,11.052,11.052,0,0,0,1.186,4.759,17.464,17.464,0,0,1,.779,1.815,24.813,24.813,0,0,1,1.244,8.278,13.3,13.3,0,0,0,1.478,6.617,6.856,6.856,0,0,1,.4.98c1.679,4.574,1.435,9.279.774,13.965a8.338,8.338,0,0,0,.148,3.606,8.379,8.379,0,0,1-.315,5.469,7.685,7.685,0,0,0-.182,3.9.7.7,0,0,0,.062.2,1.917,1.917,0,0,0,.16.222c-.008-1-.379-1.976.4-2.925.894,1.325.289,3.069,1.44,4.177a1.061,1.061,0,0,0,.017-.477c-.163-1.4-.433-2.792-.459-4.191a14.543,14.543,0,0,0-.558-4.32,4.077,4.077,0,0,1-.067-1.031l.258-.062a3.176,3.176,0,0,1,.443.819,25.627,25.627,0,0,1,.562,3.395,22.561,22.561,0,0,0,.694,5.163c.187.622.478.663.972.384a12.919,12.919,0,0,1-.745-4.971,14.556,14.556,0,0,0-.663-4.781,21.652,21.652,0,0,1-.946-4.32,8.421,8.421,0,0,1,.092-1.446l.3-.01c.1.466.209.933.307,1.4a19.091,19.091,0,0,0,.7,3.223,17.714,17.714,0,0,1,1.146,6.561,26.085,26.085,0,0,0,.4,3.346,2.831,2.831,0,0,0,.27.655,2.657,2.657,0,0,0,.166-1.153,14.684,14.684,0,0,1-.1-2.887c.4-2.445-.235-4.71-.9-7-.4-1.376-.719-2.774-1.047-4.169a2.607,2.607,0,0,1,.053-.76l.255-.053a7.512,7.512,0,0,1,.439.963c.5,1.666.992,3.335,1.452,5.013a13.785,13.785,0,0,1,.587,6.125,16,16,0,0,0,.08,3.252l.205.042c.106-.164.289-.32.307-.493a19.316,19.316,0,0,0,.34-4.611,38.637,38.637,0,0,0-1.7-6.259,25.858,25.858,0,0,1-1.539-8.073,30.036,30.036,0,0,0-.78-8.482,2.645,2.645,0,0,1,.03-.828c.3.1.48.224.522.379a25.559,25.559,0,0,1,1.032,4.16c.207,2.247.118,4.52.208,6.779a21.547,21.547,0,0,0,.341,2.341l.179-.023a27.513,27.513,0,0,1,.032-3.734c.251-1.811.856-3.564.615-5.442-.168-1.3-.211-2.612-.306-3.919-.024-.331-.035-.663-.059-1.14.979.413.949,1.16,1.049,1.827.107.706.189,1.416.287,2.16a10.089,10.089,0,0,0,.207-5.935,2.689,2.689,0,0,1,.139-.928Zm-64.953-20.481.219.234a15.844,15.844,0,0,1-.831,1.36,9.4,9.4,0,0,0-2.115,4.857c-.053.612-.068.611.607.677a11.556,11.556,0,0,1,1.8-3.954,25.835,25.835,0,0,0,1.524-2.77c.174-.331.252-.719.456-1.025.1-.152.388-.18.591-.264.064.227.239.5.17.67a3.876,3.876,0,0,1-.667,1.07,15,15,0,0,0-2.708,5.764c-.333,1.111-.254,1.136.945,1.652a4.635,4.635,0,0,1,.217-.661c.784-1.55,1.566-3.1,2.383-4.633.127-.238.434-.381.657-.567l.264.207a14.988,14.988,0,0,1-.672,1.395,15.632,15.632,0,0,0-2.025,4.179c-.132.516-.009.786.435.922.988.3,1.974.631,2.985.834,2.075.419,4.179.7,6.246,1.158a46.312,46.312,0,0,0,4.483,1.24c2.707.311,5.447.4,8.175.462,4,.094,8.008-.2,12.006.346a25.511,25.511,0,0,1,9.115,2.827,2.346,2.346,0,0,0,.649.271,4.832,4.832,0,0,1,2.507,1.634,3.894,3.894,0,0,1,1.171,2.514c.066,1.809.2,3.618.179,5.426a34.463,34.463,0,0,0,.539,7.95,23.847,23.847,0,0,1,.6,4.82,17.414,17.414,0,0,1-.956,4.975,13.534,13.534,0,0,0-.3,5.742,10.8,10.8,0,0,0,1.028-4.662c.027-.547.127-1.091.193-1.636l.245-.007a4.807,4.807,0,0,1,.259.988,11.262,11.262,0,0,1-.005,2.608c-.245,1.282-.728,2.518-1.048,3.789a4.026,4.026,0,0,0-.126,1.643c.439,2.393.952,4.771,1.438,7.156a21.55,21.55,0,0,0-.448-3.135,12.082,12.082,0,0,1,.811-8.191,10.587,10.587,0,0,0,.831-6.954,10.055,10.055,0,0,1-.025-4.692c.152-.661.184-1.348.28-2.022.043-.3.108-.594.163-.89l.251-.01a2.858,2.858,0,0,1,.287.79,4.908,4.908,0,0,1-.067,1.613,10.077,10.077,0,0,0,.16,5.3,8.881,8.881,0,0,1-.129,5.088c-.326.933-.622,1.88-1,2.791a9.631,9.631,0,0,0-.306,6.768,17.462,17.462,0,0,1,.622,2.9,19.476,19.476,0,0,1,.02,2.43c.67.009.807-.389.9-.82a7.285,7.285,0,0,0-.549-4.143c-1.132-3.086-1.282-6.12.568-9.025.2-.317.374-.656.548-.99a3.777,3.777,0,0,0,.4-2.864,13.343,13.343,0,0,1,.08-7.991,9.617,9.617,0,0,0-.848-8.039,16.079,16.079,0,0,1-1.953-5.35,5.6,5.6,0,0,1,.14-1.43l.32-.023a9.974,9.974,0,0,1,.569,1.4,14.628,14.628,0,0,0,1.66,4.337,10.907,10.907,0,0,1,1.142,9.944,12.439,12.439,0,0,0-.274,5.457,5.621,5.621,0,0,0,.3,1.05,22.523,22.523,0,0,1,.023-2.99c.259-1.884.672-3.746.983-5.623a17.017,17.017,0,0,0,.457-3.692,14.154,14.154,0,0,0-1.746-5.919,19.658,19.658,0,0,1-.982-1.875,14.551,14.551,0,0,1-1.05-5.452,18.483,18.483,0,0,0-1.9-8.609,14.345,14.345,0,0,1-1.93-6.855,2.286,2.286,0,0,0-.072-.629.488.488,0,0,0-.242-.307c-.589-.19-1.783.761-1.727,1.379a18.766,18.766,0,0,1-.761,7.12,1.975,1.975,0,0,0-.05.763c.114,1,.3,2,.357,3.009.018.312-.292.642-.451.963-.238-.229-.612-.42-.692-.7-.612-2.111-1.486-4.172-1.192-6.465a8.991,8.991,0,0,0-.352-3.7h-3.462c-.142,0-.283.007-.425,0-2.022-.033-4.044-.062-6.066-.1a9.186,9.186,0,0,1-4.057-1.1,9.2,9.2,0,0,0-4.5-1.024c-1.507.034-3.015.057-4.521.006-1.091-.037-1.521.13-1.942,1.176-.324.808-.55,1.653-.834,2.477-.292.846-.554,1.707-.921,2.519a2.323,2.323,0,0,1-.888,1.058,1.341,1.341,0,0,0-.7,1.335c-.008.683.066,1.365.044,2.047a3.51,3.51,0,0,1-.263.878c-.253-.2-.67-.366-.726-.612a16.691,16.691,0,0,1-.274-2.285,3.046,3.046,0,0,1,.055-.633l-5.281-.468c-.073.354-.145.856-.29,1.336a2.551,2.551,0,0,1-.424.629c-.158-.207-.393-.395-.456-.627a2.643,2.643,0,0,1-.035-.984,1.138,1.138,0,0,0-.96-1.407,2.394,2.394,0,0,1-1.854-3.028,12.733,12.733,0,0,1,2.641-6.316c.245-.306.481-.619.724-.933l-4.019-1.795c-.366.537-.679,1.036-1.035,1.5a2.529,2.529,0,0,1-.56.415,2.125,2.125,0,0,1-.1-.75c.141-.565.362-1.11.551-1.664a1.45,1.45,0,0,0-.57.523c-.442.7-.856,1.409-1.3,2.1a2.107,2.107,0,0,1-.448.387l-.241-.129.468-2.2a1.128,1.128,0,0,0-.621.652c-.176.608-.2,1.266-.415,1.859-.378,1.061-.847,2.088-1.2,2.937Zm27.883-28.477a45.162,45.162,0,0,0,5.748,1.774,57.727,57.727,0,0,0,7.032.555c1.146.06,2.3-.046,3.45-.089a.93.93,0,0,0,.941-.8c.187-.987.367-1.979.474-2.978a3.083,3.083,0,0,0-1.653-3.112,6.817,6.817,0,0,1-2.507-2.631,1.858,1.858,0,0,0-.463-.615,1.728,1.728,0,0,0-.765-.343c-1.532-.218-3.077-.355-4.6-.616-.829-.143-1.614-.527-2.44-.7a4.678,4.678,0,0,0-2.009-.149,4.492,4.492,0,0,0-3.026,4.465A14.618,14.618,0,0,1,285.961,12768.677Zm42.1,71.271c.328-.388.618-.784.965-1.124a11.545,11.545,0,0,1,1.977-1.785,4.067,4.067,0,0,0,2.091-4.277c-.039-.373-.112-.744-.186-1.111a9.564,9.564,0,0,1,.081-5.094,1.479,1.479,0,0,0,.059-.484c-.034-3.339-2.215-5.192-4.746-6.937a22.344,22.344,0,0,1-.269,2.9c-.676,2.98-1.408,5.95-2.168,8.911A9.764,9.764,0,0,0,328.064,12839.947Zm-64.52,7.167c.117-.351.171-.5.219-.657.5-1.634-.055-3.209-.23-4.813a3.912,3.912,0,0,0-2.239-3.1l-.912,1.745c-.616-.937-.167-1.6.1-2.273l-.188-.13-1.21,1.388-.248-.094.1-1.614c-.348.24-.593.417-.845.581-.272.179-.55.345-.825.516-.026-.322-.051-.645-.081-.966a.636.636,0,0,0-.052-.142c-.5-.181-.95-.279-1.379.238-.213.256-.636.443-.8-.133-.209-.742-.186-.732-.784-.222a1.921,1.921,0,0,1-.612.229c-.051-.169-.169-.35-.141-.5.089-.481-.149-.638-.438-.665l-.9.5c-.073-.315-.141-.632-.219-.946-.034-.137-.089-.269-.161-.48a3.937,3.937,0,0,1-.335.282c-.215.14-.436.268-.655.4-.04-.266-.082-.532-.118-.8-.006-.044.03-.094.024-.138-.021-.163-.051-.325-.078-.487-.166.087-.4.132-.485.269a7.11,7.11,0,0,0-1.236,4.956,7.936,7.936,0,0,1,.168,2.728,1.969,1.969,0,0,0,.767,1.932,19.273,19.273,0,0,1,1.447,1.858c.191.253.368.519.543.767a6.443,6.443,0,0,1,4.258-.671q1.536.205,3.082.342c.522.046.762-.223.9-.761a21.157,21.157,0,0,1,.974-2.845,8.464,8.464,0,0,1,.982-1.626,3.129,3.129,0,0,1,.706-.55c.159.293.488.619.44.873a4.994,4.994,0,0,1-.629,1.538,2.158,2.158,0,0,0-.253,1.946l.244-1.2.233-.009Zm24.47,16.52.208-.141c-.06-1.813-1.395-3.506-.558-5.419a2.321,2.321,0,0,1,.423.859c.361,1.438.735,2.873,1.041,4.322.119.563.4.709.964.688-.069-.313-.1-.568-.182-.81-.457-1.409-.924-2.815-1.39-4.223a1.074,1.074,0,0,1,.306-1.378c.947,2.127,1.53,4.28,2.466,6.339a1.348,1.348,0,0,0,.143-.836c-.143-.569-.4-1.109-.545-1.676-.477-1.837-.927-3.682-1.385-5.511-2.667.548-5.413,1.095-8.15,1.682a2.914,2.914,0,0,1-2.123-.247c-.965-.54-1.9-1.13-2.864-1.674-1.076-.608-2.168-1.187-3.253-1.779l-.2.1c.147.869.319,1.734.433,2.606.09.688.369,1.154,1.122,1.247-.116-.725-.254-1.439-.329-2.161-.019-.187.163-.394.253-.591.137.152.361.287.4.46.173.852.26,1.723.448,2.57a17.546,17.546,0,0,0,.575,1.749l.228-.075a14.26,14.26,0,0,1-.513-1.656c-.1-.53-.32-1.135.383-1.73l1.478,5.285a1.311,1.311,0,0,0,.02-.719c-.134-1.191-.274-2.382-.372-3.576-.014-.172.19-.361.293-.543.14.165.288.324.416.5.035.048.007.139.019.208.284,1.643.564,3.287.863,4.928.025.14.179.254.372.514-.013-1.705-.785-3.163-.309-4.743a2.21,2.21,0,0,1,.6,1.035c.233,1.176.419,2.361.6,3.548.059.393.149.684.694.571a6.182,6.182,0,0,0-.061-.7c-.176-.875-.387-1.744-.541-2.623a1.8,1.8,0,0,1,.152-.666,4.19,4.19,0,0,1,.53.455,1.032,1.032,0,0,1,.187.454c.21,1.027.408,2.059.621,3.147h.706c-.043-.231-.08-.433-.117-.633-.161-.855-.35-1.706-.465-2.568a2.839,2.839,0,0,1,.18-.894c.2.258.507.489.579.779.218.863.33,1.755.514,2.628a3.953,3.953,0,0,0,.325.746l.266-.09a16.076,16.076,0,0,1-.442-5.154,1.373,1.373,0,0,1,.4.7c.306,1.354.584,2.715.908,4.064.047.194.292.341.445.51.158-1.461-.83-2.7-.223-4.091a1.989,1.989,0,0,1,.558.815c.271.875.512,1.761.737,2.649.115.457.315.655.79.413-.177-1.731-.883-3.425-.3-5.184a.452.452,0,0,1,.209.293c.333,1.54.649,3.083,1.009,4.616C287.6,12863.253,287.853,12863.433,288.014,12863.634Zm-3.328-27.55a9.543,9.543,0,0,0,.111-.954,23.012,23.012,0,0,1,1.042-7.31,6.729,6.729,0,0,0,.345-1.513c.02-.229-.179-.654-.346-.692-1.211-.279-2.439-.484-3.662-.707a.6.6,0,0,0-.773.523c-.194.987-.412,1.974-.528,2.971-.184,1.586-.284,3.182-.439,4.772-.052.537-.186,1.068-.227,1.606a.563.563,0,0,0,.275.458C281.855,12835.537,283.234,12835.8,284.686,12836.084Zm20.415-72.424-.546-1.525c1.288.188,1.8,1.641,1.621,4.163.858.38.994.341,1.088-.538a19.984,19.984,0,0,0,.015-2.106l.207-.079.873,2.078a7.187,7.187,0,0,0,.521-2.185c.073-1.44-.2-2.816-1.566-3.612a21.5,21.5,0,0,0-2.97-1.395c-1.264-.5-2.566-.894-3.85-1.34a5.643,5.643,0,0,1-.53-.258c.315,1,.584,1.9.889,2.785a1.57,1.57,0,0,0,.413.645C302.519,12761.414,303.791,12762.514,305.1,12763.66Zm-48.762,66.737a2.471,2.471,0,0,0,.143-.333,3.84,3.84,0,0,0,.068-.489,8.292,8.292,0,0,1,1.608-4.886,3.509,3.509,0,0,0,.5-2.641.6.6,0,0,0-.269-.441c-1.025-.4-2.062-.76-3.1-1.122-.442-.155-.685.053-.876.456a8,8,0,0,0-.4,3.54,25.122,25.122,0,0,1-.316,3.135c-.07.51-.279,1-.343,1.511a.677.677,0,0,0,.314.567C254.535,12829.963,255.425,12830.164,256.339,12830.4Zm44.769-9.346.206-.1a3.108,3.108,0,0,1,.593.922c.25,1.2.4,2.409.613,3.612.282,1.614.1,3.31.817,4.848.459.98.939,1.951,1.41,2.926l.193-.057c-.031-.232.015-.521-.105-.687a9.131,9.131,0,0,1-1.6-4.533c-.157-1.5-.365-2.988-.542-4.482-.108-.914-.2-1.829-.3-2.744,1.075.924,1.148,2.224,1.529,3.4L303.3,12818c-1.09.856-2.1,1.543-2.98,2.377a1.78,1.78,0,0,0-.513,2.211,4.39,4.39,0,0,1,.392,1.916,15.651,15.651,0,0,0,.452,3.761c.666,3,2.313,5.563,3.489,8.428.1-1.73-.7-3.095-1.289-4.528a9.85,9.85,0,0,1-.736-2.266c-.384-2.7-.682-5.408-1-8.114A6.217,6.217,0,0,1,301.108,12821.052Zm37.043,11.839c-.316-.19-.658-.3-.659-.414a9.034,9.034,0,0,1,.164-1.5c.035-.21.193-.4.214-.611.13-1.262.2-2.53.359-3.788a9.515,9.515,0,0,0-1.973-6.705,7.642,7.642,0,0,0-.072,1.328,12.494,12.494,0,0,1-.793,5.133,8.046,8.046,0,0,0-.221,4.859,7.94,7.94,0,0,1,.2,2.1c-.093,1.169-.331,2.326-.508,3.488a3.518,3.518,0,0,1,.369-.747c.93-1.745.733-3.585.53-5.453a11.485,11.485,0,0,1,.1-2.861c.129-.9.457-1.77.673-2.66.077-.316.042-.662.13-.975.047-.167.247-.29.378-.433.128.149.312.282.37.457a1.237,1.237,0,0,1,0,.628,13.255,13.255,0,0,1-.489,1.98,6.027,6.027,0,0,0-.244,3.526,11.148,11.148,0,0,1,.109,4.837,1,1,0,0,0,0,.206l.634-.3-.344,1.584A5.983,5.983,0,0,0,338.151,12832.891Zm-84.593,17.385.23-.006a4.443,4.443,0,0,1,.205.829c.028.492-.037.99,0,1.481a2.349,2.349,0,0,0,.273.672,2.366,2.366,0,0,0,.288-.643c.049-.4-.04-.811.035-1.2a6.324,6.324,0,0,1,.475-1.451c.065-.14.391-.158.6-.231a2.119,2.119,0,0,1,.118.576c-.069.838-.158,1.676-.26,2.51-.085.7.264.92,1.013.878a5.752,5.752,0,0,1,.655-4.53c-1.182-.163-2.273-.335-3.371-.45a1.844,1.844,0,0,0-.954.167c-1.388.68-1.495.479-2.321-.5-.014-.017-.08.01-.121.018-.216,2.153.1,3.136,1.444,4.1-.078-.667-.169-1.213-.191-1.762-.008-.189.155-.387.24-.579a2.02,2.02,0,0,1,.5.394,1.221,1.221,0,0,1,.152.608c.019.562-.017,1.127.017,1.688.011.173.174.336.268.5l.2-.087A4.539,4.539,0,0,1,253.558,12850.275Zm30.808-83.828-.886-5.362a5.739,5.739,0,0,0-1.767,3.9c-.121,1.378.395,1.85,1.789,1.658C283.733,12766.613,283.958,12766.542,284.366,12766.447Zm28.238,90.665.3-.016c-.041-.872-.017-1.753-.138-2.613-.17-1.21-.468-2.4-.673-3.608a9.649,9.649,0,0,1,.273-4.606c.31-.977.506-1.99.753-2.987-.122.015-.154.05-.176.09-.219.39-.421.79-.657,1.169-1.532,2.468-1.412,5.073-.534,7.684A11.052,11.052,0,0,1,312.6,12857.112Zm-19.863,5.906c.218-2.8-1.267-5.163-1.79-7.79-.251.169-.577.407-.543.572C290.906,12858.257,291.047,12860.826,292.741,12863.019Zm35.107-49.952a2.993,2.993,0,0,0,1.406,2.331c1.01.643,2.071,1.211,3.051,1.9a17.551,17.551,0,0,1,1.712,1.546l.166-.1a5.059,5.059,0,0,0-.821-1.3c-1.358-1.147-2.781-2.217-4.179-3.315C328.763,12813.792,328.345,12813.459,327.848,12813.066Zm5.206,2.022c-1.65-1.952-4.075-3.03-5.764-5.16C327.548,12812.266,330.344,12813.815,333.054,12815.089Zm-73.957,34.267.255,6.49.29.068a4.546,4.546,0,0,0,.419-1.359c-.032-1.75-.157-3.5-.249-5.28Zm-.674,5.752c-.286-1.983-.7-3.891.362-5.746l-1.358-.082c0,1.053-.012,2.027.005,3a15.08,15.08,0,0,1,.09,1.608C257.464,12854.522,257.725,12854.854,258.423,12855.107Zm.8-77.089-.175-.085c-.394.493-.8.977-1.179,1.482-1.152,1.545-1.111,3.408-1.324,5.194-.023.191.312.426.48.641l.253-.09A10.863,10.863,0,0,1,259.219,12778.019Zm34.612,72.7,1.1,8.145A12.286,12.286,0,0,0,293.831,12850.722Zm-32.48,4.048c.777-1.98.428-4,0-6.113l-.621.341Zm32.528,6.583c.183-.4-1.061-6.391-1.606-7.038a1.97,1.97,0,0,0-.139,1.055C292.693,12857.383,293.3,12859.383,293.879,12861.353Zm-2.021-106.646c.663,1.154,1.139,2.371,2.283,3.129a28.3,28.3,0,0,0-1.239-2.739C292.69,12754.644,292.423,12754.5,291.858,12754.707Zm37.821,56.434-3.065-4.417C326.729,12808.332,328.422,12810.806,329.679,12811.141Zm-59.389,45.905c.07-.145.1-.181.1-.215-.1-1.522-.191-3.045-.331-4.564-.019-.207-.3-.391-.452-.586l-.251.118Zm63.285-36.464a8.65,8.65,0,0,0-4.355-3.847Zm-37.8-64.964c.6.9.736,2.11,1.764,2.711A3.211,3.211,0,0,0,295.779,12755.618Zm-1.784-1.042-.068.07c.454,1.122.892,2.253,1.38,3.36.078.179.377.26.574.386l.192-.2Zm-31.585,91.858-.339.053.7,4.243.243-.035Zm29.336-89.266.153-.131c-.3-.632-.625-1.256-.908-1.9-.21-.477-.456-.438-.823-.113Zm41.591,81.17-.155-.169a5.555,5.555,0,0,0-2.5,2.3Zm-62.646,23.136.367-.034-.539-3.412-.216.028Zm32.008-13.521-.227.045.417,2.7.176-.027Z" fill="#2b4937"/>
      <path id="Caminho_1064" data-name="Caminho 1064" d="M269.681,12800.415a1.711,1.711,0,0,1-1.818-1.65,2,2,0,0,1,1.908-2.117,1.739,1.739,0,0,1,1.949,1.9C271.757,12799.714,271.052,12800.361,269.681,12800.415Z" fill="#2b4937"/>
      <path id="Caminho_1065" data-name="Caminho 1065" d="M300.5,12785.336c-.5-.676.3-2.776,1.389-3.913Z" fill="#2b4937"/>
      <path id="Caminho_1066" data-name="Caminho 1066" d="M313.62,12775.067c-.157.467-.285.892-.449,1.3a.273.273,0,0,1-.536-.089,7.828,7.828,0,0,1,.247-1.364c.039-.134.3-.257.473-.271C313.431,12774.639,313.53,12774.916,313.62,12775.067Z" fill="#2b4937"/>
      <path id="Caminho_1067" data-name="Caminho 1067" d="M320.662,12794.412c-.191-.283-.392-.452-.37-.584a.6.6,0,0,1,.4-.356c.077-.02.318.224.318.347C321.01,12793.973,320.839,12794.129,320.662,12794.412Z" fill="#2b4937"/>
      <path id="Caminho_1068" data-name="Caminho 1068" d="M263.318,12796.214l-.67.755c-.129-.131-.391-.331-.365-.382a3.789,3.789,0,0,1,.623-.9c.055-.057.348.116.532.185Z" fill="#2b4937"/>
      <path id="Caminho_1069" data-name="Caminho 1069" d="M267.655,12849.51v-2.227l.191-.007.128,2.219Z" fill="#2b4937"/>
      <path id="Caminho_1070" data-name="Caminho 1070" d="M280.211,12851.982a2.01,2.01,0,0,1-2.225-1.775,2.267,2.267,0,1,1,4.515-.324A2.233,2.233,0,0,1,280.211,12851.982Z" fill="#2b4937"/>
      <path id="Caminho_1071" data-name="Caminho 1071" d="M277.367,12853.561c-1.019-.656-2.044-1.3-3.056-1.973-.72-.475-1.427-.972-2.131-1.471-.08-.058-.1-.194-.237-.457a3.383,3.383,0,0,1,.672.177c1.977,1.108,3.954,2.217,5.919,3.348a5.357,5.357,0,0,0,4.117.428,37.818,37.818,0,0,0,4.388-1.248c1.394-.528,2.808-1.155,3.051-2.962.042-.309.39-.575.6-.86l.277.123c-.092.4-.189.8-.274,1.21a3.611,3.611,0,0,1-3.006,2.883c-1.2.3-2.325.9-3.526,1.2a8.912,8.912,0,0,1-4.5.408c-.788-.214-1.544-.546-2.313-.825Z" fill="#2b4937"/>
      <path id="Caminho_1072" data-name="Caminho 1072" d="M253.292,12845.228c-1.236-.043-1.85-.512-1.817-1.388a1.91,1.91,0,0,1,1.933-1.9,1.343,1.343,0,0,1,1.468,1.428C254.829,12844.512,254.192,12845.259,253.292,12845.228Z" fill="#2b4937"/>
      <path id="Caminho_1073" data-name="Caminho 1073" d="M260.211,12842.719a1.983,1.983,0,0,1-.039.527,19.8,19.8,0,0,1-.872,2.222,1.212,1.212,0,0,1-.835.563c-1.892.167-3.79.265-5.686.391-.675.045-1.675-.9-1.866-1.8.069,0,.168-.014.187.016.683,1.1,1.7,1.014,2.806.909,1.307-.123,2.629-.1,3.945-.1.677,0,1.191-.089,1.3-.91a5.765,5.765,0,0,1,.427-1.34,2.921,2.921,0,0,1,.4-.57Z" fill="#2b4937"/>
      <path id="Caminho_1074" data-name="Caminho 1074" d="M283.442,12833.861c-.025.439-.368.671-.874.687a.97.97,0,0,1-.959-1.072c.033-.52.231-.928.841-.912A1.207,1.207,0,0,1,283.442,12833.861Z" fill="#2b4937"/>
      <path id="Caminho_1075" data-name="Caminho 1075" d="M254,12828.3c.292-.2.562-.516.881-.577.416-.081.707.23.7.68-.011.473-.261.88-.75.819-.3-.037-.558-.394-.836-.607Z" fill="#2b4937"/>
    </g>
  </g>
</svg>
