<svg xmlns="http://www.w3.org/2000/svg" width="112.64" height="120.372" viewBox="0 0 112.64 120.372">
  <g id="UaNHy7.tif" transform="translate(-240.726 -14392.747)">
    <g id="Grupo_749" data-name="Grupo 749">
      <path id="Caminho_1076" data-name="Caminho 1076" d="M296.823,14513.119c-.784-.051-1.568-.135-2.353-.146a45.99,45.99,0,0,1-20.4-5.059,22.884,22.884,0,0,1-2.788-1.836,1.031,1.031,0,0,1-.268-1.477c.495-.972.89-1.993,1.381-2.968a12.54,12.54,0,0,1,1.153-1.9,2.948,2.948,0,0,0,.546-1.775c.116-2.246.378-4.484.583-6.725.007-.068.013-.136.022-.243-.558-.263-1.108-.561-1.687-.785a16.039,16.039,0,0,1-7.046-5.742c-.632-.857-1.183-1.777-1.749-2.681a7.67,7.67,0,0,1-.87-5.166c.315-2.817.461-5.652.671-8.48.212-2.853.388-5.709.629-8.559.425-5.029.858-10.059,1.344-15.081.448-4.629.914-9.258,1.477-13.874.384-3.157.878-6.306,1.455-9.436a9.461,9.461,0,0,1,2.9-5.217,16.642,16.642,0,0,1,4.271-3.438,20.558,20.558,0,0,1,6.869-1.887c.413-.409.776-.743,1.1-1.11a.864.864,0,0,0,.2-.512c.049-1.969.08-3.938.118-5.908a1.606,1.606,0,0,0,.028-.415,2.807,2.807,0,0,1,1.495-3.241,20.762,20.762,0,0,1,4.572-1.985,30.892,30.892,0,0,1,4.369-.69,2.945,2.945,0,0,1,4.246-3.574,2.614,2.614,0,0,1,1.041,3.546c1.231.214,2.4.421,3.561.619a13.317,13.317,0,0,1,4.807,1.976,3.456,3.456,0,0,1,1.687,2.538,27.406,27.406,0,0,1,.157,3.242c0,1.3-.084,2.6-.117,3.9a.725.725,0,0,0,.136.472c.349.373.733.713,1.2,1.161a10.9,10.9,0,0,1,1.186.123,17.845,17.845,0,0,1,9.122,4.294c2.8,2.61,3.927,5.815,4.393,9.38.591,4.517,1.062,9.052,1.548,13.583.463,4.323.914,8.649,1.306,12.98.355,3.913.622,7.837.927,11.755.361,4.636.61,9.283,1.13,13.9a8.68,8.68,0,0,1-1.328,5.9,19.035,19.035,0,0,1-5.963,6.363c-1.289.776-2.68,1.385-4.052,2.084.16,1.39.358,2.836.481,4.287.086,1.016.054,2.04.106,3.06a1.676,1.676,0,0,0,.223.886,26.854,26.854,0,0,1,2.578,4.774c.808,1.686.494,1.876-.844,2.673a47.654,47.654,0,0,1-6.1,3.042,44.112,44.112,0,0,1-16.189,3.226c-.809.018-1.616.1-2.424.147Zm-13.593-63.179-.258-.076a16.59,16.59,0,0,1,.527-1.716c.19-.454.516-.894,1.1-.783a1.226,1.226,0,0,1,1.057,1.07,11.311,11.311,0,0,1,.17,2.626c-.206,1.82-.547,3.627-.866,5.432a.931.931,0,0,0,.439,1.094,36.344,36.344,0,0,1,4.226,3.075,56.9,56.9,0,0,0,6.17,4.542.818.818,0,0,0,.736.02c2.049-1.282,4.135-2.519,6.093-3.932a46.377,46.377,0,0,0,4.708-3.931c2.227-2.107,4.352-4.323,6.5-6.515a1.029,1.029,0,0,0,.25-.8,69.478,69.478,0,0,0-5.556-15.448c-.188-.386-.425-.405-.783-.326a36.734,36.734,0,0,1-8.871.788c-2.045-.049-4.088-.24-6.131-.229a22.44,22.44,0,0,1-5.949-.551c-.488-.13-.715.02-.9.462-1.035,2.438-2.249,4.813-3.1,7.311-1.113,3.249-1.954,6.593-2.883,9.9a.912.912,0,0,0,.233.713c.572.61,1.2,1.167,1.792,1.759.736.734,1.458,1.481,2.264,2.3.089-.3.151-.47.187-.642.173-.816.306-1.644.514-2.452a13.658,13.658,0,0,0,.321-5.459c-.076-.514-.375-.6-.723-.386a2.2,2.2,0,0,0-.722.793A10.986,10.986,0,0,0,283.23,14449.94Zm23.923,28.923c.261.686.623,1.492.874,2.331a4.328,4.328,0,0,0,1.9,2.563c.434.27.831.609,1.286.833a1.493,1.493,0,0,0,.962.157,23.242,23.242,0,0,0,9.748-4.925,2.707,2.707,0,0,0,.91-2.169c-.083-2.323-.255-4.646-.443-6.963q-.641-7.894-1.333-15.781c-.47-5.328-.941-10.656-1.471-15.979-.421-4.232-.843-8.47-1.434-12.681a11.925,11.925,0,0,0-3.943-7.5,5.127,5.127,0,0,0-2.431-1.177v5.733c.5-.043.821-.091,1.143-.095a1.062,1.062,0,1,1,.172,2.114c-.754.138-1.505.3-2.263.4-.47.063-.676.222-.677.738,0,2.047-.06,4.094-.073,6.142a2.051,2.051,0,0,0,.216.8c.725,1.659,1.467,3.313,2.2,4.97a46.37,46.37,0,0,1,3.269,9.7,1.167,1.167,0,0,0,.559.666c.65.355.93.956.515,1.555a1.415,1.415,0,0,0-.126,1.365,25.893,25.893,0,0,1,.344,13.784,20.84,20.84,0,0,1-3.954,7.71,1.065,1.065,0,0,0-.213.822c.323.99-.2,1.659-1.248,1.546a.83.83,0,0,0-.554.122C309.793,14476.684,308.509,14477.749,307.153,14478.863Zm-19.755-.108a1.7,1.7,0,0,0-.2-.184,17.385,17.385,0,0,1-4.813-4.09,1.11,1.11,0,0,0-.785-.208c-.95.014-1.621-.826-1.186-1.613a.784.784,0,0,0-.079-.983,19.231,19.231,0,0,1-2.784-5.755,26.3,26.3,0,0,1-.354-12.1,1.84,1.84,0,0,0-.19-1.5c-.453-.7-.277-1.527.316-1.562.837-.048.843-.608.991-1.14.143-.515.3-1.027.412-1.55a66.093,66.093,0,0,1,5.331-14.424,2.483,2.483,0,0,0,.336-.977c0-2.117-.061-4.233-.079-6.351,0-.392-.169-.52-.522-.575-.8-.126-1.6-.285-2.4-.43a1.082,1.082,0,0,1-1.027-1.178,1.1,1.1,0,0,1,1.259-.937c.313.009.626.046,1.1.083v-5.891a14.349,14.349,0,0,0-2.429,1.362,11.546,11.546,0,0,0-3.975,7.552c-.666,5-1.193,10.02-1.7,15.038-.322,3.193-.458,6.4-.754,9.6-.462,4.978-1.043,9.946-1.472,14.927-.339,3.939-.561,7.89-.749,11.84a2.6,2.6,0,0,0,.911,2.1,23.722,23.722,0,0,0,8.334,4.537c1.349.451,2.433.53,3.488-.486.481-.464,1.18-.795,1.468-1.348C286.47,14481.318,286.9,14480.008,287.4,14478.755Zm-8.9,12.942.177.191,8.751-6.522c-1.741,3.081-4.845,4.737-7.344,7.059a1.092,1.092,0,0,0,.684-.181c1.973-1.653,3.932-3.323,5.9-4.985.222-.187.465-.35.7-.523l.2.2c-1.137,2.546-3.484,4.029-5.429,5.944.428.05.953.159,1.224-.054a12.539,12.539,0,0,0,3.211-3.455,7.831,7.831,0,0,1,.965-1.276c.14-.154.417-.185.631-.271a2.051,2.051,0,0,1-.015.693,11.4,11.4,0,0,1-3,4.313,3.591,3.591,0,0,1-.712.385c1.04.591,1.546.3,1.951-.376q1-1.674,2.046-3.321a8.1,8.1,0,0,1,.661-.8l.261.162c-.136,1.883-1.2,3.373-2.341,4.862.8.28,1.339.165,1.666-.572.375-.848.783-1.682,1.166-2.528a7.591,7.591,0,0,1,.362-.9c.117-.188.365-.295.554-.438.081.2.259.427.224.61a12.918,12.918,0,0,1-.53,2.146,17.539,17.539,0,0,1-.97,1.9c1.313.426,1.485.344,1.825-.861.12-.424.185-.866.335-1.279a10.745,10.745,0,0,1,.6-1.16c.551,1.411-.1,2.5-.27,3.618.583.282.822.054.976-.483.31-1.077.674-2.138,1.016-3.205l.339.057-.242,3.756h.61c.115-.569.229-1.112.335-1.657.092-.479.158-.962.274-1.435.03-.125.2-.215.311-.32.1.11.247.207.295.338a1.461,1.461,0,0,1,.092.613c-.072.849-.171,1.694-.264,2.577l1.011.137c.47-1.17-.03-2.463.654-3.552.647,1.132.284,2.354.442,3.547l1.294-.177v-3.522c1.052.974.708,2.248.891,3.428h1.623c.041-1.536-.779-2.921-.494-4.456a16.739,16.739,0,0,1,1.524,4.381l.836-.1c-.44-1.263-.863-2.436-1.246-3.619a2.3,2.3,0,0,1,.02-.755,3.426,3.426,0,0,1,.6.443,1.921,1.921,0,0,1,.263.565c.444,1.088.886,2.177,1.334,3.279l1.3-.2c-.609-1.393-1.917-2.392-1.9-4.024a1.688,1.688,0,0,1,.668.572c.616.986,1.2,1.994,1.811,2.98.107.171.323.393.485.39.612-.011,1.222-.1,2.054-.189-.72-.652-1.294-1.118-1.8-1.647a3.277,3.277,0,0,1-1.262-1.98,8.086,8.086,0,0,1,.807.515c.938.795,1.846,1.626,2.8,2.4.71.574.8.546,1.61.135-.837-.877-1.678-1.785-2.549-2.663s-1.749-1.705-2.626-2.556l.183-.256a2.9,2.9,0,0,1,.724.348c1.648,1.459,3.318,2.9,4.892,4.431.566.552,1.006.465,1.676.175-.312-.271-.57-.491-.823-.717-.9-.808-1.816-1.6-2.69-2.433a1.237,1.237,0,0,1-.463-1.493c1.863,1.4,3.488,2.956,5.229,4.5l1.365-.56c-.523-.368-.9-.685-1.317-.917a40.333,40.333,0,0,1-7.354-5.817.782.782,0,0,0-.589-.122c-1.293.247-2.57.584-3.869.778a33.886,33.886,0,0,1-8.621.3c-2.49-.262-5.018-.3-7.347-1.428-.213-.1-.566.083-.854.135.568.417.64.626.274,1.026a5.836,5.836,0,0,1-.89.781c-1.53,1.1-3.085,2.162-4.6,3.274C279.991,14490.423,279.258,14491.077,278.5,14491.7Zm30.582-16.755c-1.8-.846-3.55-1.683-5.32-2.473a1,1,0,0,0-.747.174,6.337,6.337,0,0,1-2.9.9,16.394,16.394,0,0,1-8.523-1.227c-.744-.353-1.5-.984-2.238-.958-.751.026-1.464.736-2.222,1.088-.923.426-1.876.789-2.842,1.19a1.558,1.558,0,0,0,.144.3,10.9,10.9,0,0,0,7.7,4.135c1.756.139,3.526.1,5.288.175a23.688,23.688,0,0,0,7.66-.751A9.954,9.954,0,0,0,309.081,14474.942Zm5.854-21.773c-1.366,1.3-2.7,2.559-4.02,3.832a.782.782,0,0,0-.24.475,20.23,20.23,0,0,0,.032,2.161,10.982,10.982,0,0,1-2.038,7.433c-.938,1.345-2.089,2.543-3.277,3.965,1.73.645,3.392,1.276,5.067,1.871a.651.651,0,0,0,.569-.223,44.011,44.011,0,0,0,2.5-3.936,19.212,19.212,0,0,0,2.116-8.1A25.154,25.154,0,0,0,314.935,14453.169Zm-36.593,52.218.109-.222a3.422,3.422,0,0,1,.522.048c1.262.306,2.549.539,3.776.951a27.694,27.694,0,0,0,9.7,1.226c1.6-.044,3.216-.116,4.814-.017a58.777,58.777,0,0,0,12.116-.348c.874-.125,1.749-.262,2.609-.457a5.719,5.719,0,0,0,1.135-.56c-2.787.351-5.384.854-8,.961-3.713.151-7.442.108-11.158-.037a65.731,65.731,0,0,1-9.426-.85,56.572,56.572,0,0,1-7.471-2.419c-.063-.022-.1-.136-.18-.265a2.133,2.133,0,0,1,1.708.128,55.886,55.886,0,0,0,6.118,1.86,38.713,38.713,0,0,0,6.515.58c6.422.138,12.852.242,19.193-1.075,1.454-.3,2.89-.7,4.322-1.09.255-.069.452-.352.676-.537l-.124-.173a3.019,3.019,0,0,0-.324.082,36.624,36.624,0,0,1-8.972,1.961c-1.777.2-3.577.178-5.358.342a46.987,46.987,0,0,1-11.667-.389c-2.058-.323-4.108-.728-6.138-1.2-1.624-.376-3.218-.885-4.811-1.384-.3-.095-.535-.422-.8-.641a4.216,4.216,0,0,1,.995.021c2.421.637,4.814,1.4,7.257,1.926,1.829.4,3.722.493,5.582.758a28.077,28.077,0,0,0,7.295.2c2.237-.267,4.48-.493,6.714-.784,1.325-.173,2.639-.435,3.959-.656a10.289,10.289,0,0,0-1.806.091c-3.263.307-6.522.764-9.792.855a61.812,61.812,0,0,1-7.3-.539c-4.6-.42-9.138-1.143-13.354-3.2a.736.736,0,0,0-.663.17,3.591,3.591,0,0,0-.8,2.4.923.923,0,0,0,.18.637,11.321,11.321,0,0,0,2.046,1.65,16.387,16.387,0,0,0,3.155,1.25c2.315.672,4.63,1.388,6.993,1.84a60.349,60.349,0,0,0,12.452.686,4.675,4.675,0,0,0,.7-.114l-.013-.172c-2.926-.132-5.855-.228-8.778-.41a41.276,41.276,0,0,1-5.746-.595c-2.358-.485-4.66-1.25-6.976-1.926A4.71,4.71,0,0,1,278.342,14505.387Zm9.519-35.746c-.289-.35-.542-.647-.786-.954-1.263-1.583-2.591-3.142-2.849-5.257-.146-1.192-.218-2.4-.261-3.6a1.246,1.246,0,0,0-.52-1.048c-.668-.535-1.287-1.134-1.907-1.728-.751-.717-1.481-1.456-2.321-2.284-.064.353-.1.549-.135.746a24.432,24.432,0,0,0-.122,6.466,19.945,19.945,0,0,0,3.551,9.419.626.626,0,0,0,.876.276c1.238-.53,2.484-1.044,3.72-1.58A6.534,6.534,0,0,0,287.861,14469.641ZM302,14408.552c1.076-.153,2.15-.323,3.229-.459a2.243,2.243,0,0,0,1.928-1.6,8.584,8.584,0,0,0,.281-1.974c.051-.552-.3-.818-.8-.853a4.015,4.015,0,0,0-1.032.1c-2.07.408-4.122.991-6.211,1.194a25.59,25.59,0,0,1-5.2-.22c-1.821-.2-3.62-.595-5.435-.866a2.315,2.315,0,0,0-2.223,1.146,2.155,2.155,0,0,0,1.287,2.4,13.839,13.839,0,0,0,5.395.054,6.137,6.137,0,0,1,3.708.1A17.99,17.99,0,0,0,302,14408.552Zm-3.8,58.038-.007.32c1.877,1.054,3.759,2.1,5.627,3.169a.757.757,0,0,0,1.049-.148c.672-.706,1.348-1.408,2.02-2.115a9.442,9.442,0,0,0,2.7-4.945c.243-1.459.341-2.943.492-4.417a2.536,2.536,0,0,0-.1-.562A54.229,54.229,0,0,1,298.2,14466.59Zm-11.57-65.257c7.144,1.241,14.089,1.926,21.126-.075a2.443,2.443,0,0,0-.429-.376c-1.345-.632-2.677-1.3-4.054-1.851a5.757,5.757,0,0,0-2.109-.423c-2.554,0-5.108.111-7.662.146a13.494,13.494,0,0,0-6.285,2.093A5.064,5.064,0,0,0,286.628,14401.333Zm7.7,15.1c.482.106.861-.017.952-.523.1-.563.094-1.145.166-1.713a6.707,6.707,0,0,1,.217-.861c.237.249.579.46.683.756a3.3,3.3,0,0,1,.046,1.173c-.011.3-.074.6-.115.9,1.094-1.129.738-2.512.788-3.851,1.39,1.085.965,2.461.559,3.97,1.391-1.545.5-3.149.462-4.841.308.23.573.33.669.517a4.674,4.674,0,0,1,.341,4.277.993.993,0,0,0,.445-.418,5.029,5.029,0,0,0,.322-3.008,1.932,1.932,0,0,0-1.786-1.54c-1.713-.127-3.427-.3-5.142-.329-2.416-.035-4.835.057-7.252.073-.511,0-.8.194-.831.706-.066,1.06-.155,2.119-.156,3.179,0,.3.272.6.444.945.411-.343.6-.941,1.052-.422.337.394.548.343.91.05.168-.135.642-.177.745-.058.608.7.735.709,1.388.11a5.559,5.559,0,0,1,.982-.59v1.269c1.288.5,1.527-1.177,2.449-1.572l.187.116-.4,1.8c1.532-.383,1.129-1.947,1.694-2.878C294.887,14414.171,294.9,14414.435,294.332,14416.433Zm1.465,4.876.188-.022a1.482,1.482,0,0,1,.229.391c.2.944.381,1.893.577,2.882h.843c0-.609-.037-1.169.011-1.72.046-.529-.169-1.127.225-1.586l.29,0,.281,3.4h1.083c-.063-1.1-.149-2.141-.163-3.183,0-.225.254-.452.392-.68.141.222.376.432.407.669.14,1.072.222,2.152.333,3.323.447-.3,1.134.135,1.231-.623.111-.875.148-1.759.257-2.634a2.356,2.356,0,0,1,.309-.663,2.285,2.285,0,0,1,.272.634c.091.957.143,1.919.208,2.866.588.088.806-.142.809-.68.006-.906.06-1.812.084-2.718.01-.378-.044-.831.489-.828s.5.467.5.838c.008,1.041,0,2.083,0,3.138.824.15.848.132.874-.721s.074-1.676.077-2.513c0-.521-.06-1.043-.089-1.5a162.037,162.037,0,0,1-16.766-.059l.444,4.81c.491-1.451-.172-2.912.437-4.27a1.191,1.191,0,0,1,.348.658c.126,1.083.21,2.172.348,3.254.025.19.238.357.364.537l.2-.129c-.08-1.013-.174-2.025-.228-3.041a1.749,1.749,0,0,1,.211-.6c.142.175.374.333.411.528.182.957.295,1.927.475,2.885.035.185.259.334.466.586,0-1.181-.019-2.133.014-3.082a2.226,2.226,0,0,1,.285-.7,3.042,3.042,0,0,1,.4.649,4.374,4.374,0,0,1,.151.959c.057.687.1,1.376.144,2.087l.84.082c0-.35,0-.625,0-.9-.012-.721-.048-1.442-.025-2.163,0-.182.192-.357.295-.536a6.309,6.309,0,0,1,.387.506c.043.068.011.182.022.274.114.939.23,1.878.352,2.871l.7-.045Zm16.434,73.676c-3.494.442-6.829.865-10.192,1.293l.327,5.938,1.029-.165c0-1.369-.012-2.668.009-3.966a4.868,4.868,0,0,1,.187-.906l.276.027c.827,1.469.292,3.142.562,4.762l1.856-.205c.1-1.969-.2-3.856.168-5.732.891,1.746.738,3.657.886,5.564.518-.06.953-.126,1.391-.155.462-.032.629-.224.587-.711-.11-1.272-.181-2.55-.233-3.825a4.811,4.811,0,0,1,.162-.98l.334.007a13.979,13.979,0,0,1,.66,5.111c.5.062.627-.168.617-.568-.035-1.346-.07-2.691-.071-4.038a2.143,2.143,0,0,1,.258-.688c.148.2.4.388.426.6.127,1.245.2,2.5.289,3.744.014.194.035.388.052.585.791-.126.83-.128.788-.8C312.495,14498.214,312.352,14496.551,312.231,14494.984Zm-18.355-28.354-9.25-7.02c-.365,3.947,1.4,6.772,3.891,9.275a.756.756,0,0,0,.66.021c.808-.351,1.6-.745,2.388-1.131C292.33,14467.4,293.091,14467.021,293.876,14466.631Zm8.4,5.2c-2.115-1.312-4.038-2.514-5.979-3.687a.81.81,0,0,0-.636.038c-1.5.687-2.989,1.395-4.478,2.1a4.383,4.383,0,0,0-.465.3A15.587,15.587,0,0,0,302.276,14471.827Zm-3.054,30.815v-6.506h-5.756c.062.535.139.9.142,1.27.013,1.487.009,2.975,0,4.462,0,.393.043.693.567.567.3-1.678.144-3.4.689-5.036a11.358,11.358,0,0,1,.547,5.273l1.29.112c0-1.8-.009-3.49.008-5.184a9.362,9.362,0,0,1,.154-1.168l.312,0c.859,2.016.51,4.2.654,6.364ZM324.5,14467.4l-.055.007c-.08.936-.169,1.871-.236,2.808a4.3,4.3,0,0,0,.069.691,56.741,56.741,0,0,1,.527,5.94c-.01,1.174.081,2.528-1.06,3.479-1.047.871-1.927,1.952-3.007,2.774-1.3.992-2.741,1.8-4.106,2.712a2.357,2.357,0,0,0-.454.594,2.285,2.285,0,0,0,.792-.058,9.377,9.377,0,0,0,1.181-.727,32.335,32.335,0,0,0,4.777-3.184,8.07,8.07,0,0,0,2.455-7.058c-.152-1.823-.424-3.635-.632-5.454C324.653,14469.083,324.581,14468.239,324.5,14467.4Zm3.091,4.652-.193.028a3.713,3.713,0,0,0-.074.561c.034,1.946.094,3.893.1,5.838a2.105,2.105,0,0,1-.318,1.049,9.027,9.027,0,0,1-1.386,1.965c-1.815,1.688-3.7,3.3-5.583,4.916-.47.4-1.065.655-1.571,1.021-.123.089-.12.353-.174.535a1.281,1.281,0,0,0,.5-.016,8.578,8.578,0,0,0,1.328-.759c1.114-.833,2.184-1.723,3.3-2.557a12.935,12.935,0,0,0,4.347-5.489,1.567,1.567,0,0,0,.151-.6q-.076-2.955-.192-5.91A1.9,1.9,0,0,0,327.589,14472.05Zm-19.649,12.394-.166.185a9.172,9.172,0,0,0,.709.791c.824.738,1.627,1.51,2.516,2.163,1,.735,2.08,1.369,3.141,2.021.807.5,1.674.9,2.445,1.443.423.3.667.3.975-.082C314.764,14488.149,310.929,14486.935,307.94,14484.443Zm-8.218,11.781.444,6.317c.378-.214,1.134.179,1.156-.6.054-1.89.018-3.78.018-5.715Zm-33.379-16.445.344-.048a5.047,5.047,0,0,0-.006-.778,14.245,14.245,0,0,1-.412-2.519,45.645,45.645,0,0,1,.425-4.994c.395-2.872.894-5.729,1.319-8.6.111-.746.107-1.51.155-2.266l-.245-.026c-.069.441-.149.88-.2,1.322a23.405,23.405,0,0,1-.431,3.381,43.447,43.447,0,0,0-1.333,10.828,23.794,23.794,0,0,0,.049,2.418A7.182,7.182,0,0,0,266.343,14479.779Zm24.016,22.135c.019-.28.048-.55.053-.821.02-1.209-.013-2.422.063-3.628.09-1.437.13-1.435-1.3-1.6-.038,0-.08.03-.1.038.065,1.723.138,3.434.192,5.146C289.3,14501.949,289.288,14501.949,290.359,14501.914Zm1.058-5.773v5.978l1.207.13v-6.047Zm-20.748-15.648-.137.127c.032.1.033.239.1.3a13.145,13.145,0,0,0,2.106,1.9c2.106,1.239,4.291,2.345,6.446,3.5a.652.652,0,0,0,.324.107.478.478,0,0,0,.344-.16.367.367,0,0,0-.077-.353,20.1,20.1,0,0,0-1.86-1.207c-.6-.326-1.265-.544-1.894-.826a10.53,10.53,0,0,1-1.112-.562c-1.011-.606-2.021-1.215-3.01-1.856C271.463,14481.181,271.078,14480.818,270.669,14480.492Zm11.005,20.085c-.075-1.7-.157-3.175-.188-4.653-.005-.233.222-.472.341-.709.155.226.422.439.446.677.132,1.34.2,2.685.3,4.027.019.256.065.51.1.765l.215-.015v-5.716l-2.178-.5c.151,1.96.284,3.8.449,5.647C281.171,14500.229,281.413,14500.341,281.674,14500.577Zm32.991-6.256c.293,1.766.576,3.472.863,5.2.343-.161,1.034-.091.975-.74-.145-1.6-.4-3.2-.625-4.854Zm-8.1-70.379c.769.216,1.1-.037,1.144-.728.084-1.383.181-2.765.279-4.253l-1.423.212Zm-22.738,71.282c0,1.716.034,3.405-.017,5.093-.02.66.2.883,1.013.791,0-1.625-.04-3.266.018-4.9C284.863,14495.451,284.623,14495.133,283.823,14495.225Zm13.843-101.1a7.628,7.628,0,0,0-1.386.795,1.024,1.024,0,0,0-.039,1.454c.183.219.718.181,1.1.187a2.851,2.851,0,0,0,.732-.192c.5-.134.944-.329.895-.957A1.73,1.73,0,0,0,297.666,14394.129Zm19.956,104.41a.721.721,0,0,0,.7-.867c-.061-.925-.08-1.854-.163-2.778-.055-.6-.191-1.2-.291-1.8l-.225-.115c-.281.3-.83.64-.8.906C317.026,14495.439,317.346,14496.978,317.622,14498.539Zm-17.547-87.163a5.222,5.222,0,0,1,.464,4.9c.995-.214,1.709-1.56,1.6-2.921A2.152,2.152,0,0,0,300.075,14411.376Zm13.757,83.047-.92.234.832,5.7c.255-.251.688-.488.671-.689C314.271,14497.949,314.045,14496.236,313.832,14494.423Zm-36.008-.788c0,1.614.019,3.214-.01,4.813-.011.589.234.85.856.9,0-.244.006-.471,0-.7-.043-1.393-.127-2.785-.118-4.178C278.554,14493.846,278.267,14493.671,277.824,14493.635Zm10.316,8.1v-5.956l-.816-.087v5.918Zm-17.426-18.666-.14.163c.011.064,0,.155.036.19a24.386,24.386,0,0,0,2.676,2.366,41.044,41.044,0,0,0,3.966,2.158c.126.064.357-.072.54-.116-.076-.152-.111-.379-.233-.443-.55-.292-1.14-.511-1.687-.808a26.66,26.66,0,0,1-2.444-1.429C272.491,14484.5,271.616,14483.768,270.714,14483.07Zm15.236-64.184c.125,1.58.237,3.08.371,4.578a1.523,1.523,0,0,0,.238.481l.232-.065c0-.245.01-.49,0-.733-.049-.95-.124-1.9-.146-2.852a4.209,4.209,0,0,1,.221-.956c.232.171.388.227.4.3.242,1.407.467,2.817.7,4.227h.045v-4.7Zm-13.258,1.854.244.083a2.246,2.246,0,0,0,.381-.531c.75-2.193,2.766-3.031,4.465-4.209.166-.115.313-.259.468-.39a2.5,2.5,0,0,0-.73-.166,1.223,1.223,0,0,0-.539.3c-.641.462-1.248.977-1.918,1.392a5.857,5.857,0,0,0-2.313,2.972A2.016,2.016,0,0,0,272.692,14420.741Zm1.425,1.78c.114-.024.273-.01.32-.075,1.331-1.836,2.544-3.773,4.478-5.08.087-.059.1-.229.153-.371C277.452,14417.187,274.115,14420.925,274.117,14422.521Zm-5.181,61.822c.261,1.316,4.275,4.509,5.721,4.45Zm15.24,1.883a30.867,30.867,0,0,0-7.323,4.785C277.4,14491.106,282.913,14487.456,284.176,14486.227Zm24.687-62.452c.737-.231,1.257-3.058.806-4.931l-.806.054Zm-32.264,74.82.212-.123c.164-1.547-.036-5.229-.41-5.532-.133,1.642-.291,3.2-.355,4.767C276.034,14497.994,276.4,14498.3,276.6,14498.595Zm42.818-75.87c.534-1.546-.942-4.847-1.853-4.718Zm-33.467,78.768.3-.072c0-1.844.008-3.688-.018-5.534,0-.133-.249-.262-.459-.469,0,1.994-.005,3.771.008,5.548A1.86,1.86,0,0,0,285.95,14501.492Zm-5.832-1.485c-.1-1.893-.2-3.706-.316-5.517-.006-.1-.216-.183-.38-.312C279.192,14495.779,279.6,14499.72,280.118,14500.007Zm13.682-68.523c-.168-.151-.4-.514-.725-.615-.446-.144-1.138.452-1.159.87a.865.865,0,0,0,.928.825C293.355,14432.532,293.724,14432.3,293.8,14431.483Zm25.85-14.265,1.5,4.63C321.528,14420.664,320.5,14417.5,319.65,14417.219Zm-14.316,9.829c-.181-.148-.433-.5-.757-.589-.455-.126-.889.385-.885.922,0,.459.216.774.7.759C304.918,14428.124,305.253,14427.845,305.334,14427.048Zm-20.443-3.27.115-.06.26-4.812-.168-.128c-.132.133-.374.262-.378.4-.037,1.391-.042,2.782-.035,4.173C284.685,14423.493,284.819,14423.636,284.891,14423.778Zm19.8,6.939c-.459.039-.863.216-.885.759-.02.515.357.745.81.777.513.036.766-.312.806-.773S305.2,14430.75,304.693,14430.718Zm-1.675-15.016a2.228,2.228,0,0,0,0-3.414Zm-4.293,12.794c.623-.146,1.062-.329.964-.829a1.165,1.165,0,0,0-.767-.692.63.63,0,0,0-.791.709C298.166,14427.974,298.517,14428.226,298.725,14428.5Zm-11.238,1.75c-.389.469-.782.734-.833,1.053-.078.489.353.727.819.714a.689.689,0,0,0,.739-.81C288.167,14430.921,287.835,14430.686,287.487,14430.246Zm13.912,50.6c.183.113.454.417.728.42a.743.743,0,0,0,.757-.881.952.952,0,0,0-.668-.605C301.7,14479.72,301.449,14480.109,301.4,14480.847Zm-4.611-51.447c-.473-.312-.726-.6-1.013-.643-.517-.072-.73.331-.729.791,0,.438.237.841.7.728C296.068,14430.2,296.316,14429.813,296.788,14429.4Zm-4.955,53.433c-.149-.108-.38-.413-.61-.412a.754.754,0,0,0-.837.809.935.935,0,0,0,.673.567C291.542,14483.855,291.809,14483.516,291.833,14482.832Zm5.134-.1c-.385.476-.717.738-.806,1.066-.039.144.4.567.658.605a.684.684,0,0,0,.81-.734C297.612,14483.417,297.3,14483.181,296.967,14482.734Zm11.02-53.431,0-.312c-.239-.186-.462-.492-.722-.528a.65.65,0,0,0-.764.756c.029.254.415.689.572.661A2.818,2.818,0,0,0,307.987,14429.3Zm-5.568-.76-.311.011c-.182.276-.476.536-.52.832a.548.548,0,0,0,.695.64,1.052,1.052,0,0,0,.664-.693C302.974,14429.094,302.61,14428.809,302.419,14428.544Zm-3.12,2.131-.319.014c-.17.272-.512.579-.466.808.055.269.446.469.691.7.227-.248.606-.48.634-.749C299.864,14431.211,299.494,14430.934,299.3,14430.675Zm6.446,51.053.023-.32c-.262-.188-.525-.521-.788-.522-.239,0-.479.36-.719.562.234.238.433.6.713.676C305.176,14482.181,305.484,14481.873,305.745,14481.728Zm-5.143.464v-.313c-.272-.187-.546-.519-.815-.515-.216,0-.558.387-.609.647a.563.563,0,0,0,.672.675C300.12,14482.646,300.353,14482.364,300.6,14482.191Zm22.329-61.825a2.1,2.1,0,0,0-.11-.59c-.07-.142-.258-.224-.393-.332-.147.253-.438.524-.407.753a3.573,3.573,0,0,0,.49,1.023c.117-.1.282-.17.338-.293A2.047,2.047,0,0,0,322.931,14420.366Zm-29.147,7.265c-.431-.346-.669-.663-.958-.721-.174-.035-.567.306-.617.533a.6.6,0,0,0,.654.768C293.111,14428.2,293.342,14427.922,293.784,14427.631Zm-5.759.093-.008-.292c-.259-.157-.539-.463-.771-.431s-.43.4-.642.615c.223.21.435.566.675.588S287.775,14427.9,288.025,14427.724Zm8.325,53.864c.3-.429.631-.707.585-.887-.068-.267-.407-.462-.63-.687-.206.205-.579.413-.576.615C295.734,14480.888,296.041,14481.141,296.35,14481.588Zm-5.658-52.238c-.432-.28-.713-.6-.932-.566-.236.041-.414.419-.617.65.237.2.456.524.719.566C290.047,14430.03,290.293,14429.679,290.692,14429.35Zm-15.09-14.144c-.664-.087-2.132,1.613-2.234,2.755Zm28.09,68.6c-.419-.277-.7-.6-.881-.553-.26.069-.448.409-.667.633.224.186.441.5.674.518S303.279,14484.11,303.692,14483.81Zm-33.217-36.888c-.212-.32-.346-.687-.472-.685-.544.014-.56.487-.533.873a2.725,2.725,0,0,0,.3.769Zm18.491,35.086c.271-.386.58-.645.535-.8a1,1,0,0,0-.6-.583c-.119-.036-.518.344-.513.527C288.392,14481.382,288.679,14481.608,288.966,14482.008Zm3.4-1.555c-.4-.28-.658-.585-.834-.546a.9.9,0,0,0-.565.588c-.03.144.337.52.53.522C291.729,14481.022,291.963,14480.736,292.37,14480.453Zm32.722-36.8a1.285,1.285,0,0,0-.083-1.793A1.51,1.51,0,0,0,325.092,14443.651Zm-31.309,37.451c-.242.4-.494.64-.478.855.014.18.393.506.516.467a.857.857,0,0,0,.513-.569C294.361,14481.688,294.066,14481.469,293.783,14481.1Z" fill="#2b4937"/>
      <path id="Caminho_1077" data-name="Caminho 1077" d="M261.182,14455.209a9.345,9.345,0,0,1-1.308.225c-2.83.1-5.661.205-8.493.242-1.787.023-3.576-.088-5.364-.106-1.441-.017-2.883.013-4.324.029-.483.007-.939-.073-.966-.651s.437-.742.906-.734c2.672.049,5.344.12,8.017.187,1.6.04,3.2.076,4.8.126q3.124.1,6.249.215a1.635,1.635,0,0,1,.479.175Z" fill="#2b4937"/>
      <path id="Caminho_1078" data-name="Caminho 1078" d="M332.7,14455.249a9.064,9.064,0,0,1,1.311-.258c3.524-.18,7.049-.329,10.573-.5a10.325,10.325,0,0,0,1.936-.217,25.945,25.945,0,0,1,5.965-.383c.468,0,.857.155.88.682.025.567-.379.763-.871.771-1.114.019-2.23,0-3.345.02q-5.635.1-11.271.228c-1.184.026-2.368.107-3.552.111a13.022,13.022,0,0,1-1.617-.188Z" fill="#2b4937"/>
      <path id="Caminho_1079" data-name="Caminho 1079" d="M258.757,14450.5a19.823,19.823,0,0,1-2.286-.012c-4.542-.532-9.08-1.105-13.62-1.653-.929-.112-1.341-.36-1.248-.881.147-.817.776-.6,1.326-.584a56.883,56.883,0,0,1,9.491,1.465c1.795.367,3.618.592,5.424.907a5.314,5.314,0,0,1,.979.374Z" fill="#2b4937"/>
      <path id="Caminho_1080" data-name="Caminho 1080" d="M350.848,14470.208c-.588-.157-1.04-.264-1.484-.4-2.269-.684-4.531-1.389-6.8-2.062-2.712-.8-5.433-1.576-8.142-2.389-.23-.07-.4-.344-.6-.522.259-.062.541-.226.773-.172,3.076.706,6.151,1.418,9.214,2.179,2.232.555,4.446,1.18,6.667,1.78a1.276,1.276,0,0,1,.63.265,1.312,1.312,0,0,1,.385.85C351.462,14469.938,351.038,14470.08,350.848,14470.208Z" fill="#2b4937"/>
      <path id="Caminho_1081" data-name="Caminho 1081" d="M350.429,14439.759c.174.176.557.394.55.6a1.1,1.1,0,0,1-.484.844,16.491,16.491,0,0,1-2.4.718,109.959,109.959,0,0,0-11.523,2.97c-1.48.522-2.984.977-4.477,1.459-.341.11-.769.239-.865-.216-.042-.2.3-.567.548-.706a2.558,2.558,0,0,1,1.194-.347c1.833.018,3.4-.871,5.049-1.444,2.326-.806,4.7-1.405,7.075-2.045,1.541-.417,3.018-1.072,4.525-1.613C349.837,14439.9,350.067,14439.855,350.429,14439.759Z" fill="#2b4937"/>
      <path id="Caminho_1082" data-name="Caminho 1082" d="M260.146,14440.112a34.576,34.576,0,0,1-3.292-1.215,50.6,50.6,0,0,0-7.555-2.792c-1.241-.374-2.429-.926-3.634-1.412-.461-.187-.748-.523-.518-1.04.215-.483.642-.5,1.068-.313,2.491,1.077,5.049,2.027,7.438,3.3,1.548.823,3.172,1.393,4.756,2.089a4.058,4.058,0,0,1,1.865,1.163Z" fill="#2b4937"/>
      <path id="Caminho_1083" data-name="Caminho 1083" d="M246.721,14476.889c-.2-.193-.526-.375-.546-.585a.85.85,0,0,1,.461-.626c1.892-.826,3.8-1.623,5.707-2.405,2.443-1,4.9-1.98,7.342-2.974a10.382,10.382,0,0,1,1.086-.462,2.743,2.743,0,0,1,.807.019c-.145.224-.239.554-.445.655q-1.963.974-3.969,1.86-4.608,2.051-9.232,4.064C247.574,14476.593,247.2,14476.712,246.721,14476.889Z" fill="#2b4937"/>
      <path id="Caminho_1084" data-name="Caminho 1084" d="M263.436,14429.381c-.626-.375-1.28-.708-1.871-1.13-1.811-1.3-3.6-2.625-5.394-3.944-.916-.674-1.843-1.337-2.734-2.044a2.523,2.523,0,0,1-.787-.953,1,1,0,0,1,.205-.895.883.883,0,0,1,.853.05c2.162,1.864,4.3,3.759,6.428,5.658,1.148,1.023,2.276,2.069,3.412,3.1Z" fill="#2b4937"/>
      <path id="Caminho_1085" data-name="Caminho 1085" d="M334.172,14469.7a1.362,1.362,0,0,1,.464.007c2.285.905,4.605,1.737,6.832,2.768a17.3,17.3,0,0,0,4.135,1.356,26.351,26.351,0,0,1,2.94.839c.47.146.8.461.613.991s-.648.571-1.1.376c-1.1-.481-2.186-1.013-3.291-1.491-.992-.43-2-.822-3-1.223-2.367-.945-4.74-1.877-7.1-2.841-.254-.1-.436-.385-.651-.584Z" fill="#2b4937"/>
      <path id="Caminho_1086" data-name="Caminho 1086" d="M331.133,14429.131c-.064-.205-.192-.392-.145-.509a1.431,1.431,0,0,1,.408-.461c1.361-1.194,2.691-2.427,4.1-3.564,1.661-1.341,3.387-2.6,5.09-3.888a.679.679,0,0,1,1.047.086.692.692,0,0,1-.237,1.077,33.509,33.509,0,0,1-3.223,2.069,36.411,36.411,0,0,0-5.432,3.99c-.386.3-.76.612-1.144.913C331.488,14428.929,331.363,14428.99,331.133,14429.131Z" fill="#2b4937"/>
      <path id="Caminho_1087" data-name="Caminho 1087" d="M261.719,14475.427a2.56,2.56,0,0,1-.452.484c-1.824,1.149-3.666,2.271-5.485,3.43-1.058.672-2.083,1.4-3.124,2.095-.338.229-.722.492-1.031.041-.33-.48.06-.78.427-1q1.812-1.1,3.644-2.171,2.584-1.5,5.188-2.973a2.458,2.458,0,0,1,.755-.148Z" fill="#2b4937"/>
      <path id="Caminho_1088" data-name="Caminho 1088" d="M345.365,14426.676c.153.125.456.255.526.464a.851.851,0,0,1-.167.737,3.51,3.51,0,0,1-.908.491c-1.179.589-2.357,1.181-3.541,1.762-.456.223-.935.4-1.389.63-.616.312-1.22.648-1.825.983a4.392,4.392,0,0,1-.716.422c-.176.055-.4-.052-.606-.087.084-.19.159-.385.256-.569a.274.274,0,0,1,.174-.107c1.457-.308,2.463-1.44,3.753-2.057a12.207,12.207,0,0,0,1.151-.772c.941-.592,1.889-1.172,2.838-1.75A2.523,2.523,0,0,1,345.365,14426.676Z" fill="#2b4937"/>
      <path id="Caminho_1089" data-name="Caminho 1089" d="M256.027,14460.894a1.649,1.649,0,0,1-.489.267c-2.018.29-4.04.555-6.058.841-1.354.191-2.7.406-4.056.612-.161.023-.341.109-.477.063a5.608,5.608,0,0,1-.769-.39c.216-.153.416-.4.651-.442,1.806-.306,3.614-.617,5.432-.833,1.724-.205,3.461-.3,5.193-.43a1.925,1.925,0,0,1,.546.121Z" fill="#2b4937"/>
      <path id="Caminho_1090" data-name="Caminho 1090" d="M263.238,14435.379c-.232.011-.507.107-.689.018-.56-.276-1.074-.643-1.624-.94-1.69-.92-3.389-1.822-5.082-2.737a2.7,2.7,0,0,1-.751-.491c-.14-.155-.254-.535-.166-.646a.824.824,0,0,1,.686-.244,3.32,3.32,0,0,1,.853.451c.89.5,1.8.968,2.665,1.5,1.277.79,2.526,1.624,3.779,2.45a2.017,2.017,0,0,1,.354.4Z" fill="#2b4937"/>
      <path id="Caminho_1091" data-name="Caminho 1091" d="M333.1,14482.678a5.056,5.056,0,0,1,1.038.515c.663.545,1.233,1.207,1.914,1.726,1.416,1.081,2.882,2.1,4.323,3.147.224.162.509.318.614.548a2.486,2.486,0,0,1,.064.871c-.3,0-.592,0-.887,0-.019,0-.04-.023-.057-.038-1.062-.97-2.116-1.947-3.19-2.9-.569-.506-1.178-.968-1.763-1.456s-1.15-.942-1.7-1.446a4.4,4.4,0,0,1-.536-.742Z" fill="#2b4937"/>
      <path id="Caminho_1092" data-name="Caminho 1092" d="M243.495,14439.694a5.136,5.136,0,0,1,.551.139c1.572.62,3.137,1.255,4.713,1.863.387.149.806.212,1.206.331a2.213,2.213,0,0,1,.631.263c.108.075.136.265.2.4-.158.057-.335.192-.471.159q-3.342-.809-6.674-1.663c-.429-.11-.821-.367-.684-.88C243.034,14440.058,243.339,14439.867,243.495,14439.694Z" fill="#2b4937"/>
      <path id="Caminho_1093" data-name="Caminho 1093" d="M260.119,14483.882a4.9,4.9,0,0,1-.531.582c-1.788,1.433-3.588,2.848-5.377,4.279-.346.276-.694.562-1.087.153s-.155-.806.2-1.071c.756-.569,1.54-1.1,2.327-1.627,1.155-.771,2.316-1.531,3.489-2.272a4.1,4.1,0,0,1,.837-.3Z" fill="#2b4937"/>
      <path id="Caminho_1094" data-name="Caminho 1094" d="M262.207,14420.079a3.571,3.571,0,0,1-.7-.372c-1.335-1.148-2.653-2.317-3.982-3.474-.345-.3-.622-.638-.261-1.062s.786-.22,1.1.088c1.185,1.172,2.362,2.355,3.5,3.57a4.323,4.323,0,0,1,.547,1.062Z" fill="#2b4937"/>
      <path id="Caminho_1095" data-name="Caminho 1095" d="M263.22,14499.5c-.167-.447-.391-.745-.342-.989a2.3,2.3,0,0,1,.536-.874c.789-.971,1.6-1.926,2.4-2.889.561-.675,1.106-1.363,1.688-2.019.122-.137.38-.152.575-.225-.016.207.042.464-.06.613-.929,1.357-1.885,2.7-2.835,4.042-.389.549-.768,1.105-1.177,1.638A6.841,6.841,0,0,1,263.22,14499.5Z" fill="#2b4937"/>
      <path id="Caminho_1096" data-name="Caminho 1096" d="M267.029,14415.9c-.261-.3-.511-.614-.784-.9-1.109-1.179-2.229-2.347-3.335-3.529-.339-.361-.482-.79-.012-1.138s.829-.041,1.119.328c.772.981,1.545,1.964,2.3,2.963a3.977,3.977,0,0,1,.9,2.177Z" fill="#2b4937"/>
      <path id="Caminho_1097" data-name="Caminho 1097" d="M257.032,14465.068c.188.151.507.323.485.409a.821.821,0,0,1-.416.535c-.727.233-1.48.38-2.216.587-1.158.326-2.3.7-3.471.992-.261.064-.592-.152-.891-.24.151-.271.251-.73.46-.786C252.972,14466.031,254.979,14465.566,257.032,14465.068Z" fill="#2b4937"/>
      <path id="Caminho_1098" data-name="Caminho 1098" d="M347.885,14461.112c1.322,0,2.643,0,3.965,0,.183,0,.436-.007.534.1.211.231.5.567.458.8a.909.909,0,0,1-.72.538c-1.676-.226-3.344-.519-5.007-.835-.2-.038-.354-.338-.53-.516a3.607,3.607,0,0,1,.675-.316,2.212,2.212,0,0,1,.623.027Z" fill="#2b4937"/>
      <path id="Caminho_1099" data-name="Caminho 1099" d="M326.838,14416.79c-.129-.207-.267-.327-.259-.438a1.167,1.167,0,0,1,.186-.58q1.582-2.238,3.2-4.454a1.041,1.041,0,0,1,.406-.368.6.6,0,0,1,.51.016.694.694,0,0,1,.2.531,1.22,1.22,0,0,1-.292.538q-1.609,2.049-3.236,4.083A7.957,7.957,0,0,1,326.838,14416.79Z" fill="#2b4937"/>
      <path id="Caminho_1100" data-name="Caminho 1100" d="M278.25,14408.228c-.123.192-.252.554-.376.553a.832.832,0,0,1-.643-.363c-.5-1.095-.942-2.219-1.412-3.329a5.335,5.335,0,0,1-.435-.94,2.668,2.668,0,0,1,.121-.871c.293.1.755.116.853.314.5,1.016.922,2.074,1.353,3.125C277.9,14407.185,278.053,14407.671,278.25,14408.228Z" fill="#2b4937"/>
      <path id="Caminho_1101" data-name="Caminho 1101" d="M321.434,14496.989a2.425,2.425,0,0,1,.491.389q1.707,2.281,3.388,4.582c.254.347.507.765.011,1.08s-.741-.08-.975-.459c-.779-1.26-1.587-2.5-2.353-3.771-.312-.518-.543-1.085-.812-1.629Z" fill="#2b4937"/>
      <path id="Caminho_1102" data-name="Caminho 1102" d="M348.724,14448.685c-.14-.13-.559-.34-.646-.644-.149-.518.318-.716.754-.775,1.008-.136,2.019-.242,3.029-.357.449-.052.8.093.875.574a.686.686,0,0,1-.641.836C351.065,14448.459,350.028,14448.547,348.724,14448.685Z" fill="#2b4937"/>
      <path id="Caminho_1103" data-name="Caminho 1103" d="M330.889,14499.2a2.606,2.606,0,0,1-.608-.488c-.329-.445-.567-.955-.879-1.413-.463-.679-.966-1.332-1.434-2.008a6.512,6.512,0,0,1-.523-.939c-.013-.026.3-.27.333-.245a6.593,6.593,0,0,1,.726.664c.594.614,1.194,1.224,1.764,1.858a12.132,12.132,0,0,1,1.258,1.562C331.856,14498.71,331.6,14499.175,330.889,14499.2Z" fill="#2b4937"/>
      <path id="Caminho_1104" data-name="Caminho 1104" d="M272.48,14498.194a2.467,2.467,0,0,1-.1.283q-1.167,2.2-2.34,4.4c-.065.122-.129.29-.236.336a5.783,5.783,0,0,1-.792.226c-.046-.286-.222-.64-.115-.846.383-.738.866-1.425,1.3-2.135.461-.746.9-1.506,1.383-2.235a1.062,1.062,0,0,1,.585-.354C272.248,14497.851,272.394,14498.1,272.48,14498.194Z" fill="#2b4937"/>
      <path id="Caminho_1105" data-name="Caminho 1105" d="M251.814,14429.412a9.333,9.333,0,0,1-1.038-.39,17.816,17.816,0,0,1-2.041-1.176c-.233-.165-.281-.59-.413-.9.311-.129.733-.457.914-.355,1.036.584,2.023,1.258,3,1.935a.583.583,0,0,1,.163.539C252.277,14429.24,252.01,14429.308,251.814,14429.412Z" fill="#2b4937"/>
      <path id="Caminho_1106" data-name="Caminho 1106" d="M332.329,14459.474a6.252,6.252,0,0,1,1.569,0,20.12,20.12,0,0,0,5.516.575c.093,0,.206-.047.275-.008.246.135.476.3.713.451-.265.123-.541.373-.791.35-2.007-.185-4.01-.41-6.011-.65a10.424,10.424,0,0,1-1.3-.323Z" fill="#2b4937"/>
      <path id="Caminho_1107" data-name="Caminho 1107" d="M243.875,14469.915c-.155-.119-.441-.233-.462-.384-.029-.2.1-.568.249-.621,1.284-.461,2.581-.893,3.892-1.266.21-.06.515.214.776.332-.114.208-.183.547-.349.6C246.649,14469.047,245.3,14469.461,243.875,14469.915Z" fill="#2b4937"/>
      <path id="Caminho_1108" data-name="Caminho 1108" d="M316.326,14408.834a2.7,2.7,0,0,1-.043-.8c.423-1.27.859-2.536,1.342-3.783.071-.187.414-.267.631-.4.119.222.393.508.332.654-.557,1.341-1.168,2.66-1.778,3.979C316.762,14408.587,316.6,14408.639,316.326,14408.834Z" fill="#2b4937"/>
      <path id="Caminho_1109" data-name="Caminho 1109" d="M254.121,14443.275c1.524.372,2.967.707,4.4,1.082.962.252,1.914.546,2.859.857.2.067.352.293.526.446-.234.065-.5.238-.7.182-1.291-.364-2.562-.8-3.854-1.168-1.069-.3-2.16-.521-3.233-.806-.154-.04-.266-.235-.4-.359Z" fill="#2b4937"/>
      <path id="Caminho_1110" data-name="Caminho 1110" d="M337.239,14493.99c-.2.233-.319.491-.494.541a.859.859,0,0,1-.7-.115c-.913-.815-1.809-1.653-2.661-2.532-.161-.166-.1-.55-.135-.833a2.155,2.155,0,0,1,.772.193c.909.674,1.79,1.384,2.667,2.1A4.759,4.759,0,0,1,337.239,14493.99Z" fill="#2b4937"/>
      <path id="Caminho_1111" data-name="Caminho 1111" d="M269.618,14406.314c.33.319.557.457.663.656.561,1.06,1.1,2.132,1.629,3.207.153.31.359.711-.1.871-.164.058-.546-.242-.693-.467-.556-.851-1.062-1.735-1.572-2.615a1.668,1.668,0,0,1-.308-.759A2.9,2.9,0,0,1,269.618,14406.314Z" fill="#2b4937"/>
      <path id="Caminho_1112" data-name="Caminho 1112" d="M338.9,14449.339a34.242,34.242,0,0,1-6.985,1.067l-.24-.286c.151-.037.3-.066.453-.112a20.666,20.666,0,0,1,6.723-1.046Z" fill="#2b4937"/>
      <path id="Caminho_1113" data-name="Caminho 1113" d="M332.013,14419.956c.308-.387.6-.788.927-1.158.831-.935,1.669-1.863,2.525-2.775.247-.264.6-.608.916-.18.11.149-.061.659-.255.853-1.1,1.1-2.237,2.153-3.375,3.21a2.214,2.214,0,0,1-.557.276Z" fill="#2b4937"/>
      <path id="Caminho_1114" data-name="Caminho 1114" d="M338.085,14479.072a6.266,6.266,0,0,1-.917-.347c-1.411-.795-2.816-1.6-4.207-2.433a2.949,2.949,0,0,1-.576-.633,2.259,2.259,0,0,1,.9-.057,9.732,9.732,0,0,1,1.385.782q1.4.839,2.794,1.689c.311.188.616.388.924.582Z" fill="#2b4937"/>
      <path id="Caminho_1115" data-name="Caminho 1115" d="M337.362,14438.277a5.174,5.174,0,0,1-.748.558q-1.988.92-4,1.794a2.081,2.081,0,0,1-.636.06c.082-.217.1-.558.255-.631,1.395-.669,2.811-1.3,4.227-1.923a.917.917,0,0,1,.414-.013A3.339,3.339,0,0,1,337.362,14438.277Z" fill="#2b4937"/>
      <path id="Caminho_1116" data-name="Caminho 1116" d="M261.161,14491.079c-.167.238-.323.485-.5.712-.659.834-1.331,1.657-1.987,2.493-.253.322-.534.573-.93.28a.6.6,0,0,1-.026-.978c1.052-.942,2.15-1.832,3.23-2.742Z" fill="#2b4937"/>
      <path id="Caminho_1117" data-name="Caminho 1117" d="M346.473,14435.047c-.215-.155-.5-.258-.574-.444s-.014-.6.12-.674a10,10,0,0,1,1.882-.832c.164-.052.555.244.648.462a.752.752,0,0,1-.225.709A18.067,18.067,0,0,1,346.473,14435.047Z" fill="#2b4937"/>
      <path id="Caminho_1118" data-name="Caminho 1118" d="M330.121,14435.842a7.407,7.407,0,0,1,.723-.676c.829-.595,1.665-1.182,2.526-1.73.189-.12.49-.066.739-.093-.084.222-.1.537-.263.648-.967.675-1.961,1.313-2.961,1.938a2.039,2.039,0,0,1-.633.149Z" fill="#2b4937"/>
      <path id="Caminho_1119" data-name="Caminho 1119" d="M331.5,14489.015c-.067.456-.384.56-.691.32-.749-.583-1.456-1.221-2.156-1.864a.511.511,0,0,1-.053-.49c.068-.113.381-.225.452-.169.81.647,1.6,1.324,2.383,2C331.475,14488.849,331.474,14488.94,331.5,14489.015Z" fill="#2b4937"/>
      <path id="Caminho_1120" data-name="Caminho 1120" d="M323.352,14410.208c0-.257-.07-.489.012-.637q.718-1.3,1.513-2.556c.058-.093.345-.111.485-.058.1.037.211.316.164.39-.589.929-1.2,1.841-1.822,2.749C323.666,14410.153,323.542,14410.151,323.352,14410.208Z" fill="#2b4937"/>
      <path id="Caminho_1121" data-name="Caminho 1121" d="M341.483,14436.958c-.2-.1-.452-.156-.48-.266-.042-.165.018-.481.133-.539a18.69,18.69,0,0,1,2.07-.9c.127-.045.455.169.516.329a.627.627,0,0,1-.177.582C342.879,14436.466,342.181,14436.7,341.483,14436.958Z" fill="#2b4937"/>
      <path id="Caminho_1122" data-name="Caminho 1122" d="M342.906,14481.266c.7.334,1.373.621,2,.985a.669.669,0,0,1,.083.65c-.14.16-.549.3-.688.212a16.683,16.683,0,0,1-1.676-1.3.39.39,0,0,1-.027-.366C342.653,14481.354,342.814,14481.317,342.906,14481.266Z" fill="#2b4937"/>
      <path id="Caminho_1123" data-name="Caminho 1123" d="M326.556,14493.064a2.14,2.14,0,0,1-.51-.273,14.464,14.464,0,0,1-1.285-1.345c-.112-.139-.018-.441-.019-.669.214.063.515.059.628.2.485.613.914,1.27,1.364,1.909Z" fill="#2b4937"/>
      <path id="Caminho_1124" data-name="Caminho 1124" d="M343.011,14448.418a4.084,4.084,0,0,1-2.338.757.419.419,0,0,1-.347-.226.472.472,0,0,1,.22-.381A2.511,2.511,0,0,1,343.011,14448.418Z" fill="#2b4937"/>
      <path id="Caminho_1125" data-name="Caminho 1125" d="M242.13,14463.324c-.363-.454-.7-.687-.74-.966a.6.6,0,0,1,.753-.668c.279.051.692.4.7.627C242.851,14462.582,242.482,14462.858,242.13,14463.324Z" fill="#2b4937"/>
      <path id="Caminho_1126" data-name="Caminho 1126" d="M249.981,14481.525c.157.261.473.553.43.773a.938.938,0,0,1-.672.571c-.161.021-.534-.389-.537-.61,0-.247.3-.5.476-.747Z" fill="#2b4937"/>
      <path id="Caminho_1127" data-name="Caminho 1127" d="M259.311,14450.215c.95-.1,1.741-.293,2.492.291A2.025,2.025,0,0,1,259.311,14450.215Z" fill="#2b4937"/>
      <path id="Caminho_1128" data-name="Caminho 1128" d="M312.424,14402.015l-.891.755c-.147-.245-.445-.522-.4-.73.052-.259.385-.46.6-.687Z" fill="#2b4937"/>
      <path id="Caminho_1129" data-name="Caminho 1129" d="M339.03,14479.4a2.587,2.587,0,0,1,2.039,1.219C340.54,14480.911,339.514,14480.3,339.03,14479.4Z" fill="#2b4937"/>
      <path id="Caminho_1130" data-name="Caminho 1130" d="M343.687,14460.826c-.22.106-.469.334-.653.29-.228-.056-.4-.335-.6-.518.2-.151.4-.424.6-.423.225,0,.449.247.673.388Z" fill="#2b4937"/>
      <path id="Caminho_1131" data-name="Caminho 1131" d="M339.139,14438.169l-.528-.462a6.742,6.742,0,0,1,.879-.637c.078-.041.3.188.454.293Z" fill="#2b4937"/>
      <path id="Caminho_1132" data-name="Caminho 1132" d="M283.285,14402.026c-.338.225-.556.477-.7.439-.2-.052-.354-.316-.527-.491.174-.141.342-.385.523-.395S282.948,14401.8,283.285,14402.026Z" fill="#2b4937"/>
      <path id="Caminho_1133" data-name="Caminho 1133" d="M268.812,14492.157c-.178-.292-.357-.476-.321-.544a5.068,5.068,0,0,1,.52-.69c.116.137.354.316.324.405A4.256,4.256,0,0,1,268.812,14492.157Z" fill="#2b4937"/>
      <path id="Caminho_1134" data-name="Caminho 1134" d="M261.807,14464.228c-.353.2-.552.4-.756.4-.134,0-.278-.263-.417-.409a1.908,1.908,0,0,1,.57-.369C261.329,14463.827,261.5,14464.03,261.807,14464.228Z" fill="#2b4937"/>
      <path id="Caminho_1135" data-name="Caminho 1135" d="M263.055,14441.422l-1.43-.478.113-.33,1.427.474Z" fill="#2b4937"/>
      <path id="Caminho_1136" data-name="Caminho 1136" d="M308.146,14443c-.1-.076-.244-.129-.3-.229-.8-1.331-1.636-2.644-2.362-4.015-.605-1.143-.259-2.36-.019-3.543.021-.1.175-.174.421-.405a9.178,9.178,0,0,1-.013,1.567,4.9,4.9,0,0,0,1.2,4.006,12.087,12.087,0,0,1,1.013,1.413,4.268,4.268,0,0,1,.26,1.134Z" fill="#2b4937"/>
      <path id="Caminho_1137" data-name="Caminho 1137" d="M310.2,14453.259l-.406.842c-.167-.315-.34-.629-.5-.949a.384.384,0,0,1-.019-.272c.092-.236.211-.462.319-.69.181.2.372.394.538.605C310.183,14452.857,310.162,14452.973,310.2,14453.259Z" fill="#2b4937"/>
    </g>
  </g>
</svg>
