<svg xmlns="http://www.w3.org/2000/svg" width="190.086" height="90.793" viewBox="0 0 190.086 90.793">
  <g id="eDCdkK.tif" transform="translate(-2581.533 -5278.714)">
    <g id="Grupo_1770" data-name="Grupo 1770">
      <g id="Grupo_1769" data-name="Grupo 1769">
        <path id="Caminho_2097" data-name="Caminho 2097" d="M2625.179,5297.524c.509-.981.928-1.948,1.494-2.82a6.577,6.577,0,0,1,1.4-1.388c.726-.6,1.124-.567,1.856.025.218.177.427.365.589.5a24.694,24.694,0,0,1,1.795-2.078,6.907,6.907,0,0,1,1.738-1.118,1.4,1.4,0,0,1,1.082-.047c.48.239.708.043.987-.261a10.454,10.454,0,0,1,1.344-1.38,7.056,7.056,0,0,1,1.784-.917.96.96,0,0,1,.837.269,1.029,1.029,0,0,1,.016.828,21.189,21.189,0,0,0-1.128,4.232,54.874,54.874,0,0,1-1.028,6.023c-.444,1.853-1.115,3.654-1.738,5.461-.26.756-.678,1.457-.979,2.2a9.659,9.659,0,0,1-2.514,3.37c-2.4,2.247-4.822,4.473-7.214,6.729a5.131,5.131,0,0,0-.979,1.262c-.5.927-.942,1.888-1.376,2.849-.3.676-.211.8.538.954.68.143,1.37.266,2.031.473,1.068.335,2.1.785,3.175,1.091a17.342,17.342,0,0,0,7.217.53c1.731-.241,3.471-.426,5.211-.592a2.99,2.99,0,0,1,1.919.706,3.884,3.884,0,0,1,1.793,2.369c.04.163.24.307.4.416.6.42,1.251.775,1.811,1.242.914.764,1.792,1.576,2.634,2.418a.938.938,0,0,1,.175.86,1.179,1.179,0,0,1-.83.548,3.372,3.372,0,0,1-1.62-.245,11.646,11.646,0,0,0-5.1-1.045,21.044,21.044,0,0,1-3.225-.458,15.359,15.359,0,0,0-5.987.108,21.028,21.028,0,0,0-5.27,2.283c-2.056,1.042-4.131,2.053-6.233,3a25.676,25.676,0,0,1-9.17,2.014,30.19,30.19,0,0,1-9.92-1.1,1.057,1.057,0,0,1-.1-.025c-.281-.1-.675-.372-.818-.274a2.613,2.613,0,0,0-.619.9,6.308,6.308,0,0,1-.345.722c-.124.163-.387.371-.527.333a.81.81,0,0,1-.455-.5,3.321,3.321,0,0,1-.019-.887,4.7,4.7,0,0,1-.9.369.887.887,0,0,1-.711-.115c-.114-.131,0-.467.032-.712.008-.063.064-.12.048-.092a6.538,6.538,0,0,1-1.137-.574c-.065-.048.165-.495.246-.723-.511-.36-1.079-.777-1.667-1.163a.569.569,0,0,0-.464-.038c-1.013.447-2.01.932-3.023,1.379-.816.36-1.146.166-1.273-.662-.821.153-1.639.342-2.467.437a1.091,1.091,0,0,1-.872-.284c-.121-.159.08-.565.142-.86a2.36,2.36,0,0,1,.088-.242c-.668.153-1.3.328-1.935.428a1.1,1.1,0,0,1-.819-.142c-.155-.145-.1-.519-.138-.854-.444.055-1,.129-1.554.19a4.51,4.51,0,0,1-1.119.072,1.041,1.041,0,0,1-.7-.435c-.172-.326.06-.622.383-.774.857-.4,1.761-.725,2.575-1.2q3.126-1.823,6.185-3.757a24.565,24.565,0,0,1,5.306-3c1.971-.639,3.967-1.2,5.952-1.795.168-.05.336-.1.449-.136-.228-.637-.439-1.252-.674-1.857a.431.431,0,0,0-.274-.205,2.24,2.24,0,0,1-1.368-1.122,6.217,6.217,0,0,0-.75-.8c-.433-.472-.859-.951-1.368-1.517-1.06.3-1.833-.432-2.553-1.277-.023-.027-.059-.055-.062-.086-.11-1.171-1.2-1.312-1.933-1.818a2.149,2.149,0,0,1-1.171-1.834,13.866,13.866,0,0,1-1.98-.791,5.19,5.19,0,0,1-.993-1.054,2.388,2.388,0,0,0-.386-.326,11.469,11.469,0,0,1-1.405-.962c-.557-.522-.475-.992.135-1.459.137-.1.262-.224.405-.347a11.324,11.324,0,0,1-1.27-.763,5.231,5.231,0,0,1-.7-.837,1.812,1.812,0,0,0-.269-.3c-.478-.372-.993-.7-1.44-1.106-.737-.669-.609-1.308.3-1.741.079-.037.162-.067.287-.119a5.371,5.371,0,0,1-.6-.553,4.5,4.5,0,0,1-.658-.964,1,1,0,0,1,.842-1.492c.187-.034.378-.047.636-.077-.547-.6-1.08-1.116-1.538-1.695a12.344,12.344,0,0,1-1.454-2.1c-.448-.91.133-1.549,1.137-1.373.085.014.17.024.443.061a5.125,5.125,0,0,1-1.247-2.91,5.544,5.544,0,0,1-.1-1.225c.01-.241.1-.6.27-.682.194-.1.513.029.775.075a2.294,2.294,0,0,1,.4.184c-.106-.276-.174-.447-.237-.62a6.051,6.051,0,0,1-.46-2.833c.128-1.03.678-1.291,1.623-.7-.032-.218-.07-.377-.077-.537a19.164,19.164,0,0,1-.063-2.344c.026-.329.349-.863.582-.888.314-.034.69.308,1,.541a2.091,2.091,0,0,1,.368.572c.139-.885.249-1.719.408-2.544a2.663,2.663,0,0,1,.385-1.034.818.818,0,0,1,.72-.244.768.768,0,0,1,.362.619,15.716,15.716,0,0,0,2.2,7.687c.437.817.848,1.649,1.241,2.489A32.779,32.779,0,0,0,2596.1,5296a31.573,31.573,0,0,0,4.752,4.855,9.714,9.714,0,0,1,1.292,1.284,29.458,29.458,0,0,0,4.7,3.964c1.645,1.288,3.225,2.659,4.838,3.987.094.077.27.166.352.129a2.5,2.5,0,0,0,.96-.559,2.853,2.853,0,0,0,.681-1.4,2.927,2.927,0,0,1,1.75-2.387,2.412,2.412,0,0,1,.386-.186,1.819,1.819,0,0,0,1.357-2.073,1.622,1.622,0,0,1,1.551-1.838,2.067,2.067,0,0,0,2-1.9,5.83,5.83,0,0,1,1.138-2.4,1.85,1.85,0,0,1,2.888-.336C2624.9,5297.27,2625.056,5297.415,2625.179,5297.524Zm-7.34,32.975.216.021c.511,1.264.106,2.558-.066,3.888a1.265,1.265,0,0,0,.982-.759,9.136,9.136,0,0,0,.843-3.736c0-.175.034-.35.052-.525.852,1.356.516,2.718.178,4.111.706-.322.82-1.055,1.038-1.638a10.077,10.077,0,0,0,.337-2.061c.786,1.047.381,2.165.334,3.3a2.05,2.05,0,0,0,.657-.717,6.034,6.034,0,0,0,.528-2.767,5.264,5.264,0,0,1,.123-.822c.831.918.627,1.884.69,2.842.217-.167.435-.355.46-.565.083-.705.091-1.418.14-2.128.016-.239.069-.476.1-.714l.178.006a4.074,4.074,0,0,1,.663,2.5c.762-.374,1.467-.706,2.154-1.072a.437.437,0,0,0,.12-.4,25.151,25.151,0,0,0-1.094-3.12,3.835,3.835,0,0,0-1.36-1.526,9.134,9.134,0,0,0-2.033-.643c-.442-.142-.736-.111-.862.421a.564.564,0,0,1-.72.474.786.786,0,0,1-.4-.645c.167-.944-.193-1.853,0-2.83a13.519,13.519,0,0,1,2.613-5.569,17.494,17.494,0,0,1,4.165-3.838,10.589,10.589,0,0,0,2.466-2.427,14.5,14.5,0,0,0,1.512-2.748c.554-1.231,1-2.512,1.511-3.762a2.449,2.449,0,0,1,.428-.538l.14.09a18.222,18.222,0,0,0-.92,2.293,20.638,20.638,0,0,0-.338,2.622,16.558,16.558,0,0,0,2.615-4.977c.911-3.006,1.622-6.073,2.393-9.121.192-.761.293-1.545.436-2.318l-.133-.077a16.482,16.482,0,0,0-1.379,1.316,9.938,9.938,0,0,0-1.836,3.956c-.189.7-.422,1.4-.66,2.092a3.858,3.858,0,0,1-.412.656,4.216,4.216,0,0,1-.258-3.037c.2-.987.519-1.948.823-3.053a6.628,6.628,0,0,0-3.358,3.221,11.81,11.81,0,0,0-.875,4.392,2.2,2.2,0,0,1-.082.688c-.069.176-.248.418-.391.427s-.374-.2-.45-.366a1.493,1.493,0,0,1-.1-.729c.143-1.4.31-2.8.472-4.225.014,0-.07-.017-.155-.03-1.335-.194-3.018,1.361-3.2,2.6-.108.724-.156,1.457-.263,2.182a7.143,7.143,0,0,0,.23,3.077c.21.718.124,1.1-.274,1.2-.38.091-.619-.186-.791-.883a14.3,14.3,0,0,1-.172-4.643c.04-.493-.134-.674-.612-.7a2.3,2.3,0,0,0-2.279,2.058c-.074.6-.068,1.218-.172,1.815a4.978,4.978,0,0,0,.4,2.771,4.284,4.284,0,0,1,.305.8.61.61,0,0,1-.189.491c-.072.058-.33-.052-.458-.148a.878.878,0,0,1-.256-.4c-.295-.842-.625-1.676-.843-2.538-.115-.454-.32-.567-.7-.453a1.52,1.52,0,0,0-.641.352,2.382,2.382,0,0,0-.45,2.983,11.263,11.263,0,0,1,.728,1.12,1.946,1.946,0,0,1,.053.719c-.248-.012-.578.071-.729-.057a3.658,3.658,0,0,1-.749-.956c-.5-.859-.708-.929-1.554-.374a3.251,3.251,0,0,0-.685.6,1.46,1.46,0,0,0,.4,2.522c.031.018.073.029.091.056.15.236.3.475.443.714a5.267,5.267,0,0,1-.893.162.883.883,0,0,1-.468-.241c-.292-.228-.567-.479-.833-.707a2.968,2.968,0,0,0-1.563,1.486.523.523,0,0,0,.092.662c.414.42.817.852,1.2,1.3a1.48,1.48,0,0,1,.181.46c-.18.047-.373.16-.536.126a2.75,2.75,0,0,1-.788-.322c-.353-.2-.685-.442-1-.647-.441.5-.846,1-1.292,1.46-.5.508-.539.805-.047,1.326a1.766,1.766,0,0,0,.7.47c.592.189,1.211.294,1.807.472.159.048.275.239.411.363-.138.122-.269.334-.417.347a4.785,4.785,0,0,1-1.477,0,9.79,9.79,0,0,1-1.568-.644,6.526,6.526,0,0,1-.575.752.566.566,0,0,0,.04.956,2.715,2.715,0,0,0,.942.582,3.069,3.069,0,0,0,2.194.148c.1-.046.276.07.417.111-.065.129-.1.321-.2.375a2.352,2.352,0,0,1-.756.243,6.063,6.063,0,0,1-2.9-.3.511.511,0,0,0-.427.038,14.071,14.071,0,0,0-1.185,1.085.8.8,0,0,0-.049,1.163,4.314,4.314,0,0,0,1.042.9c.459.257,1,.371,1.483.584a1.937,1.937,0,0,1,.445.393c-.159.126-.3.312-.481.361a1.547,1.547,0,0,1-.686-.016,4.078,4.078,0,0,1-2.681-1.426c-.021-.027-.1-.014-.144-.02-.285.873-.073,1.407.823,2.112a4.3,4.3,0,0,1,.687.591.522.522,0,0,1,.036.494,10.938,10.938,0,0,1-1.53,1.322c-1.347.878-2.738,1.688-4.106,2.534-.159.1-.378.226-.414.377-.2.823-.346,1.658-.522,2.539.2-.123.388-.233.569-.362a3.949,3.949,0,0,0,1.463-2.185,8.038,8.038,0,0,1,.539-1.139l.222.07v1.2c.125-.029.208-.045.288-.069.459-.135.9-.169,1.181.316.265.458.027.836-.284,1.153-.375.382-.792.723-1.178,1.094-.444.428-.873.87-1.309,1.305,1.238.244,1.488-1,2.245-1.471l.136.1-.626,1.392a.822.822,0,0,0,1.235-.3,8.739,8.739,0,0,1,.721-.933,2.92,2.92,0,0,1,.454-.357c.07.88-.489,1.444-.853,2.1.448.2.771.137.953-.3s.337-.861.512-1.288c.113-.275.24-.544.36-.815l.166.063a4.451,4.451,0,0,1-.445,2.44c.406.172.7.127.875-.266q.511-1.118,1.027-2.234c.082-.177.181-.347.273-.521l.187.059a8.167,8.167,0,0,1-.653,3.034.516.516,0,0,0,.765-.307q.414-.99.838-1.974c.072-.164.174-.315.262-.472l.168.05a8.488,8.488,0,0,1-.376,2.48.565.565,0,0,0,.823-.43c.213-.662.468-1.312.719-1.962a4.639,4.639,0,0,1,.283-.529.867.867,0,0,1,.238.622c-.089.525-.246,1.037-.353,1.559-.06.293-.075.594-.11.892l.189.041c.9-.872.9-2.137,1.3-3.243.611.971.214,1.916-.046,2.88.666.02,1.062-.184,1.159-.819.093-.6.228-1.191.314-1.791s.13-1.181.193-1.772l.233-.03a8.059,8.059,0,0,1,.35,1.374,7.264,7.264,0,0,1-.1,1.547c-.068.486-.2.964-.3,1.445l.17.088a1.74,1.74,0,0,0,.329-.5c.241-1.041.452-2.089.67-3.134C2617.744,5331.026,2617.789,5330.762,2617.839,5330.5Zm-34.127-40.067a10.839,10.839,0,0,0,2.56,4.255,8.512,8.512,0,0,0,3.539,1.826c.585.155,1.153.377,1.729.569-.129.155-.227.219-.325.221a8.8,8.8,0,0,1-4.426-.847,4.877,4.877,0,0,0-2.728-.785c.3.54.579,1.1.916,1.61a5.023,5.023,0,0,0,.9,1.094,3.222,3.222,0,0,0,2.663.432c.549-.065,1.1-.152,1.648-.179.156-.008.321.158.481.244a5.528,5.528,0,0,1-.328.486.439.439,0,0,1-.244.1c-1,.181-2,.366-3,.53-.652.107-1.309.182-2.028.281.388.8,1.114.922,1.61,1.334a1.789,1.789,0,0,0,1.4.372,12.3,12.3,0,0,0,1.321-.209c1.049-.225,2.089-.493,3.142-.689a2.522,2.522,0,0,1,.873.162c-.213.2-.4.524-.645.593-1.547.428-3.1.817-4.668,1.182-.643.151-1.306.212-2,.32.546.874,1.157,1.227,2.084.9.534-.192,1.126-.219,1.664-.4.878-.3,1.735-.654,2.6-1a2.132,2.132,0,0,1,1.523-.189c-1.509,1.731-3.774,1.861-5.759,2.672.36.249.67.43.939.659a.637.637,0,0,0,.774.086c1.27-.568,2.552-1.11,3.829-1.661.066-.028.138-.079.2-.07.182.026.36.077.54.119-.046.173-.035.425-.147.5a11.824,11.824,0,0,1-1.709,1.074c-.691.329-1.447.521-2.156.816-.663.276-1.3.61-1.95.919a2.822,2.822,0,0,0,2.74.762,9.388,9.388,0,0,0,3.088-1.57,6.507,6.507,0,0,1,1.282-.756c.144-.071.359,0,.541.01a1.5,1.5,0,0,1-.165.523,3.392,3.392,0,0,1-.794.779c-.914.558-1.864,1.056-2.792,1.593-.406.235-.791.506-1.263.81a1.818,1.818,0,0,0,.478.192c.784.021,1.571.056,2.353.013a1.877,1.877,0,0,0,.97-.345c.814-.61,1.57-1.3,2.382-1.91.189-.142.512-.106.774-.152-.087.225-.111.518-.27.663-1.217,1.1-2.46,2.173-3.7,3.254-.115.1-.234.2-.422.353.471.294.867.563,1.286.789a.533.533,0,0,0,.458,0c.674-.444,1.486-.687,1.946-1.445a20.542,20.542,0,0,1,1.36-1.924c.092-.119.367-.1.558-.139.015.193.111.429.034.571q-.828,1.531-1.725,3.025c-.166.276-.153.513.086.644a14.145,14.145,0,0,0,1.33.57c.151-.3.262-.488.336-.687.356-.951.692-1.91,1.06-2.857a3.207,3.207,0,0,1,.408-.6l.135.076a2.316,2.316,0,0,1,0,.364c-.162,1.053-.378,2.1-.473,3.158a2.393,2.393,0,0,0,.34,1.228c.163.31.56.236.7-.121.3-.744.569-1.5.821-2.261.162-.49.258-1,.412-1.494.033-.1.193-.168.294-.25.056.1.167.208.158.3a24.464,24.464,0,0,1-.314,2.645c-.176.835-.51,1.636-.749,2.459a2.55,2.55,0,0,0-.008.651c.614-.228.87-.55.812-1.152a3.583,3.583,0,0,1,.157-1.212,3.481,3.481,0,0,1,.391-.737l.142.064v3.593a8.241,8.241,0,0,0,.753-1.251.759.759,0,0,0,.131-.443,3.282,3.282,0,0,1,.438-2.216,4.415,4.415,0,0,1,.456-.668l.178.094c-.165.46-.354.914-.488,1.384a3.723,3.723,0,0,0-.184,1.091c.015.69.1,1.379.162,2.068.013.151.034.3.05.434.433.069.583-.133.61-.469.046-.57.116-1.14.125-1.71a4.359,4.359,0,0,1,.813-2.238,1.756,1.756,0,0,1,.356-.329l.125.089a3.355,3.355,0,0,1-.218.505,3.22,3.22,0,0,0-.5,1.886c.03.918.007,1.837.007,2.812a.631.631,0,0,0,.808-.468c.148-.439.284-.883.443-1.318a6.259,6.259,0,0,1,.293-.608l.126.057-.379,1.853a6.078,6.078,0,0,0,1.24-.946,1.168,1.168,0,0,0,.344-1.178,1.355,1.355,0,0,1,.436-1.449,7.653,7.653,0,0,0,1.052-1.209c.456-.66.411-.8-.179-1.3-.082-.069-.155-.149-.237-.218-1.588-1.328-3.168-2.667-4.77-3.978-1.354-1.108-2.761-2.153-4.094-3.285-.705-.6-1.244-1.4-1.958-1.979a31.419,31.419,0,0,1-5.516-5.826,33.968,33.968,0,0,1-2.967-4.453c-1.037-2.028-1.8-4.2-2.678-6.3-.054-.129-.107-.258-.114-.275a2.939,2.939,0,0,1-.752-.228c-.577-.4-1.126-.835-1.792-1.337.179.739.356,1.369.481,2.009a7.464,7.464,0,0,0,2.9,4.548,3.235,3.235,0,0,1,.551.576c.063.081.094.284.042.336a.43.43,0,0,1-.368.111,3.132,3.132,0,0,1-.8-.407,9.912,9.912,0,0,1-2.919-3.379,3.751,3.751,0,0,0-.717-.757l-.164.142c.5,2.418,1.453,4.554,3.757,5.847a2.825,2.825,0,0,1,.669.518c.254.272.132.46-.21.493a.77.77,0,0,1-.466-.075,16.619,16.619,0,0,1-2.642-1.878A9.682,9.682,0,0,0,2583.712,5290.432Zm50.769,37.822v-2.061h-1.746c.07.434.113.821.2,1.2.288,1.277.3,1.278,1.544.866C2634.492,5328.252,2634.5,5328.236,2634.481,5328.254Zm-34.65,5.417c.29.039.633.232.9-.176.356-.554.742-1.09,1.067-1.661a6.821,6.821,0,0,0,.4-1.042,4.272,4.272,0,0,0-1.093.471c-.179.1-.423.2-.494.367C2600.318,5332.289,2600.09,5332.971,2599.831,5333.671Zm48.551-2.6.137-.2-3.3-2.292c-.13.369-.2.606-.3.835-.131.321-.052.468.306.557.636.16,1.261.371,1.882.587C2647.544,5330.7,2647.96,5330.892,2648.382,5331.066Zm-55.588-.036c-.6-.158-.593-.159-.821-.8-.029-.083-.162-.205-.211-.19a.6.6,0,0,0-.323.223.872.872,0,0,0,.144,1.115A.9.9,0,0,0,2592.794,5331.03Zm-2.465.867a3.071,3.071,0,0,1-.5-.332,1.953,1.953,0,0,1-.267-.429c-.075-.139-.138-.285-.206-.427-.135.092-.377.176-.386.279-.024.309-.07.72.1.918C2589.361,5332.251,2589.812,5332.247,2590.329,5331.9Zm6.257-1.679a.749.749,0,0,0-.137-.06c-.409-.062-.934.09-1.035-.562,0-.009-.392-.028-.441.054a.588.588,0,0,0,.165.846A1.22,1.22,0,0,0,2596.586,5330.218Zm-2.861-1.165c-.288-.382-.275-.384-.355-1.119-.008-.079-.3-.217-.411-.179-.3.1-.416.751-.23,1.09A.647.647,0,0,0,2593.725,5329.053Zm5.886,3.207-.115-.1-1.582.755.9.6Zm-2.665-5.077c-.208-.434-.325-.7-.457-.947a3.459,3.459,0,0,0-.239-.356c-.126.1-.354.205-.357.312a1.012,1.012,0,0,0,.175.719A2.444,2.444,0,0,0,2596.946,5327.183Zm1.123,1.361c.041.186.03.328.094.385a1.779,1.779,0,0,0,.545.362c.093.034.246-.092.372-.145-.069-.161-.136-.322-.207-.482a.6.6,0,0,0-.1-.185c-.122-.117-.256-.222-.385-.331Zm-4.313,4.478c-.232-.25-.344-.38-.466-.5s-.232-.2-.348-.3c-.09.157-.26.321-.248.47.015.176.161.446.3.48A2.067,2.067,0,0,0,2593.756,5333.022Zm6.972-7.576-.752-.587c-.064.179-.227.4-.174.529C2599.941,5325.738,2600.235,5325.747,2600.728,5325.446Zm40.583,1.623-.072.331.719.221c.01-.144.062-.4.024-.415A3.792,3.792,0,0,0,2641.311,5327.069Z" fill="#2b4937"/>
        <path id="Caminho_2098" data-name="Caminho 2098" d="M2720.278,5321.78c-.262.808-.5,1.624-.8,2.422a7.229,7.229,0,0,1-.725,1.593c-.47.692-1.137.632-1.7.006-.876-.973-.707-2.117-.613-3.257.018-.213.086-.421.113-.633.112-.876.11-.876-.641-1.3a1.262,1.262,0,0,1-.569-1.616c.1-.321.213-.635.338-1-.331-.064-.607-.109-.879-.171a1.149,1.149,0,0,1-.965-1.628,13.627,13.627,0,0,1,.549-1.279c.314-.733.278-.91-.281-1.451a1.754,1.754,0,0,1-.165-1.952c.517-1.145,1.007-2.3,1.51-3.457-.712-.442-.765-.425-1.3.18a4.976,4.976,0,0,1-.85.807c-.946.661-1.606.349-1.722-.811-.487-.172-1.247.124-1.43-.622-.122-.494-.721-.958-.148-1.52a1.831,1.831,0,0,0-1.883-.308,14.284,14.284,0,0,1-3.354.591c-.862.079-1.155-.256-1.369-1.235a4.719,4.719,0,0,1-.629.266,11.342,11.342,0,0,1-1.918.434c-.964.073-1.273-.227-1.459-1.156-1.709.535-2.365.391-2.867-.677-.28.056-.579.1-.865.178a2.388,2.388,0,0,1-1.863-.233.944.944,0,0,1-.089-1.658,1.639,1.639,0,0,1,.428-.219,19.087,19.087,0,0,0,4.247-1.9c1.321-.778,2.677-1.5,3.984-2.3,1.492-.915,2.9-1.972,4.426-2.825a32.141,32.141,0,0,1,11.609-3.6c2.9-.388,5.814-.759,8.73-1.041a36.9,36.9,0,0,1,7.541.245c1.1.119,2.22.029,3.319.147,1.2.128,2.393.378,3.586.592.668.12,1.327.285,1.994.412,2.367.451,4.731.926,7.108,1.318a4.614,4.614,0,0,0,1.8-.162c1.714-.426,3.391-1.037,5.124-1.337a10.036,10.036,0,0,1,3.76.034,5.55,5.55,0,0,1,2.46,1.527,9.284,9.284,0,0,0,4.739,2.428,4.169,4.169,0,0,1,2.388,1.308,1.06,1.06,0,0,0,.155.145c.659.492.684.913.063,1.446a3.237,3.237,0,0,1-2.285.779c-.817-.032-1.631-.172-2.444-.281a5.766,5.766,0,0,0-4.144.577,5.275,5.275,0,0,1-3.429.834c-1.511-.131-3.024-.277-4.521-.511a10.015,10.015,0,0,0-4.177.259,11.728,11.728,0,0,0-6.195,3.512,1.022,1.022,0,0,0-.257.811c.067,1.552.168,3.109.1,4.656a5.506,5.506,0,0,1-1.319,3.281,27.96,27.96,0,0,1-2.147,2.067,2.708,2.708,0,0,0-.27.329c-.692.909-1.408,1.8-2.068,2.734-.814,1.15-1.617,2.312-2.363,3.507-1.383,2.212-2.768,4.425-4.061,6.69-.892,1.563-1.624,3.217-2.442,4.824-.487.958-1.4,1.387-2.076.765-1.057-.978-2.408-1.794-2.66-3.427a.642.642,0,0,0-.3-.441,3.94,3.94,0,0,1-2.406-3.136,18.156,18.156,0,0,1-.11-2.221,1.2,1.2,0,0,0-.17-.524C2721.075,5323.016,2720.707,5322.454,2720.278,5321.78Zm2.279.289c.175-.269.266-.441.387-.589a29.277,29.277,0,0,1,2.262-2.7c1.328-1.272,2.837-2.357,4.147-3.646a25.175,25.175,0,0,1,4.984-3.6,3.246,3.246,0,0,1,.573-.29c.1-.034.227.026.342.043-.025.113-.012.262-.081.33a4.521,4.521,0,0,1-.694.588,28.868,28.868,0,0,0-5.278,4.193,40.235,40.235,0,0,0-2.9,3.149c-.949,1.247-1.714,2.634-2.552,3.965a3.642,3.642,0,0,0,.371,3.748,6.811,6.811,0,0,0,.518.445,13.86,13.86,0,0,1,2.234-4.079c.723-1.06,1.33-2.2,1.991-3.3,1.548-2.588,3.873-4.421,6.145-6.3a4.861,4.861,0,0,1,.932-.486l.081.13a2.352,2.352,0,0,1-.185.241c-.827.817-1.636,1.653-2.489,2.441a23.536,23.536,0,0,0-5.494,7.975c-.223.5-.555.961-.779,1.465-.412.925-.783,1.868-1.163,2.806a.611.611,0,0,0-.028.312,3.334,3.334,0,0,0,1.737,2.511c.27-.461.566-.91.805-1.387.59-1.182,1.079-2.421,1.743-3.558,1.3-2.237,2.729-4.405,4.055-6.63a35.825,35.825,0,0,1,6.375-7.966c1.5-1.4,1.609-3.157,1.643-4.967.019-1.029-.185-2.063-.159-3.092a27.372,27.372,0,0,0-1.1-7.445,24.583,24.583,0,0,0-1.3-3.279.474.474,0,0,0-.321-.221,11.191,11.191,0,0,0-1.8-.233c-.912,0-1.824.1-2.736.168-1.585.111-3.171.21-4.754.349a5.5,5.5,0,0,0-1.077.319l.03.188h3.874c-1.225.251-2.447.408-3.658.628a1.626,1.626,0,0,0-1.529,1.536,25.683,25.683,0,0,1,6.07-.094,8.8,8.8,0,0,1-1.583.207,15.734,15.734,0,0,0-4.478.966c-.625.236-.679.4-.536,1.16.737-.084,1.48-.155,2.219-.255a18.668,18.668,0,0,1,5.441-.27,3.891,3.891,0,0,1,.657.229l-.045.2c-.24.024-.481.065-.722.069a8.107,8.107,0,0,0-1.177-.01c-2.378.392-4.752.809-7.124,1.235a1.229,1.229,0,0,0-.537.3,1.663,1.663,0,0,0-.27,2.146c1.249-.417,2.532-.755,3.74-1.269a14.419,14.419,0,0,1,5.03-1.192c.268-.012.539.022.809.035l.012.148c-.141.048-.281.1-.423.142-1.26.391-2.529.756-3.779,1.177-1.556.525-3.1,1.093-4.641,1.65-.182.065-.415.132-.506.274a3.334,3.334,0,0,0-.268.767,2.748,2.748,0,0,0,.665.164,11.673,11.673,0,0,0,4.675-1.258,10.284,10.284,0,0,1,4.184-1.042,4.916,4.916,0,0,1,.727.122l-10.458,3.618-.593,1.469.116.156c1.114-.4,2.263-.735,3.335-1.231a21.639,21.639,0,0,1,6.346-2.054,4.743,4.743,0,0,1,.952.067l.017.2c-.347.117-.69.243-1.04.349-1.161.35-2.342.641-3.48,1.054-1.224.444-2.407,1-3.608,1.508-.723.3-1.463.575-2.166.919a2.575,2.575,0,0,0-1.232,2.541c.143-.095.279-.172.4-.266a24.908,24.908,0,0,1,9.818-4.62,3.456,3.456,0,0,1,.756-.008l.025.229c-.252.1-.5.216-.756.313-.931.354-1.889.648-2.791,1.063a53.5,53.5,0,0,0-7.829,4.935,3.433,3.433,0,0,0-1.279,3.408c.01.267.045.533.068.8l.14.046a22.283,22.283,0,0,1,6.639-5.686c3.6-2.223,6.781-3.447,7.95-3.307a14.4,14.4,0,0,0-2.168.826c-2.132,1.2-4.228,2.469-6.32,3.741a5.68,5.68,0,0,0-1.184,1c-1.4,1.5-2.733,3.071-4.164,4.543-1.279,1.316-1.271,2.866-1.042,4.494A2.307,2.307,0,0,0,2722.557,5322.069Zm1.943-26.276-.146-.135c-.153.084-.313.156-.457.252-1.159.77-2.341,1.509-3.467,2.324-3.175,2.295-6.417,4.486-9.768,6.516a1.091,1.091,0,0,0-.171.189c.529.2,1,.406,1.5.545a1.817,1.817,0,0,0,1.9-.716c.207,0,.5.076.572-.019.1-.122.036-.381.029-.581-.014-.4-.316-.811.113-1.324l.617,1.441a.525.525,0,0,0,.432-.728,4.711,4.711,0,0,1-.071-1.224c0-.131.181-.255.28-.383a1.489,1.489,0,0,1,.219.382c.083.384.132.776.2,1.174.688-.222.532-.709.52-1.141-.009-.334-.155-.71.368-1l.189,1.394a.754.754,0,0,0,.667-.921,4.2,4.2,0,0,1,.145-1.016l.261.019.1,1.158a.591.591,0,0,0,.65-.722,4.3,4.3,0,0,1,.019-.856,2.546,2.546,0,0,1,.206-.544c.185.872.2,1.694.361,2.486a16.117,16.117,0,0,0,.722,2.29,4.094,4.094,0,0,0,1.464,1.839,7.635,7.635,0,0,1-.625-1.106,14.773,14.773,0,0,1-.61-5.082,2.681,2.681,0,0,1,.387-.932l.2.061a14.526,14.526,0,0,0,.988,5.854c.179-.316.326-.559.456-.811a.451.451,0,0,0,.067-.292c-.2-.623-.432-1.236-.622-1.861a3.056,3.056,0,0,1,.376-3.188,1.4,1.4,0,0,0,.4-.989,2.053,2.053,0,0,1,1.1-1.785C2724.251,5296.245,2724.356,5295.986,2724.5,5295.793Zm19.8,5.11c.936-.6,1.065-.838.693-1.812a12.975,12.975,0,0,0-2.773-4.611c-.3-.3-.652-.549-.98-.822l-.109.092c1.567,2.487,1.478,5.424,2.353,8.121a21.657,21.657,0,0,0-.48-4.2C2744.213,5298.534,2744.071,5299.768,2744.3,5300.9Zm6.811-4.92.281-.1.59,1.259a3.741,3.741,0,0,0-.8-2.8l-1.656.15a6.38,6.38,0,0,1,1.074,3.647c.785-.121.874-.249.733-1C2751.264,5296.757,2751.189,5296.37,2751.116,5295.983Zm18.96,1.577-.015-.217-4.313-.976-.07.979c1.194.145,2.354.306,3.519.413A2.926,2.926,0,0,0,2770.076,5297.56Zm-51.9,6.338c-.626.222-.691.295-.374.9a13.969,13.969,0,0,0,1.1,1.7c.109.15.373.187.625.3Zm2.291,2.554-1.346-3.467c-.122.311-.382.634-.318.868A8.265,8.265,0,0,0,2720.47,5306.452Zm-14.4-4.031-.188.009c.023.194-.024.448.082.573.476.565,1.147.473,1.778.41.174-.017.331-.215.495-.33C2706.986,5303.218,2706.589,5303.114,2706.075,5302.421Zm1.1-1.441-.084-.2c-.5-.057-1.092.2-1.453-.391-.017-.029-.213-.006-.223.026-.039.124-.091.348-.042.378a2.684,2.684,0,0,0,.956.463C2706.595,5301.289,2706.892,5301.08,2707.176,5300.98Zm4.125,1.558a3.516,3.516,0,0,1-.963.207,3,3,0,0,1-.815-.342c-.168.381-.084.639.261.8A1.2,1.2,0,0,0,2711.3,5302.538Zm-10.758-1.2c-.212.562.014.8.375.945.615.248,1.141.12,1.375-.331C2701.663,5301.953,2700.969,5302.184,2700.543,5301.335Zm10.151-.548a3.836,3.836,0,0,1-.585-.007,4.271,4.271,0,0,1-.588-.169c-.115-.035-.229-.074-.344-.111,0,.148-.047.326.017.439C2709.455,5301.393,2710.365,5301.324,2710.694,5300.787Zm-5.931,1.157c-.664-.031-1.249-.073-1.48-.83-.242.4-.224.667.1.893A1.015,1.015,0,0,0,2704.763,5301.944Zm1.472-3.17-1.069-.735c-.25.157-.249.407-.052.667A.79.79,0,0,0,2706.235,5298.774Zm3.82.261-1.3-.564c.055.248.04.509.162.658A.784.784,0,0,0,2710.055,5299.035Zm50.6-3.476.038-.175a2.337,2.337,0,0,0-.517-.413.669.669,0,0,0-.481.077c-.086.041-.186.261-.158.293a.774.774,0,0,0,.408.284A3.154,3.154,0,0,0,2760.655,5295.559Zm-48.379,1.321c-.245-.217-.431-.389-.626-.55a2.015,2.015,0,0,0-.274-.168c-.058.1-.155.2-.167.307C2711.157,5296.917,2711.614,5297.133,2712.276,5296.88Zm4.2-.908-1.266-.367C2715.292,5296.248,2715.821,5296.43,2716.478,5295.972Zm-2.2,3.154-1.3-.3c.169.252.237.474.38.544A.62.62,0,0,0,2714.279,5299.126Zm3.233,6.856-.5-1.181C2716.7,5305.4,2717.181,5305.66,2717.512,5305.982Z" fill="#2b4937"/>
        <path id="Caminho_2099" data-name="Caminho 2099" d="M2667.867,5321.625c-.335-.3-.643-.545-.913-.826a2.91,2.91,0,0,1-.573-.756c-.254-.55-.119-.837.462-1.171-.017-.662-1.07-1.139-.351-1.9-.394-.53-.772-1.024-1.131-1.532a.77.77,0,0,1-.159-.445.863.863,0,0,1,.2-.558c.091-.08.347.015.525.053a.875.875,0,0,1,.233.133c-.357-.621-.707-1.216-1.04-1.82a.955.955,0,0,1-.151-.507.978.978,0,0,1,.241-.634c.119-.089.412.037.621.09a1.549,1.549,0,0,1,.336.221c-.342-.653-.672-1.18-.9-1.749a5.859,5.859,0,0,1-.368-1.5,1,1,0,0,1,.977-1.263c-.084-.561-.209-1.119-.24-1.682-.033-.595.207-.793.826-.784a16.049,16.049,0,0,1-.386-1.772,4.9,4.9,0,0,1,.1-1.416.585.585,0,0,1,.455-.342c.158.006.359.205.449.37a3.51,3.51,0,0,1,.224.738l.16-.032c-.092-.675-.183-1.349-.277-2.024-.015-.106-.048-.209-.062-.315-.045-.354-.16-.789.312-.9.424-.1.465.337.589.623a1.635,1.635,0,0,0,.452.652,4.854,4.854,0,0,0-.051-.5,9.347,9.347,0,0,1-.009-3.414.685.685,0,0,1,.074-.308c.178-.217.383-.411.578-.614.182.214.466.4.527.647.175.709.245,1.443.383,2.162a20.288,20.288,0,0,0,3.24,7.01c.74,1.161,1.535,2.288,2.225,3.477.537.925.878,1.965,1.435,2.876,1.044,1.706,2.155,3.374,3.286,5.025a10.631,10.631,0,0,1,2,7.588,18.225,18.225,0,0,0,1.7,10.067,35.779,35.779,0,0,0,4.069,6.476,3.845,3.845,0,0,0,1.128.89,12.315,12.315,0,0,0,6.167,1.745c1.286.03,2.574.046,3.86.026,1.875-.031,3.51-.923,5.222-1.529a6.608,6.608,0,0,1,4.071-.547,7.019,7.019,0,0,1,4.724,3.466,5.749,5.749,0,0,0,2.216,1.939,35.5,35.5,0,0,0,3.333,1.46,2.437,2.437,0,0,1,.888.645.541.541,0,0,1-.336.912,10.041,10.041,0,0,1-4.2.194c-1.144-.189-2.274-.464-3.412-.692a.827.827,0,0,0-.422.009,7.36,7.36,0,0,1-4.777-.323,30.843,30.843,0,0,0-3.04-1,5.191,5.191,0,0,0-5.3,1.933c-.664.811-1.386,1.573-2.12,2.4.353.324.7.677,1.086.988a1.956,1.956,0,0,1,.736,1.756,6.735,6.735,0,0,1-.282,1.739c-.825,2.322-1.746,4.61-2.547,6.939-.451,1.311-.719,2.684-1.1,4.019a3.3,3.3,0,0,1-.54,1.128c-.417.525-1.132.415-1.581-.224a.8.8,0,0,0-.775-.393,1.615,1.615,0,0,1-1.58-.817c-.017-.032-.028-.083-.053-.091-.654-.228-1.207-.743-1.814-.926-.832-.249-1.474-.478-1.63-1.409a.763.763,0,0,0-.085-.186c-1.049.169-1.386-.063-1.957-1.331a1.614,1.614,0,0,1-1.8-1.512.585.585,0,0,0-.268-.392c-1.332-.528-1.514-.8-1.382-2.166-1.147-.774-1.3-2.06-.328-3.693-.559.112-1.005.192-1.447.291a18.58,18.58,0,0,1-2.893.635,19.327,19.327,0,0,1-5.828-.721.977.977,0,0,0-.648.118c-1.557.877-3.1,1.774-4.65,2.665-.031.018-.061.05-.093.053-.3.033-.656.17-.887.056-.175-.086-.192-.493-.3-.833a2.8,2.8,0,0,1-.772-.018,2.071,2.071,0,0,1-.6-.417,4.269,4.269,0,0,1,.511-.512,2.859,2.859,0,0,1,.64-.232,4.91,4.91,0,0,1-1.081-.325c-.193-.114-.284-.4-.421-.611.211-.12.416-.332.632-.343.7-.034,1.4.072,2.089,0,.871-.089,1.73-.3,2.594-.456l0-.284c-.743-.141-1.481-.307-2.228-.418-1.047-.156-2.155-.07-3-.924-.1-.1-.43-.045-.618.03-1.293.517-2.572,1.07-3.865,1.589-.79.317-1.082.119-1.146-.73-.015-.194,0-.391,0-.659-.257.034-.5.062-.733.1-.424.06-.846.152-1.273.181a.74.74,0,0,1-.835-1.021c.069-.272.175-.534.273-.831-.618,0-1.188.017-1.757-.006a6.016,6.016,0,0,1-1.215-.141.732.732,0,0,1-.506-1.124c.194-.376.454-.717.7-1.092-.332-.2-.692-.4-1.026-.634-.967-.676-.976-1.514.026-2.115a10.6,10.6,0,0,1,1.654-.657c-.009-.052-.03-.153-.046-.255-.116-.714.146-1.178.863-1.287a7.559,7.559,0,0,1,1.591.033,6.745,6.745,0,0,1,.775.132c.328-.927.608-1.2,1.566-1.171,1.01.034,2.016.222,3.024.332.22.023.5.091.657-.013a12.509,12.509,0,0,1,4.351-1.44c.453-.107.814-.175,1.054-.7.211-.461.724-.775,1.06-1.19a.99.99,0,0,0,.214-.65,2.529,2.529,0,0,1,.528-1.909c.5-.628.984-1.268,1.5-1.931a2.167,2.167,0,0,1,.16-2.849.573.573,0,0,0,.038-.806,1.242,1.242,0,0,1,0-1.548.846.846,0,0,0,.088-.617,1.908,1.908,0,0,1,.313-1.963.51.51,0,0,0-.007-.451,1.512,1.512,0,0,1-.053-1.486.426.426,0,0,0,.006-.343,1.039,1.039,0,0,1,.186-1.376,12.373,12.373,0,0,1-1.3-1.626C2667.552,5322.972,2667.031,5322.312,2667.867,5321.625Zm10.9-3.648-.234-.015c-.07.289-.153.575-.208.867-.112.584-.194,1.175-.326,1.755-.026.12-.215.2-.329.3-.1-.137-.293-.293-.271-.409a9.675,9.675,0,0,1,.357-1.163c-.585-.772-.467-1.331.563-2.033l-2.711-3.993-.7.517.843,1.531-.777.078,1.09,1.459-.9.656a8.316,8.316,0,0,0,.687.774c.768.677.762.78-.229,1.138a9.559,9.559,0,0,1,.638.851.652.652,0,0,1,.071.52c-.042.091-.321.135-.474.1a1.821,1.821,0,0,1-1.128-1.914.982.982,0,0,0-.088-.656c-.432-.772-.43-1.142.087-1.738-.6-.849-.595-.847-.323-1.843a.558.558,0,0,0-.08-.338c-.514-1.046-.255-1.552,1.057-1.76-.813-1.423-1.572-2.811-2.389-4.165a19.714,19.714,0,0,1-2.331-4.328,11.631,11.631,0,0,0-.641-1.417l-.216.062a3.178,3.178,0,0,0,.074.614,14.009,14.009,0,0,0,1.93,4.278,4.175,4.175,0,0,1,.411,1.093l-.2.11a5,5,0,0,1-.513-.56,19.534,19.534,0,0,1-2.646-5.308,3.45,3.45,0,0,0-.257-.529,6.287,6.287,0,0,0,.23,1.766c.157.554.207,1.018-.5,1.234a13.769,13.769,0,0,0,.65,1.343,18.543,18.543,0,0,0,3.364,4.154,1.124,1.124,0,0,1,.517,1.129,2.267,2.267,0,0,1-.465-.179,12.72,12.72,0,0,1-3.643-3.431,3.289,3.289,0,0,0-1.551-1.131,2.574,2.574,0,0,0,.164.476c.533.842,1.055,1.692,1.62,2.512a13.32,13.32,0,0,0,4.124,3.994c.178.107.262.373.389.565a1.753,1.753,0,0,1-.669-.073,16.473,16.473,0,0,1-5.185-4.422,5.777,5.777,0,0,0-1.175-.948l-.154.151a4.351,4.351,0,0,0,.284.669,32.352,32.352,0,0,0,1.942,2.956,7.865,7.865,0,0,0,3.606,2.933,2.22,2.22,0,0,1,.6.224,3.081,3.081,0,0,1,.466.5c-.213.044-.425.09-.638.13a.208.208,0,0,1-.1-.016,10.741,10.741,0,0,1-4.674-2.92,5.075,5.075,0,0,0-.789-.611l-.1.122a15.568,15.568,0,0,0,1.737,2.108,21.81,21.81,0,0,0,2.66,1.781c.27.172.583.273.861.433a.369.369,0,0,1,.17.289.336.336,0,0,1-.255.206,2.109,2.109,0,0,1-.887-.088,11.623,11.623,0,0,1-3.752-2.526,2.09,2.09,0,0,0-.579-.325.541.541,0,0,0,.138.416,10.124,10.124,0,0,0,3.82,2.763,7.947,7.947,0,0,1,.886.381,3.187,3.187,0,0,1,.485.411c-.981.435-1.664-.179-2.384-.415a17.761,17.761,0,0,1-2.163-1.046,7.159,7.159,0,0,0,2.985,2.51c.35.133.711.245,1.048.408a4.033,4.033,0,0,1,.59.431c-1.343.623-2.3-.343-3.426-.571a7.767,7.767,0,0,0,4.176,2.078,1.152,1.152,0,0,1-1.393.459c-.663-.2-1.279-.548-1.94-.751a5.508,5.508,0,0,0-1.252-.082c.318,1,1.1,1.281,1.717,1.747a3.009,3.009,0,0,0,2.219.773l-.366.724.786.2a3.764,3.764,0,0,1-.266.886c-.469.79-.4,1.071.438,1.417.042.018.067.074.118.132-.334.467-.687.916-.989,1.4a1.228,1.228,0,0,0,.42,1.7.477.477,0,0,1,.24.673,5.3,5.3,0,0,1-.362.715c-.215.337-.375.672-.091,1.035a.9.9,0,0,0,1.017.256,9.693,9.693,0,0,1,1.113-.113,13.7,13.7,0,0,1-.823,1.195c-.107.125-.35.144-.536.186a5.03,5.03,0,0,0-.844.163,11.06,11.06,0,0,0-.973.557,2.353,2.353,0,0,0-1.085,2.676c.094.325.239.423.607.405a13.885,13.885,0,0,1,1.766.123l.03.213c-.448.19-.891.4-1.347.567-1.085.408-2.191.766-3.259,1.215a5.232,5.232,0,0,0-1.065.843,39.684,39.684,0,0,1,4.118-.446,10.656,10.656,0,0,1,4.048.369,2.1,2.1,0,0,1-1.664.335,14.006,14.006,0,0,0-4.172.261,64.58,64.58,0,0,1,13.941,1.7.953.953,0,0,1-.5.192,11.7,11.7,0,0,0-3.627.5,29.644,29.644,0,0,0-5.817,2.29c-.877.482-1.808.863-2.686,1.343a5.905,5.905,0,0,0-3.376,3.99c-.151.748-.118.766.657.874.1-.508.168-1.022.3-1.519.039-.143.257-.239.392-.356a1.572,1.572,0,0,1,.154.509c-.027.461-.118.919-.151,1.381a1.151,1.151,0,0,0,.141.408l.142-.017c.147-.489.269-.986.453-1.46.063-.162.279-.263.425-.393a1.6,1.6,0,0,1,.153.562c-.064.527-.183,1.047-.312,1.735.3-.126.546-.155.656-.293a7.405,7.405,0,0,0,.606-1c.215-.384.418-.776.627-1.164l.225.1a4.175,4.175,0,0,1-.821,2.56.738.738,0,0,0,.316-.166,5.372,5.372,0,0,0,1.651-2.822,3.913,3.913,0,0,1,.231-.588l.182.048c.372.718-.028,1.408-.273,2.037a12.153,12.153,0,0,1-1.127,1.87c1.351-1.152,2.486-2.4,1.846-4.465a3.9,3.9,0,0,1-.6-.227c-.14-.075-.312-.221-.332-.356s.106-.316.212-.44c.179-.209.417-.369.586-.584.425-.54.881-.574,1.325-.064.144.166.274.345.419.529a2.7,2.7,0,0,1,2.232-.58,6.915,6.915,0,0,1-.7.623.679.679,0,0,0-.215.433c0,.079.207.178.334.241a1.053,1.053,0,0,0,.951-.077,8.708,8.708,0,0,1,1.463-.364l.078.219-1.349.983a10.217,10.217,0,0,0,.9.726,1.426,1.426,0,0,0,1.42-.016,1.6,1.6,0,0,1,1.418-.082l-1.452,1.812a1.393,1.393,0,0,0,1.775-.3,3.7,3.7,0,0,1,1.205-.769c.162-.078.417.037.63.064-.085.184-.122.424-.263.542a7.087,7.087,0,0,0-2.174,3.438c-.1.33-.353.614-.459.943a3.293,3.293,0,0,0-.06.819l.171.035a10.418,10.418,0,0,1,.967-1.388,22.448,22.448,0,0,1,1.977-1.785c.13-.106.424-.014.642-.013a1.716,1.716,0,0,1-.188.6,14.135,14.135,0,0,1-1.1,1.175,8.4,8.4,0,0,0-1.775,3.152.563.563,0,0,0,0,.318c.079.315.365.443.547.23a11.166,11.166,0,0,0,1.22-1.715c.446-.784.675-1.695,1.51-2.229a6.278,6.278,0,0,0,.9-.817c.168-.162.322-.338.482-.508-1.749,2.071-2.118,4.657-2.812,7.113a9.944,9.944,0,0,0,.635-1.392,9.291,9.291,0,0,1,1.908-3.382,3.078,3.078,0,0,1,.514-.345l.112.121q-.1.264-.2.527c-.5,1.321-1.022,2.632-1.476,3.966a2,2,0,0,0,.405,1.986,6.508,6.508,0,0,0,.244-.781,14.127,14.127,0,0,1,2-5.165,4.694,4.694,0,0,1,.575-.627l.128.089c-.029.153-.046.309-.088.458-.464,1.631-.918,3.265-1.4,4.889a3.848,3.848,0,0,0,.418,2.683c.019.046.109.062.163.09.04-.051.079-.078.078-.1a9.222,9.222,0,0,1,.872-4.319c.517-1.118,1.022-2.241,1.568-3.345.117-.237.385-.4.689-.7a1.978,1.978,0,0,1,.027.438,1.526,1.526,0,0,1-.166.393c-1.065,1.716-1.3,3.692-1.735,5.6a6.389,6.389,0,0,0-.082,1.6,3.939,3.939,0,0,0,.221.861,13.74,13.74,0,0,1,2.587-7.08,1.043,1.043,0,0,1-.007.684,19.983,19.983,0,0,0-1.228,4.816,9.414,9.414,0,0,0,.041,2.073c.028.4.288.7.7.634.121-.02.256-.462.241-.7a11.22,11.22,0,0,1,1.03-5.318,6.832,6.832,0,0,1,.717-1.055l.207.1c-.228,1.254-.488,2.5-.674,3.764a12.584,12.584,0,0,0-.022,3.851c.457-1.462.879-2.879,1.343-4.282.5-1.509,1.066-3,1.547-4.511.335-1.052.581-2.132.854-3.2a.953.953,0,0,0-.353-1c-.675-.612-1.331-1.247-1.97-1.9-.374-.381-.675-.833-1.054-1.207a22.152,22.152,0,0,1-1.94-1.838,5.894,5.894,0,0,0-3.6-2.14c-.954-.188-2.026-.534-2.92.326a1.041,1.041,0,0,1-.556.157c-.814.1-1.627.2-2.443.272-.407.035-.818.006-1.228.006l-.013-.251a15.317,15.317,0,0,1,8.979-1.072l-.663-.434.066-.162c.9-.207,1.634.626,2.56.452-.454-.325-.944-.593-1.411-.9-.165-.107-.413-.352-.379-.443.068-.185.3-.317.473-.453.057-.044.155-.035.375-.077-1.929-.87-3.919-.747-5.794-1.207h4.963a1.548,1.548,0,0,0-.23-.161,8.7,8.7,0,0,1-3.763-3.247,35.13,35.13,0,0,1-3.089-5.324,20.86,20.86,0,0,1-1.83-9.384c.029-.858.128-1.714.129-2.571A9.417,9.417,0,0,0,2678.769,5317.977Zm17.347,27.19a5.007,5.007,0,0,0,1.2,3.612l1.375-.865a10.447,10.447,0,0,1-1.075-1.238,10.917,10.917,0,0,1-.674-1.509Zm20.459,4.144-3.8-2.392-.589,1.523Zm-41.078,3.751a12.092,12.092,0,0,1-.632,1.4,12.232,12.232,0,0,1-.935,1.206c.971.208,1.689-.475,2.088-1.98Zm-1.162-.982a5.039,5.039,0,0,1-1.609,3.365c.962-.055,2.16-1.836,2.236-3.206Zm-14.572-4.295.086-.188a3.522,3.522,0,0,0-.285-.347c-.385-.365-.363-.6.065-.925a1.4,1.4,0,0,0,.248-.381c-.18-.041-.451-.176-.522-.106a2.471,2.471,0,0,0-.664.9.93.93,0,0,0,.254.784C2659.132,5347.7,2659.483,5347.706,2659.763,5347.785Zm16.856,6.211-.814,1.793c.692.008,1.283-.674,1.4-1.671Zm-19.332-5.076.154-.159a1.5,1.5,0,0,1,.014-1.76c-.2-.031-.509-.032-.526.039a5.41,5.41,0,0,0-.213,1.421C2656.72,5348.619,2657.087,5348.767,2657.287,5348.92Zm6.727-1.978c0-.357.006-.639,0-.921,0-.11-.011-.281-.073-.313-.085-.043-.3-.015-.328.043a1.77,1.77,0,0,0-.273.843C2663.379,5346.925,2663.7,5347.037,2664.014,5346.942Zm-.213,3.62c-.214-.446-.328-.681-.439-.918-.052-.112-.1-.227-.145-.341-.127.073-.359.141-.363.22a1.35,1.35,0,0,0,.112.821C2663.09,5350.5,2663.451,5350.482,2663.8,5350.562Zm-8.936-.594-.419-1.528c-.447.261-.374.68-.3,1.029A.605.605,0,0,0,2654.865,5349.968Zm4.146.706a7.968,7.968,0,0,0-.205-.934c-.032-.1-.21-.141-.322-.209a2.537,2.537,0,0,0-.13.963A.382.382,0,0,0,2659.011,5350.674Zm8.157-5.619-.235.007c-.056.177-.2.387-.148.524a2.318,2.318,0,0,0,.45.57c.069-.08.208-.175.195-.236C2667.365,5345.626,2667.259,5345.342,2667.168,5345.055Zm-1.08,2.826-.445-.584c-.09.154-.26.313-.25.459.011.165.184.318.287.477Zm-8.08,5.2.057-.2-.769-.324c0,.127-.054.292.006.373A.483.483,0,0,0,2658.008,5353.083Z" fill="#2b4937"/>
        <path id="Caminho_2100" data-name="Caminho 2100" d="M2626.726,5306.188c-.772.993-1.538,1.991-2.318,2.977-.232.294-.546.528-.749.838a45.721,45.721,0,0,0-3.466,5.531,11.162,11.162,0,0,1-3.563,4.684,6.036,6.036,0,0,1-.873.521c-.1.049-.274-.041-.413-.067a1.245,1.245,0,0,1,.193-.339,15.9,15.9,0,0,0,2-1.839,15.69,15.69,0,0,0,2.089-3.337,21.8,21.8,0,0,1,4.914-7.465c.541-.517,1.133-.983,1.714-1.456a1.489,1.489,0,0,1,.439-.166Z" fill="#2b4937"/>
        <path id="Caminho_2101" data-name="Caminho 2101" d="M2618.691,5321.026l.829-.79c.114.131.311.253.326.394.042.416-.323.969-.57.9C2619.1,5321.479,2618.969,5321.274,2618.691,5321.026Z" fill="#2b4937"/>
        <path id="Caminho_2102" data-name="Caminho 2102" d="M2619.5,5324.083l-.413.6c-.13-.206-.345-.405-.363-.621-.016-.183.2-.385.306-.578Z" fill="#2b4937"/>
        <path id="Caminho_2103" data-name="Caminho 2103" d="M2617.723,5323.08c-.195-.311-.4-.5-.358-.6a2.425,2.425,0,0,1,.449-.571c.114.13.34.281.32.387A3.234,3.234,0,0,1,2617.723,5323.08Z" fill="#2b4937"/>
        <path id="Caminho_2104" data-name="Caminho 2104" d="M2612.946,5331.1c-.274.2-.455.43-.579.4-.169-.038-.295-.27-.44-.419.144-.128.279-.345.433-.359S2612.671,5330.915,2612.946,5331.1Z" fill="#2b4937"/>
        <path id="Caminho_2105" data-name="Caminho 2105" d="M2627.7,5305.282a1.224,1.224,0,0,1,1.192-.7A.975.975,0,0,1,2627.7,5305.282Z" fill="#2b4937"/>
        <path id="Caminho_2106" data-name="Caminho 2106" d="M2601.835,5307.819l.477-.536c.095.159.2.314.284.478a1.116,1.116,0,0,1,.107.3c.032.157.046.318.068.478a1.5,1.5,0,0,1-.574-.126C2602.046,5308.3,2601.981,5308.07,2601.835,5307.819Z" fill="#2b4937"/>
        <path id="Caminho_2107" data-name="Caminho 2107" d="M2604.985,5310.232c.131.246.273.4.239.473a2.583,2.583,0,0,1-.389.49c-.107-.115-.325-.269-.3-.337A3,3,0,0,1,2604.985,5310.232Z" fill="#2b4937"/>
        <path id="Caminho_2108" data-name="Caminho 2108" d="M2739.165,5310.547a2.215,2.215,0,0,1,.205-.5c1.243-1.711,1.077-3.635.686-5.509a29.205,29.205,0,0,0-1.345-4,11.629,11.629,0,0,1-.834-5.5,7.04,7.04,0,0,1,.192-.8l.2-.006a3.876,3.876,0,0,1,.093.654,11.452,11.452,0,0,0,.641,4.475c.365.943.876,1.83,1.313,2.747a9.783,9.783,0,0,1,.734,6.374,3.523,3.523,0,0,1-1.709,2.182Z" fill="#2b4937"/>
        <path id="Caminho_2109" data-name="Caminho 2109" d="M2738.929,5308.429l-.813.695c-.117-.188-.373-.436-.323-.55a1.859,1.859,0,0,1,.595-.637A4.386,4.386,0,0,1,2738.929,5308.429Z" fill="#2b4937"/>
        <path id="Caminho_2110" data-name="Caminho 2110" d="M2730.392,5323.372c-.208.195-.338.423-.479.43-.37.017-.484-.295-.42-.587.043-.2.25-.357.384-.534Z" fill="#2b4937"/>
        <path id="Caminho_2111" data-name="Caminho 2111" d="M2692,5356.81c-.8.173-1.132.076-1.328-.373a1.474,1.474,0,0,1,.7-1.75l.209,1.228.675.174a3.042,3.042,0,0,1,.2-.516c.062-.106.2-.169.3-.252.069.112.14.222.2.337.014.027,0,.07,0,.106-.036,1-.03,1,.957.617l.186,1.356a1.035,1.035,0,0,0,.205,0c.319-.21.677-.487.957-.012a.7.7,0,0,1-.357,1,1.425,1.425,0,0,1-.995.112c-.2-.063-.3-.454-.431-.709a.876.876,0,0,1-.023-.31C2692.6,5357.831,2692.329,5357.643,2692,5356.81Z" fill="#2b4937"/>
        <path id="Caminho_2112" data-name="Caminho 2112" d="M2676.952,5329.024a1.114,1.114,0,0,1-.086-1.379.636.636,0,0,0-.024-.806,1.552,1.552,0,0,1,.149-2.014c.224-.205.5-.388.733-.1.082.1-.062.423-.155.619-.144.3-.371.569-.494.878a.6.6,0,0,0,.333.884c.354.146.412.343.129.647a2.013,2.013,0,0,0-.281.563C2677.165,5328.519,2677.081,5328.724,2676.952,5329.024Z" fill="#2b4937"/>
        <path id="Caminho_2113" data-name="Caminho 2113" d="M2675.893,5322.561c-.705,0-1.572-.931-1.476-1.529a.637.637,0,0,1,.324-.412c.078-.035.281.14.393.254a12.619,12.619,0,0,1,.88.974.815.815,0,0,1,.173.517C2676.182,5322.452,2675.951,5322.525,2675.893,5322.561Z" fill="#2b4937"/>
        <path id="Caminho_2114" data-name="Caminho 2114" d="M2675.666,5341.158a3.058,3.058,0,0,1-.714.182,16.816,16.816,0,0,1-1.869-.074c-.179-.018-.34-.215-.51-.33.176-.1.351-.292.529-.294a18.592,18.592,0,0,1,1.922.082,2.7,2.7,0,0,1,.65.227Z" fill="#2b4937"/>
        <path id="Caminho_2115" data-name="Caminho 2115" d="M2686.159,5344.406c.894.226,1.7.419,2.5.647.124.035.2.232.3.354a1.449,1.449,0,0,1-.475.079c-.765-.14-1.528-.294-2.284-.473a1.86,1.86,0,0,1-.493-.305Z" fill="#2b4937"/>
        <path id="Caminho_2116" data-name="Caminho 2116" d="M2677.293,5321.844c.153-.2.235-.414.377-.467.107-.041.34.078.429.194a3.244,3.244,0,0,1,.507.865.583.583,0,0,1-.15.537.558.558,0,0,1-.545-.066A8.23,8.23,0,0,1,2677.293,5321.844Z" fill="#2b4937"/>
        <path id="Caminho_2117" data-name="Caminho 2117" d="M2687.339,5346.283h-2.411A1.7,1.7,0,0,1,2687.339,5346.283Z" fill="#2b4937"/>
        <path id="Caminho_2118" data-name="Caminho 2118" d="M2675.3,5340.118c-.621.122-1.157.234-1.7.313-.028,0-.187-.34-.133-.423C2673.718,5339.625,2674.848,5339.631,2675.3,5340.118Z" fill="#2b4937"/>
        <path id="Caminho_2119" data-name="Caminho 2119" d="M2688.016,5349.935l-.553.571c-.189-.2-.494-.369-.54-.595a.49.49,0,0,1,.536-.617C2687.637,5349.319,2687.774,5349.642,2688.016,5349.935Z" fill="#2b4937"/>
        <path id="Caminho_2120" data-name="Caminho 2120" d="M2675.1,5338.33c-.236.6-.725.7-1.175.843a.321.321,0,0,1-.267-.552A1.484,1.484,0,0,1,2675.1,5338.33Z" fill="#2b4937"/>
        <path id="Caminho_2121" data-name="Caminho 2121" d="M2670.286,5350.1l.569.136c-.047.141-.068.382-.145.4a1.8,1.8,0,0,1-.575-.022l-.662-.147c.073-.185.1-.473.23-.529.151-.065.389.07.59.118Z" fill="#2b4937"/>
        <path id="Caminho_2122" data-name="Caminho 2122" d="M2685.478,5348.589a5.333,5.333,0,0,1,.552-.563.378.378,0,0,1,.309.1,6.115,6.115,0,0,1,.019.994.533.533,0,0,1-.375.037A3.742,3.742,0,0,1,2685.478,5348.589Z" fill="#2b4937"/>
        <path id="Caminho_2123" data-name="Caminho 2123" d="M2671.676,5351.671c-.19-.291-.376-.481-.341-.538a7.44,7.44,0,0,1,.6-.788c.1.1.3.239.283.288A11.606,11.606,0,0,1,2671.676,5351.671Z" fill="#2b4937"/>
        <path id="Caminho_2124" data-name="Caminho 2124" d="M2677.226,5331.655l-.406.436a2.091,2.091,0,0,1-.418-.645c-.03-.142.2-.339.321-.512Z" fill="#2b4937"/>
        <path id="Caminho_2125" data-name="Caminho 2125" d="M2690.188,5355.044l-.532.445c-.109-.176-.321-.362-.3-.523.022-.193.239-.364.372-.544Z" fill="#2b4937"/>
        <path id="Caminho_2126" data-name="Caminho 2126" d="M2689.8,5353.71a2.643,2.643,0,0,1-.347-.74c-.008-.108.225-.234.35-.352.155.166.373.311.439.507C2690.275,5353.223,2690.032,5353.415,2689.8,5353.71Z" fill="#2b4937"/>
        <path id="Caminho_2127" data-name="Caminho 2127" d="M2692.355,5353.586a4.232,4.232,0,0,1,.383.678c.019.051-.3.3-.331.284a1.694,1.694,0,0,1-.493-.531c-.04-.079.156-.277.245-.42Z" fill="#2b4937"/>
        <path id="Caminho_2128" data-name="Caminho 2128" d="M2676.429,5330.149l.476-.545c.09.146.273.309.25.434a1.847,1.847,0,0,1-.328.554Z" fill="#2b4937"/>
        <path id="Caminho_2129" data-name="Caminho 2129" d="M2678.5,5338.358a2.426,2.426,0,0,1-.631.261c-.094.012-.218-.206-.328-.319a2,2,0,0,1,.538-.3c.121-.026.277.119.418.187Z" fill="#2b4937"/>
        <path id="Caminho_2130" data-name="Caminho 2130" d="M2676.852,5337.661c.157.213.334.379.306.427a1.145,1.145,0,0,1-.412.4c-.036.02-.321-.239-.3-.308C2676.5,5338.015,2676.666,5337.884,2676.852,5337.661Z" fill="#2b4937"/>
        <path id="Caminho_2131" data-name="Caminho 2131" d="M2686.249,5354.244a2.433,2.433,0,0,1-.579.38c-.074.02-.207-.179-.313-.279a1.855,1.855,0,0,1,.421-.39C2685.844,5353.923,2686.009,5354.091,2686.249,5354.244Z" fill="#2b4937"/>
        <path id="Caminho_2132" data-name="Caminho 2132" d="M2680.215,5338.168c-.249.169-.374.314-.511.328-.111.011-.238-.138-.357-.215.1-.118.189-.3.312-.333S2679.942,5338.051,2680.215,5338.168Z" fill="#2b4937"/>
      </g>
    </g>
  </g>
</svg>
