<svg xmlns="http://www.w3.org/2000/svg" width="52.821" height="40.305" viewBox="0 0 52.821 40.305">
  <g id="Grupo_761" data-name="Grupo 761" transform="translate(-480.299 -15273.884)">
    <path id="Caminho_1173" data-name="Caminho 1173" d="M514.651,15291.728l-11.4-6.236a2.094,2.094,0,0,0-3.1,1.836v12.367a2.089,2.089,0,0,0,3.085,1.843l11.4-6.128a2.094,2.094,0,0,0,.013-3.682Zm-11.474,6.41" fill="#2b4937"/>
    <g id="Grupo_760" data-name="Grupo 760">
      <path id="Caminho_1174" data-name="Caminho 1174" d="M532.127,15283.72l0-.023c-.044-.415-.479-4.109-2.275-5.987a8.4,8.4,0,0,0-5.561-2.608c-.093-.01-.179-.02-.255-.029l-.091-.011c-6.821-.494-17.121-.563-17.225-.563H506.7c-.1,0-10.4.069-17.286.563l-.091.011c-.073.01-.154.018-.242.028a8.185,8.185,0,0,0-5.528,2.688c-1.71,1.858-2.205,5.473-2.255,5.879l-.006.053c-.015.173-.379,4.286-.379,8.417v3.86c0,4.13.364,8.244.379,8.417l0,.026c.044.408.478,4.034,2.266,5.915a8.566,8.566,0,0,0,5.746,2.569c.21.024.39.044.514.066l.119.017c3.938.374,16.286.56,16.809.567h.032c.1,0,10.4-.069,17.225-.565l.09-.009c.086-.011.183-.022.289-.033a7.99,7.99,0,0,0,5.48-2.622c1.711-1.858,2.206-5.474,2.256-5.88l.006-.052c.015-.173.38-4.287.38-8.417v-3.86c0-4.131-.365-8.244-.38-8.417ZM529.483,15296c0,3.823-.334,7.76-.366,8.121-.128,1-.649,3.282-1.483,4.188a4.973,4.973,0,0,1-3.568,1.656c-.117.012-.224.024-.322.036-6.6.477-16.509.55-16.966.553-.512-.007-12.679-.193-16.5-.549-.2-.031-.407-.056-.63-.081a5.644,5.644,0,0,1-3.866-1.615l-.028-.029a8.7,8.7,0,0,1-1.454-4.146c-.024-.273-.367-4.257-.367-8.133v-3.86c0-3.818.333-7.751.365-8.12a9.394,9.394,0,0,1,1.484-4.188,5.218,5.218,0,0,1,3.643-1.726l.247-.028c6.693-.48,16.676-.551,17.035-.555s10.337.074,16.971.555l.266.031a5.41,5.41,0,0,1,3.7,1.677l.012.013c.819.854,1.325,3.029,1.454,4.208.023.257.367,4.249.367,8.134Zm0,0" fill="#2b4937"/>
      <path id="Caminho_1175" data-name="Caminho 1175" d="M506.778,15314.188h-.038c-1.341-.021-13.045-.207-16.858-.57l-.146-.021c-.135-.022-.3-.042-.5-.062a9.115,9.115,0,0,1-6.13-2.768c-1.877-1.973-2.348-5.562-2.423-6.262-.019-.21-.386-4.329-.386-8.509v-3.86c0-4.18.367-8.3.382-8.472l.007-.063c.054-.437.574-4.229,2.414-6.229a8.745,8.745,0,0,1,5.908-2.882l.34-.04c6.9-.5,17.248-.567,17.348-.567.123,0,10.468.07,17.289.566l.11.011c.09.011.17.021.259.03a8.959,8.959,0,0,1,5.941,2.8c1.935,2.024,2.392,5.907,2.438,6.343l0,.031c0,.042.383,4.262.383,8.474v3.86c0,4.207-.379,8.432-.382,8.473l-.008.066c-.053.43-.565,4.216-2.414,6.226a8.548,8.548,0,0,1-5.866,2.816c-.1.011-.193.02-.274.031l-.106.011c-6.905.5-17.183.566-17.286.568Zm-.062-39.077c-.113,0-10.423.069-17.258.562l-.306.036a7.625,7.625,0,0,0-5.145,2.492c-1.287,1.4-1.926,4.141-2.1,5.542l0,.041c-.015.162-.376,4.228-.376,8.353v3.86c0,4.125.361,8.191.377,8.362.153,1.418.765,4.167,2.1,5.572a8.038,8.038,0,0,0,5.372,2.385c.223.024.417.048.549.07l.1.014c3.738.354,15.4.541,16.714.561.14,0,10.376-.064,17.221-.562l.071-.008c.075-.01.177-.021.29-.032a7.436,7.436,0,0,0,5.089-2.425c1.62-1.761,2.082-5.389,2.1-5.542l.005-.048c0-.026.376-4.194.376-8.347v-3.86c0-4.156-.373-8.319-.377-8.36l0-.028c-.148-1.416-.761-4.207-2.106-5.616a7.837,7.837,0,0,0-5.187-2.421c-.1-.011-.186-.021-.267-.032l-.073-.007C517.126,15275.181,506.816,15275.111,506.716,15275.111Zm.066,36.053c-.138,0-12.621-.186-16.558-.551-.227-.035-.428-.059-.642-.082a6.25,6.25,0,0,1-4.251-1.813c-1.019-1.061-1.516-3.42-1.638-4.521-.017-.187-.37-4.266-.37-8.2v-3.86c0-3.822.33-7.738.367-8.173.147-1.132.675-3.5,1.643-4.551a5.822,5.822,0,0,1,4.024-1.919l.237-.028c6.308-.453,15.335-.545,17.081-.559.458,0,10.393.074,17.051.555l.29.034a6.028,6.028,0,0,1,4.081,1.867c1.009,1.051,1.506,3.45,1.629,4.572.039.449.37,4.376.37,8.2v3.86c0,3.917-.353,8-.368,8.174-.116.912-.633,3.454-1.642,4.55a5.568,5.568,0,0,1-3.956,1.851c-.111.012-.215.023-.308.035C517.123,15311.092,507.2,15311.162,506.782,15311.164Zm-.077-33.031c-1.76.015-10.752.106-16.987.552l-.218.027a4.624,4.624,0,0,0-3.261,1.528,8.907,8.907,0,0,0-1.33,3.855c-.034.4-.36,4.271-.36,8.041v3.86c0,3.882.35,7.909.365,8.079a8.313,8.313,0,0,0,1.285,3.775l.031.032a5.071,5.071,0,0,0,3.49,1.428c.233.026.453.053.658.086,3.788.35,16.284.538,16.409.541.4,0,10.287-.073,16.913-.553l.3-.035a4.376,4.376,0,0,0,3.179-1.458,8.991,8.991,0,0,0,1.329-3.853c.012-.146.361-4.179.361-8.043v-3.86c0-3.772-.327-7.65-.365-8.081a8.3,8.3,0,0,0-1.285-3.836,4.836,4.836,0,0,0-3.342-1.5c-.1-.011-.191-.021-.274-.033C517.02,15278.207,507.123,15278.136,506.7,15278.133Z" fill="#2b4937"/>
    </g>
  </g>
</svg>
