<svg xmlns="http://www.w3.org/2000/svg" width="156.535" height="90.856" viewBox="0 0 156.535 90.856">
  <g id="siHvfg.tif" transform="translate(-127.159 -10379.477)">
    <g id="Grupo_878" data-name="Grupo 878">
      <path id="Caminho_1289" data-name="Caminho 1289" d="M159.851,10451.227c-.5-.437-.842-.729-1.175-1.036a3.9,3.9,0,0,1-.984-2.478,58.119,58.119,0,0,1-.629-9.236,28.562,28.562,0,0,0-.886-6.922,19.456,19.456,0,0,1-.583-5.915c.115-1.8.085-1.791-1.592-2.418-1.029-.385-2.045-.809-3.049-1.254a.546.546,0,0,0-.795.206c-3.544,4.6-6.746,9.434-9.928,14.286-2.035,3.1-4.326,6.038-6.5,9.052-.8,1.108-1.592,2.219-2.361,3.346a1.424,1.424,0,0,0-.23,1.382,1.025,1.025,0,0,1-.257.9,1,1,0,0,1-.911.161,2.381,2.381,0,0,0-1.582-.125c-.393.056-.815.187-1.085-.237a.828.828,0,0,1,.178-1.125,1.205,1.205,0,0,0,.2-.519c.272-.991.934-1.291,1.8-.843,1.969-2.671,4-5.293,5.885-8.018,2.544-3.679,4.933-7.464,7.466-11.149,1.781-2.593,3.69-5.1,5.543-7.642.155-.213.319-.42.495-.65-.1-.138-.2-.249-.283-.369a1.129,1.129,0,0,1,.166-1.667c1.009-1.067,2.043-2.117,2.974-3.251,1.755-2.139,3.484-4.3,5.146-6.513,1.011-1.347,1.852-2.82,2.817-4.2,1.235-1.771,2.445-3.568,3.8-5.244a39.646,39.646,0,0,0,3.972-5.878c1-1.825,2.146-3.569,3.221-5.354,1.035-1.718,2.037-3.456,3.1-5.154.581-.926,1.263-1.787,1.9-2.678.011-.016.028-.027.035-.045.569-1.384,1.586-1.287,2.778-.927,3.21.97,6.423,1.933,9.663,2.795,2.778.741,5.538,1.534,8.378,2.072,6.2,1.174,12.345,2.592,18.6,3.445,1.876.258,3.722.726,5.59,1.041a12.587,12.587,0,0,0,2.488.186,20.361,20.361,0,0,1,4.882.7,1.131,1.131,0,0,1,.442.243c1.161.932,2.308,1.881,3.475,2.8.922.729,1.911,1.378,2.785,2.158a15.87,15.87,0,0,1,1.667,1.931,55.534,55.534,0,0,0,7.045,6.925c1.369,1.186,2.576,2.562,3.832,3.875.679.71,1.284,1.491,1.962,2.2.873.915,1.786,1.792,2.681,2.688.133.133.27.266.392.409,1.565,1.846,3.108,3.71,4.7,5.532.835.955,1.807,1.79,2.627,2.757,1.48,1.745,2.877,3.563,4.342,5.321a15.782,15.782,0,0,0,1.606,1.595c1.143,1.024,2.329,2,3.464,3.033q4.143,3.768,8.254,7.57c1.143,1.051,2.273,2.117,3.413,3.173a4.931,4.931,0,0,0,.4.308,1.375,1.375,0,0,1,2.389.24.918.918,0,0,1-.272,1.162c-.54.489-1.037,1.027-1.542,1.553-.143.149-.237.346-.38.5a.885.885,0,0,1-1.272.073.863.863,0,0,1-.073-1.226c.114-.148.244-.284.543-.628a5.735,5.735,0,0,1-.713-.479c-2.062-1.873-4.112-3.759-6.174-5.633-1.01-.918-2.043-1.811-3.052-2.73-.727-.664-1.421-1.363-2.146-2.03-1.144-1.052-2.3-2.092-3.453-3.132-1.265-1.141-2.527-2.285-3.8-3.414-1.518-1.341-3.06-2.654-4.573-4-1.16-1.031-2.291-2.1-3.44-3.142a5.714,5.714,0,0,0-.532-.381,2.455,2.455,0,0,0-.25.646c-.234,2.775-.5,5.549-.655,8.328-.151,2.8-.223,5.607-.248,8.411-.028,3.069.042,6.138.061,9.208.007,1.192.018,2.386-.019,3.578a1.824,1.824,0,0,1-1.429,1.764c-4.3,1.413-8.583,2.894-12.9,4.249-5.259,1.652-10.486,3.411-15.84,4.753-3.16.791-6.309,1.634-9.43,2.563-1.939.578-3.823,1.344-5.719,2.061a4.914,4.914,0,0,1-3.636.161c-1.06-.4-2.2-.564-3.291-.885-2.47-.725-4.932-1.48-7.4-2.225-2.174-.657-4.346-1.323-6.526-1.959a.6.6,0,0,0-.528.2c-.829,1.314-1.627,2.648-2.436,3.976-.8,1.31-1.612,2.609-2.391,3.931a3.189,3.189,0,0,0-.218.84,3.275,3.275,0,0,1-.244.913,1.063,1.063,0,0,1-1.505.468,1.354,1.354,0,0,1-.671-1.636,1.671,1.671,0,0,1,.3-.544,29.135,29.135,0,0,0,3.056-4.558c.758-1.226,1.5-2.46,2.245-3.691.106-.176.21-.353.341-.573-.854-.314-1.659-.628-2.475-.908-2.741-.944-5.5-1.845-8.225-2.826-1.9-.686-3.751-1.537-5.664-2.2-1.266-.437-2.6-.666-3.908-.986a8.43,8.43,0,0,1-1.048-.252.589.589,0,0,0-.888.347c-.762,1.589-1.55,3.165-2.349,4.736-.592,1.165-1.225,2.309-1.815,3.475-.117.231-.09.531-.184.779a2.718,2.718,0,0,1-.534,1.112,5.6,5.6,0,0,1-1.454.754,1.232,1.232,0,0,1-1.371-.274,1.074,1.074,0,0,1-.2-1.22,2.506,2.506,0,0,1,.968-1.47,4.176,4.176,0,0,0,1.082-1.372C156.834,10456.336,158.34,10453.775,159.851,10451.227Zm-7.937-31.392c.362.1.6.166.83.229,1.136.3,2.281.569,3.406.907,3.175.954,6.349,1.913,9.51,2.914,3.54,1.121,7.093,2.21,10.583,3.472a46.336,46.336,0,0,0,5.479,1.685c1.236.28,2.479.555,3.685.938,1.823.579,3.6,1.289,5.426,1.872,2.47.791,5.013,1.384,7.226,2.829a3.884,3.884,0,0,0,.362.164c.349.183.566.085.795-.245,1.437-2.07,2.917-4.112,4.342-6.192.963-1.406,1.852-2.863,2.783-4.291a48.935,48.935,0,0,1,3.465-5.191,32.21,32.21,0,0,0,5.6-9.307,14.6,14.6,0,0,1,1.41-2.78c1.093-1.639,2.316-3.19,3.446-4.806,1.867-2.669,3.7-5.362,5.556-8.039a4.058,4.058,0,0,1,.5-.533.5.5,0,0,1,.794-.02,11.688,11.688,0,0,0,3.231,2.169,3.719,3.719,0,0,1,.782.563c1.429,1.186,2.859,2.368,4.273,3.569A17.661,17.661,0,0,1,236.7,10401c.755.792,1.484,1.61,2.239,2.4a12.453,12.453,0,0,1,1.288,1.277c1.5,2.142,3.629,3.641,5.512,5.386,1.553,1.438,3.178,2.8,4.754,4.212a5,5,0,0,1,.75.923,15.78,15.78,0,0,0,3.529,3.888c.2.151.416.285.57.389-.867-1.035-1.766-2.093-2.648-3.165-.9-1.094-1.757-2.221-2.675-3.3-.809-.947-1.629-1.895-2.526-2.757-2.11-2.027-4.5-3.74-6.374-6.046a50.2,50.2,0,0,0-4.068-3.923c-1.066-1.044-2.054-2.168-3.134-3.2a12.777,12.777,0,0,0-3.066-2.413,25.892,25.892,0,0,1-2.618-1.682,5.422,5.422,0,0,0-1.465-.927,31.9,31.9,0,0,0-3.47-.519c-1.388-.172-2.785-.274-4.167-.483-1.667-.251-3.32-.6-4.983-.873-1.926-.321-3.863-.574-5.783-.927-1.882-.346-3.744-.8-5.623-1.17-3.251-.638-6.545-1.1-9.754-1.9-4.039-1.012-8.01-2.3-12.015-3.448-1.193-.343-2.4-.63-3.533-.925-1.178,1.915-2.317,3.724-3.408,5.562-.489.823-.9,1.7-1.31,2.561-.456.954-.8,1.967-1.332,2.878-.958,1.656-2.01,3.259-3.03,4.879-1.736,2.758-3.329,5.621-5.254,8.241-2.468,3.356-5.2,6.518-7.828,9.76C154.187,10417.058,153.082,10418.4,151.914,10419.835Zm43.934,23.323-.217-.042a3.174,3.174,0,0,0-.337,1.1c.11,1.264.319,2.518.484,3.776.365,2.8.735,5.6,1.076,8.4a4.248,4.248,0,0,1-.133,1.043l-.3.035a6.316,6.316,0,0,1-.454-1.206c-.448-2.767-.865-5.539-1.281-8.311-.128-.854-.22-1.711-.329-2.567l-.172-.037c-.105.279-.324.568-.3.835.217,2.4.473,4.785.726,7.177.137,1.3.3,2.595.426,3.895.015.164-.148.346-.228.52-.132-.135-.344-.248-.381-.4a24.922,24.922,0,0,1-.5-2.443c-.247-1.8-.452-3.607-.659-5.414-.084-.738-.129-1.481-.192-2.223a10.156,10.156,0,0,0-1.19,1.57.625.625,0,0,0-.063.38c.163,1.391.327,2.783.507,4.172.158,1.219.368,2.433.487,3.656a2.589,2.589,0,0,1-.31.951,3.139,3.139,0,0,1-.522-.867c-.254-1.2-.461-2.419-.647-3.637-.157-1.02-.262-2.048-.4-3.121a1.946,1.946,0,0,0-.8,1.667c.14,1.4.293,2.788.423,4.185.03.32.175.789-.279.863s-.447-.409-.514-.729c-.213-1.022-.418-2.048-.659-3.237-.432.943-1.4,1.485-.982,2.607.04.109-.3.51-.385.488-.742-.191-.729.41-1.019.874,1.5.457,2.923.924,4.362,1.316,2.631.721,5.281,1.371,7.908,2.1,1.711.476,3.254,1.479,5.059,1.663a2.823,2.823,0,0,0,1.134-.123,38.815,38.815,0,0,1,3.963-1.355,66.849,66.849,0,0,0,8.307-2.132c1.062-.373,2.235-.421,3.317-.751,3.007-.916,5.993-1.9,8.987-2.863,3.5-1.123,7.07-1.987,10.52-3.291,2.563-.968,5.245-1.622,7.874-2.416a.991.991,0,0,0,.791-1.067q-.128-3.122-.227-6.244a5.211,5.211,0,0,1,.057-1.021,82.286,82.286,0,0,0,.689-10.263c.1-2.5-.336-5,.091-7.5a12.175,12.175,0,0,0,.139-1.871c.037-2.393-.19-4.691-2.433-6.192a1.023,1.023,0,0,1-.082-.078,10.718,10.718,0,0,0-1.556-1.313,56.791,56.791,0,0,1-6.66-4.74,20.712,20.712,0,0,1-4.118-5.041,6.883,6.883,0,0,0-2.042-2.172,8.738,8.738,0,0,1-1.342-.955,18.348,18.348,0,0,0-4.148-2.559c-.233-.119-.4-.136-.563.126q-1.71,2.681-3.447,5.345c-1.126,1.729-2.265,3.451-3.4,5.175a74.164,74.164,0,0,0-5.911,10.614,32.5,32.5,0,0,1-5.768,8.2,30.548,30.548,0,0,0-2.579,3.23c-.98,1.462-1.821,3.017-2.711,4.537a8.877,8.877,0,0,0-1.466,4.6,3.5,3.5,0,0,1-.042.623,5.933,5.933,0,0,0,.315,3.1,15.244,15.244,0,0,1,1.21,4.425c.073,1.419.138,2.841.128,4.261a32.823,32.823,0,0,0,.395,5.576,1.588,1.588,0,0,1-.426,1.671c.613.5.726.879.377,1.262a.688.688,0,0,1-1.05-.011c-.343-.392-.235-.85.234-1.224a6.451,6.451,0,0,1-.551-1.245,22.923,22.923,0,0,1-.714-5.449,21.159,21.159,0,0,0-.171-3.171,35.108,35.108,0,0,0-.631-3.63c-.3-1.31-.714-2.594-1.078-3.889l-.23.056c.188,1.1.315,2.209.576,3.289a21.043,21.043,0,0,1,.756,5.1c-.007.958.134,1.917.221,2.875.079.867.187,1.73.263,2.6.1,1.185.2,2.371.283,3.557a2.77,2.77,0,0,1-.018.783.505.505,0,0,1-.335.322.5.5,0,0,1-.406-.218,2.593,2.593,0,0,1-.3-.85c-.136-.974-.214-1.956-.35-2.931-.253-1.82-.544-3.634-.8-5.454-.211-1.517-.345-3.045-.593-4.555-.244-1.492-.593-2.967-.887-4.452-.11-.559-.194-1.124-.3-1.754a1.644,1.644,0,0,0-.562,1.6c.313,1.771.568,3.554.822,5.334.361,2.532.711,5.065,1.034,7.6.029.228-.17.484-.264.728-.158-.2-.421-.385-.459-.607-.39-2.259-.732-4.524-1.11-6.785C196.509,10446.794,196.171,10444.977,195.848,10443.158Zm-20.233-11.539-.243-.013a1.916,1.916,0,0,0-.21.571c-.013.415.041.831.065,1.248.169,2.988.351,5.978.5,8.967.077,1.532.064,3.07.153,4.6.121,2.079.294,4.155.467,6.229a.714.714,0,0,0,.309.514,19.932,19.932,0,0,0,2.045.842c1.326.45,2.668.854,4,1.284.613.2,1.223.406,1.831.62a.473.473,0,0,0,.655-.245c.43-.758.9-1.493,1.326-2.255a1.208,1.208,0,0,0,.141-.7c-.514-3.887-1.021-7.776-1.584-11.656-.313-2.155-.734-4.295-1.089-6.444-.056-.342-.237-.56-.539-.506-.171.031-.37.3-.426.494a2.448,2.448,0,0,0-.07.949q.628,5.016,1.288,10.028c.34,2.608.69,5.217,1.022,7.827a6.274,6.274,0,0,1-.021.948l-.255.037a6.118,6.118,0,0,1-.463-.992,24.561,24.561,0,0,1-.727-3.036c-.309-2.231-.482-4.481-.785-6.715-.412-3.04-.907-6.068-1.331-9.107-.073-.518-.342-.725-.829-.906.165,1.247.331,2.426.474,3.608q.78,6.488,1.55,12.979c.137,1.146.3,2.289.415,3.438.019.185-.148.389-.23.584-.136-.163-.349-.308-.4-.493a24.949,24.949,0,0,1-.6-2.716c-.672-4.917-1.309-9.841-1.959-14.761-.133-1-.272-2.008-.406-3-.475-.055-.582.207-.588.513a8.912,8.912,0,0,0,.071.962c.185,2.037.381,4.073.554,6.109.229,2.7.438,5.4.66,8.1.07.849.169,1.7.217,2.546.01.172-.151.353-.233.53-.148-.128-.347-.228-.433-.388a2.206,2.206,0,0,1-.234-.754c-.326-2.478-.769-4.949-.923-7.437-.2-3.253-.354-6.507-.8-9.737a11.261,11.261,0,0,0-.2-1.4c-.043-.158-.343-.247-.526-.367-.09.175-.266.354-.256.521.052.888.136,1.776.238,2.66a67.139,67.139,0,0,1,.469,9.189c-.046,2.039.154,4.084.249,6.126.023.51.085,1.019.084,1.526a.5.5,0,0,1-.289.347c-.071.028-.248-.13-.331-.239a.75.75,0,0,1-.125-.373,64.513,64.513,0,0,1-.6-6.67,122.97,122.97,0,0,0-.9-13.377A3.176,3.176,0,0,0,175.615,10431.619Zm-10.348,13.908-1.876,3.233,12.02,4.568-1.417-21.753a1.086,1.086,0,0,0-.961,1.272c.053,1.4.142,2.8.225,4.2q.417,6.977.837,13.954c.019.317.07.716-.382.754s-.488-.355-.522-.674c-.083-.772-.149-1.546-.2-2.32q-.389-5.527-.768-11.054c-.075-1.07-.161-2.139-.242-3.209l-.185-.054a4.277,4.277,0,0,0-.5,1.362c0,1.628.078,3.26.2,4.884.211,2.775.487,5.547.717,8.32a2.3,2.3,0,0,1-.266,1.621,1.817,1.817,0,0,1-.729-1.406c-.1-.751-.164-1.506-.231-2.261-.192-2.169-.393-4.338-.56-6.509-.08-1.042-.093-2.089-.139-3.2a2.271,2.271,0,0,0-.632,2.042c.177,3.119.306,6.24.439,9.361a14.359,14.359,0,0,1-.04,1.633.42.42,0,0,1-.27.3.433.433,0,0,1-.348-.219,4.189,4.189,0,0,1-.26-.915c-.052-.316-.013-.648-.07-.962a31.748,31.748,0,0,1-.449-6.056c.006-.8-.035-1.607-.054-2.411l-.188-.054a4.076,4.076,0,0,0-.467,1.314c.023,1.609.159,3.216.236,4.824.038.792.057,1.586.046,2.378,0,.136-.2.269-.309.4-.112-.112-.272-.205-.324-.341a3.021,3.021,0,0,1-.2-.824c-.129-1.566-.239-3.135-.361-4.7a3.313,3.313,0,0,0-.113-.468,2.9,2.9,0,0,0-.742,2.323,19.723,19.723,0,0,1,.286,2.481c.029.335.06.761-.419.789-.436.025-.449-.366-.494-.692C165.467,10446.847,165.371,10446.231,165.267,10445.527Zm-2.282-1.576c-.106-2.92-.185-5.571-.3-8.22-.09-2.045-.223-4.085-.356-6.128-.011-.163-.183-.454-.264-.448a.939.939,0,0,0-.548.277.736.736,0,0,0-.159.475c0,.942-.021,1.889.03,2.83.2,3.648.422,7.3.606,10.945.011.215-.25.443-.385.665-.16-.205-.442-.4-.462-.614-.17-1.887-.292-3.777-.432-5.666q-.248-3.313-.5-6.628c-.023-.3-.036-.678-.463-.641-.444.038-.341.4-.318.707.334,4.364.649,8.73,1.005,13.092.085,1.036.294,2.063.466,3.089a.482.482,0,0,0,.267.3.349.349,0,0,0,.319-.13C162.106,10446.514,163.322,10445.374,162.985,10443.951Zm24.6,8.162.125.028c.206-.331.394-.676.622-.99a1.853,1.853,0,0,0,.295-1.657,15.011,15.011,0,0,1-.4-2.294,95.97,95.97,0,0,0-1.744-11.057c-.114-.543-.526-.98-.871-.87-.583.187-.366.659-.308,1.053q.971,6.549,1.947,13.1C187.385,10450.318,187.478,10451.217,187.588,10452.113Zm-23.546-8.944c.506-.845,1.1-1.446,1.038-2.449-.171-2.8-.219-5.6-.339-8.4-.053-1.223-.163-2.441-.246-3.65-1.014-.031-1.1.086-1.063.926.157,3.139.294,6.278.436,9.417C163.928,10440.351,163.98,10441.689,164.042,10443.169Zm25.518,5.795a2.12,2.12,0,0,0,.749-2.157c-.477-3.256-.894-6.521-1.3-9.787a1.251,1.251,0,0,0-.764-1.05c-.272-.14-.407-.052-.427.214a4.545,4.545,0,0,0,0,1.01c.417,2.711.862,5.418,1.275,8.13C189.273,10446.493,189.4,10447.671,189.56,10448.964Zm1.8-2.448c.427-.647.771-1.158,1.1-1.681a.483.483,0,0,0,.045-.327,25.529,25.529,0,0,0-1.245-5.226c-.278-.606-.583-1.2-.875-1.8l-.173.067C190.583,10440.482,190.959,10443.414,191.357,10446.516Zm-25.07-16.941-.272-.058a3.216,3.216,0,0,0-.284.83c-.03.47.046.944.058,1.418.057,2.235.1,4.472.164,6.706.014.493.087.984.145,1.6a2.476,2.476,0,0,0,.741-1.808c-.181-2.665-.3-5.334-.453-8C166.373,10430.035,166.321,10429.8,166.287,10429.574Zm1.539,7.828a1.456,1.456,0,0,0,.568-1.262c-.051-1.528-.06-3.059-.1-4.588-.012-.558-.052-1.114-.081-1.711-.526.1-.78.373-.757.824C167.569,10432.871,167.7,10435.076,167.826,10437.4Zm25.526,5.854.207.055c.121-.335.377-.686.34-1-.147-1.236-.391-2.462-.59-3.692-.063-.386-.253-.612-.837-.629Zm-24.01-8.383a1.6,1.6,0,0,0,.728-1.355c-.054-.79-.08-1.582-.112-2.374-.019-.439-.027-.88-.039-1.329-.5.036-.573.32-.57.675q.012,1.783.016,3.565C169.366,10434.329,169.35,10434.6,169.342,10434.874Zm25.513,6.167.158.044c.107-.268.337-.554.3-.8-.148-.981-.379-1.949-.58-2.922l-.167-.058c-.112.173-.343.366-.319.519C194.42,10438.9,194.646,10439.969,194.855,10441.041Zm-22.931-10.4-.887-.082.041,1.512.189.024Zm24.353,8.436a5.013,5.013,0,0,0,.42-.782,1.8,1.8,0,0,0,0-.58c-.159.013-.378-.034-.462.052a.743.743,0,0,0-.181.516A4.055,4.055,0,0,0,196.277,10439.076Z" fill="#f4ede1"/>
      <path id="Caminho_1290" data-name="Caminho 1290" d="M192.522,10427.083a58.8,58.8,0,0,1-19.117-3.6c-3.375-1.3-6.8-2.476-10.162-3.8a26.994,26.994,0,0,1-3.428-1.875,2.368,2.368,0,0,1-.6-.591.78.78,0,0,1-.008-1.129c.367-.376.765-.291,1.184-.032a25.5,25.5,0,0,0,3.067,1.815c2.044.9,4.129,1.716,6.235,2.459a80.321,80.321,0,0,0,10.969,3.536c2.671.53,5.379.888,8.082,1.235,2.159.279,4.333.476,6.506.613a22.974,22.974,0,0,0,2.885-.179,4.06,4.06,0,0,1,.9-.009c.438.071.543.441.216.736a1.294,1.294,0,0,1-.6.3c-1.152.213-2.3.463-3.468.57A22.138,22.138,0,0,1,192.522,10427.083Z" fill="#f4ede1"/>
      <path id="Caminho_1291" data-name="Caminho 1291" d="M198.312,10421.757a1.217,1.217,0,0,1-1.192.862q-2.523.171-5.046.315a57.76,57.76,0,0,1-10.258-.592,65.961,65.961,0,0,1-13.767-3.6,10.9,10.9,0,0,1-2.183-1.2.786.786,0,0,1-.313-1.169c.325-.432.721-.4,1.157-.152a44.926,44.926,0,0,0,7.421,2.836,38.865,38.865,0,0,0,6.32,1.827,60.457,60.457,0,0,0,10.571.941,51.2,51.2,0,0,0,6.406-.212A3.344,3.344,0,0,1,198.312,10421.757Z" fill="#f4ede1"/>
      <path id="Caminho_1292" data-name="Caminho 1292" d="M222.728,10393.457a4.024,4.024,0,0,1-.185.529,91.455,91.455,0,0,1-8.216,13c-1.283,1.639-2.455,3.363-3.689,5.042q-.57.775-1.205,1.5c-.1.112-.311.125-.472.184.006-.175-.053-.39.027-.518q1.522-2.424,3.082-4.825c1.018-1.571,2.061-3.126,3.073-4.7,1.329-2.071,2.677-4.132,3.941-6.242.689-1.149,1.22-2.395,1.831-3.593a2.118,2.118,0,0,1,.49-.752,1.065,1.065,0,0,1,.813-.17C222.433,10392.969,222.576,10393.282,222.728,10393.457Z" fill="#f4ede1"/>
      <path id="Caminho_1293" data-name="Caminho 1293" d="M173.071,10393.3a6.9,6.9,0,0,1,.315-.806c.358-.668.706-1.344,1.12-1.978,1.385-2.116,2.265-4.488,3.443-6.711a3.454,3.454,0,0,1,.186-.35c.236-.339.6-.512.925-.271a1.039,1.039,0,0,1,.373.831,3.492,3.492,0,0,1-.565,1.226q-2.416,3.674-4.873,7.323a10.59,10.59,0,0,1-.7.85Z" fill="#f4ede1"/>
      <path id="Caminho_1294" data-name="Caminho 1294" d="M164.446,10406.96a2.351,2.351,0,0,1,.32-.782c2.312-2.372,3.773-5.345,5.691-7.994a2.068,2.068,0,0,1,.392-.481,2.348,2.348,0,0,1,.572-.226,1.6,1.6,0,0,1-.048.569,15.143,15.143,0,0,1-.956,1.741c-.94,1.4-1.9,2.781-2.891,4.141-.658.9-1.373,1.765-2.091,2.62a4.422,4.422,0,0,1-.757.587Z" fill="#f4ede1"/>
      <path id="Caminho_1295" data-name="Caminho 1295" d="M181.4,10384.978a4.825,4.825,0,0,1-.344.765c-1.1,1.717-2.213,3.432-3.35,5.129a8.859,8.859,0,0,1-1.016,1.144c-.074.077-.224.081-.339.119,0-.137-.05-.3,0-.408a8.483,8.483,0,0,1,.637-1.138,21.528,21.528,0,0,0,2.775-5.82c.182-.563.537-.84.976-.735C181.163,10384.13,181.378,10384.415,181.4,10384.978Z" fill="#f4ede1"/>
      <path id="Caminho_1296" data-name="Caminho 1296" d="M183.431,10385.453a1.564,1.564,0,0,1-.124.346c-.864,1.484-1.725,2.97-2.616,4.439-.1.164-.375.222-.569.329-.017-.218-.118-.474-.039-.647q1.031-2.271,2.127-4.512a1.329,1.329,0,0,1,.563-.588C183.094,10384.663,183.433,10384.981,183.431,10385.453Z" fill="#f4ede1"/>
      <path id="Caminho_1297" data-name="Caminho 1297" d="M217.575,10396.334a13.385,13.385,0,0,1,.526-1.746,7.878,7.878,0,0,1,.977-1.576.689.689,0,0,1,1.007-.172,1.011,1.011,0,0,1,.274.881,6.445,6.445,0,0,1-2.528,2.752Z" fill="#f4ede1"/>
      <path id="Caminho_1298" data-name="Caminho 1298" d="M218.056,10393.044a20.828,20.828,0,0,1-1.254,1.986,10.248,10.248,0,0,1-1.408,1.3c-.081.07-.229.063-.345.092-.008-.135-.069-.3-.014-.4.536-1.017,1.073-2.033,1.655-3.024a1.266,1.266,0,0,1,.676-.521C217.712,10392.375,217.929,10392.6,218.056,10393.044Z" fill="#f4ede1"/>
      <path id="Caminho_1299" data-name="Caminho 1299" d="M182.883,10389.537c.135-.383.259-.772.407-1.15.269-.687.562-1.364.826-2.053.131-.339.316-.581.71-.489.411.1.446.43.386.768a1.388,1.388,0,0,1-.215.579c-.592.782-1.207,1.55-1.818,2.319a.646.646,0,0,1-.173.109Z" fill="#f4ede1"/>
      <path id="Caminho_1300" data-name="Caminho 1300" d="M213.827,10395.249a4.8,4.8,0,0,1,1.2-2.556.853.853,0,0,1,.781-.122c.338.155.308.5.125.828A4.542,4.542,0,0,1,213.827,10395.249Z" fill="#f4ede1"/>
      <path id="Caminho_1301" data-name="Caminho 1301" d="M188.786,10418.694c-1.119.57-2.227.236-3.329.05-.1-.018-.175-.162-.263-.247.144-.1.284-.272.431-.278A4.958,4.958,0,0,1,188.786,10418.694Z" fill="#f4ede1"/>
      <path id="Caminho_1302" data-name="Caminho 1302" d="M187.38,10387.148a1.782,1.782,0,0,1-1.263,1.67c-.088.017-.327-.2-.311-.252a10.94,10.94,0,0,1,.6-1.635.683.683,0,0,1,.623-.191C187.205,10386.79,187.315,10387.065,187.38,10387.148Z" fill="#f4ede1"/>
      <path id="Caminho_1303" data-name="Caminho 1303" d="M209.79,10391.844c-.036.6-.8,1.354-1.281,1.322-.13-.009-.374-.3-.347-.359a9.1,9.1,0,0,1,.8-1.363c.065-.091.405-.064.558.019S209.739,10391.768,209.79,10391.844Z" fill="#f4ede1"/>
      <path id="Caminho_1304" data-name="Caminho 1304" d="M206.641,10390.768c.382.011.682.384.476.7a3.061,3.061,0,0,1-.981.965c-.384.225-.694-.086-.633-.542A1.492,1.492,0,0,1,206.641,10390.768Z" fill="#f4ede1"/>
      <path id="Caminho_1305" data-name="Caminho 1305" d="M211.794,10394.022c.286-.444.554-.915.886-1.336a.569.569,0,0,1,.551-.043c.128.08.25.412.186.514a10.879,10.879,0,0,1-.983,1.282.429.429,0,0,1-.406.042C211.928,10394.427,211.9,10394.243,211.794,10394.022Z" fill="#f4ede1"/>
      <path id="Caminho_1306" data-name="Caminho 1306" d="M201.11,10391.3c.018-.642.608-1.352.973-1.242a.857.857,0,0,1,.5.556c.07.4-.669,1.087-1.054,1.012C201.348,10391.588,201.2,10391.372,201.11,10391.3Z" fill="#f4ede1"/>
      <path id="Caminho_1307" data-name="Caminho 1307" d="M200.071,10389.676a.488.488,0,0,1,.41.768,2.8,2.8,0,0,1-.831.726c-.374.213-.622,0-.575-.42C199.132,10390.23,199.668,10389.652,200.071,10389.676Z" fill="#f4ede1"/>
      <path id="Caminho_1308" data-name="Caminho 1308" d="M211.33,10392.949c-.046.607-.648,1.193-1.03,1.1a.649.649,0,0,1-.348-.506c-.008-.573.45-1.117.842-1.012C211.028,10392.6,211.211,10392.852,211.33,10392.949Z" fill="#f4ede1"/>
      <path id="Caminho_1309" data-name="Caminho 1309" d="M196.211,10389.783c0,.575-.854,1.127-1.244.954-.017-.007-.045-.017-.047-.028a1.465,1.465,0,0,1-.08-.6c.13-.417.408-.768.892-.7C195.932,10389.432,196.1,10389.692,196.211,10389.783Z" fill="#f4ede1"/>
      <path id="Caminho_1310" data-name="Caminho 1310" d="M196.926,10390.379c.061-.593.561-1.074.9-.954a.8.8,0,0,1,.438.532c.053.326-.565.895-.852.8A1.559,1.559,0,0,1,196.926,10390.379Z" fill="#f4ede1"/>
      <path id="Caminho_1311" data-name="Caminho 1311" d="M202.8,10391.614c.079-.564.617-1.116.927-1a.745.745,0,0,1,.416.532c.018.37-.7.932-1,.819C202.973,10391.9,202.866,10391.687,202.8,10391.614Z" fill="#f4ede1"/>
      <path id="Caminho_1312" data-name="Caminho 1312" d="M193.738,10390.071c-.242-.369-.5-.595-.481-.782s.322-.367.5-.549c.185.193.48.369.518.588C194.3,10389.5,194.007,10389.719,193.738,10390.071Z" fill="#f4ede1"/>
      <path id="Caminho_1313" data-name="Caminho 1313" d="M191.147,10389.133c-.15-.242-.319-.394-.3-.516a.33.33,0,0,1,.659.035C191.513,10388.775,191.326,10388.908,191.147,10389.133Z" fill="#f4ede1"/>
      <path id="Caminho_1314" data-name="Caminho 1314" d="M226.435,10403.421c-.511.2-.941.362-1.364.54a.712.712,0,0,0-.3.224c-.854,1.249-1.742,2.479-2.531,3.769-.6.979-1.059,2.045-1.6,3.061a3.234,3.234,0,0,1-.557.712c-.087.09-.263.092-.4.134-.02-.152-.1-.332-.048-.451.368-.809.785-1.595,1.149-2.405a47.769,47.769,0,0,1,3.92-6.449c.661-1.009,1.263-2.058,1.889-3.09a.782.782,0,0,1,1.167-.306,11.587,11.587,0,0,1,1.876,1.52c1.428,1.515,2.786,3.095,4.188,4.634.292.32.664.566.977.868,1.752,1.694,3.474,3.418,5.251,5.084,1.519,1.423,3.1,2.782,4.65,4.17.169.15.389.28.481.471.1.215.2.571.1.71a.826.826,0,0,1-.709.154,1.846,1.846,0,0,1-.782-.437q-2.4-2.169-4.778-4.369a37.074,37.074,0,0,0-4.376-3.865,23.986,23.986,0,0,1-4.08-3.857c-.691-.746-1.451-1.427-2.19-2.149.115,1.326.258,2.691.349,4.06.16,2.419.337,4.838.417,7.259.072,2.216.035,4.436.027,6.652,0,.72-.063,1.438-.1,2.157a10.617,10.617,0,0,0,.088,3.639c.46,1.59.57,3.276.906,4.906a13.791,13.791,0,0,0,2.012,4.914c1,1.494,1.971,3.012,3.046,4.45a15.651,15.651,0,0,0,2.078,2.146c1.263,1.143,2.523,2.3,3.882,3.321a15.559,15.559,0,0,0,2.712,1.413,3.182,3.182,0,0,0,.781.11c.476.086.935.564.893.968-.054.53-.471.688-.913.79-2.542.593-5.094,1.15-7.626,1.788-2.13.536-4.245,1.134-6.351,1.759-2.469.733-4.933,1.488-7.377,2.3-1.67.556-3.284,1.279-4.956,1.83-1.761.581-3.558,1.06-5.349,1.543-.195.054-.614-.1-.651-.233a.828.828,0,0,1,.222-.709c.848-.723,1.774-1.356,2.6-2.1a8.491,8.491,0,0,0,1.084-1.451c.371-.523.7-1.079,1.1-1.583a29.9,29.9,0,0,0,4.071-6.341,72,72,0,0,0,3.8-9.977c.48-1.732,1.06-3.437,1.565-5.162a5.336,5.336,0,0,0,.2-1.348c.081-3.3.373-6.61.149-9.888-.264-3.872-.016-7.733-.191-11.594C226.763,10406.261,226.567,10404.819,226.435,10403.421Z" fill="#f4ede1"/>
      <path id="Caminho_1315" data-name="Caminho 1315" d="M224.873,10412.6c.118,3.914.3,7.191.3,10.47a33.176,33.176,0,0,1-2.407,13.5,7.465,7.465,0,0,0-.514,1.442,34.072,34.072,0,0,1-3.092,7.924c-.6,1.242-1.262,2.461-1.9,3.686a10.78,10.78,0,0,1-2.573,3.22c-.66.567-1.242,1.227-1.9,1.79-.2.171-.652.313-.822.2-.36-.228-.155-.6.045-.894a2.951,2.951,0,0,1,.437-.521,16.345,16.345,0,0,0,4.151-5.965c.892-2.131,1.9-4.214,2.86-6.318a2.144,2.144,0,0,0,.115-.26c1.087-3.448,2.241-6.877,3.237-10.352a38.68,38.68,0,0,0,1.046-8.222c.227-3.512.179-7.042.249-10.564.016-.854,0-1.708.061-2.559.013-.2.263-.377.4-.564.137.194.393.387.392.581C224.95,10410.544,224.894,10411.888,224.873,10412.6Z" fill="#f4ede1"/>
      <path id="Caminho_1316" data-name="Caminho 1316" d="M217.519,10416.452a2.641,2.641,0,0,1-.146.774c-.336.634-.717,1.243-1.1,1.852q-.8,1.271-1.622,2.525c-1.123,1.707-2.246,3.414-3.385,5.111-1.16,1.729-2.351,3.436-3.5,5.172a1.545,1.545,0,0,0-.236.941c.267,2.485.584,4.965.861,7.449a13.4,13.4,0,0,1,.1,2.1,35.143,35.143,0,0,0,.726,7.618c.286,1.65.262,3.354.41,5.032a10.855,10.855,0,0,0,.347,2.167,1.407,1.407,0,0,1-.42,1.583.607.607,0,0,1-1.046-.238,2.685,2.685,0,0,1-.149-.778c-.077-2.175-.087-4.353-.225-6.522-.117-1.851-.409-3.689-.56-5.538-.086-1.055.013-2.124-.073-3.18-.236-2.9-.477-5.812-.816-8.706a4.761,4.761,0,0,1,.791-3.664c1.428-1.933,2.748-3.946,4.089-5.941.907-1.349,1.733-2.754,2.67-4.081.827-1.173,1.752-2.277,2.648-3.4a2.251,2.251,0,0,1,.483-.348Z" fill="#f4ede1"/>
      <path id="Caminho_1317" data-name="Caminho 1317" d="M245.9,10443.035c-.021-2.717.1-5.4-.1-8.054-.261-3.447-.331-6.885-.256-10.334.019-.885-.153-1.771-.211-2.658q-.1-1.639-.16-3.282c-.012-.355.077-.727.529-.735s.494.354.528.72c.144,1.545.306,3.087.461,4.631a3.969,3.969,0,0,1,.042.509,107.712,107.712,0,0,0,.361,11.752c.211,2.718.305,5.446.4,8.171a30.458,30.458,0,0,1-.106,3.181c-.055.783-.378,1.171-.843,1.169-.485,0-.75-.342-.752-1.192C245.8,10445.6,245.865,10444.3,245.9,10443.035Z" fill="#f4ede1"/>
      <path id="Caminho_1318" data-name="Caminho 1318" d="M232.657,10428.781a6.674,6.674,0,0,1,.679,1.144c.431,1.212.689,2.5,1.215,3.661a21.513,21.513,0,0,0,5.457,7.047,12.87,12.87,0,0,0,3.656,2.369,1.752,1.752,0,0,1,.745.582.86.86,0,0,1,.083.76.809.809,0,0,1-.714.276,10.433,10.433,0,0,1-1.8-.687,16.86,16.86,0,0,1-4.593-3.759c-2.083-2.139-3.1-4.867-4.193-7.548a20.935,20.935,0,0,1-.845-2.59,4.314,4.314,0,0,1,.017-1.172Z" fill="#f4ede1"/>
      <path id="Caminho_1319" data-name="Caminho 1319" d="M218.656,10434.718a2.175,2.175,0,0,1,.117,1.744c-.453,1.681-.937,3.354-1.4,5.03a3.161,3.161,0,0,0-.19.939,8.73,8.73,0,0,1-1.453,4.873,19.952,19.952,0,0,1-4.28,4.97c-.287.25-.618.427-.967.137a.691.691,0,0,1-.045-1.021,11.869,11.869,0,0,1,1.052-1.263,18.77,18.77,0,0,0,5.291-9.475c.322-1.647.9-3.243,1.388-4.857A9.683,9.683,0,0,1,218.656,10434.718Z" fill="#f4ede1"/>
      <path id="Caminho_1320" data-name="Caminho 1320" d="M217.61,10416.1a2.8,2.8,0,0,1,.875-2.294c.293-.166.418-.026.454.259A2.787,2.787,0,0,1,217.61,10416.1Z" fill="#f4ede1"/>
      <path id="Caminho_1321" data-name="Caminho 1321" d="M243.326,10439.546a1.524,1.524,0,0,1-.542.321c-.341.056-.782-.42-.676-.741a.89.89,0,0,1,.547-.5C243,10438.537,243.348,10438.971,243.326,10439.546Z" fill="#f4ede1"/>
      <path id="Caminho_1322" data-name="Caminho 1322" d="M230.889,10420.327c.193.386.377.6.377.808,0,.15-.249.3-.387.449a2.055,2.055,0,0,1-.427-.612C230.42,10420.846,230.657,10420.653,230.889,10420.327Z" fill="#f4ede1"/>
    </g>
  </g>
</svg>
