<svg xmlns="http://www.w3.org/2000/svg" width="145.609" height="141.245" viewBox="0 0 145.609 141.245">
  <g id="NIf1xp.tif" transform="translate(-3122.118 -4512.725)">
    <g id="Grupo_1837" data-name="Grupo 1837">
      <path id="Caminho_2511" data-name="Caminho 2511" d="M3162.829,4642.212c-.152.4-.284.777-.438,1.145a4.266,4.266,0,0,1-2.59,2.429,10.63,10.63,0,0,1-5.6.308,3.5,3.5,0,0,1-1.637-.851,7.75,7.75,0,0,1-2.488-5.51c-.017-.32,0-.641,0-.952a13.185,13.185,0,0,1-2.158-.435c-.738-.277-.99-1.05-1.312-1.787-.615.285-1.23.542-1.821.847q-4.232,2.191-8.452,4.4a3,3,0,0,1-1.652.573c-.569-.047-.878-.416-.652-.938a1.59,1.59,0,0,1,.631-.735c1.6-.857,3.219-1.669,4.831-2.5,2.2-1.129,4.394-2.256,6.583-3.4a.547.547,0,0,0,.225-.4c.021-.432-.034-.867-.01-1.3a1.1,1.1,0,0,1,.979-1.186c.636-.152,1.284-.253,1.942-.379l-.258-3.858a1.258,1.258,0,0,1-.937-1.357c0-.626-.021-1.254.02-1.878.039-.6.146-1.2.228-1.837-.4.108-.827.227-1.253.334a2.664,2.664,0,0,1-2.414-.612,6.456,6.456,0,0,0-1.483-.656c-.816,2.435-2.819,3.152-4.951,3.668v3.861c.214.011.383-.028.493.036.181.1.406.249.465.426.089.269-.06.487-.382.548-.307.058-.609.145-.912.222a.493.493,0,0,1-.686-.494c-.015-1.49-.011-2.981-.014-4.472,0-.078,0-.155,0-.262l-1.131-.2c0,.472-.016.918,0,1.363.038.881.124,1.761.133,2.643a4.42,4.42,0,0,1-.2,1.221c-.116.412-.6.51-1.106.319a2,2,0,0,0-.61-.039c-.521-.018-1.041-.036-1.561-.049-.252,0-.506.023-.754,0-.149-.017-.411-.112-.411-.172,0-.181.05-.457.174-.526a6.782,6.782,0,0,1,1.115-.429c.151-.051.317-.052.473-.089.862-.208.917-.279.857-1.164-.068-.989-.144-1.978-.219-3-.191.019-.313.024-.432.045a4.012,4.012,0,0,1-4.723-3.206.866.866,0,0,0-.469-.654,2.914,2.914,0,0,1-1.331-3.725c.063-.215.151-.425.192-.643.066-.351-.07-.556-.4-.768-1.449-.935-2.078-1.365-1.854-3.26a1,1,0,0,0-.191-.692,4.989,4.989,0,0,1-1.06-4.728,11.262,11.262,0,0,1,.821-1.992.646.646,0,0,0,.026-.658,3.851,3.851,0,0,1-.44-2.968,11.263,11.263,0,0,0,.066-2.21,2.918,2.918,0,0,1,.493-2.246.775.775,0,0,0-.1-1.17,6.051,6.051,0,0,1-.851-1.039,3.378,3.378,0,0,1,.3-4.073.7.7,0,0,0,.107-.762,3.91,3.91,0,0,1,.638-3.685c.361-.467.824-.855,1.2-1.308a1.084,1.084,0,0,0,.267-.645,3.019,3.019,0,0,1,.721-2.5c.067-.063.047-.26.013-.38a3.153,3.153,0,0,1,.866-3.393,8.853,8.853,0,0,1,1.435-1.035.628.628,0,0,0,.355-.647,3.359,3.359,0,0,1,.8-2.4,3.6,3.6,0,0,1,3.865-1.07,1.854,1.854,0,0,1,1.326,1.278,3.3,3.3,0,0,0,.3.6,3.809,3.809,0,0,1,3.626,2.375,4.712,4.712,0,0,1-.293,4.415c1.02.928,1.021,2.177.928,3.451a5.936,5.936,0,0,0-.056.91,4.693,4.693,0,0,0,.193.793,17.132,17.132,0,0,0,1.562-1.441,1.811,1.811,0,0,0,.336-1.042c.08-1.794,2.367-3.227,3.916-2.323.69.4,1.372.844,2.052,1.275a3.438,3.438,0,0,1,1.266,2.308,1,1,0,0,0,.6.787,3.662,3.662,0,0,1,2.013,1.822,2.367,2.367,0,0,1,2.832.844,3.856,3.856,0,0,1,.633,2.034.6.6,0,0,0,.335.41,3.492,3.492,0,0,1,2.544,2.755,18.434,18.434,0,0,1,.208,2.482,1.275,1.275,0,0,0,.253.713,3.591,3.591,0,0,1,.771,4.289,2.081,2.081,0,0,0-.155,1.641,6.236,6.236,0,0,1,.039,1.868h19.325a1.9,1.9,0,0,0-.214-.258,2.263,2.263,0,0,1-.749-2.972,6.53,6.53,0,0,1,2.239-2.341,31.082,31.082,0,0,1,5.227-2.757c2.564-1.219,5.122-2.453,7.682-3.681.053-.026.1-.066.266-.177-1.389-.013-1.527-1.165-1.94-1.953-1.162-2.214-2.2-4.491-3.3-6.738-.179-.365-.415-.7-.624-1.053l-.111.057c.157.4.321.793.468,1.194.547,1.489,1.086,2.981,1.635,4.469a1.3,1.3,0,0,0,.231.344,2.387,2.387,0,0,1,.577,1.639c-.005.127-.118.333-.215.354a.5.5,0,0,1-.4-.176c-.12-.141-.151-.356-.265-.507-.136-.18-.325-.32-.48-.488a2.03,2.03,0,0,1-.474-.566c-.766-2.04-1.5-4.091-2.262-6.133a3.129,3.129,0,0,0-.41-.608l-.137.084c.12.705.233,1.411.361,2.115.086.472.216.939.275,1.414.021.171-.111.361-.173.542-.165-.126-.416-.219-.48-.385q-.663-1.7-1.251-3.423a.522.522,0,0,0-.547-.41c-.773-.049-1.065-.438-1.278-1.181a9.635,9.635,0,0,0-1.021-2.173,4.677,4.677,0,0,0,.7,2.37,3.365,3.365,0,0,1,.428,1.3c.082.381-.04.659-.528.471a1.55,1.55,0,0,0,1.06,1.328c2.33,1.048,3.11,3.074,3.382,5.412a.89.89,0,0,1-.006.192,1.168,1.168,0,0,1-.089.191,2.21,2.21,0,0,1-.334-.321c-.7-1.053-1.393-2.108-2.075-3.172a3.306,3.306,0,0,0-1.583-1.129,3.817,3.817,0,0,1-1.676-1.526c-.665-1.039-1.363-2.057-2.038-3.09-.388-.594-.733-1.218-1.144-1.8-.44-.62-.935-1.2-1.407-1.8l-.136.072a4.88,4.88,0,0,0,.29.749,5.913,5.913,0,0,0,.658.945,22.946,22.946,0,0,1,3.5,5.4,12.87,12.87,0,0,0,.845,1.5,1.489,1.489,0,0,0,.528.4,4.622,4.622,0,0,1,1.769,2.383c.066.147-.057.378-.093.57-.213-.076-.425-.149-.636-.228a.119.119,0,0,1-.056-.076c-.355-1.335-1.675-1.844-2.422-2.839a11.77,11.77,0,0,1-1.136-1.833,20.221,20.221,0,0,0-3.014-4.671,7.5,7.5,0,0,1-1.3-2.6,6.638,6.638,0,0,0-1.945-3.149.515.515,0,0,0-.32-.135c.452.785.926,1.559,1.349,2.359.493.932.9,1.912,1.419,2.825.579,1.013,1.255,1.971,1.878,2.96a7.916,7.916,0,0,1,.7,1.256.773.773,0,0,1-.113.708c-.221.169-.518.03-.685-.242-1.06-1.736-2.149-3.454-3.174-5.21s-1.967-3.524-2.948-5.288a.338.338,0,0,0-.241-.179c.069.169.128.342.207.506.67,1.384,1.346,2.765,2.011,4.152a1.625,1.625,0,0,1,.2.633c0,.155-.128.433-.226.446a.848.848,0,0,1-.583-.178c-.137-.109-.181-.332-.267-.5q-1.073-2.124-2.143-4.249c-.1-.2-.149-.43-.268-.616a2.162,2.162,0,0,0-.392-.373l-.22.169c.661,1.325,1.329,2.647,1.978,3.977a9.8,9.8,0,0,1,.585,1.417.7.7,0,0,1-.134.628c-.29.171-.545-.032-.7-.312-.078-.139-.136-.289-.207-.433-.835-1.679-1.667-3.359-2.513-5.033a1.86,1.86,0,0,0-.358-.383l-.095.09c.333.776.66,1.555,1,2.328.263.6.208.877-.294,1.146.215.118.4.231.6.326a2.607,2.607,0,0,1,1.172,1.159c.366.671.8,1.305,1.226,1.945.044.066.2.087.3.083a3.577,3.577,0,0,1,3.172,1.759c1.1,1.559,2.222,3.1,3.324,4.656a1.191,1.191,0,0,0,.852.549,3.053,3.053,0,0,1,2.271,1.536,2.2,2.2,0,0,1,.3.8c.027.2-.053.549-.171.59a1.283,1.283,0,0,1-.723-.082.7.7,0,0,1-.314-.288,2.961,2.961,0,0,0-2.117-1.2,1.718,1.718,0,0,1-1.138-.732c-1.175-1.582-2.343-3.169-3.545-4.73a2.324,2.324,0,0,0-1.505-1.117,12.924,12.924,0,0,1,.8,1.019c.447.7.854,1.425,1.285,2.135.656,1.08,1.319,2.156,1.98,3.233.017.027.042.049.06.075.2.286.4.6.07.892-.242.213-.673-.006-.907-.4-.868-1.456-1.693-2.94-2.627-4.353a22.343,22.343,0,0,0-1.906-2.285.729.729,0,0,0-.984-.146c.636.926,1.262,1.84,1.891,2.752.492.712,1.012,1.407,1.463,2.145.119.195.139.647.012.755-.252.215-.535,0-.717-.259q-1.6-2.224-3.194-4.449a7.28,7.28,0,0,0-.5-.647.966.966,0,0,0-.32-.154l-.1.1c.285.586.576,1.168.851,1.759.23.492.426,1,.665,1.488.214.438.467.858.7,1.287.084.153.229.316.219.466-.014.205-.1.5-.244.58a.446.446,0,0,1-.644-.318c-.5-1.662-1.629-2.985-2.371-4.516-.3-.623-.344-.6-1.107-.39.166.328.349.64.484.972a3.73,3.73,0,0,1,.241.872c.019.131-.094.4-.149.4a.732.732,0,0,1-.5-.165,2.594,2.594,0,0,1-.349-.624c-.123-.243-.248-.487-.358-.736a1.025,1.025,0,0,0-1.013-.714c-.7,0-1.072-.445-1.407-1.051-.665-1.2-1.446-2.345-2.177-3.513a2.7,2.7,0,0,1-.578-1.7c.206.1.383.137.472.244,1.065,1.282,2.1,2.589,3.187,3.852a1.452,1.452,0,0,0,.978.563c1.491-.169,2.969-.451,4.468-.7-.332-.575-.6-1.1-.929-1.592a1.994,1.994,0,0,0-1.81-.82,1.984,1.984,0,0,1-2.048-1.5c-.541-1.314-1.309-2.533-1.915-3.823-1.625-3.458-3.919-6.557-5.4-10.1-.089-.215-.416-.331-.632-.494l-.143.144a13.745,13.745,0,0,0,.794,1.491,17.247,17.247,0,0,1,2.038,4.753c.174.543.48,1.043.7,1.572a8,8,0,0,1,.4,1.165c.029.12-.124.406-.188.4a.885.885,0,0,1-.534-.2,1.285,1.285,0,0,1-.224-.472c-.672-1.628-1.3-3.277-2.029-4.877-.545-1.192-1.213-2.329-1.859-3.473-.356-.632-.425-.629-1.239-.4.145.183.274.35.407.512.07.085.178.149.217.243.489,1.164.985,2.324,1.434,3.5.083.218.027.706-.077.741-.436.149-.474-.263-.594-.557-.114-.276-.279-.531-.411-.8-.427-.872-.893-1.729-1.258-2.626a1.205,1.205,0,0,0-1.34-.839c-.321.075-.632.2-1,.313.131.188.211.322.31.441a4.907,4.907,0,0,1,1.066,1.815,10.723,10.723,0,0,0,.911,1.828,1.44,1.44,0,0,1,.232.609c0,.181-.172.5-.279.507a2.039,2.039,0,0,1-.708-.229c-.01,0-.018-.028-.02-.043-.133-1.124-.962-1.988-1.174-3.066a2.45,2.45,0,0,0-.852-1.327.426.426,0,0,0-.355-.115c-.542.263-1.069.559-1.551.817.95,1.329,1.855,2.617,2.794,3.879a1.213,1.213,0,0,0,.653.3,4.354,4.354,0,0,1,2.439,1.416.8.8,0,0,1,.224.414c0,.235-.028.62-.152.67-.2.078-.485-.057-.726-.133-.074-.023-.117-.147-.244-.174.2.473.413.942.608,1.418.323.785.654,1.568.941,2.366a2.048,2.048,0,0,1-.008.706c-.23-.109-.555-.158-.67-.34a7.14,7.14,0,0,1-.524-1.223,4.309,4.309,0,0,0-.362-.927c-.574-.81-1.177-1.6-1.814-2.362a1.143,1.143,0,0,0-.732-.329,1.246,1.246,0,0,1-1.105-.7c-.409-.723-.922-1.387-1.365-2.093a10.241,10.241,0,0,0-.6-1.123,8.557,8.557,0,0,0-1.083-.957l-.172.15c.332.587.667,1.172,1,1.761a19.241,19.241,0,0,1,.978,1.8c.523,1.237.98,2.5,1.468,3.755a18.622,18.622,0,0,0,.869,2.132,2.739,2.739,0,0,0,1.007,1.047,9.354,9.354,0,0,1,3.274,3.05c.8,1.2,1.631,2.38,2.415,3.59a4.648,4.648,0,0,1,.471,1.145c.036.115-.07.39-.134.4a1.163,1.163,0,0,1-.523-.119c-.06-.023-.1-.124-.128-.2a23.052,23.052,0,0,0-3.1-4.729,9.11,9.11,0,0,0-2.952-2.558,3.415,3.415,0,0,1-1.43-1.763c-.573-1.338-1.181-2.663-1.743-4.006-.41-.981-.708-2.012-1.171-2.965a10.592,10.592,0,0,0-1.569-2.564,4.233,4.233,0,0,0-2.984-1.531c.466.631,1,1.27,1.437,1.968.622.985,1.1,2.068,1.783,3.006a10.52,10.52,0,0,1,1.421,2.472c.273.731.46,1.5.671,2.25a1.524,1.524,0,0,1,.006.411c-.365.123-.5-.08-.528-.339a10.46,10.46,0,0,0-1.34-2.987,9.028,9.028,0,0,0-.581-1.13c-.465-.722-.957-1.426-1.454-2.125-.371-.522-.8-1.005-1.148-1.541a6.274,6.274,0,0,0-2.534-2.159c-.228-.115-.624.1-.943.169l-.021.164c.253.231.5.465.759.691a3.983,3.983,0,0,1,1.233,2.023,5.323,5.323,0,0,0,.361.987q1.128,2.283,2.291,4.55c.211.41.5.783.74,1.177a2.369,2.369,0,0,1,.362.664c.035.16-.1.508-.177.513a1.51,1.51,0,0,1-.673-.176c-.081-.036-.111-.187-.163-.287-.467-.894-.943-1.783-1.4-2.683-.749-1.488-1.522-2.964-2.208-4.48a5.245,5.245,0,0,0-2.243-2.321l-.7.482c.273.514.547,1.015.806,1.523.806,1.579,1.614,3.156,2.4,4.745a3.367,3.367,0,0,1,.254.914c.02.115-.052.329-.135.36a.519.519,0,0,1-.441-.055,1.1,1.1,0,0,1-.388-.528,11.572,11.572,0,0,0-2.157-3.984,20.377,20.377,0,0,1-1.014-1.8c-.084-.15-.173-.3-.287-.492l-1.494,1.047a13.453,13.453,0,0,1,.933,1.366c.241.459.357.981.557,1.464.12.289.3.553.443.833a8.5,8.5,0,0,1,.5,1.054c.04.113-.094.405-.18.419a.729.729,0,0,1-.558-.136,2.8,2.8,0,0,1-.389-.655q-.992-1.72-1.987-3.441c-.04-.069-.091-.132-.158-.228l-1.336,1a2.994,2.994,0,0,1-1.576.644,29.557,29.557,0,0,0-3,.419,5.716,5.716,0,0,0-1.406.576c-.436.219-.831.52-1.267.739a1.459,1.459,0,0,1-.568.03c.033-.2-.007-.486.111-.588,1.055-.912,2-2.016,3.539-2.139.428-.033.845-.194,1.273-.257a5.1,5.1,0,0,0,2.252-1.119c2.033-1.487,4.065-2.978,6.154-4.384a3.654,3.654,0,0,1,3.258-.47c1.788.566,3.6,1.065,5.4,1.569a.977.977,0,0,0,.616-.094,31.781,31.781,0,0,1,3.516-1.661,11.589,11.589,0,0,1,6.082-.342,1.7,1.7,0,0,1,.948.926,83.979,83.979,0,0,0,4.352,8.039,6.725,6.725,0,0,1,.545.962,1.112,1.112,0,0,0,1.268.781c1.8-.038,3.6,0,5.393.047a4.714,4.714,0,0,1,3.328,1.421c1.048,1.075,2.035,2.216,2.985,3.38.61.748,1.141,1.435,2.281,1.023a8.684,8.684,0,0,1,1.479-.139,1.344,1.344,0,0,1,1.519.752c.478.872.93,1.758,1.4,2.637.222.42.492.489.883.213s.756-.542,1.126-.825a9.288,9.288,0,0,1,3.41-1.385,1.776,1.776,0,0,1,1.589.376c.649.522,1.271,1.078,1.875,1.651.683.649,1.308,1.362,2.019,1.976.169.146.586.034.883-.007a12.705,12.705,0,0,1,1.453-.243,1.926,1.926,0,0,1,1.449.733c.587.628,1.27,1.167,1.931,1.76a6.548,6.548,0,0,1,3.085-1.289c.159-.024.325-.229.424-.389.721-1.173,1.371-2.394,2.151-3.526a7.869,7.869,0,0,1,3.277-2.7,14.565,14.565,0,0,1,3.208-.736,3.52,3.52,0,0,1,2.53.533,1.1,1.1,0,0,0,1.159.051,14.414,14.414,0,0,1,1.546-.461.66.66,0,0,0,.313-.359c.488-1.2.9-2.439,1.451-3.615.877-1.885,1.831-3.736,2.768-5.594a2.634,2.634,0,0,1,1.683-1.277c1.423-.443,2.87-.811,4.278-1.295a4.593,4.593,0,0,0,1.39-.907c1.136-.968,2.24-1.974,3.353-2.969a4.066,4.066,0,0,1,1.857-.963c1.221-.272,2.424-.632,3.654-.854a26.016,26.016,0,0,1,2.825-.254c.784-.054,1.575-.035,2.354-.127a4.994,4.994,0,0,0,2.553-1.027c1.022-.8,2.04-1.613,3.124-2.32a7.347,7.347,0,0,1,3.235-.842c1.624-.2,3.253-.355,4.881-.506.768-.071,1.1.245,1.064.934-.025.488-.289.743-.847.794-1.135.1-2.273.168-3.4.3-1.018.121-2.029.3-3.038.489a.914.914,0,0,0-.545.333,12.914,12.914,0,0,0-1.114,1.791c-.776,1.654-1.489,3.338-2.238,5a1.737,1.737,0,0,1-.405.585,1.385,1.385,0,0,1-.516.169c-.038-.161-.145-.344-.1-.479.217-.685.456-1.364.718-2.033.473-1.2.968-2.4,1.389-3.656-.31.236-.617.475-.929.708a4.5,4.5,0,0,1-.861.609,1.877,1.877,0,0,0-1.2,1.195c-.038.12-.247.2-.393.27-.245.113-.512.179-.753.3a3.774,3.774,0,0,0-2.044,2.76.487.487,0,0,1-.046.136c-.178.317-.314.74-.786.626-.435-.1-.185-.51-.241-.78a1.714,1.714,0,0,1,0-.317,3.363,3.363,0,0,0-.671.1.79.79,0,0,0-.448.322c-.209.467-.351.963-.532,1.444a6.3,6.3,0,0,1-1.8,2.628,9.071,9.071,0,0,0-.986,1.349,4.837,4.837,0,0,1-.631.571,3.041,3.041,0,0,1-.125-.833,3.138,3.138,0,0,1,1.178-1.98,5.441,5.441,0,0,0,1.656-2.917,3.242,3.242,0,0,0-1.488,1.554,8.071,8.071,0,0,1-1.263,1.851,8.088,8.088,0,0,0-1.261,2.25,7.77,7.77,0,0,1-.7,1.247c-.081.118-.322.127-.49.187-.048-.157-.161-.325-.135-.468a9.09,9.09,0,0,1,1.786-4.09,15.475,15.475,0,0,0,1.59-2.617,3.677,3.677,0,0,1,3.1-2.2,1.488,1.488,0,0,0,.674-.306c.541-.393,1.06-.816,1.7-1.316-1.006.053-1.9.052-2.777.158-1,.122-1.986.354-2.982.51a.8.8,0,0,0-.7.671c-.4,1.368-.811,2.732-1.228,4.094-.225.735-.467,1.464-.712,2.193a.724.724,0,0,1-.213.368.676.676,0,0,1-.476.113.424.424,0,0,1-.217-.353,7.644,7.644,0,0,1,.278-1.212c.477-1.477.981-2.946,1.456-4.425a7.481,7.481,0,0,0,.168-1.018,4.668,4.668,0,0,0-.468.232,4.879,4.879,0,0,0-2.064,3c-.53,1.994-1.219,3.945-1.846,5.913-.492,1.543-.979,3.087-1.493,4.622-.265.789-.581,1.561-.883,2.336-.112.286-.35.476-.637.353-.133-.057-.22-.348-.226-.536a2.246,2.246,0,0,1,.149-.7c.563-1.855,1.118-3.713,1.705-5.561.354-1.115.775-2.208,1.138-3.32.282-.868.521-1.75.774-2.628a4.662,4.662,0,0,0,.081-.5,2.014,2.014,0,0,0-.958,1.084c-.545,1.643-1.164,3.261-1.736,4.9-.465,1.33-.9,2.67-1.352,4.006-.015.046-.027.092-.042.138-.094.294-.256.6-.589.464-.139-.058-.234-.468-.189-.684a23.8,23.8,0,0,1,.6-2.322c.6-1.9,1.227-3.781,1.842-5.671a1.641,1.641,0,0,0,.036-.2.524.524,0,0,0-.7.391c-.472,1.363-.918,2.737-1.437,4.083-.733,1.9-1.53,3.771-2.281,5.662-.319.8-.563,1.636-.89,2.436-.43,1.053-.906,2.088-1.366,3.128a.84.84,0,0,1-.2.325,3.842,3.842,0,0,0-1.283,1.987c-.05.159-.357.238-.546.354-.091-.166-.258-.332-.26-.5a2.935,2.935,0,0,1,1.063-2.227,2.755,2.755,0,0,0,.552-.7,42.968,42.968,0,0,0,2.489-6.5c.915-2.668,1.859-5.326,2.8-8.026a.961.961,0,0,0-.983.624c-.927,2.2-1.888,4.389-2.862,6.57-.4.9-.9,1.766-1.3,2.667-.25.551-.4,1.146-.631,1.708-.053.129-.238.205-.362.306-.052-.148-.166-.3-.145-.442a5.408,5.408,0,0,1,.274-1.119c1.2-3.121,1.867-6.449,3.574-9.378a.341.341,0,0,0,.02-.092l-.1-.1a3.214,3.214,0,0,0-.534.607c-.534,1.041-1.086,2.079-1.537,3.157-1.078,2.572-2.08,5.176-3.158,7.749-.613,1.46-1.316,2.883-1.98,4.321-.047.1-.122.19-.171.291-.13.268-.371.435-.612.283a.719.719,0,0,1-.152-.615c.135-.658.316-1.309.506-1.955.261-.888.547-1.768.822-2.652l-.114-.083c-.107.122-.26.228-.314.371-.409,1.079-.778,2.173-1.2,3.245-.3.759-.656,1.494-1,2.232-.054.115-.191.19-.388.378-.082-1.536.727-2.717.884-4.125l-4,8.067a1.032,1.032,0,0,0,.978-.4,6.1,6.1,0,0,1,2.152-2.09,3.648,3.648,0,0,1,1.109-.23c.367-.031.442.2.282.5a.868.868,0,0,1-.269.329,10.611,10.611,0,0,0-2.374,2.5,1.5,1.5,0,0,1-1.046.6,7.379,7.379,0,0,0-1.237.178c-1.26.359-2.518.73-3.755,1.157a2.333,2.333,0,0,0-.793.675c-.417.444-.808.911-1.205,1.373a.679.679,0,0,1-1.015.132.683.683,0,0,0-.876.037c-2.26,1.524-4.53,3.035-6.792,4.556-.745.5-1.486,1.008-2.212,1.537-.6.44-.506,1.078.185,1.492a21.642,21.642,0,0,0,4.882,2.118c3.128.951,6.265,1.88,9.375,2.89,2.531.821,5.051,1.686,7.534,2.642a7.943,7.943,0,0,1,4.6,4.556,8.255,8.255,0,0,1,.146,6.379c-.838,2.148-1.771,4.267-2.795,6.333-1.123,2.267-2.416,4.449-3.6,6.686-.7,1.332-1.282,2.735-2.027,4.043-1.088,1.907-2.248,3.775-3.429,5.626-.83,1.3-1.749,2.543-2.627,3.812q-1.588,2.3-3.176,4.593c-.137.2-.291.384-.446.568a.965.965,0,0,1-1.32.245.989.989,0,0,1-.093-1.349c.524-.749,1.073-1.481,1.582-2.24,1.163-1.732,2.292-3.486,3.469-5.208.523-.766,1.193-1.435,1.683-2.22a69.92,69.92,0,0,0,4.274-7.585c.733-1.584,1.615-3.1,2.434-4.645.72-1.36,1.454-2.713,2.166-4.077a27.624,27.624,0,0,0,2.637-6.647,5.586,5.586,0,0,0-.566-3.693,8.462,8.462,0,0,0-1.808-2.527,4.908,4.908,0,0,0-2.472-1.31,20.971,20.971,0,0,1-3.015-.989c-3.244-1.219-6.559-2.214-9.873-3.223-2.405-.732-4.757-1.638-7.117-2.508a10.379,10.379,0,0,1-1.552-.866,2.414,2.414,0,0,1-.15-3.994c1.149-.816,2.318-1.6,3.49-2.387s2.336-1.529,3.5-2.295c.16-.1.307-.228.531-.4-.191-.021-.3-.043-.418-.044-.834-.01-1.67-.035-2.5-.014a3.266,3.266,0,0,0-.958.2,94.213,94.213,0,0,0-10.318,4.727,29.285,29.285,0,0,0-5.317,2.787,11.831,11.831,0,0,0-1.569,1.407c-.525.58-.414.81.172,1.32a5.9,5.9,0,0,0,3.1,1.62c1.241.164,2.487.3,3.716.532,1.639.3,3.266.677,4.894,1.038.985.218,1.958.488,2.943.7a3.062,3.062,0,0,1,2.04,1.75,23.852,23.852,0,0,1,2.019,4.828c.073.259.157.516.224.733.766.051,1.483.089,2.2.149.856.071,1.554.35,1.595,1.4a1.552,1.552,0,0,1,.483-.18c.257.007.641,0,.737.147a1.327,1.327,0,0,1,.061.849.845.845,0,0,1-.347.446c-.721.543-1.457,1.066-2.177,1.588.712.292,1.53.6,2.328.96a5.15,5.15,0,0,1,1.32.753,3.857,3.857,0,0,1,.56,1.011c.072.126.184.3.3.317a1.2,1.2,0,0,1,1.158,1.118,8.533,8.533,0,0,1,.1,1.581c0,.192-.184.383-.293.569s-.216.344-.369.586c.229.03.306.041.383.049.977.1,1.2.379,1.055,1.34-.063.427-.128.855-.2,1.281-.063.386-.227.675-.655.645,0,1.444.071,2.872-.018,4.289a9.467,9.467,0,0,1-1.319,4.574,2.058,2.058,0,0,1-1.77,1c-.832.012-1.665-.08-2.5-.128a1.277,1.277,0,0,1-1.076-.78,7.492,7.492,0,0,1-.718-2.826c-.019-.171-.032-.343-.062-.672l-4.806,2.2c0,1.241.057,2.493-.012,3.739a15.426,15.426,0,0,1-1.867,6.658,8.739,8.739,0,0,1-1.155,1.644,3.419,3.419,0,0,1-2.838,1.173c-1.26-.084-2.526-.173-3.769-.382a2.551,2.551,0,0,1-1.977-1.725,19.9,19.9,0,0,1-1.132-6.414c-.006-.128-.007-.257-.014-.385a.44.44,0,0,0-.042-.1c-1.175-.043-2.359-.054-3.539-.135-2.9-.2-5.793-.428-8.689-.645-.943-.07-1.885-.153-2.829-.2a.948.948,0,0,0-.517.212c-.6.422-1.184.871-1.789,1.288a.781.781,0,0,1-.423.045C3163.632,4642.255,3163.248,4642.232,3162.829,4642.212Zm27.316-57.024c.039-.151.082-.3.116-.455a12.177,12.177,0,0,1,1.165-3.294l-.4-.333a5.213,5.213,0,0,1-1.42,2.766l.543,1.316a3.4,3.4,0,0,1,.29.478.507.507,0,0,0,.689.356,5.878,5.878,0,0,1,1.671-.131,9.851,9.851,0,0,1,1.6.39l.531-1.606-.089-.1a1.955,1.955,0,0,0-.352.309c-.13.18-.183.425-.336.574a2.254,2.254,0,0,1-.58.312,2.134,2.134,0,0,1-.048-.584,7.758,7.758,0,0,1,.28-.9l-.34-.424c-.234.59-.416,1.1-.643,1.594a.629.629,0,0,1-.393.335c-.126.02-.283-.151-.5-.279-.5.094-.668-.068-.495-.674.193-.676.439-1.337.648-2.01a1.938,1.938,0,0,0,.032-.447l-.129-.021c-.283.66-.582,1.314-.843,1.982C3190.956,4584.822,3190.742,4585.221,3190.145,4585.188Zm5.3,25.872.015.014a2.62,2.62,0,0,0-2.1-1.942c-.157-.034-.309-.086-.466-.121-1.785-.391-3.566-.8-5.357-1.167a49.076,49.076,0,0,0-10.1-.919c-4.544.025-9.088.005-13.631.063-2.694.034-5.389.139-8.078.3a15.047,15.047,0,0,0-2.662.588.5.5,0,0,0-.314.3c-.282,1.2-.6,2.4-.79,3.616-.361,2.345-.642,4.7-.956,7.054-.131.981-.262,1.963-.389,2.907l1.17.676a7.579,7.579,0,0,0,.145-1.024,9.236,9.236,0,0,1-.11-.976c.247-1.939.5-3.88.808-5.809.3-1.818.663-3.626,1.026-5.433a.6.6,0,0,1,.414-.356,17.225,17.225,0,0,1,1.9-.232c2.688-.16,5.377-.317,8.067-.44,1.619-.074,3.241-.082,4.862-.118,2.7-.059,5.391-.125,8.087-.169.739-.012,1.122.45,1.138,1.2.034,1.522.1,3.043.144,4.565.068,2.487.142,4.974.173,7.461a3.647,3.647,0,0,1-.313,1.294.684.684,0,0,1-.5.346c-.864.047-1.731.031-2.6.055-1.147.032-2.293.081-3.455.123.024.155.038.266.058.376a15.069,15.069,0,0,1-.824,8.089,8.9,8.9,0,0,0-.16,3.35h.677c0-.551.016-1.076,0-1.6-.024-.657-.094-1.313-.1-1.97,0-.126.2-.253.311-.379a2.527,2.527,0,0,1,.3.352c.044.073.012.189.02.285.089,1.055.176,2.11.277,3.164.009.093.122.175.186.263a.934.934,0,0,0,.145-.3,4.272,4.272,0,0,0-.046-.526c-.046-.688-.112-1.377-.112-2.065,0-.184.206-.367.318-.55.107.173.287.336.311.52.116.922.187,1.85.285,2.775a1.292,1.292,0,0,0,.131.324c.1-.637.076-1.242.118-1.842a1.993,1.993,0,0,1,.3-.637c.136.207.287.406.4.625a.92.92,0,0,1,.026.332c.03.417.044.835.1,1.247.017.114.173.208.265.311.057-.111.165-.222.164-.333,0-.594-.048-1.187-.041-1.78,0-.259-.125-.676.278-.705.471-.034.333.422.368.688.092.71.15,1.424.221,2.129h1.169c-.018-.242-.034-.449-.048-.656-.031-.464-.09-.929-.077-1.393a2.362,2.362,0,0,1,.226-.669,2.809,2.809,0,0,1,.363.647,10.815,10.815,0,0,1,.157,1.144c.043.306.1.611.15.917l.162.01a2,2,0,0,0,.1-.387c.028-.545.032-1.09.068-1.634.007-.113.115-.22.177-.329.079.1.205.187.23.3.12.53.2,1.07.321,1.6.027.119.159.214.243.32.056-.125.159-.249.159-.374,0-.561-.047-1.122-.035-1.682,0-.125.178-.245.273-.367.114.11.268.2.329.335a1.334,1.334,0,0,1,.078.519c.01.457,0,.915,0,1.361.531.075.508-.244.483-.511-.069-.767-.18-1.529-.236-2.3-.011-.16.146-.332.225-.5.117.158.311.3.337.475.108.713.161,1.434.245,2.151a3.944,3.944,0,0,0,.127.515l.164,0a2.071,2.071,0,0,0,.071-.443c-.025-.544-.085-1.088-.1-1.632,0-.124.132-.252.2-.378.123.1.325.188.354.312.116.515.179,1.042.265,1.564.02.121.057.24.086.36.04-.675.025-1.328.05-1.98a1.41,1.41,0,0,1,.22-.476c.148.125.379.225.428.382a5.17,5.17,0,0,1,.116.947c.039.345.083.689.126,1.033l.241-.023q-.087-4.653-.175-9.306h-.127c0,.416.008.833,0,1.249-.02.818-.016,1.638-.085,2.452-.064.753-.324,1.051-1.074,1.118a21.518,21.518,0,0,1-2.394-.005,1.2,1.2,0,0,1-1.353-1.293c-.042-1.2-.042-2.408.015-3.608.05-1.032.264-1.3,1.262-1.4a12,12,0,0,1,2.49.091,4.387,4.387,0,0,1,1.033.371c-.035-.218-.088-.516-.13-.815-.039-.274-.3-.682.092-.778.447-.109.487.406.536.7.177,1.042.349,2.091.423,3.144.1,1.406.1,2.819.158,4.229.028.663.094,1.324.143,1.986.022-1.686-.033-3.368-.088-5.051a4.1,4.1,0,0,1-.013-.767c.021-.132.18-.33.288-.338a.612.612,0,0,1,.4.248c.072.087.056.247.079.375a4.23,4.23,0,0,0,.037-.629,2.474,2.474,0,0,1,.035-.67c.044-.143.223-.334.348-.338s.317.195.345.332a5.981,5.981,0,0,1,.069,1.006c.009.3,0,.6,0,.905l.207.013a7.287,7.287,0,0,0,.15-.848c.026-.432-.023-.87.028-1.3a.523.523,0,0,1,.38-.349c.13,0,.323.216.364.37a2.95,2.95,0,0,1,.017.749c.532-.058.266-.422.352-.633a2.227,2.227,0,0,1,.315-.441,2.458,2.458,0,0,1,.466.37c.077.1.057.272.082.424.449.017.268-.341.363-.53.07-.142.227-.328.35-.332s.278.174.383.3c.057.069.038.2.054.3l.143.056a4.123,4.123,0,0,1,.25-.428c.095-.126.211-.307.333-.32a.464.464,0,0,1,.383.241c.087.335.263.3.447.166.118-.253.238-.6.443-.665.5-.145.365.422.535.656.887-.6.887-.6,1.13.142.2-.051.505-.194.559-.129a1.66,1.66,0,0,1,.193.617,10.15,10.15,0,0,0-.119-1.652c-.174-1.042-.392-2.076-.576-3.117-.041-.231-.074-.506.273-.565.3-.053.381.141.415.392.207,1.555.446,3.1.616,4.663.056.515.016,1.011.461,1.4a1.213,1.213,0,0,1,.226.519c.178.52.346,1.043.518,1.565a4.733,4.733,0,0,0,.115-.976,1.716,1.716,0,0,1,.208-.475l.441.272c.242-.323.5-.244.628-.078l.86.114c-.041-.316.135-.5.723-.307-.167-1.468-.326-2.846-.48-4.225-.077-.684-.164-1.367-.2-2.053a.736.736,0,0,1,.238-.535c.114-.094.35-.041.532-.053a3.6,3.6,0,0,1,.012.486,2.906,2.906,0,0,0-.1.636c.157,1.043.345,2.081.523,3.124.258-.114.556-.258.7.181s-.029.652-.692.795v1.382c.463-.176.561-.114.577.375.009.279,0,.558,0,.836a1.1,1.1,0,0,0,.233-.533c.373-1.739.733-3.481,1.123-5.216.148-.658.287-.689.95-.6.682.088,1.373.106,2.06.154a.674.674,0,0,0-.348-.321c-1.434-.6-2.861-1.224-4.311-1.785a1.444,1.444,0,0,1-.955-1.2c-.3-1.474-.552-2.968-.987-4.4A37.673,37.673,0,0,0,3195.442,4611.06Zm-64.629,2.17c.076-.35-.017-.783.5-.872s.674.245.853.649a1.42,1.42,0,0,0,.629.6c.625.328.725.488.452,1.122a.575.575,0,0,0,.169.77c.335.243.713.427,1.048.67a1.916,1.916,0,0,1,.334.444c-.161.093-.338.283-.478.259a3.684,3.684,0,0,1-1.445-.4,4.073,4.073,0,0,1-.837-1.1c-.11,1.08-.084,1.156.96,1.785.342.207.511.483.343.83-.079.163-.366.225-.563.335a3.289,3.289,0,0,0,3.4.209c-.388-.083-.83-.148-1.252-.277a.513.513,0,0,1-.375-.682c.128-.36.457-.226.7-.154a1.252,1.252,0,0,0,1.646-.694,1.635,1.635,0,0,1,.606-.471,5.507,5.507,0,0,0,.994-.529c.429-.4.763-.9,1.161-1.331a.617.617,0,0,1,.435-.183c.081.006.214.223.211.343a8.929,8.929,0,0,1-.117,1.171,2.563,2.563,0,0,1-.214.512,3.961,3.961,0,0,0,1.544-1.311,1.616,1.616,0,0,1,.512-.237,2.127,2.127,0,0,1,.143.453c.024.256.007.516.007.775a2.747,2.747,0,0,0,.749-1.708c.16-.678.375-1.346.6-2.006.118-.347.345-.656.46-1a1.823,1.823,0,0,0-.385-1.92c-.008.523.008,1-.444,1.039-.3.789-.521,1.5-.836,2.169a.991.991,0,0,1-.974.663c-.165-.014-.452-.13-.456-.209a.839.839,0,0,1,.185-.621,2.768,2.768,0,0,0,1-1.8,3.4,3.4,0,0,1,.374-.8c.123-.567.228-1.193.4-1.8.149-.533.4-1.036.551-1.568a1.769,1.769,0,0,0-.354-1.453,9.582,9.582,0,0,1-.893,1.753,2.169,2.169,0,0,0-.513,1.378,3.349,3.349,0,0,1-.962,2.346c-.164.161-.484.162-.733.237a6.591,6.591,0,0,1,.034-.661,1.431,1.431,0,0,1,.148-.353,3.743,3.743,0,0,0,.565-1.959,1.935,1.935,0,0,1,.567-1.612,2.062,2.062,0,0,0,.441-2.107.754.754,0,0,1-.148.044c-.271.018-.61.134-.792.013-.149-.1-.177-.49-.14-.733.06-.392.232-.766.331-1.154a2.964,2.964,0,0,0,.063-.61c.008-.219-.091-.568.008-.635.318-.213.505.1.7.313a.941.941,0,0,0,.124.095,2.4,2.4,0,0,0-.386-1.981,2.068,2.068,0,0,1-.228-1.52,17.311,17.311,0,0,0,.184-2.2.952.952,0,0,0-.143-.547,4.52,4.52,0,0,1-.629-4.226,2.335,2.335,0,0,0-1.06-2.661,3.562,3.562,0,0,1-.168.833,1.314,1.314,0,0,1-.5.542c-.184.109-.447.068-.446-.236a6.024,6.024,0,0,1,.087-1.863,7.531,7.531,0,0,0,.007-3.557,1.338,1.338,0,0,0-1.254-1.247c-.124-.009-.294-.2-.336-.341a3.3,3.3,0,0,1-.1-.808c-.021-.521.26-.7.74-.479.081.037.16.078.316.153.195-.307.525-.59.538-.887.092-2-.685-3.2-2.538-3.6a4.6,4.6,0,0,1-.872-.253.58.58,0,0,1-.314-.377,1.994,1.994,0,0,0-2.943-1.318,3.279,3.279,0,0,0-1.212,2.367,1.83,1.83,0,0,1-.434,1.361c.43.253.534.592.2.986a2.028,2.028,0,0,0-.319,2.2,1.056,1.056,0,0,1-.04.737,3.783,3.783,0,0,0-.364,1.914c.017.24,0,.482,0,.722a.33.33,0,0,1-.457.34c-.157-.043-.392-.216-.4-.34a5.424,5.424,0,0,1,.266-2.6.5.5,0,0,0,.047-.356,3.328,3.328,0,0,1-.07-2.689c-.919.624-1.049,1.294-.428,2.324a1.129,1.129,0,0,1,.122,1.179,3.484,3.484,0,0,0-.171,2.706,2.12,2.12,0,0,1-.444,2.151,1.348,1.348,0,0,0-.241,1.519,1.915,1.915,0,0,1-.135,1.756c-.118.209-.248.413-.358.626a1.521,1.521,0,0,0,.333,1.934,8.258,8.258,0,0,1,.022-1.56,4.958,4.958,0,0,1,.592-1.436c.068-.122.391-.1.6-.149a1.941,1.941,0,0,1,.061.534,2.592,2.592,0,0,1-.22.583,2.516,2.516,0,0,0,.107,2.2,1.8,1.8,0,0,1,.133-.266.561.561,0,0,1,.8-.214c.315.212.094.483-.059.7a.806.806,0,0,0-.019.983c.212.32.431.635.645.954a.781.781,0,0,1,.008,1.02,1.693,1.693,0,0,0-.372,1.2c-.006.245.143.593-.27.664s-.488-.265-.576-.559c-.018-.057-.032-.115-.035-.128l-.635-.191-.415.71c.559-.071.712.211.6.6a2.174,2.174,0,0,1-.438.595l-.434-.659a1.349,1.349,0,0,0,.5,1.7,2.577,2.577,0,0,1,.377-.487,2.179,2.179,0,0,1,.528-.235,3.065,3.065,0,0,1,.128.517c.039.472.053.947.081,1.42.031.534.17,1.058-.317,1.522a5.632,5.632,0,0,0-.748,1.135,4.472,4.472,0,0,0-.384.659.616.616,0,0,0-.014.467,2.341,2.341,0,0,1,.068,2.087c-.113.283-.229.566-.315.857-.136.465.009.734.486.961a11.007,11.007,0,0,1,.013-1.347,4.539,4.539,0,0,1,.328-1.086.42.42,0,0,1,.345-.168c.076,0,.2.163.208.263.046.412.069.827.081,1.241a3.081,3.081,0,0,0,.525,1.827.688.688,0,0,0,.171-.971,3.2,3.2,0,0,1-.383-2.095,2.319,2.319,0,0,1,.372-.917c.18-.279.451-.222.563.09a3.371,3.371,0,0,1,.191.742,4.205,4.205,0,0,0,.654,1.937,1.305,1.305,0,0,1,.154.867,3.15,3.15,0,0,1-.4.863A2.718,2.718,0,0,0,3130.813,4613.23Zm12.454-18.666c.2.049.584.07.6.164a1.872,1.872,0,0,1-.131.759c-.106.412-.245.816-.331,1.232-.051.247.061.57-.061.751-.2.293-.074.483.061.691a4.09,4.09,0,0,1,.595,2.855c-.06.46-.08.927-.109,1.391a1.984,1.984,0,0,0,.432,1.7,1.964,1.964,0,0,1,.334.633,3.682,3.682,0,0,1,.029,2.635c-.077.246-.135.638,0,.789a3.629,3.629,0,0,1,.665,3.7c-.065.212.219,1.117.416,1.183a2.938,2.938,0,0,0,.775.125c.306.015.676-.147.766.333.071.373-.141.59-.65.64a7.4,7.4,0,0,1-.782,0c0,.466.031.883-.011,1.293-.029.279.032.458.3.479a2.719,2.719,0,0,0,.66-.072c.334-.059.714-.265.985-.165a1.75,1.75,0,0,0,.991.171c.355-.067.552.226.367.544a1.219,1.219,0,0,1-1.009.714c-.681.039-1.359.129-2.053.2a2.411,2.411,0,0,0,2.845.984,1.278,1.278,0,0,0,.58-1.7c-.062-.153,0-.5.107-.552.369-.176.376-.489.414-.8.07-.573.15-1.146.174-1.722a5.094,5.094,0,0,0-.172-.979,5.437,5.437,0,0,1-.56.492,3.33,3.33,0,0,1-.872.452.572.572,0,0,1-.5-.281.846.846,0,0,1,.2-.611,3.851,3.851,0,0,1,.62-.517c.455-.374.914-.742,1.358-1.129a7.727,7.727,0,0,0,.532-.572l-.113-.126a1.46,1.46,0,0,0-1.293.538,1.55,1.55,0,0,1-1.334.736c-.185-.01-.361-.176-.542-.271a3.487,3.487,0,0,1,.391-.518,11.134,11.134,0,0,1,.979-.8,2.051,2.051,0,0,1,.766-.428c1.391-.237,1.394-.22,1.6-1.638,0-.032.008-.064.011-.1a1.54,1.54,0,0,1,.946-1.478,3.115,3.115,0,0,1,.346-3.516,3.8,3.8,0,0,0,.33-.693,1.28,1.28,0,0,0-.289-1.455c-.578-.59-.584-.972-.188-1.722a1.923,1.923,0,0,0-.158-2.326,2.437,2.437,0,0,1-.394-1.038c-.023-.107.217-.387.335-.387.387,0,.405-.213.415-.494a2.385,2.385,0,0,0-.746-1.571,1.281,1.281,0,0,1-.324-.966,4.28,4.28,0,0,0,.064-1,4.059,4.059,0,0,0-2.335-3.345,1.673,1.673,0,0,1-.6-.383,1.281,1.281,0,0,1-.332-.735,3.153,3.153,0,0,0-.922-2.244.834.834,0,0,0-.554-.212.649.649,0,0,1-.713-.44,1.121,1.121,0,0,0-.9-.7c-.518-.132-1.473.3-1.5.737-.048.695-.013,1.4-.013,2.2.139-.27.184-.5.321-.588a1.511,1.511,0,0,1,.694-.175c.052,0,.2.268.166.379a10.117,10.117,0,0,1-.46,1.406c-.137.324-.385.268-.533-.006a2.993,2.993,0,0,1-.2-.606c-.357.264-.738.542-1.114.827a1.262,1.262,0,0,0-.08,1.9c.073-.4.119-.832.235-1.242s.508-.651.794-.5c.365.189.185.5.1.756a3.985,3.985,0,0,0-.044,2.407,1.544,1.544,0,0,1-.3,1.53,4.192,4.192,0,0,0-.56,1.1.581.581,0,0,0,.024.4C3142.946,4593.926,3143.116,4594.248,3143.267,4594.564Zm32.817,26.7.165.006a1,1,0,0,0,.059-.282q-.366-4.194-.744-8.387a2.364,2.364,0,0,1-.04-.477c.012-.1.121-.274.174-.269a.43.43,0,0,1,.325.182,2.729,2.729,0,0,1,.118.659q.3,2.732.593,5.462l.134-.013-.676-8.58c-2.478,0-4.836-.026-7.193,0-3.483.046-6.966.108-10.447.214-1.083.033-2.162.229-3.242.36-.229.028-.609.723-.457.858.4.348.14.7.092,1.062-.1.747-.186,1.5-.278,2.243l.169.019c.02-.17.029-.343.063-.511.133-.675.067-1.464.912-1.758a2.252,2.252,0,0,1,.614-.039c-.079.16-.116.375-.243.47-.434.324-.5.859-.034,1.1a3.183,3.183,0,0,0,1.4.33,17.62,17.62,0,0,0,1.791-.257,14.731,14.731,0,0,1,4.5.1,7.989,7.989,0,0,1,3.625,1.276.666.666,0,0,0,.221.079c1.073.3,2.14.631,3.223.9a3.23,3.23,0,0,0,1.444.119,8.35,8.35,0,0,0,1.945-.8,1.484,1.484,0,0,0,.6-1.73l-.223-.686c-.218-.057-.4-.093-.568-.151-.389-.133-.768-.305-1.164-.41-.461-.122-.941-.174-1.4-.291a.465.465,0,0,1-.294-.293,3.3,3.3,0,0,1-.02-.863c.01-.1.155-.194.238-.29.1.084.249.152.281.257a5.285,5.285,0,0,1,.056.572,1.034,1.034,0,0,0,.165.286.9.9,0,0,0,.146-.285c.02-.19-.028-.389,0-.575.019-.117.13-.219.2-.328.1.084.273.15.3.253a10.255,10.255,0,0,1,.178,1.019l.448-.026a4.441,4.441,0,0,1-.066-.534c0-.273-.281-.676.144-.778.453-.109.358.378.468.629.006.014.016.026-.042-.063.3.119.508.277.7.261.335-.027.412.159.413.391a6.172,6.172,0,0,1-.107.839c.509-.022.677.411.759.825a4.571,4.571,0,0,1-.005,1.18c-.014.219-.149.44-.128.65.183,1.769.387,3.535.589,5.3C3176,4620.749,3176.044,4621.007,3176.084,4621.265Zm-21.464,5.465a7.225,7.225,0,0,0,.055.959c.083.44.248.864.332,1.3.433,2.274,2.543,3.345,4.333,3.6a4.394,4.394,0,0,0,4.151-1.787,7,7,0,0,0-1.172-9.431,4.577,4.577,0,0,0-2.8-1.111,3.978,3.978,0,0,0-2.468,1.186A7.25,7.25,0,0,0,3154.62,4626.73Zm17.453,13.086a8.2,8.2,0,0,1,.225-.933c.035-.1.206-.175.326-.2.061-.01.173.112.217.2.1.2.171.428.277.63a2.182,2.182,0,0,0,.266.338c.084-.137.234-.272.241-.414q.081-1.44.1-2.884a.462.462,0,0,0-.276-.348c-.514-.09-1.037-.127-1.608-.188.048.418-.185.652-.558.51-.163-.062-.212-.424-.341-.711-.425-.044-.983-.1-1.539-.16a5.927,5.927,0,0,1-1.035-.158,1.061,1.061,0,0,0-1.219.17,1.408,1.408,0,0,1-.5.291,21.969,21.969,0,0,1-3.495,1.3,12.114,12.114,0,0,1-3.353.03,8.947,8.947,0,0,1-5.552-2.664,2.083,2.083,0,0,0-1.35-.564,1,1,0,0,0-1.051.95c.023.9.075,1.794.131,2.691a1.175,1.175,0,0,0,.161.367,5.24,5.24,0,0,0,.107-.844.411.411,0,0,1,.286-.277c.106,0,.24.14.32.25a.319.319,0,0,1,.025.205c.126-.083.283-.263.429-.255.111.006.236.239.306.393.114.25.187.518.28.786.193-.212.314-.443.422-.437.144.008.272.208.417.312a4,4,0,0,0,.351.209l.362-.491c.157.116.316.227.468.348s.287.244.507.433a1.651,1.651,0,0,1,.055-.392c.076-.139.164-.36.268-.372.124-.014.286.138.4.249.074.072.086.2.14.3a.441.441,0,0,0,.731.008c.239-.415.383-.4.671-.013a2.446,2.446,0,0,0,.511.4c.271-.6.271-.6.982-.011.41-.481.4-.467.853,0,.184.186.433.32.692.041.2-.212.379-.159.556.064a.611.611,0,0,0,.325.175c.314-.373.588-.137.884.02a.486.486,0,0,0,.254.026l.33-.692c.173.16.349.316.519.479.124.119.242.246.454.464a2.279,2.279,0,0,1,.007-.532,3.1,3.1,0,0,1,.237-.459,3.016,3.016,0,0,1,.349.339c.085.112.1.286.2.38a4.4,4.4,0,0,0,.594.4c-.044-.537-.1-.887-.09-1.237,0-.134.144-.266.222-.4.13.11.331.2.374.334.091.286.071.606.152.9.037.133.205.229.313.342a4.537,4.537,0,0,0,.162-.712,1.673,1.673,0,0,1,.326-.432c.107.146.268.278.309.441a3.892,3.892,0,0,1,.051.76l.152.016a8.244,8.244,0,0,1,.271-.882,1.649,1.649,0,0,1,.333-.386c.1.152.26.294.289.46a4.709,4.709,0,0,1,.013.832c.468.153.7-.012.727-.5a2.662,2.662,0,0,1,.087-.665,2.107,2.107,0,0,1,.284-.466c.095.158.261.311.27.473.021.42-.026.843-.047,1.265a.793.793,0,0,0,.368-.412c.094-.27.116-.567.223-.831.052-.127.23-.2.351-.3.084.114.245.234.238.343-.023.364-.108.725-.165,1.087a.685.685,0,0,0,.012.15Zm-15-44.971-.132,0a2.363,2.363,0,0,1-.233.616.655.655,0,0,1-.459.238c-.077,0-.22-.241-.233-.383a9.278,9.278,0,0,0-.018-1.055c-.092-.43.074-.988-.541-1.215a1.509,1.509,0,0,1-1.091-1.661,2,2,0,0,0-.93-1.845,1.435,1.435,0,0,0-.5-.112,2.248,2.248,0,0,0-.094.587,9.973,9.973,0,0,1,.223,2.031,1.343,1.343,0,0,0,.227,1.024,3.042,3.042,0,0,1,.37,2.75.7.7,0,0,0,.13.445c.22.4.463.783.692,1.176.07.119.1.327.188.356.231.074.481.137.4.42-.047.161-.271.271-.494.477l-.118,1.045c.472.26.885.478,1.286.717.107.063.241.189.243.289a.442.442,0,0,1-.208.332,2.678,2.678,0,0,1-.563.173.813.813,0,0,0,.433.976,9.731,9.731,0,0,0,.952.429c.12.06.283.194.283.293a.489.489,0,0,1-.251.341,1.083,1.083,0,0,1-.55.121c-.34-.027-.675-.11-1.142-.193a8.956,8.956,0,0,0,.571.891c.255.311.6.7,1,.459.468-.287,1.088-.719,1.161-1.167a9.516,9.516,0,0,1,.677-2.335,1.66,1.66,0,0,0-.17-1.73,4.285,4.285,0,0,0-.637-.779,1.577,1.577,0,0,1-.44-1.482C3157.158,4596.338,3157.089,4595.589,3157.073,4594.845Zm54.8-16.281-.145-.113a2.592,2.592,0,0,0-.325.364,8.4,8.4,0,0,0-.461.844q-1.711,3.634-3.411,7.273c-.237.508-.439,1.034-.7,1.53-.085.163-.3.258-.459.384l-.214-.152c.457-1.355.879-2.723,1.382-4.061s1.09-2.659,1.641-3.987a17.856,17.856,0,0,0-1.309,2.723,68.234,68.234,0,0,1-3.611,8.123c-.044.085-.07.207-.141.246a.816.816,0,0,1-.462.143c-.077-.012-.167-.246-.165-.379a1.365,1.365,0,0,1,.144-.5c.486-1.117.979-2.23,1.467-3.346.06-.139.1-.287.152-.43a1.233,1.233,0,0,0-.312.436c-.651,1.3-1.3,2.613-1.959,3.912a2.428,2.428,0,0,1-.417.465l-.2-.123c.649-2.1,1.5-4.142,2.232-6.245a1.39,1.39,0,0,0-.57.529c-.8,1.7-1.572,3.4-2.356,5.107-.144.311-.3.614-.481.973.227.014.367.031.508.031.751,0,1.5.02,2.252-.02a.9.9,0,0,0,.574-.325,6.909,6.909,0,0,0,.726-1.133,1.708,1.708,0,0,1,.99-.843c.511-.189,1.032-.354,1.534-.565a.887.887,0,0,0,.427-.392c.963-2.044,1.908-4.1,2.856-6.147.057-.123.1-.253.154-.38a.63.63,0,0,0-.271.295c-.644,1.308-1.276,2.622-1.932,3.923-.272.541-.584,1.064-.9,1.579-.069.111-.252.15-.382.222a2.555,2.555,0,0,1-.1-.425.734.734,0,0,1,.087-.272c.219-.583.468-1.156.654-1.75a25.159,25.159,0,0,1,2.185-5.016C3211.019,4580.245,3211.433,4579.4,3211.871,4578.564Zm-19.1,48.94a2.319,2.319,0,0,0-2.222-.755,15.064,15.064,0,0,1-2.589.51c-.927.067-1.249.621-1.469,1.364q-.554,1.868-1.107,3.733c-.139.466-.282.929-.444,1.459h2.045c.021-.088.042-.164.059-.24.349-1.563.706-3.124,1.042-4.69a.849.849,0,0,1,.758-.747C3190.137,4627.931,3191.433,4627.72,3192.767,4627.5Zm-18.144,11.477a5.368,5.368,0,0,1,.888.014c.149.026.272.193.407.3-.135.106-.256.266-.408.306a6.159,6.159,0,0,1-.717.052,1.148,1.148,0,0,0-.313.15l.033.167,6.229.314-.083-.648c-.526,0-1.022.021-1.514-.013a.526.526,0,0,1-.394-.275c-.073-.291.172-.327.4-.328.523,0,1.046,0,1.607,0l-.038-.425c-1.29.027-2.517.063-3.745.062a.482.482,0,0,1-.331-.345c0-.124.189-.288.333-.358a1.172,1.172,0,0,1,.474-.035c1.08,0,2.159,0,3.321,0V4636l-6.227.354.132,1.449a13.014,13.014,0,0,1,1.368.205c.188.047.479.262.473.389-.017.369-.352.281-.6.254-.411-.045-.82-.109-1.266-.17Zm16.459-3.63a6.081,6.081,0,0,0-.447.511,7.327,7.327,0,0,0-1.055,3.4,22.511,22.511,0,0,0,0,3.782,5.224,5.224,0,0,0,.522,1.727c.216.487.461.489.755.055a2.693,2.693,0,0,0,.468-.988c.185-1.071.337-2.15.435-3.232a18.656,18.656,0,0,0-.441-4.435A7.033,7.033,0,0,0,3191.082,4635.351Zm-9.725-10.87-.094.075a6.6,6.6,0,0,1,.171,1.12c0,.129-.253.32-.424.37-.253.073-.43-.068-.419-.367a.845.845,0,0,0-.01-.329c-.263-.664-.259-.683.375-.951l-2.3-.109c-.059.624-.142,1.146-.152,1.669a20.775,20.775,0,0,0,.066,2.2.687.687,0,0,0,.422.489,13.516,13.516,0,0,0,1.563.145l-.063-.126c.136-.148.264-.407.41-.418a1.851,1.851,0,0,1,.689.244l.058-.521a4.119,4.119,0,0,1-.889-.179c-.072-.031-.072-.487-.016-.508a5.271,5.271,0,0,1,.912-.183c0-.689.014-1.457-.013-2.224C3181.635,4624.744,3181.456,4624.614,3181.357,4624.481Zm-30.258.548.1-.018a11.729,11.729,0,0,0-.322-1.766c-.143-.427-.611-.514-1.048-.506a.64.64,0,0,0-.648.648c-.086.761-.152,1.526-.183,2.291-.04,1.026-.143,1.055,1.151,1.057a.614.614,0,0,0,.095-.01c.751-.114.754-.114.816-.88C3151.079,4625.574,3151.085,4625.3,3151.1,4625.029Zm33.336,13.6-.619-.242a2.383,2.383,0,0,1,.432-.431c.579-.336,1.178-.637,1.762-.965.045-.025.033-.155.059-.3-.226.127-.387.233-.56.313-.535.246-1.067.505-1.62.706-.133.049-.341-.106-.514-.167.1-.169.173-.4.324-.5a6.321,6.321,0,0,1,.93-.42c-.677.1-1.255.2-1.835.273-.37.049-.744.065-1.113.115-.039.006-.06.146-.117.3.383-.024.7-.056,1.01-.061.435-.006.512.119.347.514a.387.387,0,0,0-.032.185c.027.227.065.454.1.687l.445.229-.4.613c.23.3.23.3-.523.756a4.345,4.345,0,0,0,2.667-1.02C3184.708,4639.216,3184.329,4639.154,3184.435,4638.631Zm15.426-46.421c.453.079.455.08.606-.268q.985-2.268,1.968-4.537c.18-.418.34-.844.509-1.266l-.121-.1c-.172.158-.416.283-.5.479C3201.492,4588.392,3200.691,4590.279,3199.861,4592.21Zm-2.537-7.613-.14.009-1.161,2.465c.424.165.922.39,1.442.546a2.313,2.313,0,0,0,.738-.032c-.645-.837.057-1.493.083-2.21-.467.411-.454,1.219-1.294,1.256.082-.559.24-1.084.371-1.615A1.266,1.266,0,0,0,3197.324,4584.6Zm-24.113,31.933-1.194.279.5,4.633h.122a4.994,4.994,0,0,0,0-.574c-.136-1.161-.294-2.319-.41-3.481-.02-.19.093-.541.207-.569.376-.095.36.245.39.5.15,1.271.3,2.544.455,3.814.015.113.126.214.192.321.052-.1.158-.2.15-.294C3173.5,4619.626,3173.353,4618.1,3173.211,4616.53Zm-22.5,20.113c-.224-.154-.672.086-.675-.4a4.756,4.756,0,0,1,.06-.885c.018-.1.177-.2.293-.246a1.527,1.527,0,0,1,.426-.034c-.718-.253-.718-.253-.831-.781l-2.269-.627-.064.164c.445.176.886.362,1.335.524.254.091.535.113.777.224a.458.458,0,0,1,.187.374.388.388,0,0,1-.282.247,3.256,3.256,0,0,1-.855-.045c-.375-.075-.74-.2-1.109-.308l-.047.172c.539.155,1.082.3,1.616.469.2.064.483.163.525.307s-.153.373-.247.567c.011.133.08.426.03.447a9.629,9.629,0,0,1-1.052.344l-.028.073,1.534.222C3149.882,4636.7,3149.963,4636.617,3150.706,4636.643Zm30.7-53.773.052-.023c-.109-.275-.224-.547-.326-.825a19.719,19.719,0,0,0-.712-1.941c-.314-.643-.688-.716-1.447-.393Zm-30.31,44.733-1.1.169v1.139c.064-.06.1-.093.131-.121.172-.138.344-.274.516-.41a2.414,2.414,0,0,1,.247.6c.1.921.177,1.846.264,2.769.022.236.032.5.415.446-.095-.768-.2-1.524-.279-2.283S3151.161,4628.4,3151.093,4627.6Zm49.577-39.84-.147-.094a9.826,9.826,0,0,0-.68,1.171c-.469,1.13-.9,2.279-1.329,3.4h.593C3199.639,4590.714,3200.155,4589.239,3200.67,4587.763Zm-15.382,47.57-.016-.138c-.349.03-.7.036-1.045.1-.4.073-.778.226-1.175.293-.574.1-1.155.147-1.687.212l.355.669A10.006,10.006,0,0,0,3185.288,4635.333Zm9.365-47.214a2.285,2.285,0,0,0-.209.261c-.479.923-.975,1.839-1.415,2.781a.734.734,0,0,0,.106.684,1.453,1.453,0,0,0,.788.206c.085.008.186-.174.28-.269l-.06-.061-.455.161C3193.558,4590.511,3194.455,4589.461,3194.653,4588.119Zm-42.855,45.25c-1.139.006-2.162-.565-3.29-.366a6.157,6.157,0,0,0,1.185.469c.361.1.638.225.524.663l.722.034-.06-.085Zm8.885,6.689v1.025h1.8c-.127-.287.25-.724-.308-.823C3161.691,4640.173,3161.2,4640.126,3160.683,4640.058Zm14.583-18.773.2-.005q-.3-2.727-.592-5.452l-.165-.039a1.045,1.045,0,0,0-.13.375c.029.4.092.795.146,1.191Q3175,4619.32,3175.266,4621.285Zm-3.573.217.148-.012a4.118,4.118,0,0,0,0-.509c-.164-1.353-.328-2.705-.516-4.055-.017-.125-.192-.229-.294-.342l-.073.084Zm27.594-3.07c.5.007.643-.275.735-.656.211-.879-.711-.668-.936-1.121l-.164.078Zm6.349,13.242-.34-2.058-.206,0-.381,2.109Zm-31.684-15.388-.07,0a.323.323,0,0,0-.035.115c.125,1.6.248,3.191.392,4.785.009.1.179.2.274.294l.116-.1Zm14.621-34.026a3.825,3.825,0,0,0,.9-2.066,1.11,1.11,0,0,0-.58.414c-.242.41-.429.852-.636,1.283a.614.614,0,0,0-.023.15Zm.8,1.179c.172-.507.316-.99.5-1.458.15-.382.37-.737.51-1.122.04-.109-.091-.28-.143-.423l-.137.035-.98,2.57Zm-20.438,35.423.2-.061c-.138-.93-.265-1.863-.425-2.79-.022-.126-.207-.224-.355-.373.1.875.173,1.635.289,2.389A4.587,4.587,0,0,0,3168.936,4618.862Zm35.8,14.607v2.014a3.608,3.608,0,0,0,.392-.935c.093-.331.161-.669.247-1.029Zm-11.035-45.753-.374-.148a5.63,5.63,0,0,0-.838,2.518Zm-27.116-11.233c.307.733,1,.358,1.5.717l-.664-1.385C3167.283,4576.433,3167.283,4576.433,3166.585,4576.483Zm-37.948,18.567-.086.032q.118.795.236,1.589a1.724,1.724,0,0,0,.5-.092c.091-.047.2-.263.166-.32C3129.2,4595.844,3128.914,4595.45,3128.637,4595.05Zm66.744-8.213.8-2.368c-.511.663-.637,1.56-1.405,2.081Zm-40.243,30.532c.341-.2.607-2.467.382-3.471Zm33.079-36.718c-.689.014-.842.2-1.01,1.176l.428.1Zm-31.646,33.552a1.682,1.682,0,0,0-.271.021c-.071.8-.132,1.606-.2,2.528.173-.143.278-.187.283-.24C3156.451,4615.767,3156.507,4615.021,3156.571,4614.2Zm40.8-21.955c.282.091.409.074.436-.247a4.759,4.759,0,0,1,.251-1.066c.171-.522.376-1.034.566-1.549l-.166-.062Zm-4.365,36.794-.247.025c.083,1.082.349,2.147.4,3.233l.122-.013Zm-1.807-41.834.732,1.645.244-.716c-.713-.037-.351-.58-.473-.929Zm-21.388,46.092c-.615.351-.37.844-.346,1.32h.466Zm-27.773-41.317.173.044c.621-.864.645-.955.272-1.519Zm15.042,24,.166.063c.079-.157.232-.321.221-.472-.03-.384.18-.837-.3-1.257Zm44.039,2.35a1.529,1.529,0,0,0,.182-1.531c-.042-.116-.192-.193-.288-.283Zm-30.531.106-.138.018.332,2.7.185-.025Zm-9.528-3.338c.059-.8-.023-.992-.408-.931C3160.679,4614.958,3160.73,4615.074,3161.065,4615.1Zm2.639,26.093v-.768l-.427-.036v.8Zm31.324-49,.159.091a5.217,5.217,0,0,0,.65-1.8Zm-28,23-.146.02.268,1.942.142-.022Zm-7.074-.965-.2-.018c0,.292-.013.585.015.875,0,.04.207.062.379.109Zm-9.694,17.5.1-.005-.162-2.056-.154.015Zm8.786-17.316-.221.019.04.856.226-.009Zm33.027,16.383v-1.6l-.12.007Z" fill="#2b4937"/>
      <path id="Caminho_2512" data-name="Caminho 2512" d="M3231.449,4599.044a2.268,2.268,0,0,1,.251-2.515,2.546,2.546,0,0,1,1.428-3.452,1.33,1.33,0,0,0,.6-1.488,10.162,10.162,0,0,1-.369-1.783,2.579,2.579,0,0,1,.782-2.053.563.563,0,0,0,.144-.437,3.833,3.833,0,0,1,.888-3.541,2.984,2.984,0,0,1,.4-.412,1.9,1.9,0,0,0,.722-1.482,2.673,2.673,0,0,1,2.686-2.4,1.382,1.382,0,0,1,1.262.744,1.965,1.965,0,0,0,.823.737,4.4,4.4,0,0,1,2.66,4.692.627.627,0,0,0,.315.749,8.752,8.752,0,0,1,.857.748l.409-.939a3.079,3.079,0,0,1,.712-4.285,1.674,1.674,0,0,0,.787-1.928,3.127,3.127,0,0,1,1.263-3.4.494.494,0,0,0,.143-.186,2.042,2.042,0,0,1,1.6-1.1.679.679,0,0,0,.574-.46,3.042,3.042,0,0,1,4.749-1.121,2.768,2.768,0,0,1,.891,1.559,7.176,7.176,0,0,1,.154.8,3.7,3.7,0,0,0,.991,2.135,3.234,3.234,0,0,1,.539,3.471.917.917,0,0,0-.038.447c.056.314.149.62.234.954a.707.707,0,0,0,.634-.777,1.976,1.976,0,0,1,2.091-2.137,1.837,1.837,0,0,0,.421-.092,2.118,2.118,0,0,1,1.843.289,3.231,3.231,0,0,1,1.587,2.852,1.031,1.031,0,0,0,.228.487c.169.268.49.513.512.787a2.6,2.6,0,0,0,.838,1.525,4.583,4.583,0,0,1,.239,5.569l-.137.192c.727.772.782,1.612.193,3.038a2.244,2.244,0,0,1,.546,2.419.667.667,0,0,0,.069.471,3.2,3.2,0,0,1,.315,3.125,2.882,2.882,0,0,0,.036,2.355,3.954,3.954,0,0,1-.46,4.226.467.467,0,0,0-.017.412,5.407,5.407,0,0,1,.108,4.741.861.861,0,0,0,.026.565,5.042,5.042,0,0,1,.549,2.266,3.816,3.816,0,0,1-1.242,2.482,1.751,1.751,0,0,0-.561,1.074,2.7,2.7,0,0,1-2.18,2.459c0,.925-.012,1.819.011,2.711,0,.148.182.283.234.438.077.229.215.513.14.7a.727.727,0,0,1-.583.375,5.063,5.063,0,0,1-1.435-.448c-.165-.08-.27-.429-.277-.659-.03-.914-.006-1.829-.014-2.744a1.808,1.808,0,0,0-.109-.421l-.137.02a2.354,2.354,0,0,0-.046.3c-.039,1.106-.073,2.212-.11,3.317-.008.25-.019.5-.367.5-.377,0-.329-.277-.334-.511a5.139,5.139,0,0,0-.1-1.158c-.01.09-.058.2-.026.268.2.443.1.684-.347.821a1.664,1.664,0,0,1-.414.123,3.724,3.724,0,0,1-.582-.073c.035-.226,0-.5.121-.665a2.587,2.587,0,0,1,.686-.456v-3.175l-1.08-.344a1.468,1.468,0,0,0-.468,1.244,3.971,3.971,0,0,1-2.378,4.226,9.432,9.432,0,0,1-1.351.423v.528q0,2.337.005,4.672a.929.929,0,0,0,1.064.875,3.059,3.059,0,0,1,2.112.161c.161.091.417,0,.614.049.237.062.553.129.662.3a.987.987,0,0,1,.057.78c-.039.1-.507.171-.67.073a1.257,1.257,0,0,0-1.039-.057,7.741,7.741,0,0,1-2.272.236,8.805,8.805,0,0,0-1.708-.241c-.13.012-.42-.372-.426-.58-.046-1.678-.042-3.357-.053-5.036,0-.3,0-.607,0-.908-.759.207-.794.247-.807,1.013-.028,1.637-.045,3.274-.086,4.911a2.575,2.575,0,0,1-.192.652c-.2-.077-.4-.159-.6-.23-.088-.031-.192-.022-.275-.061-.173-.084-.337-.187-.5-.282a4.582,4.582,0,0,1,.391-.606c.07-.08.237-.075.346-.1v-4.652a22.7,22.7,0,0,1-2.218-.569,3.78,3.78,0,0,1-2.665-3.435c-.031-.346-.122-.484-.523-.317a1.839,1.839,0,0,0-.8.8,4.565,4.565,0,0,1-3.483,2.278c-.01.142-.029.281-.029.42q0,2.023,0,4.046a.853.853,0,0,0,.782.812c.351.007.5.161.469.506a.37.37,0,0,1-.563.321,1.533,1.533,0,0,0-1.017,0,1.054,1.054,0,0,1-1.325-1.1c-.05-1.711-.118-3.421-.14-5.132-.007-.483-.349-.538-.755-.8,0,1.049.018,1.988,0,2.927-.026,1.119-.084,2.238-.133,3.357-.019.438-.228.554-.675.5a5.428,5.428,0,0,0-.907.07,3.208,3.208,0,0,1-1.054.017,1.935,1.935,0,0,0-1.615.119,1.514,1.514,0,0,1-.5.14c-.549.091-1.1.171-1.65.254-.291.043-.618.106-.713-.276s.169-.551.493-.641a4.243,4.243,0,0,1,.651-.161,3,3,0,0,0,1.882-.767,1.668,1.668,0,0,1,1.995-.025,1.329,1.329,0,0,0,1.222.067c0-.308,0-.628,0-.947-.011-.49-.161-.59-.637-.411a3.794,3.794,0,0,1-.837.347,19.964,19.964,0,0,1-2.052.081c-.1,0-.295-.16-.29-.235.013-.173.077-.431.2-.491.368-.182.778-.274,1.164-.422.3-.116.588-.268.885-.4.43-.184.864-.36,1.309-.546v-2.23c-.278-.061-.513-.1-.74-.166a3.6,3.6,0,0,1-2.694-2.905c-.073-.367-.213-.5-.611-.561a2.41,2.41,0,0,1-1.182-.564,3.948,3.948,0,0,1-.917-4.348.581.581,0,0,0-.2-.8,3.123,3.123,0,0,1-1.157-3.085.4.4,0,0,0-.115-.316,2.221,2.221,0,0,1-.736-1.67,3.357,3.357,0,0,1,1.4-3.1c.293-.206.336-.385.11-.658a2.153,2.153,0,0,1-.588-2.21.274.274,0,0,0-.053-.21,2.365,2.365,0,0,1-.159-2.3.643.643,0,0,0,.039-.354,3.068,3.068,0,0,1,1.175-3.44C3231.295,4599.163,3231.357,4599.114,3231.449,4599.044Zm13.48,13.988a1.845,1.845,0,0,0,.1-.312.481.481,0,0,1,.6-.464c.352.03.4.273.378.552-.031.432-.074.863-.109,1.295-.028.344-.269.432-.5.28-.447-.295-.591-.023-.736.31a2.127,2.127,0,0,0,.394,2.328,2.344,2.344,0,0,1,.728,2.145.7.7,0,0,0,.261.623,6.8,6.8,0,0,0,1.219.306,5.174,5.174,0,0,1,1.664.436c.922.617,1.706.405,1.95-.679.039-.172.074-.346.128-.513a1.828,1.828,0,0,1,1.615-1.036c-.072.293-.051.674-.228.832-.464.412-.422.922-.467,1.466a2.256,2.256,0,0,0,1.6-1.413c.293-.649.623-1.281.962-1.907a.43.43,0,0,1,.356-.14c.076.008.2.171.2.264a2,2,0,0,1-.1.9,5.371,5.371,0,0,0-.471,1.7,4.056,4.056,0,0,1-.621,1.121,1.6,1.6,0,0,0,1.625-1.98,1.67,1.67,0,0,1,.658-2.241,1.546,1.546,0,0,0,.243-2.4c-.452.221-.858.448-1.288.613-.142.055-.346-.05-.522-.082a1.668,1.668,0,0,1,.179-.572,1.834,1.834,0,0,0,.575-1.742,8.614,8.614,0,0,1-.26-1,2.356,2.356,0,0,1,.007-.8,5.678,5.678,0,0,1,.3-.961c.067-.175.209-.477.28-.466.217.032.521.138.6.306a3.161,3.161,0,0,1,.192,1,1.869,1.869,0,0,1-.1.486c.644-.829.7-1.309.314-1.962-.213-.358-.406-.727-.608-1.093-.241.389-.493.837-1.078.754a.613.613,0,0,1-.427-.3.575.575,0,0,1,.106-.518,1.505,1.505,0,0,0,.389-1.9.817.817,0,0,1,.077-.677,1.409,1.409,0,0,0,.026-1.851.587.587,0,0,1,.013-.832.809.809,0,0,1,1.021.236,3.484,3.484,0,0,1,.742,2.179c-.045.467-.035.9-.649.828l.078,1.222a5.256,5.256,0,0,0,.866-1.257,2.4,2.4,0,0,0-.1-2.828.981.981,0,0,1,.141-1.524,1.445,1.445,0,0,0,.495-1.248,1.843,1.843,0,0,0-.248-.67c-.237-.415-.034-.766.1-1.142a3.07,3.07,0,0,0-.437-3.457c-.181-.19-.348-.394-.537-.61-.08.144-.125.333-.243.409a2.826,2.826,0,0,1-.625.234c-.063-.194-.211-.407-.174-.579a10.781,10.781,0,0,1,.436-1.367c.039-.106.156-.257.237-.257a.632.632,0,0,1,.343.195,1.455,1.455,0,0,1,.2.329,6.212,6.212,0,0,0,.422-3.365,1.57,1.57,0,0,1,.094-.938,2.97,2.97,0,0,0-.687-3.38,2.7,2.7,0,0,1-.085,2.16c-.126.3-.349.535-.653.352-.125-.075-.175-.488-.089-.664a1.629,1.629,0,0,0-.481-2.141.954.954,0,0,1-.3-.749,5.071,5.071,0,0,0-.035-2.234.776.776,0,0,1,.152-.507,1.1,1.1,0,0,1,.682.208,1.442,1.442,0,0,1,.3.789c.047.491.009.989.016,1.484,0,.166.034.332.052.5a1.542,1.542,0,0,0,.216-.508,3.516,3.516,0,0,0-.386-3.218,10.331,10.331,0,0,1-.479-.941,1.531,1.531,0,0,1-.049-.45,1.654,1.654,0,0,1,.49.031,6.406,6.406,0,0,1,.7.359,2.4,2.4,0,0,0-.528-1.136,4.749,4.749,0,0,1-1.355-2.906,4.493,4.493,0,0,0-.19-.843,1.557,1.557,0,0,0-2.889-.094,1.414,1.414,0,0,1-1.445,1.043,1.061,1.061,0,0,0-.414.111,2.9,2.9,0,0,0-1.789,3.211,2.835,2.835,0,0,1-1.155,3.264,1.779,1.779,0,0,0-.615,1.965.519.519,0,0,0,.587.417c.476-.018.687.252.563.712a1.143,1.143,0,0,1-.392.511,1.476,1.476,0,0,0-.579,2.022,2.021,2.021,0,0,1-.65,2.636,3.868,3.868,0,0,0-1.044,1.3c-.465,1.042-.771,2.138.09,3.171a.522.522,0,0,1,.07.225,7.407,7.407,0,0,1,.235,1.244,4.721,4.721,0,0,1-.154,1.443,4.209,4.209,0,0,1-.606,1.033,2.617,2.617,0,0,0,.25,3.335,1.155,1.155,0,0,1,.155,1.561.95.95,0,0,0,0,1q.153.272.29.555a1.2,1.2,0,0,1-.027,1.316,1.231,1.231,0,0,0-.3.642c.027.7.137,1.392.2,2.088a3.614,3.614,0,0,1-.042.576c-.21-.035-.468-.008-.618-.122a1.994,1.994,0,0,1-.42-.612,2.354,2.354,0,0,1-.129-.418C3243.281,4611.608,3243.575,4612.424,3244.929,4613.032Zm-9.345-26.708c.369.063.8.019.906.185a.987.987,0,0,1-.038.87,3.534,3.534,0,0,1-.885.929,1.7,1.7,0,0,0-.636,2.12c.061.164.084.343.144.509a.559.559,0,0,0,.169.255c.35.255.362.455,0,.71a1.9,1.9,0,0,0-.715,1.1,2.577,2.577,0,0,1-.546.858,6.888,6.888,0,0,1-.6.478,1.491,1.491,0,0,0-.592,1.322c.323.091.692.085.8.25.207.316-.009.639-.277.879-.119.107-.25.2-.374.3a.906.906,0,0,0-.332,1.3c.43,1.041.367,1.321-.49,2.031a1.651,1.651,0,0,0-.695,1.538c.2.135.458.286.468.452.012.206-.175.429-.3.633a5.08,5.08,0,0,0-.492.794c-.114.319-.059.606.426.555.158-.017.442.085.475.192a1.445,1.445,0,0,1-.073.626c-.008.04-.064.069-.094.106-.448.557-.442.774-.032,1.346a4.059,4.059,0,0,1,.529.908,1.748,1.748,0,0,1-.46,1.893c-.867.97-.926,1.469-.157,2.33a2.687,2.687,0,0,1,.721,2.106c-.014.226.181.466.28.7.089-.609.052-1.163.11-1.706.019-.182.283-.337.435-.505a2.469,2.469,0,0,1,.324.486,3.794,3.794,0,0,0,1.051,1.749,1.1,1.1,0,0,1,.238.685c.07.683.08,1.372.155,2.055a.764.764,0,0,0,.731.69.93.93,0,0,1-.11-.252c-.009-.265-.11-.633.023-.773.244-.257.521-.055.782.165a2.842,2.842,0,0,0,.847.4c.308.115.643.165.943.3.387.169.8.144.926-.165a.777.777,0,0,1,.91-.521c.441.044.669-.255.824-.606.141-.319.4-.649.051-1.011-.075.06-.131.139-.2.152-.327.06-.657.1-.985.149a2.966,2.966,0,0,1,.18-.837,1.763,1.763,0,0,0,.276-1.317,1.4,1.4,0,0,1,.423-1.4,1.5,1.5,0,0,0,.141-2.162c-.164.194-.322.365-.463.549a2.05,2.05,0,0,1-1.612,1.07.473.473,0,0,1-.374-.212c-.05-.139-.026-.417.067-.478.833-.536.948-1.675,1.839-2.162.11-.06.141-.273.2-.42.08-.209.137-.427.226-.631.154-.356.405-.3.653-.114a2.716,2.716,0,0,1,.327.38c.338-.46.682-.863.952-1.312a1.07,1.07,0,0,0,.007-1.308,1.691,1.691,0,0,1-.2-1.667,2.962,2.962,0,0,0-.5-2.94,1.017,1.017,0,0,1-.136-1.255,2.2,2.2,0,0,0,.29-1.335c-.024-.285.03-.575.032-.863,0-.376.117-.649.6-.635l-.382-1.116a2.928,2.928,0,0,1-.766.153c-.068,0-.2-.367-.157-.519a2.509,2.509,0,0,0-.267-1.9,1.633,1.633,0,0,1-.034-.585c.21.022.472-.024.619.084a2.177,2.177,0,0,1,.524.661,3.631,3.631,0,0,1,.232.651,1.621,1.621,0,0,0-.514-2.2.881.881,0,0,1-.312-1.032,1.437,1.437,0,0,0-.1-1.112,4.148,4.148,0,0,1-.341-.945c-.092-.513.2-.717.682-.507a.761.761,0,0,1,.307.224,3.024,3.024,0,0,1,.794,2.2,1.347,1.347,0,0,0,.145.492l.23-.029a4.234,4.234,0,0,0,.044-1.09c-.165-.748-.485-1.465-.615-2.216a1.68,1.68,0,0,0-1.063-1.307.86.86,0,0,1-.473-1.156,2.06,2.06,0,0,1,.234-.474,2.336,2.336,0,0,0-.986-3.036,2.544,2.544,0,0,1-1.194-1.143c-.274-.441-.462-.471-.9-.176a1.887,1.887,0,0,0-.876,1.767,1.956,1.956,0,0,1-.661,1.63c-.211.2-.413.406-.607.62A2.621,2.621,0,0,0,3235.584,4586.324Zm26.649,24.2c-.342.267-.7.483-1.009.128-.27-.313-.04-.629.153-.951a3.645,3.645,0,0,0,.254-.967,5.389,5.389,0,0,1,.215-.759c.1-.233.288-.429.381-.663.162-.412.38-.709.88-.618a2.03,2.03,0,0,1,.126-.434,2.946,2.946,0,0,1,.317-.4c.117.136.31.259.338.411.075.419.081.85.112,1.241a1.972,1.972,0,0,0,.13-2.631c-.33.049-.731.263-.861-.263a1.41,1.41,0,0,1,1.236-1.421,12.468,12.468,0,0,0-.163-1.938,3.133,3.133,0,0,1,.323-2.356,2.987,2.987,0,0,0-.023-2.862,1.433,1.433,0,0,1-.147-.956,9.71,9.71,0,0,0,.309-3.189,1.088,1.088,0,0,1,.174-.616,3.242,3.242,0,0,0-.894-4.886c-.418.264-.65.223-.83-.107-.2-.374-.447-.725-.654-1.1a.533.533,0,0,1-.072-.4c.04-.093.217-.157.343-.177.611-.1.988.217,1.211.878a.632.632,0,0,0-.262-.914,2.152,2.152,0,0,1-.745-1.336,4.79,4.79,0,0,0-.8-1.436.769.769,0,0,0-.988-.244,1.649,1.649,0,0,1-.755.093c-.475-.05-.632.193-.671.6-.015.16-.057.318-.06.477a1.584,1.584,0,0,1-.956,1.437,9.36,9.36,0,0,0-1.162.909l.906.435a2.874,2.874,0,0,0,.066.9,4.162,4.162,0,0,1,.028,2.964.59.59,0,0,0,.138.629,2.385,2.385,0,0,1,.533,1.04,6.367,6.367,0,0,1-.287,2.993.831.831,0,0,0,.115.88,4.511,4.511,0,0,1,.3,4.87.6.6,0,0,0,.032.689,2.573,2.573,0,0,1,.2,2.653.624.624,0,0,0-.057.4,5.754,5.754,0,0,1-.124,3.64,2.361,2.361,0,0,0,.233,2.028c.468.82.965,1.624,1.463,2.458l1.068-.423Zm-25.655,8.088a1.456,1.456,0,0,0,1.181,1.2c.3.048.658-.234,1.027-.381Zm25.252-5.793c1-.01,1.349-.245,1.323-.838-.022-.492-.116-.614-.5-.6A1.075,1.075,0,0,1,3261.83,4612.823Zm-.748,2.022-.056.176.849.273.075-.246Z" fill="#2b4937"/>
      <path id="Caminho_2513" data-name="Caminho 2513" d="M3231.5,4579.7a18.482,18.482,0,0,0-1.718,2.357c-1.187,2.291-2.283,4.631-3.374,6.971a2.337,2.337,0,0,1-1.137,1.243,3.9,3.9,0,0,0-1.638,1.511c-.842,1.288-1.7,2.565-2.537,3.857-.2.316-.487.527-.773.3-.142-.11-.147-.591-.03-.8.385-.7.867-1.346,1.288-2.027.438-.708.864-1.424,1.266-2.152a3.723,3.723,0,0,1,1.443-1.574,2.331,2.331,0,0,0,1.118-1.372c.246-.692.6-1.348.9-2.019.077-.169.157-.337.248-.531a1.107,1.107,0,0,0-1.154.732,22.685,22.685,0,0,1-1.129,2.118,1.481,1.481,0,0,1-.625.568,5.166,5.166,0,0,0-2.21,1.946c-1.059,1.607-2.094,3.23-3.141,4.845-.069.107-.134.256-.235.3a.868.868,0,0,1-.536.051c-.09-.029-.158-.261-.157-.4a.989.989,0,0,1,.144-.5c1.241-1.945,2.474-3.9,3.758-5.812a2.9,2.9,0,0,1,1.143-1,3.974,3.974,0,0,0,1.834-2.224,2.814,2.814,0,0,0-1.841.974c-.586.762-1.135,1.554-1.682,2.346-.529.765-1.014,1.563-1.557,2.318a2.9,2.9,0,0,1-2.285,1.55,17.83,17.83,0,0,0-2.176.384c-.258.042-.584.1-.68-.269a.538.538,0,0,1,.45-.684,15.335,15.335,0,0,1,1.643-.353,1.182,1.182,0,0,0,.892-.556c1-1.55,2.058-3.066,3.034-4.632a6.158,6.158,0,0,1,4.138-2.958,17.715,17.715,0,0,0,2.223-.621,1.57,1.57,0,0,0,.768-.571c.589-.916,1.087-1.891,1.679-2.805a9.8,9.8,0,0,1,3.835-3.43,7.692,7.692,0,0,1,3.727-.768.63.63,0,0,0,.41-.278,2.01,2.01,0,0,1,1.648-1.015c.291,0,.51.084.544.411a.465.465,0,0,1-.368.58,1.619,1.619,0,0,0-1.075.957,1.158,1.158,0,0,1-.928.791c-.256.038-.516.5-.65.819-.358.858-.635,1.749-.969,2.617-.535,1.392-1.024,2.806-1.656,4.153a31.074,31.074,0,0,1-1.852,3.18.818.818,0,0,1-.61.23c-.073,0-.216-.319-.217-.492a3.91,3.91,0,0,1,.863-2.1,10.68,10.68,0,0,0,1.114-1.829c.824-2.135,1.565-4.3,2.362-6.524a1.89,1.89,0,0,0-1.381.99c-.69,1.571-1.407,3.13-2.113,4.693a7.885,7.885,0,0,1-.464,1,27.074,27.074,0,0,0-2.3,4.866,17.3,17.3,0,0,1-.868,1.714.719.719,0,0,1-.211.259,5.409,5.409,0,0,0-1.766,2.468c-.25.565-.453.733-.89.729a.9.9,0,0,1-.036-.271,4.978,4.978,0,0,1,1.068-2.733,8.272,8.272,0,0,0,1.716-2.971,32.65,32.65,0,0,1,2.028-4.408c.709-1.285,1.228-2.676,1.83-4.02Z" fill="#2b4937"/>
      <path id="Caminho_2514" data-name="Caminho 2514" d="M3138.595,4543.645c0-.738.6-1.093,1.143-.813.528.271,1.023.6,1.548.879,1.82.947,3.633,1.909,5.475,2.81,1.453.711,2.963,1.305,4.417,2.015s2.868,1.5,4.3,2.251c1.478.771,2.972,1.509,4.437,2.3,2,1.085,3.989,2.2,5.97,3.321,1.66.94,3.325,1.874,4.949,2.874,1.486.915,2.886,1.973,4.387,2.862,2.549,1.509,5.149,2.933,7.726,4.4a10.232,10.232,0,0,1,1.261.789.734.734,0,0,1,.258.622c-.128.3-.439.169-.666.045-1.591-.865-3.181-1.73-4.762-2.612-.742-.413-1.456-.876-2.193-1.3-2.366-1.35-4.719-2.721-7.109-4.026-3.435-1.874-6.9-3.7-10.349-5.541-1.995-1.062-3.992-2.12-6-3.155-1.182-.608-2.385-1.175-3.585-1.748-1.983-.945-3.988-1.843-5.95-2.829-1.632-.819-3.221-1.725-4.813-2.621C3138.82,4544.047,3138.689,4543.761,3138.595,4543.645Z" fill="#2b4937"/>
      <path id="Caminho_2515" data-name="Caminho 2515" d="M3186.633,4579.037a2.9,2.9,0,0,1-.255-.818,29.151,29.151,0,0,1,.231-3.925,22.531,22.531,0,0,1,1.9-6.086,14.956,14.956,0,0,1,7-7.324,26.162,26.162,0,0,1,6.1-2.17,21.981,21.981,0,0,1,4.017-.3,17.7,17.7,0,0,1,4.178.53,26.922,26.922,0,0,1,6.332,2.588,13.413,13.413,0,0,1,4.563,4.123c.346.47.378,1,.094,1.224-.308.25-.787.06-1.19-.4a29.222,29.222,0,0,0-2.172-2.368,15.381,15.381,0,0,0-4.882-2.827,15.789,15.789,0,0,0-1.99-.818,22.4,22.4,0,0,0-3.912-.712,19.455,19.455,0,0,0-4.552.183,23.149,23.149,0,0,0-6.747,2.481,13.44,13.44,0,0,0-4.177,3.707,19.73,19.73,0,0,0-4.073,11.6A1.479,1.479,0,0,1,3186.633,4579.037Z" fill="#2b4937"/>
      <path id="Caminho_2516" data-name="Caminho 2516" d="M3204.621,4516.909c-.045,2.885-.1,5.771-.128,8.656-.011,1.042.077,2.087.039,3.127-.074,1.985-.252,3.966-.295,5.951-.025,1.148.178,2.3.189,3.45.013,1.36-.071,2.72-.109,4.08-.017.591-.027,1.182-.038,1.774-.025,1.378-.063,2.756-.07,4.134-.01,1.86.008,3.72.008,5.58a15.165,15.165,0,0,1-.048,1.538,1.953,1.953,0,0,1-.288.6,2.013,2.013,0,0,1-.389-.592,5.617,5.617,0,0,1-.1-1.2c-.006-1.6.056-3.206-.006-4.806a17.571,17.571,0,0,1,.082-4.021,11.373,11.373,0,0,0-.048-2.686c-.044-.766-.15-1.529-.207-2.295-.073-.973-.159-1.948-.177-2.923-.036-2-.028-4.008-.042-6.012-.009-1.3-.024-2.6-.036-3.9-.005-.5-.022-1-.008-1.492.052-1.891.149-3.781.163-5.672.013-1.764-.06-3.529-.095-5.293,0-.112-.017-.225-.01-.337a.752.752,0,0,1,.73-.746.73.73,0,0,1,.752.719c.05.784.073,1.569.107,2.354Z" fill="#2b4937"/>
      <path id="Caminho_2517" data-name="Caminho 2517" d="M3172,4525.468a.774.774,0,0,1,.6-.808.733.733,0,0,1,.866.446c.873,1.7,1.735,3.4,2.623,5.087.4.752.825,1.488,1.271,2.211,2.045,3.315,4.13,6.607,6.141,9.943.917,1.52,1.685,3.13,2.545,4.686.3.544.712,1.028,1.008,1.574,1.245,2.294,2.469,4.6,3.692,6.907.548,1.034,1.077,2.078,1.614,3.118a.556.556,0,0,1,.085.171c.024.2.033.409.048.613-.2-.1-.479-.144-.577-.3-.452-.736-.865-1.5-1.27-2.262-.758-1.43-1.441-2.9-2.265-4.293-.88-1.485-1.915-2.879-2.832-4.343-.96-1.533-1.846-3.111-2.792-4.652-.67-1.092-1.39-2.154-2.081-3.234-1.833-2.862-3.721-5.692-5.473-8.6-1.114-1.851-2.027-3.824-3.023-5.746A3.427,3.427,0,0,1,3172,4525.468Z" fill="#2b4937"/>
      <path id="Caminho_2518" data-name="Caminho 2518" d="M3245.683,4568.243a5.031,5.031,0,0,0-.424.595c-.426.826-.816,1.671-1.257,2.489-.162.3-.325.7-.876.565-.056-.978.506-1.792.651-2.752-.288.315-.59.618-.859.948-.194.239-.419.508-.7.294a.876.876,0,0,1-.261-.728,2.994,2.994,0,0,1,.465-.929,4.194,4.194,0,0,1,3.38-2.092c.24-.021.477-.081.716-.088a.955.955,0,0,0,.8-.5,6.705,6.705,0,0,1,6.569-3.168,1.378,1.378,0,0,1,.559.116c.181.115.411.319.418.493s-.228.367-.36.548a.124.124,0,0,1-.087.038c-.914.025-1.109.7-1.307,1.4a3.024,3.024,0,0,1-.446,1c-.133.174-.454.2-.691.3-.063-.2-.209-.412-.172-.588.116-.542.3-1.069.482-1.671a1.774,1.774,0,0,0-1.119,1.066c-.747,1.527-1.517,3.043-2.249,4.577a7.482,7.482,0,0,1-2.44,3.093,4.291,4.291,0,0,0-1.227,1.977c-.147.321-.272.652-.425.969-.143.3-.425.473-.7.314a.713.713,0,0,1-.176-.648c.477-1.506,1-2.992,2.438-3.909a3.154,3.154,0,0,0,1.107-1.418c.589-1.264,1.23-2.5,1.849-3.754a.965.965,0,0,0,.131-.533,9.748,9.748,0,0,0-.766.981,1.687,1.687,0,0,1-1.2.865.985.985,0,0,0-.624.437c-.358.7-.644,1.427-.96,2.143-.138.312-.223.811-.67.642-.424-.16-.184-.607-.088-.922.21-.686.449-1.362.676-2.043Z" fill="#2b4937"/>
      <path id="Caminho_2519" data-name="Caminho 2519" d="M3151.663,4528.227a3.488,3.488,0,0,1,.579-.694.673.673,0,0,1,.877.147c1.309,1.254,2.637,2.488,3.913,3.775,1.512,1.525,2.96,3.113,4.469,4.641.935.946,1.9,1.865,2.909,2.731a29.938,29.938,0,0,1,3.243,3.208c1.46,1.7,3,3.336,4.5,5a2.039,2.039,0,0,1,.4.472c.07.161.1.445.007.541a.573.573,0,0,1-.541.043,3.107,3.107,0,0,1-.654-.558c-2.341-2.3-4.568-4.74-7.05-6.881s-4.715-4.479-6.99-6.806c-1.568-1.6-3.246-3.1-4.864-4.659A11.508,11.508,0,0,1,3151.663,4528.227Z" fill="#2b4937"/>
      <path id="Caminho_2520" data-name="Caminho 2520" d="M3243.557,4541.941a5.654,5.654,0,0,1-.645.815c-1.947,1.672-3.927,3.3-5.855,5-.9.791-1.7,1.7-2.563,2.537a60.585,60.585,0,0,1-5.513,4.861,30.322,30.322,0,0,0-2.766,2.725c-1.143,1.123-2.3,2.233-3.448,3.349a13.108,13.108,0,0,1-1.079,1.023c-.178.137-.583.245-.7.147-.293-.253-.026-.525.175-.724,1.185-1.174,2.4-2.313,3.56-3.513.774-.8,1.452-1.7,2.194-2.537.413-.465.86-.9,1.31-1.332,1.007-.965,2.032-1.911,3.037-2.878,1.721-1.655,3.4-3.358,5.158-4.973,1.852-1.7,3.781-3.319,5.669-4.982a.785.785,0,0,1,.962-.188C3243.256,4541.385,3243.359,4541.662,3243.557,4541.941Z" fill="#2b4937"/>
      <path id="Caminho_2521" data-name="Caminho 2521" d="M3213.35,4544.75c.078-.334.117-.539.173-.739.407-1.465.842-2.922,1.221-4.394.979-3.8,1.917-7.615,2.907-11.413.6-2.294,1.265-4.57,1.9-6.855.072-.262.1-.536.165-.8a.789.789,0,0,1,.922-.7.771.771,0,0,1,.567,1.043c-.472,1.746-.965,3.487-1.445,5.232-.246.9-.463,1.8-.726,2.693-.645,2.183-1.323,4.356-1.961,6.542-.463,1.584-.874,3.184-1.326,4.772-.294,1.032-.627,2.053-.93,3.083-.1.352-.166.716-.254,1.073a1.329,1.329,0,0,1-.172.544c-.162.185-.413.419-.611.4C3213.608,4545.22,3213.462,4544.888,3213.35,4544.75Z" fill="#2b4937"/>
      <path id="Caminho_2522" data-name="Caminho 2522" d="M3232.533,4644.1c.78,0,1.561-.035,2.339.01a2.227,2.227,0,0,1,1.594.988,1.927,1.927,0,0,0,1.856.833,2.907,2.907,0,0,1,1.86.542c.43.277.9.485,1.358.722.438.229.608.571.461.927a.694.694,0,0,1-.967.256,9.051,9.051,0,0,1-1.413-.717,2.784,2.784,0,0,0-1.863-.509,2.1,2.1,0,0,1-1.971-.866c-.141-.174-.3-.333-.46-.493a1.114,1.114,0,0,0-1.629-.2c-.593.366-.736.339-1.167-.194a.334.334,0,0,0-.236-.109,3.55,3.55,0,0,0-2.084.455c-.918.642-1.844,1.275-2.734,1.954a2.464,2.464,0,0,1-1.445.568c-.85.033-1.7.109-2.549.119a2.788,2.788,0,0,0-2.353,1.274c-.066.091-.121.225-.21.257a7.991,7.991,0,0,1-.784.2c-.051-.245-.218-.544-.133-.726a3.3,3.3,0,0,1,2.385-2.116,29.5,29.5,0,0,1,3.306-.27,1.7,1.7,0,0,0,1-.384c.934-.7,1.885-1.386,2.863-2.025A4.564,4.564,0,0,1,3232.533,4644.1Z" fill="#2b4937"/>
      <path id="Caminho_2523" data-name="Caminho 2523" d="M3196.231,4548.725c-.094.135-.165.344-.286.379a.491.491,0,0,1-.441-.159,6.864,6.864,0,0,1-.449-1.048c-.231-.644-.447-1.293-.664-1.941-.138-.41-.279-.819-.4-1.234-.451-1.571-.909-3.141-1.334-4.719-.4-1.485-.731-2.989-1.147-4.469-.55-1.96-1.16-3.9-1.729-5.858a11.464,11.464,0,0,1-.338-1.5.666.666,0,0,1,.561-.855.712.712,0,0,1,.8.61c.474,1.631.986,3.253,1.421,4.894.411,1.548.727,3.121,1.113,4.676.409,1.649.857,3.288,1.276,4.935.392,1.538.764,3.081,1.154,4.62C3195.9,4547.6,3196.065,4548.134,3196.231,4548.725Z" fill="#2b4937"/>
      <path id="Caminho_2524" data-name="Caminho 2524" d="M3217.09,4599.961a.879.879,0,0,1-.984.861c-2.017-.084-4.033-.181-6.05-.262-.7-.028-1.411,0-2.115-.049-.245-.015-.637-.108-.689-.259a1.078,1.078,0,0,1,.075-.9,5.278,5.278,0,0,1,2.924-2.2,3.96,3.96,0,0,0,1.289-.584,2.89,2.89,0,0,1,3.107.115,16.909,16.909,0,0,1,1.963,2.019A4.228,4.228,0,0,1,3217.09,4599.961Zm-1.87-.668.081-.17c-.493-.366-.974-.752-1.485-1.09a1.234,1.234,0,0,0-1.479.075,3.576,3.576,0,0,1-.949.419c-.4.12-.83.137-1.216.281a6.513,6.513,0,0,0-.975.562l.071.106Z" fill="#2b4937"/>
      <path id="Caminho_2525" data-name="Caminho 2525" d="M3222.6,4546.9c.146-.3.257-.587.41-.844.525-.881,1.115-1.727,1.585-2.636.573-1.108,1.029-2.275,1.575-3.4.386-.791.836-1.55,1.261-2.321,1.005-1.823,1.989-3.659,3.029-5.462.608-1.054,1.3-2.06,1.972-3.078a.749.749,0,1,1,1.268.8c-.38.632-.823,1.226-1.2,1.859-.591.99-1.125,2.015-1.728,3-.8,1.31-1.689,2.571-2.467,3.9a37.384,37.384,0,0,1-2.834,4.453,4.31,4.31,0,0,0-.558,1.37,6.637,6.637,0,0,1-1.413,2.488.951.951,0,0,1-.588.227C3222.823,4547.253,3222.718,4547.04,3222.6,4546.9Z" fill="#2b4937"/>
      <path id="Caminho_2526" data-name="Caminho 2526" d="M3171.328,4643.944c.686.05,1.376.076,2.057.166a.734.734,0,0,1,.535.366.784.784,0,0,1-.18.677c-1.316,1.121-2.668,2.2-3.995,3.307a21.547,21.547,0,0,0-1.636,1.482.932.932,0,0,1-.934.332c-.313-.065-.63-.115-.942-.185-.59-.132-1.184-.25-1.762-.423-.217-.065-.522-.242-.556-.414a.938.938,0,0,1,.265-.7,8.016,8.016,0,0,1,1.062-.9c1.261-.937,2.534-1.858,3.8-2.8a.737.737,0,0,0,.283-.4.507.507,0,0,1,.562-.469c.481,0,.962,0,1.444,0Zm.854,1.243a2.755,2.755,0,0,0-2.592.477c-1.265,1.03-2.606,1.966-3.918,2.938a.844.844,0,0,1-.217.085,12.841,12.841,0,0,0,1.455.529c.284.1.42-.043.612-.211.635-.559,1.295-1.089,1.951-1.624C3170.373,4646.647,3171.279,4645.918,3172.182,4645.187Z" fill="#2b4937"/>
      <path id="Caminho_2527" data-name="Caminho 2527" d="M3189.192,4522.881c-.176.191-.318.467-.536.554-.363.145-.627-.113-.72-.45-.373-1.355-.789-2.7-1.059-4.081a15.917,15.917,0,0,0-1.317-4.248,5.067,5.067,0,0,1-.338-.9.748.748,0,0,1,.483-1c.429-.123.762.1.964.567a27.429,27.429,0,0,1,1.639,6.4,23.76,23.76,0,0,0,.65,2.357c.064.23.108.466.161.7Z" fill="#2b4937"/>
      <path id="Caminho_2528" data-name="Caminho 2528" d="M3133.349,4556.988c.477.13,1.127.3,1.774.486,1.572.448,3.146.893,4.714,1.357,1.087.321,2.167.67,3.249,1.008a1.248,1.248,0,0,1,.49.18,3,3,0,0,1,.372.6c-.231.084-.486.277-.69.233-2-.431-4-.876-5.99-1.371-1.462-.363-2.905-.8-4.354-1.219a.634.634,0,0,1-.514-.8C3132.486,4557.056,3132.792,4556.95,3133.349,4556.988Z" fill="#2b4937"/>
      <path id="Caminho_2529" data-name="Caminho 2529" d="M3124.583,4634.918c1.079.107,1.943-.043,2.618.617.1.093.3.077.454.11a1.032,1.032,0,0,1,.888.887c.1.6-.107.792-.716.816-.941.036-1.879.14-2.82.181-.67.029-1.343.022-2.012-.007a.839.839,0,0,1-.707-1.348,2.53,2.53,0,0,1,.954-.835A7.508,7.508,0,0,1,3124.583,4634.918Zm1.141,1.361a1.872,1.872,0,0,0-1.835.109Z" fill="#2b4937"/>
      <path id="Caminho_2530" data-name="Caminho 2530" d="M3239.575,4557.7a3.978,3.978,0,0,1,.643-.692c.732-.487,1.522-.89,2.243-1.394,1.415-.989,2.8-2.027,4.2-3.037.52-.375,1.055-.729,1.583-1.092a.982.982,0,0,1,.124-.073.845.845,0,0,1,1.125.182.884.884,0,0,1-.364,1.127c-.3.183-.643.289-.946.465q-2.943,1.716-5.873,3.451c-.409.243-.771.574-1.2.777a11.375,11.375,0,0,1-1.414.471Z" fill="#2b4937"/>
      <path id="Caminho_2531" data-name="Caminho 2531" d="M3222.249,4548.63a3.957,3.957,0,0,1-.85,2.008c-.372.556-.892,1.013-1.262,1.569-.405.607-.707,1.28-1.064,1.918-.2.348-.412.683-.617,1.025q-.936,1.564-1.868,3.129a8.978,8.978,0,0,1-.619,1.025c-.1.131-.366.134-.557.195-.018-.185-.118-.417-.042-.549,1.133-1.969,2.289-3.925,3.441-5.885a.32.32,0,0,1,.084-.115c.882-.547,1.007-1.555,1.458-2.366.4-.724.856-1.418,1.31-2.111.081-.123.276-.173.418-.257Z" fill="#2b4937"/>
      <path id="Caminho_2532" data-name="Caminho 2532" d="M3171.863,4523.079c-.124.144-.249.406-.445.482a.808.808,0,0,1-.643-.127,1.659,1.659,0,0,1-.412-.581c-.626-1.155-1.241-2.316-1.865-3.473-.145-.267-.306-.526-.464-.785a.76.76,0,0,1,1.2-.928,2.69,2.69,0,0,1,.405.594c.693,1.428,1.374,2.862,2.055,4.3A4.6,4.6,0,0,1,3171.863,4523.079Z" fill="#2b4937"/>
      <path id="Caminho_2533" data-name="Caminho 2533" d="M3186.915,4562.349a6.583,6.583,0,0,1-.958-.637c-1.2-1.132-2.367-2.3-3.57-3.436-1.225-1.151-2.48-2.271-3.722-3.4a4.578,4.578,0,0,1-.388-.357.5.5,0,0,1,0-.734.468.468,0,0,1,.726,0c.345.335.66.7,1.006,1.033,1.578,1.527,3.183,3.028,4.736,4.58.747.747,1.4,1.586,2.091,2.39a2.17,2.17,0,0,1,.223.4Z" fill="#2b4937"/>
      <path id="Caminho_2534" data-name="Caminho 2534" d="M3172.209,4570.292c.423.154.827.333,1.248.449,1.017.279,2.051.5,3.061.8,1.038.31,2.047.716,3.084,1.03.806.245,1.635.415,2.455.613a3.555,3.555,0,0,1,.7.156.55.55,0,0,1,.291.768.578.578,0,0,1-.8.332c-2.179-.825-4.343-1.691-6.539-2.465-1.107-.391-2.27-.619-3.408-.918-.062-.017-.149,0-.187-.03-.161-.15-.309-.315-.461-.475Z" fill="#2b4937"/>
      <path id="Caminho_2535" data-name="Caminho 2535" d="M3220.973,4627.89a16.04,16.04,0,0,1-1.728-.02.94.94,0,0,1-.649-.434.59.59,0,0,1,.289-.817.636.636,0,0,0,.183-.149c.619-.745.857-.791,1.778-.526.391.112.826.06,1.232.133a6.254,6.254,0,0,1,1.185.321.726.726,0,0,1,.41.923.685.685,0,0,1-.73.571c-.656.015-1.313,0-1.97,0Z" fill="#2b4937"/>
      <path id="Caminho_2536" data-name="Caminho 2536" d="M3247.791,4646.073a11.129,11.129,0,0,1-1.5-.277.721.721,0,0,1-.352-1.224c.938-1.229,1.981-1.158,3.15-.368a.97.97,0,0,1,.3,1.177.868.868,0,0,1-.911.641h-.673Z" fill="#2b4937"/>
      <path id="Caminho_2537" data-name="Caminho 2537" d="M3226.153,4600.086a8.6,8.6,0,0,1-1.288-.079.688.688,0,0,1-.441-1.133,1.967,1.967,0,0,1,3.2-.085,1.2,1.2,0,0,1,.106.932c-.06.175-.452.28-.712.333a4.45,4.45,0,0,1-.862.012Z" fill="#2b4937"/>
      <path id="Caminho_2538" data-name="Caminho 2538" d="M3168.242,4597.285a1.119,1.119,0,0,1-1.363.717.715.715,0,0,1-.467-.41c-.088-.281.076-.5.382-.623a1.938,1.938,0,0,0,.649-.4,1.217,1.217,0,0,1,1.369-.258,2.417,2.417,0,0,0,.808.171,1.861,1.861,0,0,1,1.678,1.827c-.439-.209-.829-.417-1.237-.581a5.479,5.479,0,0,0-.782-.2Z" fill="#2b4937"/>
      <path id="Caminho_2539" data-name="Caminho 2539" d="M3197.9,4557.764c-.339-1-.712-2-1.006-3.01-.284-.98-.487-1.984-.722-2.978a.568.568,0,0,1-.018-.331,3.131,3.131,0,0,1,.324-.458c.133.116.352.21.386.35.426,1.74.839,3.484,1.219,5.234a5.406,5.406,0,0,1,.012,1.132Z" fill="#2b4937"/>
      <path id="Caminho_2540" data-name="Caminho 2540" d="M3210.048,4556c.06-.355.076-.581.137-.795q.517-1.819,1.056-3.63a1.4,1.4,0,0,1,.232-.522,2.823,2.823,0,0,1,.536-.384,5.825,5.825,0,0,1,.19.642.714.714,0,0,1-.07.324c-.48,1.456-.955,2.912-1.453,4.362-.058.167-.244.29-.371.434Z" fill="#2b4937"/>
      <path id="Caminho_2541" data-name="Caminho 2541" d="M3136.283,4573.321l-.333.61a1.93,1.93,0,0,1-.491-.385q-1-1.551-1.952-3.135c-.088-.147-.036-.377-.049-.569a2.018,2.018,0,0,1,.613.054c.147.059.252.24.357.38.433.576.891,1.137,1.276,1.744A9.42,9.42,0,0,1,3136.283,4573.321Z" fill="#2b4937"/>
      <path id="Caminho_2542" data-name="Caminho 2542" d="M3177.662,4552.556c-.127.16-.236.412-.419.492a.774.774,0,0,1-.659-.042,12.259,12.259,0,0,1-1.3-1.194.669.669,0,0,1,.852-1.011,16.234,16.234,0,0,1,1.368,1.327C3177.579,4552.21,3177.59,4552.359,3177.662,4552.556Z" fill="#2b4937"/>
      <path id="Caminho_2543" data-name="Caminho 2543" d="M3223.708,4649.1a1.365,1.365,0,0,1,.476.07c.166.1.4.272.4.419a.6.6,0,0,1-.351.464c-.394.111-.826.086-1.223.189a4.831,4.831,0,0,0-.72.4,1.515,1.515,0,0,1-.668.205c-.077,0-.2-.359-.2-.554a1.11,1.11,0,0,1,.907-.988C3222.8,4649.193,3223.284,4649.155,3223.708,4649.1Z" fill="#2b4937"/>
      <path id="Caminho_2544" data-name="Caminho 2544" d="M3169.123,4569.9a6.344,6.344,0,0,1-1.1-.012,10.169,10.169,0,0,1-1.52-.423.941.941,0,0,1-.492-.414.518.518,0,0,1,.174-.482,4.167,4.167,0,0,1,2.9,1.072A1.123,1.123,0,0,1,3169.123,4569.9Z" fill="#2b4937"/>
      <path id="Caminho_2545" data-name="Caminho 2545" d="M3265.341,4630.861a4.75,4.75,0,0,1,1.011.609.82.82,0,0,1,.048.738.7.7,0,0,1-.6.245,3.936,3.936,0,0,1-1.179-.339.667.667,0,0,1-.257-.552.811.811,0,0,1,.352-.5,1.411,1.411,0,0,1,.554-.1Z" fill="#2b4937"/>
      <path id="Caminho_2546" data-name="Caminho 2546" d="M3226.03,4649.767c.205.119.546.209.579.365.038.177-.175.432-.322.62a3.447,3.447,0,0,1-.624.643.881.881,0,0,1-.581.181c-.119-.016-.274-.252-.3-.406A1.33,1.33,0,0,1,3226.03,4649.767Z" fill="#2b4937"/>
      <path id="Caminho_2547" data-name="Caminho 2547" d="M3205.651,4613.631c-.161.19-.26.411-.422.478-.275.112-.426-.1-.527-.348-.169-.415-.394-.811-.524-1.237-.062-.205-.045-.578.083-.668a.484.484,0,0,1,.729.223C3205.221,4612.565,3205.414,4613.069,3205.651,4613.631Z" fill="#2b4937"/>
      <path id="Caminho_2548" data-name="Caminho 2548" d="M3201.821,4610.544a2.8,2.8,0,0,1-.483-.174,11.7,11.7,0,0,1-1.241-.814c-.132-.106-.135-.374-.2-.568.171-.052.4-.2.5-.139a18.3,18.3,0,0,1,1.646,1.054.5.5,0,0,1,.085.434C3202.111,4610.43,3201.927,4610.48,3201.821,4610.544Z" fill="#2b4937"/>
      <path id="Caminho_2549" data-name="Caminho 2549" d="M3186.322,4601.013c.17.2.349.336.408.508a6.18,6.18,0,0,1,.25,1.094,2.41,2.41,0,0,1-.055.581c-.239-.034-.53.007-.708-.115a1.639,1.639,0,0,1-.346-1.681C3185.944,4601.268,3186.112,4601.188,3186.322,4601.013Z" fill="#2b4937"/>
      <path id="Caminho_2550" data-name="Caminho 2550" d="M3208.747,4591.857c.4.057.778.036.825.5.046.447-.277.557-.623.634a3.989,3.989,0,0,1-.51.115c-.263.021-.58.086-.665-.281a.623.623,0,0,1,.354-.8A4.608,4.608,0,0,1,3208.747,4591.857Z" fill="#2b4937"/>
      <path id="Caminho_2551" data-name="Caminho 2551" d="M3195.7,4595.759c-.1-.076-.269-.138-.275-.212-.011-.159,0-.393.106-.474a7.282,7.282,0,0,1,1.2-.79c.148-.076.4.049.6.082a1.763,1.763,0,0,1-.273.538,6.246,6.246,0,0,1-.856.619A4.214,4.214,0,0,1,3195.7,4595.759Z" fill="#2b4937"/>
      <path id="Caminho_2552" data-name="Caminho 2552" d="M3188.769,4599.685c-.232-.121-.425-.161-.448-.246-.04-.153-.041-.421.052-.488a9.5,9.5,0,0,1,1.249-.745.389.389,0,0,1,.363.121c.061.123.073.377-.007.444C3189.591,4599.1,3189.167,4599.391,3188.769,4599.685Z" fill="#2b4937"/>
      <path id="Caminho_2553" data-name="Caminho 2553" d="M3230.091,4647.964c.264.023.521.1.509.5a.991.991,0,0,1-.95.776c-.332,0-.45-.183-.452-.488A.8.8,0,0,1,3230.091,4647.964Z" fill="#2b4937"/>
      <path id="Caminho_2554" data-name="Caminho 2554" d="M3215.555,4649.174a.782.782,0,0,1-.8.728c-.367-.007-.513-.215-.511-.556a.711.711,0,0,1,.791-.714C3215.387,4648.643,3215.57,4648.813,3215.555,4649.174Z" fill="#2b4937"/>
      <path id="Caminho_2555" data-name="Caminho 2555" d="M3190.971,4605.639c-.438-.262-.852-.487-1.233-.759-.076-.054-.072-.315-.011-.431a.4.4,0,0,1,.37-.111,5.659,5.659,0,0,1,1.081.491.62.62,0,0,1,.154.5C3191.325,4605.424,3191.132,4605.508,3190.971,4605.639Z" fill="#2b4937"/>
      <path id="Caminho_2556" data-name="Caminho 2556" d="M3146.76,4561.587a.646.646,0,0,1-.046-1.291.619.619,0,0,1,.651.622A.626.626,0,0,1,3146.76,4561.587Z" fill="#2b4937"/>
      <path id="Caminho_2557" data-name="Caminho 2557" d="M3192.428,4597.467c-.172-.117-.337-.172-.349-.251a.537.537,0,0,1,.091-.43,5.923,5.923,0,0,1,1.01-.645c.121-.06.32.037.483.063-.045.171-.034.408-.145.5A13.3,13.3,0,0,1,3192.428,4597.467Z" fill="#2b4937"/>
      <path id="Caminho_2558" data-name="Caminho 2558" d="M3200.053,4652.778c.2,0,.4.188.408.586a.524.524,0,0,1-.576.605.539.539,0,0,1-.624-.608C3199.268,4652.976,3199.472,4652.779,3200.053,4652.778Z" fill="#2b4937"/>
      <path id="Caminho_2559" data-name="Caminho 2559" d="M3227.316,4625.306c.009.441-.2.61-.592.6s-.568-.21-.564-.6a.513.513,0,0,1,.6-.572C3227.146,4624.746,3227.34,4624.946,3227.316,4625.306Z" fill="#2b4937"/>
      <path id="Caminho_2560" data-name="Caminho 2560" d="M3229.028,4622.133a2.734,2.734,0,0,1-.462.418,1.144,1.144,0,0,1-.466.086c-.163.007-.442.027-.47-.042a.818.818,0,0,1-.019-.585.7.7,0,0,1,.9-.337C3228.68,4621.721,3228.806,4621.927,3229.028,4622.133Z" fill="#2b4937"/>
      <path id="Caminho_2561" data-name="Caminho 2561" d="M3194.767,4606.485c.609-.015,1.149.359,1.169.692.017.283-.1.4-.393.4-.5-.014-1.033-.347-1-.684C3194.561,4606.723,3194.716,4606.572,3194.767,4606.485Z" fill="#2b4937"/>
      <path id="Caminho_2562" data-name="Caminho 2562" d="M3213.375,4546.5a1.22,1.22,0,0,1,.064,1.351.643.643,0,0,1-.561.237.58.58,0,0,1-.252-.5A8.745,8.745,0,0,1,3213.375,4546.5Z" fill="#2b4937"/>
      <path id="Caminho_2563" data-name="Caminho 2563" d="M3157.159,4569.422c.073-.045.208-.2.355-.209.345-.029.7.419.7.829,0,.277-.088.465-.416.449C3157.43,4570.472,3157.145,4570.074,3157.159,4569.422Z" fill="#2b4937"/>
      <path id="Caminho_2564" data-name="Caminho 2564" d="M3261.687,4642.586a.474.474,0,0,1-.546.5c-.36-.009-.5-.207-.491-.555s.178-.477.507-.48C3261.519,4642.048,3261.679,4642.226,3261.687,4642.586Z" fill="#2b4937"/>
      <path id="Caminho_2565" data-name="Caminho 2565" d="M3189.209,4526.063c-.148-.2-.383-.394-.422-.617a.439.439,0,0,1,.519-.523.749.749,0,0,1,.505.492c.018.2-.233.425-.366.64Z" fill="#2b4937"/>
      <path id="Caminho_2566" data-name="Caminho 2566" d="M3160.506,4573.157c.1-.075.237-.261.39-.276.488-.048.478.356.521.68.036.268-.072.43-.37.415C3160.6,4573.955,3160.586,4573.619,3160.506,4573.157Z" fill="#2b4937"/>
      <path id="Caminho_2567" data-name="Caminho 2567" d="M3140.5,4628.833c-.406-.092-.57-.231-.558-.558.014-.362.256-.389.532-.387s.562.108.493.421C3140.921,4628.508,3140.66,4628.66,3140.5,4628.833Z" fill="#2b4937"/>
      <path id="Caminho_2568" data-name="Caminho 2568" d="M3216.309,4589.838c-.322.024-.375-.185-.37-.459.006-.327.141-.5.489-.5.33,0,.4.192.389.467C3216.81,4589.671,3216.674,4589.857,3216.309,4589.838Z" fill="#2b4937"/>
      <path id="Caminho_2569" data-name="Caminho 2569" d="M3242.592,4628.55c.338-.013.438.174.436.484,0,.34-.181.451-.487.443-.324-.008-.46-.185-.452-.492C3242.1,4628.659,3242.281,4628.531,3242.592,4628.55Z" fill="#2b4937"/>
      <path id="Caminho_2570" data-name="Caminho 2570" d="M3161.213,4587.352c-.063.041-.176.168-.306.187-.252.038-.608-.4-.588-.748a.453.453,0,0,1,.265-.336C3160.878,4586.4,3161.2,4586.82,3161.213,4587.352Z" fill="#2b4937"/>
      <path id="Caminho_2571" data-name="Caminho 2571" d="M3250.808,4632.159c-.393-.086-.6-.165-.589-.517.007-.367.243-.393.519-.386s.552.1.482.425C3251.181,4631.861,3250.951,4632,3250.808,4632.159Z" fill="#2b4937"/>
      <path id="Caminho_2572" data-name="Caminho 2572" d="M3167.866,4587.165c-.1.064-.252.224-.42.246-.3.042-.455-.157-.468-.461-.012-.268.091-.422.379-.425C3167.7,4586.522,3167.839,4586.708,3167.866,4587.165Z" fill="#2b4937"/>
      <path id="Caminho_2573" data-name="Caminho 2573" d="M3149.878,4575.461c-.242.176-.356.33-.468.328-.386-.008-.427-.333-.436-.616,0-.1.151-.212.234-.318Z" fill="#2b4937"/>
      <path id="Caminho_2574" data-name="Caminho 2574" d="M3181.483,4592.435c-.251.2-.363.359-.5.382-.309.053-.446-.167-.4-.434.025-.131.22-.338.314-.326C3181.065,4592.079,3181.209,4592.245,3181.483,4592.435Z" fill="#2b4937"/>
      <path id="Caminho_2575" data-name="Caminho 2575" d="M3157.31,4576.345a3.026,3.026,0,0,1,.366.59c.021.066-.129.186-.2.281a2.236,2.236,0,0,1-.377-.4C3157.063,4576.757,3157.185,4576.608,3157.31,4576.345Z" fill="#2b4937"/>
      <path id="Caminho_2576" data-name="Caminho 2576" d="M3163.264,4576.383c-.573.071-.637-.02-.584-.807Z" fill="#2b4937"/>
      <path id="Caminho_2577" data-name="Caminho 2577" d="M3134.283,4612.883a2.5,2.5,0,0,1-.7-.414,2.792,2.792,0,0,1-.424-.853c-.024-.067.1-.247.185-.279a.46.46,0,0,1,.331.1,6.662,6.662,0,0,0,.962.67.845.845,0,0,1,.559.9c-.017.464.1.809.6.96a.432.432,0,0,1,.177.375.443.443,0,0,1-.3.274,1.137,1.137,0,0,1-1.413-1.2C3134.252,4613.234,3134.272,4613.06,3134.283,4612.883Z" fill="#2b4937"/>
      <path id="Caminho_2578" data-name="Caminho 2578" d="M3138.116,4584.947a12.645,12.645,0,0,1-.708,1.316c-.09.132-.391.121-.595.176a5.271,5.271,0,0,1-.075-.574.5.5,0,0,1,.1-.266,1.834,1.834,0,0,0,.273-1.464c-.038-.194.071-.565.2-.616.356-.137.44.214.514.47.085.29.133.591.2.887Z" fill="#2b4937"/>
      <path id="Caminho_2579" data-name="Caminho 2579" d="M3129.241,4604.015c.1-.672.425-1.133.891-1.132.166,0,.434.091.475.206a1.034,1.034,0,0,1-.067.612,1.238,1.238,0,0,1-.295.471c-.164.163-.411.425-.55.386C3129.508,4604.506,3129.389,4604.207,3129.241,4604.015Z" fill="#2b4937"/>
      <path id="Caminho_2580" data-name="Caminho 2580" d="M3137.154,4614.931c.284-.016.407.133.4.435a.882.882,0,0,1-.916.777c-.35.006-.492-.158-.478-.5C3136.169,4615.284,3136.65,4614.928,3137.154,4614.931Z" fill="#2b4937"/>
      <path id="Caminho_2581" data-name="Caminho 2581" d="M3131.16,4578.464a4.836,4.836,0,0,1,.6-.894c.115-.114.433-.021.658-.022a1.669,1.669,0,0,1-.088.643,2.761,2.761,0,0,1-.622.646.47.47,0,0,1-.379.076C3131.263,4578.892,3131.246,4578.705,3131.16,4578.464Z" fill="#2b4937"/>
      <path id="Caminho_2582" data-name="Caminho 2582" d="M3130.873,4599.278c.431.068.552.269.482.542a2.3,2.3,0,0,1-.366.81c-.081.1-.352.063-.536.088a3,3,0,0,1-.05-.9C3130.452,4599.612,3130.708,4599.456,3130.873,4599.278Z" fill="#2b4937"/>
      <path id="Caminho_2583" data-name="Caminho 2583" d="M3139.551,4611.8a1.137,1.137,0,0,1-.733,1.087c-.348.1-.555-.084-.442-.433a2.315,2.315,0,0,1,.425-.8.72.72,0,0,1,.556-.122C3139.453,4611.547,3139.523,4611.758,3139.551,4611.8Z" fill="#2b4937"/>
      <path id="Caminho_2584" data-name="Caminho 2584" d="M3129.823,4587.694c-.023.336,0,.707-.531.706-.41,0-.457-.247-.451-.568.01-.5.2-.732.607-.731C3129.874,4587.1,3129.807,4587.413,3129.823,4587.694Z" fill="#2b4937"/>
      <path id="Caminho_2585" data-name="Caminho 2585" d="M3182.631,4611.162c0-.5,0-1,0-1.492,0-.567.25-.819.8-.745,2.523.341,5.044.7,7.567,1.048a1.152,1.152,0,0,1,1.06.966c.238,1.177.472,2.357.641,3.545.192,1.348.3,2.707.463,4.06.125,1.068-.1,1.364-1.172,1.557a45.628,45.628,0,0,1-7.553.728c-.821.009-1.093-.207-1.163-1.036-.11-1.324-.183-2.651-.275-3.977q-.163-2.326-.333-4.654Zm1.34-.657c-.159,2.228.5,4.333.931,6.47,0-.416-.065-.823-.094-1.233-.046-.637-.092-1.276-.082-1.913,0-.288.109-.612.586-.543a2.112,2.112,0,0,1-.047.483c-.152.439.047.674.449.705a3.153,3.153,0,0,1,2.1.918.818.818,0,0,0,.33.194,13.214,13.214,0,0,0,1.425.4,1.1,1.1,0,0,0,1.186-.474,2.977,2.977,0,0,0,.464-1.46,16.5,16.5,0,0,0-.386-2.022.949.949,0,0,0-.8-.829A25.845,25.845,0,0,0,3183.971,4610.5Zm5.705,6.082-.115.123v2.1l.147.063c.081-.129.225-.254.233-.388a13.581,13.581,0,0,0,.008-1.538C3189.942,4616.82,3189.771,4616.706,3189.676,4616.587Zm-1.907-.449-.15.035.125,2.754.139.073c.071-.111.207-.225.2-.332-.041-.715-.107-1.428-.179-2.141A1.7,1.7,0,0,0,3187.769,4616.138Zm.824.394v2.367l.14.068c.065-.1.176-.2.188-.313C3189.039,4617.532,3188.905,4616.621,3188.593,4616.532Zm2.022,2.112a3.229,3.229,0,0,0,.168-2.231C3190.379,4617.123,3190.679,4617.9,3190.615,4618.644Zm-3.754-3.227-.143.015.386,3.432A17.293,17.293,0,0,0,3186.861,4615.417Z" fill="#2b4937"/>
      <path id="Caminho_2586" data-name="Caminho 2586" d="M3195.442,4611.06c.1.466.168.939.293,1.4.431,1.573.886,3.138,1.319,4.71a9.732,9.732,0,0,1,.37,1.626c.059.6-.129.8-.728.821-.765.027-1.533-.013-2.3-.046a.693.693,0,0,1-.691-.673q-.547-3.843-1.092-7.686a.827.827,0,0,1,1.045-.912,7.877,7.877,0,0,1,1.1.305,3.885,3.885,0,0,1,.7.472Zm.1,4.695c-.12-.433-.231-.878-.367-1.316-.265-.851-.531-1.7-.827-2.543-.057-.162-.252-.275-.437-.466a1.537,1.537,0,0,0-.064.284q.281,2.5.566,4.992c.042.366.207.583.64.459-.009-.135-.017-.277-.028-.418s-.033-.286-.041-.43C3194.955,4615.782,3195.025,4615.716,3195.541,4615.755Zm.368,1.927.206-.076-.411-1.517C3195.774,4616.621,3195.58,4617.219,3195.909,4617.682Z" fill="#2b4937"/>
      <path id="Caminho_2587" data-name="Caminho 2587" d="M3181.115,4608.182c-.064.366,0,.748-.442.7-.366-.043-.428-.352-.407-.658.034-.471.379-.363.557-.332.15-.259.235-.6.4-.641.412-.1.488.313.537.586a12.783,12.783,0,0,1,.208,1.852c.105,3.765.189,7.531.284,11.3,0,.191.067.384.053.572-.009.116-.109.317-.173.319a.535.535,0,0,1-.4-.164.814.814,0,0,1-.1-.454c-.034-2.053-.037-4.106-.1-6.157-.062-2.111-.177-4.221-.276-6.331A3.7,3.7,0,0,0,3181.115,4608.182Z" fill="#2b4937"/>
      <path id="Caminho_2588" data-name="Caminho 2588" d="M3172.9,4628.326c0-.928.008-1.856,0-2.783-.006-.5.194-.789.612-.812a.763.763,0,0,1,.883.724q.014,2.281.007,4.564a4.212,4.212,0,0,1-.077.716.616.616,0,0,1-.761.548.587.587,0,0,1-.574-.646c-.018-.77-.005-1.54-.005-2.311Z" fill="#2b4937"/>
      <path id="Caminho_2589" data-name="Caminho 2589" d="M3175.792,4632.9c-.066-.99-.151-1.98-.192-2.972-.02-.494.061-.991.055-1.487-.016-1.39-.059-2.78-.078-4.17a1.431,1.431,0,0,1,.117-.7c.084-.148.336-.2.513-.295.077.151.246.321.218.448a24.421,24.421,0,0,0-.091,4.889c-.021,1.087-.048,2.174-.043,3.261,0,.77.061,1.539.084,2.308.007.211.073.475-.293.479-.341,0-.334-.231-.337-.46,0-.433,0-.866,0-1.3Z" fill="#2b4937"/>
      <path id="Caminho_2590" data-name="Caminho 2590" d="M3194.163,4622.49c.153-.278.246-.7.475-.8s.6.131.909.213a2.519,2.519,0,0,1,.435.106c.179.084.43.171.489.321a.451.451,0,0,1-.332.634c-.337.1-.668.219-1.01.3C3194.54,4623.4,3194.253,4623.154,3194.163,4622.49Z" fill="#2b4937"/>
      <path id="Caminho_2591" data-name="Caminho 2591" d="M3181.158,4610.911a1.5,1.5,0,0,1-.474.277c-.292.044-.372-.181-.36-.432s.127-.463.406-.39c.165.043.294.222.439.339Z" fill="#2b4937"/>
      <path id="Caminho_2592" data-name="Caminho 2592" d="M3144.071,4592.318a5.3,5.3,0,0,1,.425-1.034c.094-.142.407-.138.621-.2a1.56,1.56,0,0,1,.095.52,4.412,4.412,0,0,1-.292,1.006c-.074.168-.276.278-.42.414-.114-.16-.234-.317-.337-.484-.029-.046,0-.125,0-.189Z" fill="#2b4937"/>
      <path id="Caminho_2593" data-name="Caminho 2593" d="M3149.108,4615.551a.484.484,0,0,1-.437-.783,1.2,1.2,0,0,1,.267-.268c.284-.233.658-.533.936-.229.119.131-.152.676-.323.989C3149.461,4615.424,3149.2,4615.494,3149.108,4615.551Z" fill="#2b4937"/>
      <path id="Caminho_2594" data-name="Caminho 2594" d="M3170.051,4611.278a1.145,1.145,0,0,1,.056-.363c.036-.076.161-.108.246-.16a2.112,2.112,0,0,1,.272.6c.02.165-.088.484-.185.5C3169.945,4611.956,3170.1,4611.544,3170.051,4611.278Z" fill="#2b4937"/>
      <path id="Caminho_2595" data-name="Caminho 2595" d="M3168.761,4611.212l.416-.419a1.773,1.773,0,0,1,.295.51c.019.089-.175.222-.273.335Z" fill="#2b4937"/>
      <path id="Caminho_2596" data-name="Caminho 2596" d="M3159.319,4610.961c-.276.189-.433.374-.537.348-.145-.036-.25-.23-.373-.357.12-.11.231-.293.362-.31S3159.039,4610.788,3159.319,4610.961Z" fill="#2b4937"/>
      <path id="Caminho_2597" data-name="Caminho 2597" d="M3158.168,4611.008l-.386.5c-.09-.1-.267-.217-.251-.3a1.743,1.743,0,0,1,.257-.485Z" fill="#2b4937"/>
      <path id="Caminho_2598" data-name="Caminho 2598" d="M3168.1,4611.539c-.141-.218-.281-.339-.271-.446s.173-.194.27-.29c.093.1.25.189.261.294S3168.24,4611.324,3168.1,4611.539Z" fill="#2b4937"/>
      <path id="Caminho_2599" data-name="Caminho 2599" d="M3155.249,4625.479a2.98,2.98,0,0,1,1.029-2.244c.4-.393.77-.289,1,.215.269.577.612,1.12.9,1.691.292.589.2.75-.426.9-.5.12-.983.288-1.481.407C3155.34,4626.672,3155.241,4626.587,3155.249,4625.479Z" fill="#2b4937"/>
      <path id="Caminho_2600" data-name="Caminho 2600" d="M3158.884,4628.332c-.188.983-.341,1.88-.551,2.764a.579.579,0,0,1-.517.223,4.667,4.667,0,0,1-1.255-.653,4.011,4.011,0,0,1-.772-.972.548.548,0,0,1,.275-.92c.606-.246,1.216-.486,1.832-.708a2.267,2.267,0,0,1,.562-.077C3158.774,4627.959,3158.888,4628.135,3158.884,4628.332Z" fill="#2b4937"/>
      <path id="Caminho_2601" data-name="Caminho 2601" d="M3159.777,4620.815c.335.028.674.033,1,.089.479.082.67.4.471.836-.288.625-.61,1.235-.941,1.84-.17.31-.822.261-1.019-.045-.233-.362-.485-.711-.727-1.066a3.185,3.185,0,0,1-.185-.281c-.423-.792-.167-1.269.72-1.335.224-.017.449,0,.674,0Z" fill="#2b4937"/>
      <path id="Caminho_2602" data-name="Caminho 2602" d="M3160.873,4629.892c0-.337-.009-.674,0-1.011.015-.443.25-.62.666-.462.524.2,1.041.42,1.544.667a.728.728,0,0,1,.21,1.227,6.785,6.785,0,0,1-1.491,1.088c-.64.309-.917.067-.921-.642,0-.289,0-.578,0-.867Z" fill="#2b4937"/>
      <path id="Caminho_2603" data-name="Caminho 2603" d="M3164.052,4625.65c.01,1.137-.232,1.313-1.308.938-.346-.12-.689-.254-1.023-.4-.441-.2-.538-.493-.275-.879.333-.488.685-.963,1.051-1.426a.561.561,0,0,1,.909-.02A2.267,2.267,0,0,1,3164.052,4625.65Z" fill="#2b4937"/>
      <path id="Caminho_2604" data-name="Caminho 2604" d="M3158.722,4626.135c.122.16.316.306.351.484.06.308-.1.511-.457.513-.3,0-.451-.124-.452-.422S3158.28,4626.217,3158.722,4626.135Z" fill="#2b4937"/>
      <path id="Caminho_2605" data-name="Caminho 2605" d="M3160.183,4627.872c.02.339-.114.508-.441.5s-.446-.178-.454-.484c-.008-.326.174-.4.454-.405S3160.209,4627.576,3160.183,4627.872Z" fill="#2b4937"/>
      <path id="Caminho_2606" data-name="Caminho 2606" d="M3161.092,4625.362a1.7,1.7,0,0,1-.527.293c-.286.04-.422-.152-.422-.447,0-.315.166-.465.447-.4a1.875,1.875,0,0,1,.509.313Z" fill="#2b4937"/>
      <path id="Caminho_2607" data-name="Caminho 2607" d="M3161.542,4627c-.068.417-.224.542-.521.54-.267,0-.492-.1-.41-.377a.73.73,0,0,1,.454-.416C3161.192,4626.71,3161.381,4626.9,3161.542,4627Z" fill="#2b4937"/>
      <path id="Caminho_2608" data-name="Caminho 2608" d="M3159.232,4625.492c-.4-.066-.527-.21-.522-.509.006-.283.146-.4.413-.4.321,0,.5.165.438.466C3159.528,4625.213,3159.347,4625.346,3159.232,4625.492Z" fill="#2b4937"/>
      <path id="Caminho_2609" data-name="Caminho 2609" d="M3154.877,4627.693c.271-.221.4-.41.559-.44.345-.065.364.217.362.465,0,.231-.027.5-.34.436C3155.287,4628.118,3155.15,4627.919,3154.877,4627.693Z" fill="#2b4937"/>
      <path id="Caminho_2610" data-name="Caminho 2610" d="M3159.88,4631.774c-.3.19-.457.372-.619.372-.122,0-.325-.214-.352-.359a.334.334,0,0,1,.422-.42C3159.484,4631.4,3159.61,4631.566,3159.88,4631.774Z" fill="#2b4937"/>
      <path id="Caminho_2611" data-name="Caminho 2611" d="M3163.869,4627.785c.2.242.383.364.414.516a.3.3,0,0,1-.405.37c-.172-.045-.309-.227-.461-.348Z" fill="#2b4937"/>
      <path id="Caminho_2612" data-name="Caminho 2612" d="M3158.023,4622.312c-.211.149-.324.291-.421.281-.112-.011-.21-.158-.314-.245.1-.106.186-.261.308-.3C3157.675,4622.024,3157.807,4622.172,3158.023,4622.312Z" fill="#2b4937"/>
      <path id="Caminho_2613" data-name="Caminho 2613" d="M3162.661,4622.953a1.513,1.513,0,0,1-.41.232c-.061.014-.246-.189-.227-.235a.663.663,0,0,1,.288-.345c.069-.031.219.112.332.177Z" fill="#2b4937"/>
      <path id="Caminho_2614" data-name="Caminho 2614" d="M3153.542,4635.81c.08.135.231.277.219.4a.429.429,0,0,1-.317.283.419.419,0,0,1-.309-.282c-.014-.126.131-.268.207-.4Z" fill="#2b4937"/>
      <path id="Caminho_2615" data-name="Caminho 2615" d="M3178.42,4637.539c-.346-.036-.728-.06-1.1-.127a.354.354,0,0,1-.225-.263.364.364,0,0,1,.248-.255c.667-.04,1.336-.063,2-.056.125,0,.249.165.373.254-.118.118-.219.3-.36.341A6.207,6.207,0,0,1,3178.42,4637.539Z" fill="#2b4937"/>
      <path id="Caminho_2616" data-name="Caminho 2616" d="M3177.325,4639.751a2.282,2.282,0,0,1-.617-.049.483.483,0,0,1-.279-.347.464.464,0,0,1,.281-.35,4.314,4.314,0,0,1,1.144,0c.136.02.236.266.353.41a1.719,1.719,0,0,1-.406.312,1.391,1.391,0,0,1-.476.012Z" fill="#2b4937"/>
      <path id="Caminho_2617" data-name="Caminho 2617" d="M3175.859,4637.511a5.214,5.214,0,0,1-.712-.066.344.344,0,0,1-.216-.251.336.336,0,0,1,.218-.247,12.869,12.869,0,0,1,1.426.036c.083.007.192.19.209.3.009.056-.156.188-.255.2a4.628,4.628,0,0,1-.669.01Z" fill="#2b4937"/>
      <path id="Caminho_2618" data-name="Caminho 2618" d="M3180.252,4637.538c-.12-.2-.252-.322-.228-.4a.441.441,0,0,1,.285-.255c.069-.012.247.165.239.245C3180.538,4637.245,3180.4,4637.346,3180.252,4637.538Z" fill="#2b4937"/>
      <path id="Caminho_2619" data-name="Caminho 2619" d="M3191.59,4640.223c-.036.274-.072.624-.132.969s-.224.591-.628.6-.773-.129-.8-.525a8.953,8.953,0,0,1,.112-1.926.639.639,0,0,1,.774-.49c.411.042.562.332.63.679A5.694,5.694,0,0,1,3191.59,4640.223Z" fill="#2b4937"/>
      <path id="Caminho_2620" data-name="Caminho 2620" d="M3181.071,4626.168c.338.008.555.146.461.434a.715.715,0,0,1-.463.394c-.093.021-.324-.242-.366-.409C3180.629,4626.292,3180.826,4626.154,3181.071,4626.168Z" fill="#2b4937"/>
      <path id="Caminho_2621" data-name="Caminho 2621" d="M3149.731,4625.26c.236.237.449.353.488.51.075.309-.186.368-.426.358s-.556.047-.521-.312C3149.288,4625.653,3149.514,4625.511,3149.731,4625.26Z" fill="#2b4937"/>
      <path id="Caminho_2622" data-name="Caminho 2622" d="M3149.7,4624.852c-.175-.29-.355-.457-.339-.6.015-.127.235-.3.388-.329.259-.049.509.09.449.391C3150.168,4624.471,3149.95,4624.593,3149.7,4624.852Z" fill="#2b4937"/>
      <path id="Caminho_2623" data-name="Caminho 2623" d="M3253.833,4612.15a2.091,2.091,0,0,1-1.158,1.808c-.155.108-.471-.013-.713-.029.032-.236-.013-.529.111-.7.367-.492.887-.879.831-1.6-.007-.091.263-.291.4-.284a.7.7,0,0,1,.47.29C3253.857,4611.763,3253.818,4611.975,3253.833,4612.15Z" fill="#2b4937"/>
      <path id="Caminho_2624" data-name="Caminho 2624" d="M3255.814,4590.254a9.174,9.174,0,0,1-.267.985.523.523,0,0,1-.751.291c-.108-.053-.148-.429-.087-.613a1.378,1.378,0,0,0-.006-1.1.655.655,0,0,1-.09-.319c.02-.232.078-.461.12-.691.233.11.565.159.677.342A5.471,5.471,0,0,1,3255.814,4590.254Z" fill="#2b4937"/>
      <path id="Caminho_2625" data-name="Caminho 2625" d="M3247.981,4619.38a1.228,1.228,0,0,1-1.222-1.709c.059-.152.37-.25.578-.277.078-.01.2.246.287.39.167.271.336.543.481.826a1.169,1.169,0,0,1,.194.581C3248.289,4619.29,3248.012,4619.363,3247.981,4619.38Z" fill="#2b4937"/>
      <path id="Caminho_2626" data-name="Caminho 2626" d="M3249.98,4617.586c.011.3-.144.437-.438.43-.371-.008-.632-.366-.642-.862,0-.253.081-.394.357-.38A.847.847,0,0,1,3249.98,4617.586Z" fill="#2b4937"/>
      <path id="Caminho_2627" data-name="Caminho 2627" d="M3256.686,4601.045a4.4,4.4,0,0,1-.466.716c-.053.057-.439-.078-.437-.105a5.906,5.906,0,0,1,.182-1.1.454.454,0,0,1,.4-.092A2.226,2.226,0,0,1,3256.686,4601.045Z" fill="#2b4937"/>
      <path id="Caminho_2628" data-name="Caminho 2628" d="M3233.715,4597.692a7.1,7.1,0,0,1,.674-1.272,1.878,1.878,0,0,0,.357-.839,2.609,2.609,0,0,1,.549-1.065.729.729,0,0,1,.72-.026c.232.184.079.446-.1.7a5.128,5.128,0,0,0-.476,1.1c-.085.219-.13.453-.22.669-.122.293-.266.578-.408.863-.128.257-.167.693-.565.564C3234.034,4598.324,3233.916,4597.972,3233.715,4597.692Z" fill="#2b4937"/>
      <path id="Caminho_2629" data-name="Caminho 2629" d="M3240.7,4586.27c-.044.568-.113,1.112-.632,1.4a.771.771,0,0,1-.686.009c-.239-.19-.151-.487.08-.7a.969.969,0,0,0,.219-1.1c-.1-.3-.268-.584-.348-.89a1.744,1.744,0,0,1,.049-.567c.2.036.462.007.6.121A2.33,2.33,0,0,1,3240.7,4586.27Z" fill="#2b4937"/>
      <path id="Caminho_2630" data-name="Caminho 2630" d="M3235.332,4614.149a1.542,1.542,0,0,1-1.226-2.141.509.509,0,0,1,.4-.174.435.435,0,0,1,.322.255,2.5,2.5,0,0,0,.707,1.278.83.83,0,0,1,.142.612C3235.663,4614.076,3235.381,4614.127,3235.332,4614.149Z" fill="#2b4937"/>
      <path id="Caminho_2631" data-name="Caminho 2631" d="M3232.864,4604.556a6.125,6.125,0,0,1,.294-.824.539.539,0,0,1,.772-.25.863.863,0,0,1,.2.685,2.93,2.93,0,0,1-.282.9c-.066.148-.229.359-.341.354a.74.74,0,0,1-.486-.287A1.752,1.752,0,0,1,3232.864,4604.556Z" fill="#2b4937"/>
      <path id="Caminho_2632" data-name="Caminho 2632" d="M3240.929,4606.825a9.974,9.974,0,0,1-.72,1.167.682.682,0,0,1-.595.079c-.086-.026-.174-.365-.114-.5a7.223,7.223,0,0,1,.691-1.2.484.484,0,0,1,.462-.085C3240.767,4606.344,3240.8,4606.562,3240.929,4606.825Z" fill="#2b4937"/>
      <path id="Caminho_2633" data-name="Caminho 2633" d="M3236.873,4616.413c-.214-.09-.5-.124-.623-.284a.9.9,0,0,1-.167-.71c.042-.13.408-.185.636-.212.122-.014.259.1.389.164.246.113.6.139.49.558C3237.5,4616.286,3237.236,4616.387,3236.873,4616.413Z" fill="#2b4937"/>
      <path id="Caminho_2634" data-name="Caminho 2634" d="M3240.416,4590.918a2.651,2.651,0,0,1,.006-.471,2.736,2.736,0,0,1,.154-.407c.165.069.456.116.472.208a8.416,8.416,0,0,1,.087,1.384c0,.047-.246.151-.356.127a.485.485,0,0,1-.321-.267A2.318,2.318,0,0,1,3240.416,4590.918Z" fill="#2b4937"/>
      <path id="Caminho_2635" data-name="Caminho 2635" d="M3241.364,4602.982c.006.649-.336,1.034-.756,1.046-.285.008-.4-.11-.392-.4.014-.381.478-1.015.772-.956C3241.162,4602.71,3241.3,4602.925,3241.364,4602.982Z" fill="#2b4937"/>
      <path id="Caminho_2636" data-name="Caminho 2636" d="M3232.693,4610.2c-.035.413-.041.733-.1,1.043a.4.4,0,0,1-.271.261c-.13.008-.382-.1-.383-.167a5.286,5.286,0,0,1,.106-1.185c.019-.088.321-.141.5-.149C3232.6,4610,3232.675,4610.177,3232.693,4610.2Z" fill="#2b4937"/>
      <path id="Caminho_2637" data-name="Caminho 2637" d="M3234.169,4601.1c.091-.264.1-.49.215-.572a.975.975,0,0,1,.6-.148c.067,0,.147.275.164.43.013.116-.072.241-.1.365-.066.283-.224.516-.522.4C3234.358,4601.511,3234.273,4601.247,3234.169,4601.1Z" fill="#2b4937"/>
      <path id="Caminho_2638" data-name="Caminho 2638" d="M3264.722,4588.517a11.831,11.831,0,0,1,.058,1.6,3.908,3.908,0,0,1-.367,1.258.617.617,0,0,1-.893.31c-.38-.21-.214-.533-.107-.877a5.581,5.581,0,0,0,.126-1.24,2.153,2.153,0,0,1,.034-.7.732.732,0,0,0-.156-.865,4.794,4.794,0,0,1-.506-.864.408.408,0,0,1,.036-.348.311.311,0,0,1,.3-.042c.5.417.988.843,1.453,1.295.093.09.068.3.1.457Z" fill="#2b4937"/>
      <path id="Caminho_2639" data-name="Caminho 2639" d="M3264.035,4600.642a2.953,2.953,0,0,1-.585,1.993,1.765,1.765,0,0,1-.723.392c-.111.037-.377-.065-.4-.145-.041-.18-.046-.473.064-.566a2.049,2.049,0,0,0,.515-2.074c-.027-.22-.03-.444-.049-.667-.033-.384.21-.476.474-.339a1.3,1.3,0,0,1,.56.578A2.957,2.957,0,0,1,3264.035,4600.642Z" fill="#2b4937"/>
      <path id="Caminho_2640" data-name="Caminho 2640" d="M3264.352,4596.761c-.075.348-.11.6-.185.845a.466.466,0,0,1-.655.308.642.642,0,0,1-.326-.487,13.142,13.142,0,0,1,.143-1.572c.011-.085.129-.223.191-.22.142.008.352.048.406.146A10.115,10.115,0,0,1,3264.352,4596.761Z" fill="#2b4937"/>
      <path id="Caminho_2641" data-name="Caminho 2641" d="M3261.66,4587.216a1.008,1.008,0,0,1,.9,1.159.377.377,0,0,1-.252.225.586.586,0,0,1-.43-.107,3.912,3.912,0,0,1-.514-.729C3261.189,4587.459,3261.328,4587.224,3261.66,4587.216Z" fill="#2b4937"/>
      <path id="Caminho_2642" data-name="Caminho 2642" d="M3194.74,4615.485a2.711,2.711,0,0,1-.435-.672c-.025-.1.18-.258.281-.39a5.235,5.235,0,0,1,.517.59C3195.128,4615.05,3194.94,4615.231,3194.74,4615.485Z" fill="#2b4937"/>
    </g>
  </g>
</svg>
