<svg xmlns="http://www.w3.org/2000/svg" width="40.952" height="40.953" viewBox="0 0 40.952 40.953">
  <g id="Grupo_2016" data-name="Grupo 2016" transform="translate(-2723.135 -628.774)">
    <path id="Caminho_2915" data-name="Caminho 2915" d="M2752.786,628.774h-18.35a11.314,11.314,0,0,0-11.3,11.3v18.349a11.314,11.314,0,0,0,11.3,11.3h18.35a11.314,11.314,0,0,0,11.3-11.3V640.076a11.314,11.314,0,0,0-11.3-11.3Zm7.667,29.651a7.675,7.675,0,0,1-7.667,7.668h-18.35a7.676,7.676,0,0,1-7.668-7.668V640.076a7.676,7.676,0,0,1,7.668-7.668h18.35a7.676,7.676,0,0,1,7.667,7.668Zm0,0" fill="#2b4937"/>
    <path id="Caminho_2916" data-name="Caminho 2916" d="M2743.611,638.7a10.552,10.552,0,1,0,10.553,10.552,10.564,10.564,0,0,0-10.553-10.552Zm0,17.47a6.919,6.919,0,1,1,6.919-6.918,6.927,6.927,0,0,1-6.919,6.918Zm0,0" fill="#2b4937"/>
    <path id="Caminho_2917" data-name="Caminho 2917" d="M2754.606,635.618a2.661,2.661,0,1,0,1.884.779,2.675,2.675,0,0,0-1.884-.779Zm0,0" fill="#2b4937"/>
  </g>
</svg>
