<svg xmlns="http://www.w3.org/2000/svg" width="110.161" height="70.772" viewBox="0 0 110.161 70.772">
  <g id="_8tYvv9.tif" data-name="8tYvv9.tif" transform="translate(-8353.793 -13536.403)">
    <g id="Grupo_701" data-name="Grupo 701">
      <path id="Caminho_661" data-name="Caminho 661" d="M8433.873,13600.7l-.564-1c-.518.152-.507.153-.479-.406a6.85,6.85,0,0,0-.055-.789l-.556.428-.145-.035-.062-1.025c-.452.094-.547-.007-.463-.518a3.47,3.47,0,0,0,.061-.8,5.451,5.451,0,0,1-.392.566,1.123,1.123,0,0,1-.334.185,1.817,1.817,0,0,1-.116-.362c-.051-.527-.086-1.055-.131-1.645l-.769.584c-.06-.29-.111-.472-.131-.657-.03-.279-.038-.56-.055-.839-.023-.395-.168-.56-.619-.651a2,2,0,0,1-1.5-1.471,21.665,21.665,0,0,1-.687-3.153,12.1,12.1,0,0,0-.652-3.661,6.926,6.926,0,0,1-.153-.694,3.018,3.018,0,0,0-.273-.493l-.129.057a.607.607,0,0,1-.04.151c-.091.155-.167.407-.291.436a.7.7,0,0,1-.5-.215c-.175-.159-.295-.379-.476-.551-.014.307.245.67-.184.82-.4.142-.506-.261-.674-.5-.282-.4-.586-.723-1.125-.607l-.029,1.355-1.56-1.574.137.871c-.9-.107-1.4-.795-2.087-1.155-.273.816-.914.922-1.891.346a2.1,2.1,0,0,0-.484,1.4,13.388,13.388,0,0,0,.141,1.717.972.972,0,0,1-.27.868.751.751,0,0,0-.187.409c-.015.471.011.941.021,1.469l-.538-.2c.059.277.127.559.173.844a1.118,1.118,0,0,1,.01.5c-.043.134-.192.235-.295.35a1.5,1.5,0,0,1-.307-.3c-.071-.127-.084-.288-.164-.429a5.84,5.84,0,0,0,.175,2.194,4.362,4.362,0,0,1,.112.527l-.558-.2-.208-.073a8.293,8.293,0,0,0,.22,2.034,1.528,1.528,0,0,1,.026.485c-.171-.063-.393-.083-.5-.2a5.891,5.891,0,0,1-.517-.782l-.143.038c.093.727.189,1.453.275,2.182a2.576,2.576,0,0,1-.016.424,1.482,1.482,0,0,1-.513-.168,5.423,5.423,0,0,1-.593-.68c-.35.862-.06,1.887-.938,2.37-.124.332-.241.643-.355.956a1.069,1.069,0,0,0-.1.316c-.02.67-.048,1.34-.035,2.01a4.262,4.262,0,0,1-.381,2.126,3.143,3.143,0,0,1-3.077,1.582c-1.221.021-2.441-.062-3.663-.055a3.575,3.575,0,0,0-1.26.234,2.6,2.6,0,0,1-2.412-.051c-.612-.354-1.1-.114-1.363.594-.1.278-.2.559-.567.487s-.444-.392-.395-.689a10.611,10.611,0,0,1,.329-1.161,1.26,1.26,0,0,0-.865.621,2.7,2.7,0,0,1-.457.648.476.476,0,0,1-.437.086.505.505,0,0,1-.159-.424c.055-.354.168-.7.288-1.164-.535.4-.973.725-1.416,1.044a4.327,4.327,0,0,1-.4.228c-.063-.162-.2-.337-.178-.485a3.3,3.3,0,0,1,1.208-2.1c.1-.078.238-.144.273-.245.293-.843,1.027-1.221,1.71-1.657a2.784,2.784,0,0,0,.417-.281,4.554,4.554,0,0,1,3.467-1.329.4.4,0,0,0,.306-.211,9.918,9.918,0,0,0,.615-2.168,20.22,20.22,0,0,0-.512-6.187,17.233,17.233,0,0,0-1.055-2.375c-.323-.788-.585-1.6-.874-2.4l-.142-.391-1.824.5.021.116c.173-.029.346-.054.518-.087s.354-.093.534-.112a1.482,1.482,0,0,1,.347.045,1.064,1.064,0,0,1-.1.331,2.365,2.365,0,0,1-1.447,1.042.44.44,0,0,1-.222.739,4.462,4.462,0,0,1-1.181.229c-.559.042-1.12.027-1.681.033a.785.785,0,0,0-.779.447,2.348,2.348,0,0,1-2.072,1.154,3.352,3.352,0,0,0-1.6.582,3.076,3.076,0,0,1-1.735.507,1.915,1.915,0,0,0-1.229.631,7.1,7.1,0,0,1-3.263,2.386,12.993,12.993,0,0,1,.388,3.578,1.868,1.868,0,0,0,1.315,1.435.94.94,0,0,1,.285.062c.118.081.3.215.29.3a.484.484,0,0,1-.287.347,3.043,3.043,0,0,1-.826-.008,3.972,3.972,0,0,1-.562-.131l-.072.146c.322.181.649.353.963.547a3.119,3.119,0,0,1,.377.327,1.488,1.488,0,0,1-.473.256,8.021,8.021,0,0,1-1.041-.01c.2.217.341.368.479.525.251.285.188.52-.188.537a2.354,2.354,0,0,1-.8-.18,2.944,2.944,0,0,1-.46-.239l-.082.1c.119.1.241.189.354.292.3.277.29.457-.1.6a1.19,1.19,0,0,1-.686.037,4.233,4.233,0,0,1-1.091-.436,17.894,17.894,0,0,1-2.44-1.614,7.452,7.452,0,0,1-2.344-3.524,4.153,4.153,0,0,0-.213-.548,8.542,8.542,0,0,1-.568-5.895c.3-1.166.5-2.361.852-3.513a7.776,7.776,0,0,1,.964-2.047,21.664,21.664,0,0,1,3.061-3.948,23.42,23.42,0,0,0,2.166-2.291,3.236,3.236,0,0,0,.841-1.979,5.722,5.722,0,0,0-.176-2.33c-.08-.2-.24-.36-.317-.556-.136-.344-.237-.7-.352-1.051a2.363,2.363,0,0,0-.209-.6,2.485,2.485,0,0,1-.369-1.771c.027-.278.084-.555.107-.834.028-.313-.115-.455-.432-.354-.358.115-.712.243-1.1.376a2.737,2.737,0,0,1,.395.57,1.3,1.3,0,0,1-.04.511,1.451,1.451,0,0,1-.439-.122c-.3-.2-.576-.445-.875-.655a3.17,3.17,0,0,0-.461-.227,7.116,7.116,0,0,1-.076.826,1.264,1.264,0,0,1-.229.365c-.112-.084-.262-.146-.33-.258a1.936,1.936,0,0,0-1.4-1.064,3.762,3.762,0,0,1,.108.871.756.756,0,0,1-.317.564c-.145.053-.454-.114-.574-.272a11.869,11.869,0,0,1-.708-1.192c-.045.079-.071.118-.091.161-.306.645-.332.639-.783.09a3.568,3.568,0,0,0-2.871-1.568,19.886,19.886,0,0,1-2.661-.33,4.591,4.591,0,0,1-.2.509c-.231.429-.545.437-.836.058a7.287,7.287,0,0,0-.8-.917,1.462,1.462,0,0,0-1.4-.274c-.015.46.147.976-.349,1.388a5.625,5.625,0,0,0-1.545-1.95l.21,1.08-.183.1c-.22-.844-.9-1.067-1.564-1.292l-.265.855c-.408-.384-.729-.732-1.1-1.02a4.784,4.784,0,0,0-.994-.588,3.993,3.993,0,0,0-.9-.225,5.611,5.611,0,0,1-2.2-.889,1.9,1.9,0,0,0-1.343-.374c-.483.056-.685-.212-.628-.706a1.665,1.665,0,0,1,.892-1.274c-.662-.214-1.252-.419-1.851-.6-1.039-.309-1.225-.818-.623-1.791.08-.129.164-.256.229-.357-.323-.437-.625-.839-.916-1.249a2.152,2.152,0,0,1-.214-.41c-.37-.874-.347-1.058.465-1.53.869-.509,1.8-.9,2.672-1.411s1.689-1.1,2.531-1.653c.187-.123.357-.275.554-.381a1.4,1.4,0,0,0,.776-1c.326-1.947,1.652-2.86,3.373-3.485,1.262-.458,2.461-1.09,3.677-1.667a.6.6,0,0,0,.273-.421,12.027,12.027,0,0,0,.032-1.3,4.088,4.088,0,0,1,3.16-3.911,1.476,1.476,0,0,1,1.395.237c.083.077.259.048.351.119a10.213,10.213,0,0,1,.794.689c.13.125.213.3.338.432.152.16.326.3.528.484a5.292,5.292,0,0,1,.567-.353,2.013,2.013,0,0,1,.673-.229c.809-.069,1.619-.106,2.43-.149a.778.778,0,0,1,.288.052c.521.185,1.038.38,1.56.561a.514.514,0,0,0,.316.024c1.315-.478,2.638-.942,3.935-1.467a10.433,10.433,0,0,0,1.239-.776c.124-.073.358-.128.438-.063a.519.519,0,0,1,.095.444,3.93,3.93,0,0,1-.309.672,2.513,2.513,0,0,0,1.736-.469c.205-.119.342-.465.615-.293.174.11.235.4.381.664a8.744,8.744,0,0,0,1.03-.272,21.242,21.242,0,0,0,2.591-1.076c1.3-.712,2.548-1.523,3.806-2.312a18.174,18.174,0,0,1,4.016-1.709c.437-.146.847-.37,1.277-.533.153-.057.428-.109.481-.04a.768.768,0,0,1,.073.525,3.05,3.05,0,0,1-.237.607c.225.024.41.058.6.064a10.552,10.552,0,0,0,2.943-.439.75.75,0,0,1,.564.069c.091.07.032.336.044.61.387-.067.815-.159,1.247-.21.246-.029.57-.079.728.046.123.1.043.45.056.749a4.083,4.083,0,0,0,.639.007c.278-.033.547-.157.823-.167a.945.945,0,0,1,.666.167c.1.112-.035.425-.078.735a14.19,14.19,0,0,0,1.6.066c.5-.028.51-.06.586.427.016.1.165.222.279.268a10.538,10.538,0,0,0,6.1.952,10.445,10.445,0,0,1,3.261-.2,2.73,2.73,0,0,0,1.65-.408,3.758,3.758,0,0,1,1.9-.417c2.258.023,4.518,0,6.776,0a1.739,1.739,0,0,1,.378.012,12.882,12.882,0,0,0,3.346.076,31.877,31.877,0,0,0,5.445-.4,1.9,1.9,0,0,1,.439,0l.169.217-.679.288.063.135c.366.039.731.076,1.1.118.458.053,1.024-.043,1.353.193.875.627,2.011.213,2.767.854l-.487.221a11.814,11.814,0,0,0,3.488,1.4,3.075,3.075,0,0,1,.606.169c.311.116.32.161.208.4,1.057,1,2.066,2.009,3.142,2.946a17.5,17.5,0,0,1,2.754,2.979,37.073,37.073,0,0,0,2.438,3.057,9.356,9.356,0,0,0,1.528,1.153.122.122,0,0,0,.036.021l.426.1c-.11.152-.188.374-.338.444a9.633,9.633,0,0,1-1.122.381,8.9,8.9,0,0,0,.78,1.282,6.147,6.147,0,0,1,1.493,3.629c.038.558.139,1.11.219,1.666a2.149,2.149,0,0,0,1,1.444,1.676,1.676,0,0,1,.268.328,3.6,3.6,0,0,1-.441.128,2.835,2.835,0,0,1-.451,0,4.2,4.2,0,0,1,.5.6,1.717,1.717,0,0,1,.1.541,3.277,3.277,0,0,1-.548-.058,2.36,2.36,0,0,0-.435-.172l.628,1.9-.107.071-.506-.188c.034.255.066.479.094.706.043.347.095.693.115,1.043,0,.084-.1.175-.149.264-.088-.056-.2-.092-.256-.17a4.047,4.047,0,0,1-.258-.538c-.1.229-.169.4-.257.557-.235.423-.483.839-.721,1.26a.57.57,0,0,0-.087.267,1.431,1.431,0,0,0,.077.536,6.784,6.784,0,0,1,.212,2.95,27.4,27.4,0,0,1-.276,3c-.015.153-.066.3-.078.454-.049.729-.082,1.461-.138,2.19-.023.291-.242.3-.428.185a3.812,3.812,0,0,1-.513-.463l-.132.034c.145.732.287,1.465.437,2.2.024.123.125.246.108.357-.026.191-.067.445-.2.539a.743.743,0,0,1-.571,0,2.772,2.772,0,0,1-.572-.383c-.018.821-.061,1.58-.039,2.337.013.43.145.855.192,1.287a1.644,1.644,0,0,1-.091.471c-.146-.061-.293-.114-.436-.18a3.458,3.458,0,0,1-.3-.2,5.505,5.505,0,0,0,1.078,2.642c.514.929,1.473,1.139,2.377,1.574l-1.426,1.077a5.049,5.049,0,0,0,.585.953,6.031,6.031,0,0,0,2.112,1.681,2.159,2.159,0,0,1,1.59,1.791,3.582,3.582,0,0,1-.67,2.491,9.781,9.781,0,0,0-2.062,4.446,10.3,10.3,0,0,1-.334,1.477,2.606,2.606,0,0,1-2.331,2.113c-1.113.118-2.232.174-3.349.249-.979.065-1.961.085-2.934.2a3.114,3.114,0,0,0-1.032.442c-.384.206-.662.071-.677-.373a2.806,2.806,0,0,1,.031-.5c.024-.162.075-.321.124-.522a1.091,1.091,0,0,0-.792.7c-.082.266-.26.536-.569.42-.344-.13-.318-.453-.19-.754.092-.216.188-.431.286-.65a3.467,3.467,0,0,0-.588-.055.44.44,0,0,0-.264.19c-.08.11-.093.274-.183.373s-.261.2-.341.165a.458.458,0,0,1-.246-.334,1.621,1.621,0,0,1,.736-1.513c.277-.18.5-.436.769-.64.629-.489,1.271-.963,1.9-1.453a7.67,7.67,0,0,0,.959-.812.854.854,0,0,0-.363-1.315c-.421-.174-.831-.375-1.255-.568l.142.872a.745.745,0,0,1-.917-.086,3.01,3.01,0,0,1-1.372-1.6l-.111.008-.462,1.237a2.363,2.363,0,0,1-.34-.48c-.187-.526-.344-1.063-.509-1.6-.062-.2-.116-.4-.176-.606-.6.323-.648.451-.416,1a1.354,1.354,0,0,1-.592,1.8.826.826,0,0,1,.027,1.009c-.311.386-.714.3-1.219.148.138.317.234.566.354.8a2.948,2.948,0,0,0,.3.458c.521.677.44,1.023-.486,1.385.19.427.349.872.578,1.275a1.929,1.929,0,0,1-.975,2.732,9.663,9.663,0,0,1-3.234.456c-2.16.038-4.32.021-6.48.037-.476,0-.952.06-1.428.074a3.094,3.094,0,0,1-.878-.038,1.107,1.107,0,0,0-1.127.207.492.492,0,0,1-.48,0,.643.643,0,0,1-.185-.5,3.334,3.334,0,0,1,.269-.72c-.318.022-.623.025-.92.074-.1.017-.186.144-.26.235a2.588,2.588,0,0,1-.267.371.462.462,0,0,1-.364.115.4.4,0,0,1-.22-.312,5.981,5.981,0,0,1,.166-.87,2.578,2.578,0,0,1-.436.407c-.242.131-.57.361-.754.286-.336-.14-.157-.5-.075-.782a2.807,2.807,0,0,1,1.535-1.844,2.163,2.163,0,0,0,.854-.776,3.807,3.807,0,0,1,2.723-1.783A9.915,9.915,0,0,0,8433.873,13600.7Zm-11.452-18.094-1.264-1.288a.426.426,0,0,0-.077.135,1.549,1.549,0,0,0,1.07,1.386c.081,0,.171-.161.257-.248.206.159.406.329.624.471.057.035.179-.008.259-.041a.22.22,0,0,0-.009-.183c-.312-.379-.632-.75-.966-1.142C8422,13582.087,8422.374,13582.323,8422.421,13582.608Zm28.292-1.383c.052.135.182.3.14.4-.2.451-.447.883-.685,1.318-.044.082-.168.21-.161.217.262.253-.047.343-.145.457a4.479,4.479,0,0,1-1.882,1.15,2.214,2.214,0,0,0-.391.258l.073.169a2.172,2.172,0,0,0,.484-.108,4.2,4.2,0,0,0,.645-.389q.765-.548,1.515-1.117c.326-.246.424-.784.97-.757.026,0,.065-.086.086-.138a4.068,4.068,0,0,1,1.94-1.9,4.751,4.751,0,0,0,.907-.675,8.312,8.312,0,0,0,1.723-2.367,9.777,9.777,0,0,1,.524-.878l.148.056c-.067.331-.108.67-.207.991a5.826,5.826,0,0,1-2.956,3.55,6.519,6.519,0,0,0-1.5,1.116c-.486.479-.817,1.118-1.312,1.585-.572.539-.533,1.211-.679,1.924l.405-.162-.14.411.083.063a3.019,3.019,0,0,0,.572-.52,4.987,4.987,0,0,1,1.507-1.439c1.256-.828,2.623-1.533,3.424-2.908.228-.39.524-.738.788-1.105l.1.027a3.905,3.905,0,0,1-.015.514,2.973,2.973,0,0,1-.9,1.631c-.6.6-1.293,1.111-1.914,1.694a17.256,17.256,0,0,0-2.071,1.629,3.085,3.085,0,0,0-.478,2.115.681.681,0,0,0,.172-.227,13.232,13.232,0,0,1,1.331-2.072c.882-.952,1.9-1.778,2.862-2.654.032-.029.1-.024.17-.04a1.722,1.722,0,0,1-.558,1.17c-.687.758-1.418,1.477-2.083,2.253a3.2,3.2,0,0,0-.634,1.15,4.025,4.025,0,0,0-.044,1.215,4.832,4.832,0,0,0,.109.668c.1-.073.118-.135.115-.2a4.353,4.353,0,0,1,1.662-3.562c.375-.334.715-.708,1.076-1.058a1.082,1.082,0,0,1,.224-.133l.135.077a3.981,3.981,0,0,1-.357.882c-.324.455-.738.845-1.076,1.292-.55.725-1.123,1.457-.708,2.467.178.432.35.864.523,1.3l.119-.027c-.4-1.437-.635-2.837.816-3.926a5.406,5.406,0,0,0,.1,3.863.706.706,0,0,0,.169-.392,9.4,9.4,0,0,0-.03-1.009,5.441,5.441,0,0,1,.152-2.251c.109-.328.236-.637.67-.646-.049-.218-.1-.393-.125-.572a3.453,3.453,0,0,1-.118-1.315,4.89,4.89,0,0,0,.205-1.682,1.928,1.928,0,0,1,.17-.584l.782.751.1-.069c-.021-.292-.049-.583-.065-.874a4.576,4.576,0,0,1,.312-2.177,5.093,5.093,0,0,0,.37-1.657c.052-.724-.021-1.454-.024-2.183a2.119,2.119,0,0,1,.126-.484l.319.231.061-2.817a1.814,1.814,0,0,0-.291.628,5.822,5.822,0,0,1-1.33,2.409,6.636,6.636,0,0,1-.8.671c-.068.052-.2.027-.3.039a.821.821,0,0,1,.051-.3c.1-.165.256-.3.365-.461.295-.43.579-.868.867-1.3l-.091-.062a3.943,3.943,0,0,1-1.8,1.326,4,4,0,0,0-1.984,2.16l1.741-1.4.115.1a1.136,1.136,0,0,1-.094.385c-.5.733-.987,1.483-1.551,2.167a3.681,3.681,0,0,1-1.032.718,3.851,3.851,0,0,0-1.5,1.435c-.361.3-.726.606-1.085.916a3.6,3.6,0,0,0-.269.289,1.942,1.942,0,0,1-.309.317c-.213.14-.447.246-.674.367l.067.14c.14-.041.316-.041.413-.129.617-.562,1.218-1.141,1.817-1.721C8450.723,13581.384,8450.706,13581.292,8450.713,13581.226Zm-17.391,4.954-.034,1.631.322-.335a28.9,28.9,0,0,0,.632,3.095,6.614,6.614,0,0,0,1.885,2.522,4.736,4.736,0,0,1-.207-2.091c.077-.3.182-.431.449-.473.168.531.307,1.045.493,1.541.272.73.563,1.457.876,2.172a2.147,2.147,0,0,0,2.049,1.234c-.131-.408-.24-.829-.4-1.229a3.019,3.019,0,0,0-.428-.685,1.084,1.084,0,0,1-.234-1.058.333.333,0,0,1,.234-.192c.064,0,.2.135.2.209a1.256,1.256,0,0,0,.522.961c.429.374.9.7,1.348,1.053l.1-.11c-.255-.557-.517-1.11-.762-1.673a1.217,1.217,0,0,1-.042-.343,1.523,1.523,0,0,1,.375.049c.31.119.611.26.917.393a1.876,1.876,0,0,0-.22-.513,6.688,6.688,0,0,1-.751-2.812c-.012-.739.018-1.479.052-2.217,0-.112.134-.22.205-.328.106.072.216.142.317.22a.579.579,0,0,1,.092.118l.131-.033a5.121,5.121,0,0,0-.192-1.2c-.312-.746-.717-1.452-1.068-2.182a.54.54,0,0,1-.038-.421.529.529,0,0,1,.388-.177,2.635,2.635,0,0,1,.56.087c-.17-1.422.073-2.109.839-2.273l-.18,1.7.182.021c.04-.251.087-.5.119-.753.081-.651.146-1.3.241-1.954.015-.1.157-.184.24-.274a2.151,2.151,0,0,1,.1.322c.022.146.02.3.033.507.38-.5.456-1.118,1.053-1.347l.2.536,1.547-1.8-.1-.1-.8.618-.1-.063a1.723,1.723,0,0,1,.152-.524,5.026,5.026,0,0,1,2.437-2.045c.275-.1.672-.033.665-.512,0-.044.125-.1.2-.133.66-.309,1.318-.618,1.983-.916a5.923,5.923,0,0,1,.632-.192c-.384.928-1.21,1.085-1.823,1.516a6.375,6.375,0,0,0,3-1.488c.476-.51.87-1.094,1.311-1.636a1.426,1.426,0,0,1,.311-.219c.066.113.183.222.191.338a5.031,5.031,0,0,1-.039.724.862.862,0,0,0,.17-.062,2.713,2.713,0,0,0,.338-.249,5.6,5.6,0,0,0,1.473-2.271,23.58,23.58,0,0,0,.577-2.45c.124-.538.31-.6.7-.269a6.226,6.226,0,0,1,.12-1.268,18.83,18.83,0,0,1,.795-2.082,2.637,2.637,0,0,0,.194-1.478c-.021-.147-.059-.36.019-.442.337-.356.194-.756.164-1.149-.015-.189-.039-.379-.06-.567a1.287,1.287,0,0,1,.689,1.21c-.013.725-.03,1.449-.046,2.21a1.577,1.577,0,0,0,.122-.174,6.928,6.928,0,0,0,.741-3.7,10.417,10.417,0,0,1,.082-1.506c.022-.306.179-.292.433-.153a10.934,10.934,0,0,0-.777-1.664c-.525-.873-1.113-1.707-1.643-2.577a2.912,2.912,0,0,0-1.478-1.313c-.233-.088-.452-.22-.677-.331a1.742,1.742,0,0,1,1.876.194c-.626-.854-1.263-1.686-1.905-2.514-.36-.466-.705-.946-1.1-1.379-.5-.543-1.056-1.033-1.569-1.562a9.806,9.806,0,0,0-3.442-2.631.388.388,0,0,0-.3-.018c-.31.216-.56.073-.809-.1a11.756,11.756,0,0,0-4.624-2.193c-.964-.179-1.93-.287-2.9-.415a6.1,6.1,0,0,0-.683-.019.577.577,0,0,0,.187.229c.145.164.278.339.417.509a4.449,4.449,0,0,1-.614.094,11.926,11.926,0,0,0-2.62.063,10.841,10.841,0,0,0-2.522,1.206c-.2.112-.437.489-.388.669a5.359,5.359,0,0,1-.006,2.369,10.246,10.246,0,0,1-1.549,3.27.872.872,0,0,1-.172-.955c.206-.461.441-.906.664-1.359a1.894,1.894,0,0,0-.182-1.83,3.262,3.262,0,0,1-.271.406c-.184.206-.338.145-.453-.085-.358-.71-.7-1.428-1.082-2.127a5.069,5.069,0,0,0-.521-.675c-.026.13.035.226.023.312-.021.139-.066.367-.142.385a.491.491,0,0,1-.423-.131,7.036,7.036,0,0,0-3.182-2.182c-.059-.024-.142.01-.256.021l.286.534c-.081.02-.113.039-.13.03a1.173,1.173,0,0,1-.25-.15,2.294,2.294,0,0,0-1.713-.562c-.658.028-1.316.075-1.975.087a4.186,4.186,0,0,0-1.826.409c-.511.254-.642.154-.657-.412-1.506-.023-2.81.762-4.246,1.04.093.065.194.063.269.106a1.979,1.979,0,0,1,.281.24c-.095.063-.184.17-.285.187a4.294,4.294,0,0,1-3.715-1.163,10.642,10.642,0,0,0-1.028-.727c-.38-.263-.753-.538-1.146-.778a13.358,13.358,0,0,0-1.812-1.031,27.467,27.467,0,0,0-2.75-.91,9.313,9.313,0,0,0-1.639-.336,22.081,22.081,0,0,0-5.878.652,14.508,14.508,0,0,0-2.131.644,1.534,1.534,0,0,0-.371.261l.068.107.858.018-2.922,2.728c.163.1.29.132.346.215a.686.686,0,0,1,.155.424c-.016.085-.226.164-.358.188-.116.022-.245-.048-.37-.056-.7-.046-1.393-.093-2.09-.124-.251-.011-.5.046-.754.029-.12-.008-.232-.115-.348-.177.075-.1.129-.261.229-.3a9.471,9.471,0,0,1,.993-.331,4.836,4.836,0,0,0,2.24-1.519.224.224,0,0,0-.158.031,12.9,12.9,0,0,1-2.992,1.428.785.785,0,0,0-.3.156c-.966.84-2.159,1.444-2.755,2.673-.054.112-.322.242-.392.2a.617.617,0,0,1-.246-.427,2.477,2.477,0,0,1,.1-.626l-.1-.055-.94,1.3.514.105a3.3,3.3,0,0,1-.2.426,1.525,1.525,0,0,1-.362.459,2.108,2.108,0,0,1-.568.192c-.179.012-.341.157-.49.146s-.256-.192-.319-.246c-.457.368-.89.739-1.351,1.073-.1.074-.3.013-.456.014a3.693,3.693,0,0,1,.056-.44,1.581,1.581,0,0,1,.133-.294l-.092-.059c-.174.211-.489.417-.5.636-.034.9-.662,1.319-1.293,1.741a.638.638,0,0,1-.935-.12.665.665,0,0,1,.16-.964c.216-.189.434-.374.566-.487-.2-.394-.481-.7-.482-1.013a2.058,2.058,0,0,0-.3-1.216,1.515,1.515,0,0,1-.095-.362c-.028-.088-.058-.222-.12-.244-.641-.231-.782-1.192-1.634-1.116-.062.006-.126-.108-.2-.143a.862.862,0,0,0-.338-.108c-.434,0-.867.028-1.3.035a.891.891,0,0,0-.935.572,2.919,2.919,0,0,1-1.029,1.245,1.488,1.488,0,0,0-.534.758,12.714,12.714,0,0,0-.17,1.7,2.121,2.121,0,0,1-.04.54c-.053.137-.2.316-.325.327a.634.634,0,0,1-.448-.216.823.823,0,0,1-.166-.465c-.041-.569-.054-1.14-.078-1.729l-.229.078a5.3,5.3,0,0,1,.03.92c-.018.123-.21.222-.324.331-.09-.114-.229-.216-.261-.345a4.612,4.612,0,0,1-.058-.766c-.818.259-1.64.446-2.4.771-1.482.634-2.907,1.408-4.406,2a2.6,2.6,0,0,0-1.351,1.137c-.582,1.029-.989,2.156-1.514,3.221a2.317,2.317,0,0,1-.767.989c-.786.454-1.649.772-2.471,1.167-.562.271-1.106.58-1.709.9,1.1,1.035.188,1.835-.249,2.676.637.319,1.228.639,1.842.906a.728.728,0,0,0,.591-.053c.6-.384,1.168-.814,1.751-1.225.171-.12.351-.229.577-.376l.133.859.2.1a6.617,6.617,0,0,1,.5-.615,1.474,1.474,0,0,1,.409-.205,1.524,1.524,0,0,1,0,.48c-.086.265-.241.506-.339.768a5.027,5.027,0,0,0-.143.609l.128.057.8-.876c.137.486-.389.85.041,1.292a6.066,6.066,0,0,0,.764-.786c.3-.437.524-.924.8-1.381a1.346,1.346,0,0,1,.271-.259,1.961,1.961,0,0,1,.147.359,2.949,2.949,0,0,1-.006.5l.705-1.213.134.055c-.006.244-.015.489-.015.732,0,.1.02.2.029.306a1,1,0,0,0,.313-.12c.205-.176.393-.349.6-.031a5.567,5.567,0,0,0,1.821-2.379c.022-.066.106-.11.162-.164.054.068.148.133.153.2.029.436.037.874.052,1.29.249-.556.564-1.148.783-1.774s.341-1.282.506-1.927l.188,0,.157,1.939.05.007.13-1.964.1-.021.518,1.517.213-1.257a2.832,2.832,0,0,1,.144,2.149c-.34.916-.783,1.794-1.2,2.679a4.516,4.516,0,0,1-.461.638c.628-.17.628-.17.537.394a2.292,2.292,0,0,0-.03.293,2.381,2.381,0,0,1-.587,1.456c-.138.172-.271.347-.406.521a.646.646,0,0,0,.516-.111c.376-.367.719-.77,1.085-1.149a1.4,1.4,0,0,1,.313-.193c.021.112.095.247.058.335-.174.424-.366.842-.577,1.248a3.831,3.831,0,0,1-.384.513l.08.083c.2-.159.394-.331.606-.474a1.839,1.839,0,0,1,.393-.151c.046.126.144.26.126.375a1.521,1.521,0,0,1-.215.493c-.085.147-.2.279-.3.418l.083.124c.386-.178.781-.336,1.152-.539.391-.213.758-.469,1.122-.7.553.422-.1.572-.156.9l.657-.186-.475.77a2.311,2.311,0,0,0,1.427-.63,9.374,9.374,0,0,1,.96-.763,1.628,1.628,0,0,1-.607,1.242c-.062.065-.064.186-.095.28a.958.958,0,0,0,.334.066.613.613,0,0,0,.282-.173,4.284,4.284,0,0,0,1.588-2.458.564.564,0,0,1,.078-.237,1.537,1.537,0,0,1,.233-.216c.076.09.2.169.217.27a5.533,5.533,0,0,1,.028.758c.13-.268.2-.434.286-.587a2.611,2.611,0,0,1,.23-.29,1.076,1.076,0,0,1,.152.357c.011.427-.011.854-.022,1.4.705-.811.288-1.9,1-2.639l.236.721a6.929,6.929,0,0,0,.106-3.457l.175-.027.488.7.118-.046c-.1-.476-.186-.954-.294-1.427-.059-.259-.162-.507-.219-.767a.313.313,0,0,1,.1-.243c.03-.028.19.016.212.063.229.5.654,1.031.61,1.516a17.2,17.2,0,0,0-.149,2.083c.014.475-.016.95-.025,1.427l.146.04c.124-.37.24-.743.377-1.108.037-.1.146-.25.208-.244a.415.415,0,0,1,.273.21.834.834,0,0,1,.047.369c0,.315-.011.631-.018.946l.116.025a4.6,4.6,0,0,0,1.036-2.132,2.653,2.653,0,0,1,.258-.587l.138.028.232.584c.6-.389,1.328-.554,1.73-1.225a.736.736,0,0,1-.2-.1c-.094-.1-.171-.213-.255-.32a1.662,1.662,0,0,1,.388-.173,2.831,2.831,0,0,1,.46.028,5.247,5.247,0,0,0,3.4-.836,1.858,1.858,0,0,1,.42-.176c-.377.61-.729,1.174-1.072,1.742-.138.228-.156.482.086.623.064.038.313-.16.423-.3a6.964,6.964,0,0,1,1.679-1.457l-.149.528.1.08,1.268-.761a10.076,10.076,0,0,0-3.331,5.033l1.14-.97.124.083-.607.96.722-.288.108.092c-.133.233-.261.469-.4.7-.279.474-.562.943-.845,1.415l.089.054.855-.518.035.063-1.526,2.652.074.044.686-.552.079.065-.64,1.992,1.288-1,.079.09-.156.3.544-.4.107.1-1.883,2.716.161.126,1.363-1.44c-.379,1.048-1.212,1.824-1.649,2.852a1.133,1.133,0,0,0,.506-.407c.357-.562.689-1.139,1.031-1.71l.13.065-.412,1.816.353-.183a9.052,9.052,0,0,1-.219,1.716,4.134,4.134,0,0,1-1.687,2.393c-.395.243-.795.475-1.188.72a2.989,2.989,0,0,0-.318.263l.065.136,1.244-.33a4.669,4.669,0,0,1-.54.815c-.053.07-.132.194-.105.239.188.331-.056.5-.242.677s-.43.344-.658.522l.5.194-1.206,1.339c.234.2.053.364-.16.5-.165.1-.353.173-.521.271-.25.145-.492.3-.789.486l.913.02c-.11.206-.249.409-.387.407-.372,0-.437.3-.605.5s-.284.44-.458.633a8.466,8.466,0,0,0-1.67,2.509.8.8,0,0,0,.07.915c.111-.188.194-.323.271-.462.286-.514.552-1.041.862-1.54a5.854,5.854,0,0,1,.684-.85c.058-.063.214-.037.324-.053a1.652,1.652,0,0,1-.032.3.742.742,0,0,1-.122.19l.35.175c-1.054.912-1.766,2.876-1.233,3.5a7.641,7.641,0,0,1,.273-1.2,1.343,1.343,0,0,1,.536-.632c.353-.2.619,0,.627.4.007.324-.011.649-.018.974l.142.036.814-2.384.108.019.117,1.014.613-.664.128.51c.329-.525.388-1.163.828-1.575l.143.03.063,1.034.6-2.262.149.023.155,1.231c.283-.578.064-1.246.563-1.823l.339.919.293-1.913.244.885c.13-.239.2-.4.3-.546a7.382,7.382,0,0,1,.746-1.059c.2-.21.47-.335.5-.675.007-.076.143-.14.219-.208.049.1.141.2.141.3,0,.266-.045.531-.08.885.091-.11.132-.137.14-.172.2-.831.384-1.664.586-2.493a2.079,2.079,0,0,1,.2-.408,4.51,4.51,0,0,1,.2.437,1.563,1.563,0,0,1,.046.326l.112,0,.238-1.692.193-.014a4.514,4.514,0,0,1,.235.852,2.659,2.659,0,0,1-.652,1.945,3.545,3.545,0,0,0-.336.629l.175.094,1.55-2.839.146.065a6.163,6.163,0,0,1-.019.659c-.027.218-.1.43-.16.7a2.568,2.568,0,0,0,1.02-2.1c-.012-.42-.023-.841-.031-1.261,0-.184.008-.366.012-.55l.123-.037c.092.075.237.132.267.227.144.466.257.94.4,1.484a17.84,17.84,0,0,0,.272-2.807l.79,1.162a3.119,3.119,0,0,0,.088-.839c0-.309-.049-.618-.024-.923a1.285,1.285,0,0,1,.217-.426,1.455,1.455,0,0,1,.34.268,4.189,4.189,0,0,1,.295.556l.1-.026c-.062-.6-.137-1.19-.175-1.787-.009-.14.1-.286.16-.43.117.112.3.205.34.339.112.39.166.794.242,1.193.055-.861.023-1.714.01-2.568,0-.1.087-.2.134-.3.069.088.18.166.2.266.133.541.244,1.087.39,1.75l.215-2.106.2-.008.269,1.937c-.01-.655-.048-1.312-.075-1.969a8.589,8.589,0,0,1-.011-1.132,2.21,2.21,0,0,1,.238-.6l.085.033-.109-1.24.156-.025c.552.479.49,1.229.788,1.828-.082-.531-.222-1.05-.313-1.578a2.428,2.428,0,0,1,.063-.642l.127,0a.5.5,0,0,1-.019-.123c.014-.14.035-.277.054-.415a1.245,1.245,0,0,1,.362.228,8.008,8.008,0,0,1,.449.752l.32-.6.322.315.082-.577.348.25a2.781,2.781,0,0,1,.064-.526,1.19,1.19,0,0,1,.234-.309c.083.1.221.187.24.3.054.3.059.607.084.927.47-.077.558.282.674.6a.813.813,0,0,1,.177-.064c.142-.011.283-.01.427-.013a2.349,2.349,0,0,1-.049.472.458.458,0,0,1-.223.241.346.346,0,0,0-.184.485c.073.217.165.426.257.659l.563-.7.165.047a3.887,3.887,0,0,1,.028.663c-.05.428-.15.848-.2,1.274-.012.1.083.215.157.389l.484-.9a2.031,2.031,0,0,1,.164,1.044,1.009,1.009,0,0,0,.38,1.1,8.96,8.96,0,0,0,.869.792,12.351,12.351,0,0,0,1.165.66,3.125,3.125,0,0,0-.25-.681.429.429,0,0,1,.03-.371c.063-.061.254-.029.369.015.154.06.279.2.435.25.631.219,1.263.438,1.9.623a9.231,9.231,0,0,0,3.209.146c.015,0,.024-.042.037-.065-.016-.023-.025-.057-.047-.067a2.216,2.216,0,0,1-.377-.176c-.089-.063-.21-.192-.194-.266s.161-.163.267-.21a.487.487,0,0,1,.249,0,4.571,4.571,0,0,0,3.208-.735,8.923,8.923,0,0,0,2.923-2.536c.23-.385.482-.758.743-1.124a2.4,2.4,0,0,1,.355-.332l.123.089a5.477,5.477,0,0,0-.4,1.074,4.411,4.411,0,0,1-1.783,2.759l-.288.235.061.1a7.824,7.824,0,0,0,1.417-.488,24.024,24.024,0,0,0,2.244-1.464,11.5,11.5,0,0,0,1-.951,1.812,1.812,0,0,1,.313-.193,1.042,1.042,0,0,1-.035.376,5.763,5.763,0,0,1-1.229,2.067.468.468,0,0,0,.247-.128c.388-.438.791-.865,1.145-1.33a8.478,8.478,0,0,0,1.6-3.307.892.892,0,0,1,.131-.351,1.692,1.692,0,0,1,.34-.258,1.273,1.273,0,0,1,.182.372,5.111,5.111,0,0,1-.006.691l-.068-.133a19.32,19.32,0,0,0,1.583-1.295,9.805,9.805,0,0,1,4.19-2.391.544.544,0,0,1,.7.251c-1.1.873-2.416,1.467-3.249,2.646a11.078,11.078,0,0,0-1.449,3.971c1.834-1.771,3.324-2.729,3.9-2.445-1.9,1.534-3.312,3.321-3.15,5.973.723-.577,1.085-1.533,2.075-1.739a4.194,4.194,0,0,1-.443.85c-.121.187-.266.359-.395.542a6.976,6.976,0,0,0-1.052,3.29,5.446,5.446,0,0,0,.4,3.086c.091.189.209.367.348.606.321-.571.605-1.051,1.39-1.136a7.463,7.463,0,0,0-1.129,4.5c.276-.351.48-.628.7-.889s.462-.521.711-.764a1.035,1.035,0,0,1,.315-.142.963.963,0,0,1-.014.373,9.152,9.152,0,0,0-.741,4.188,11.871,11.871,0,0,0,.388,2.083c.1-.782.1-1.539.137-2.3A1.352,1.352,0,0,1,8433.322,13586.18Zm-22.592,2.339.188-.02a6.3,6.3,0,0,1,.655-3.646,2.226,2.226,0,0,1,.215.563c.054.7.1,1.395.1,2.092,0,.56-.1,1.117-.122,1.677a4.951,4.951,0,0,0,.074.745l.159.006.622-3.221c.7.886.4,1.976.606,3.046a1.1,1.1,0,0,0,.111-.224c.1-.732.181-1.467.3-2.2.029-.178.14-.451.263-.481.267-.068.306.189.344.408.049.285.13.565.2.847l.114-.024c-.076-.451-.178-.9-.22-1.353a6.6,6.6,0,0,1,.021-1.119c0-.074.141-.139.216-.206a.957.957,0,0,1,.175.211,3.143,3.143,0,0,1,.121.406l.148-.042c-.344-.958.162-2.109-.833-3.033l-.139,2.212-.2,0c-.052-.466-.088-.934-.161-1.4-.09-.569-.21-1.134-.317-1.7l-.149.01-.535,1.281-.137-.025c.007-.315.029-.633.015-.948-.012-.29.156-.626-.2-.908-.159.692.083,1.418-.4,2.078-.445-.571-.229-1.2-.343-1.791a1.739,1.739,0,0,0-.463,1.712,1.428,1.428,0,0,1-.054.731,7.936,7.936,0,0,0-.531,3.383A8.324,8.324,0,0,0,8410.73,13588.519Zm-40.9-41.795c.268-.145.65-.229.7-.4a1.563,1.563,0,0,1,.524-.964c.038-.028.034-.121.038-.186a.609.609,0,0,1,.668-.632.66.66,0,0,1,.433.188c.052.06-.051.255-.081.385a2.632,2.632,0,0,1,.8.37.567.567,0,0,0,.638.108c.313-.086.582-.559.465-.78-.1-.191-.211-.38-.323-.579a.752.752,0,0,1-.834-.544.291.291,0,0,0-.162-.164,1.78,1.78,0,0,0-2.058.624A3.639,3.639,0,0,0,8369.827,13546.724Zm39.05,30.437-.121.082a1.164,1.164,0,0,0,.131.261,3.92,3.92,0,0,1,.855,1.612,2.758,2.758,0,0,0,.544,1.074,3.042,3.042,0,0,0,.967.606c.094.045.269-.074.406-.118-.073-.117-.121-.3-.223-.34a2.34,2.34,0,0,1-1.315-1.632A2.948,2.948,0,0,0,8408.877,13577.16Zm5.468,4.368c-.089-.078-.141-.162-.21-.18a2.879,2.879,0,0,1-1.855-1.806,8.237,8.237,0,0,0-.431-.817c-.142-.219-.346-.348-.576-.16.183.346.348.662.518.977a6.839,6.839,0,0,0,.639,1.128,5.426,5.426,0,0,0,1.08.963A.591.591,0,0,0,8414.345,13581.528Zm-5.1-1.905-.526-.8c-.281-.43-.54-.879-.852-1.286a7.917,7.917,0,0,0-.888-.932c-.062-.059-.228-.008-.346-.007a1.564,1.564,0,0,0,.131.3,7.755,7.755,0,0,1,.567.76,5.136,5.136,0,0,0,1.088,1.624C8408.7,13579.521,8409,13579.714,8409.246,13579.623Zm-3.554-7.8-.11-.042a3.191,3.191,0,0,0-.336.482,3.846,3.846,0,0,1-1.661,1.837c-.025.014-.06.024-.07.045-.049.105-.091.214-.135.32a3.6,3.6,0,0,0,.36.116.277.277,0,0,0,.158-.049,3.167,3.167,0,0,0,1.774-2.115A3.011,3.011,0,0,0,8405.692,13571.822Zm-.377,2.3-.11-.056a2.572,2.572,0,0,0-.331.338,3.261,3.261,0,0,1-1.85,1.5c-.108.028-.178.205-.266.312a1.237,1.237,0,0,0,.373.1,2.68,2.68,0,0,0,2.169-1.746A1.89,1.89,0,0,0,8405.315,13574.123Zm10.863,8.569a.774.774,0,0,0-.057-.176c-.467-.709-.934-1.417-1.408-2.12a.609.609,0,0,0-.242-.226.346.346,0,0,0-.3.006.335.335,0,0,0-.017.295,3.531,3.531,0,0,0,.292.554c.3.472.586.952.916,1.4A.637.637,0,0,0,8416.179,13582.692Zm30.581,7.681c.368-.17.7-.338,1.05-.482a2.155,2.155,0,0,0,1.266-1.267.989.989,0,0,0,.012-.3c-.091.037-.215.048-.27.115a3.559,3.559,0,0,1-1.555,1.1,2.049,2.049,0,0,0-.6.431c-.06.055-.049.205-.037.309C8446.628,13590.32,8446.725,13590.351,8446.76,13590.373Zm-36.2-.938c-.128.643-.243,1.158-.331,1.679a7.982,7.982,0,0,0-.134,1.159.562.562,0,0,0,.521.622C8410.476,13591.75,8411.052,13590.646,8410.562,13589.435Zm-1.865-1.564a1.079,1.079,0,0,0,.095-.189c.113-.726.242-1.449.326-2.179a6.05,6.05,0,0,0-.035-.966l-.172.006C8408.73,13585.617,8407.855,13586.634,8408.7,13587.87Zm-5.388-8.462a1.053,1.053,0,0,0-.209-.014c-.788.156-1.576.313-2.362.48-.065.014-.171.132-.161.15a.5.5,0,0,0,.2.23A2.569,2.569,0,0,0,8403.309,13579.408Zm.426-1.186-.067-.132-.855.252c-.479.142-.96.275-1.434.43a2.083,2.083,0,0,0-.388.217c.13.082.255.224.391.234a3.332,3.332,0,0,0,2.236-.8C8403.675,13578.387,8403.7,13578.293,8403.734,13578.223Zm45.939,6.808c-.28.177-.491.326-.716.447-.524.285-1.059.554-1.583.839a2.166,2.166,0,0,0-.315.256c.133.057.275.18.394.158a2.937,2.937,0,0,0,2.188-1.456A.955.955,0,0,0,8449.674,13585.03Zm-92.9-26.059a2.5,2.5,0,0,0-.339-.467c-.557-.487-.562-.479-.142-1.073a.5.5,0,0,0,.037-.113c-1.351.41-1.215.4-.56,1.4a2.365,2.365,0,0,0,.244.288C8356.238,13559.247,8356.474,13559.308,8356.77,13558.972Zm47.866,17.6-.1-.109c-.12.059-.237.124-.36.172-.607.238-1.22.465-1.824.711a2.2,2.2,0,0,0-.374.251c.142.065.285.2.422.186a3.045,3.045,0,0,0,1.938-.792A2.6,2.6,0,0,0,8404.636,13576.576Zm43.239,15.18-1.834,2.38.17.149c.524-.513,1.063-1.012,1.567-1.543A.793.793,0,0,0,8447.875,13591.756Zm-31.509-10.625a2.589,2.589,0,0,0,1.294,2.237.308.308,0,0,0,.282-.072.327.327,0,0,0-.058-.287C8417.37,13582.358,8416.843,13581.717,8416.366,13581.131Zm-13.7.3-.015-.117c-.3.018-.605.045-.908.054-.515.016-1.029.017-1.543.032a2.544,2.544,0,0,0-.369.065c.092.118.166.314.279.34A3.29,3.29,0,0,0,8402.666,13581.431Zm-2.484,2.693,0-.133a2.836,2.836,0,0,0-.5-.125c-.5-.035-1-.061-1.5-.061-.127,0-.253.109-.38.168.107.093.208.255.322.266.553.044,1.109.06,1.665.057A1.184,1.184,0,0,0,8400.182,13584.124Zm1.259-1.279-.04-.15c-.144,0-.287-.01-.432-.009-.529,0-1.061,0-1.591.017a1.623,1.623,0,0,0-.361.092c.093.105.181.3.279.3a15.943,15.943,0,0,0,1.7.014C8401.149,13583.1,8401.292,13582.937,8401.44,13582.845Zm-5.819,3.089c-.044.252.105.457.531.63.627.254,1.47.19,1.692-.124Zm1.3-1.168c.08.362.217.459.706.533.9.135,1.314.053,1.54-.36Zm20.346-3.625c-.112.429.991,1.629,1.621,1.474Zm-32.083-15.483c.52-.386.954-.7,1.376-1.031a1.441,1.441,0,0,0,.237-.328c-.141-.012-.334-.088-.415-.023a14.392,14.392,0,0,0-1.11.989C8385.205,13565.329,8385.221,13565.48,8385.186,13565.657Zm11.984,21.842c-.569-.169-1.092-.327-1.618-.474a.188.188,0,0,0-.164.088.313.313,0,0,0,.035.227A1.4,1.4,0,0,0,8397.17,13587.5Zm21.925-6.357a1.638,1.638,0,0,0,.574,1.3.679.679,0,0,0,.784.279Zm29.11,6.261-.124-.122c-.478.34-.957.677-1.427,1.026a.162.162,0,0,0,.217.24,8.668,8.668,0,0,0,.937-.624A2.685,2.685,0,0,0,8448.205,13587.4Zm-63.13,2.81c.6.008,1.24-.74,1.13-1.177-.014-.057-.269-.123-.287-.1C8385.641,13589.33,8385.384,13589.736,8385.075,13590.212Zm4.145-30.508a1.883,1.883,0,0,0-2.087.954Zm-9.315,26.328,1.685-1.4C8381.187,13584.367,8380.19,13585.1,8379.9,13586.032Zm5.8-17.055c-.506.056-.7.454-.88.859a1.075,1.075,0,0,0-.092,1.02Zm62.18,21.736c-.21-.185-.429-.073-.632.1-.42.354-.725,1-.61,1.3Zm-60.841-.9c.738-.142,1.272-1.174.932-1.618Zm-1.207-23.721c-.606-.041-1.437.839-1.282,1.178Zm2.659-5c-.468-.344-1.756.318-1.919.89Zm15.709,34.386c-.1.544-.205,1.088-.3,1.633-.01.063.059.138.092.207.086-.054.216-.086.253-.163A1.8,1.8,0,0,0,8404.207,13595.483Zm-18.5-31.719,1.741-1.176C8386.766,13562.5,8385.7,13563.22,8385.712,13563.765Zm37.772,18.508c-.128.426.184.856.758,1.017a1.008,1.008,0,0,0,.343-.035c-.057-.111-.087-.256-.176-.326C8424.12,13582.7,8423.81,13582.5,8423.484,13582.272Zm-12.083,14a2.342,2.342,0,0,0,0-1.81A2.168,2.168,0,0,0,8411.4,13596.269Zm-26.717-27.442,1.248-1.449C8385.307,13567.442,8384.512,13568.43,8384.685,13568.826Zm10.853,19.292c-.324-.133-.646-.271-.974-.395-.045-.016-.163.037-.17.072a.332.332,0,0,0,.051.227A.847.847,0,0,0,8395.537,13588.118Zm-16.9,1.162c.316-.312.562-.543.786-.793.016-.019-.11-.241-.171-.242C8378.97,13588.241,8378.582,13588.8,8378.633,13589.28Zm-11.095-23.116c.409.021.916-.52.861-.837-.009-.048-.051-.121-.086-.127a.222.222,0,0,0-.183.046C8367.936,13565.53,8367.755,13565.824,8367.538,13566.164Zm22.367,20.344a.878.878,0,0,0-.508,1.23Zm14.444,11.509c-.357-.013-.772.287-.789.57,0,.068.209.221.228.207A1.157,1.157,0,0,0,8404.35,13598.017Zm18.691-23.8-.074-.147-1.161.66A1.117,1.117,0,0,0,8423.041,13574.212Zm-28.884,14.547a4.76,4.76,0,0,0-.424-.331,1.858,1.858,0,0,0-.348-.134c.03.158.008.367.1.464A.429.429,0,0,0,8394.157,13588.759Zm-2.33,1.518c.158-.173.309-.295.293-.325a4.907,4.907,0,0,0-.371-.518c-.09.105-.268.23-.249.311A2.1,2.1,0,0,0,8391.827,13590.276Zm17.618-9.519-.627,1.077.113.066C8409.264,13581.614,8409.646,13581.357,8409.445,13580.758Zm-30.112,6.687.9-.8A1.036,1.036,0,0,0,8379.333,13587.444Zm45.393-4.709c-.077.438.206.761.559.69.061-.012.159-.062.161-.1a.261.261,0,0,0-.083-.205C8425.171,13582.989,8424.964,13582.877,8424.726,13582.735Zm-35.587-16.8-.117-.042a1.047,1.047,0,0,0-.271,1.227Zm-22.691-.06c.405.263.754,0,.8-.645Zm12.295,23.894c-.152.3-.277.538-.387.782-.007.015.11.084.171.127.117-.245.236-.491.353-.736C8378.882,13589.933,8378.863,13589.918,8378.742,13589.767Zm40.476-15.4-.056-.123-1.091.424.046.116A1.261,1.261,0,0,0,8419.218,13574.371Zm-34.118-2.178.315-.984C8384.915,13571.468,8384.82,13571.762,8385.1,13572.193Zm27.778,21.318.128,0,.024-1.121-.185,0Zm-34.573-.405-.232-.3a1.668,1.668,0,0,0-.254.411c-.022.076.1.192.157.29Zm24.5-9.741c.522.129.67.034.78-.479Zm-24.663,8.818.148.021.085-.632C8377.972,13591.735,8377.946,13591.946,8378.143,13592.184Zm15.018-3.071-.26-.318c-.078.1-.218.192-.218.289s.138.2.214.293Zm8.79-4.836.045.222.691-.17-.048-.208Zm54.4,3.5.1,0-.09-1.237a9.533,9.533,0,0,0-.062,1.127C8456.3,13587.705,8456.331,13587.741,8456.348,13587.776Z" fill="#2b4937"/>
      <path id="Caminho_662" data-name="Caminho 662" d="M8379.375,13548.6a2.519,2.519,0,0,1-.885,2.063c-.13.122-.374.123-.565.18.035-.187.067-.376.107-.562.012-.054.048-.1-.029-.113-.125-.257-.237-.522-.379-.77-.1-.172-.213-.393-.372-.453-.126-.049-.37.075-.494.194-.223.213-.483.426-.416.814a.346.346,0,0,1-.176.29.411.411,0,0,1-.362-.1,2.74,2.74,0,0,1-.448-.965,3.857,3.857,0,0,1,.814-2.715,1.405,1.405,0,0,1,1.658-.486,9.831,9.831,0,0,1,1.743,1.142,1.2,1.2,0,0,1,.269,1.394C8379.728,13548.747,8379.606,13548.869,8379.375,13548.6Z" fill="#2b4937"/>
      <path id="Caminho_663" data-name="Caminho 663" d="M8368.782,13554.6c-.775,1.182-1.105,1.237-2.708.513-.158.328-.4.312-.664.152a1.748,1.748,0,0,1-.157-2.433,1.012,1.012,0,0,1,.645-.221,13.269,13.269,0,0,1,2.461.43,2.7,2.7,0,0,1,1.42,1.633c.065.144-.1.394-.16.594a2.627,2.627,0,0,1-.512-.244A2.046,2.046,0,0,1,8368.782,13554.6Zm-2.171-.535c.194.153.329.339.432.322.135-.021.245-.2.366-.311a2.156,2.156,0,0,0-.449-.284C8366.9,13553.772,8366.788,13553.921,8366.611,13554.064Z" fill="#2b4937"/>
      <path id="Caminho_664" data-name="Caminho 664" d="M8435.152,13547.686c.171-.082.382-.259.473-.21a.685.685,0,0,1,.25.469,11.845,11.845,0,0,1,.116,1.464,1.148,1.148,0,0,1-.6,1.043,1.186,1.186,0,0,1-.434.056c0-.142-.047-.317.017-.423a2.018,2.018,0,0,0,.271-1.348,9.644,9.644,0,0,1-.386.987c-.053.1-.269.124-.409.184-.011-.141-.073-.3-.024-.416a3.609,3.609,0,0,0,.22-1.816c-.006-.069-.031-.152,0-.207a2.5,2.5,0,0,1,.22-.312,1.309,1.309,0,0,1,.236.253A.863.863,0,0,1,8435.152,13547.686Z" fill="#2b4937"/>
      <path id="Caminho_665" data-name="Caminho 665" d="M8454.91,13565.577a1,1,0,0,1-.06,1.229.989.989,0,0,0-.148.785c.241,1.212-.99,2.785-2,3.17-.081.031-.2-.036-.3-.058.022-.1.013-.229.072-.3.194-.221.42-.412.622-.625a3.55,3.55,0,0,0,1.017-1.758c.039-.2.184-.431-.131-.562-.033-.014-.047-.164-.017-.225.257-.527.524-1.049.792-1.571C8454.772,13565.636,8454.824,13565.625,8454.91,13565.577Z" fill="#2b4937"/>
      <path id="Caminho_666" data-name="Caminho 666" d="M8455.329,13568.332a4.45,4.45,0,0,1,.081.465c.035.459.068.919.082,1.379a.888.888,0,0,1-.1.405,3,3,0,0,1-1.808,1.527c-.142.046-.34-.085-.512-.135a1.769,1.769,0,0,1,.3-.335,3.228,3.228,0,0,0,1.243-1.551c.188-.48.309-.989.461-1.484.029-.1.068-.187.1-.281Z" fill="#2b4937"/>
      <path id="Caminho_667" data-name="Caminho 667" d="M8422.645,13543.417c-1.047.416-2.074.893-3.148,1.217a3.672,3.672,0,0,1-1.471-.132c-.084-.012-.147-.169-.22-.26.105-.076.225-.23.313-.215a5.208,5.208,0,0,0,2.742-.609,3.07,3.07,0,0,1,1.754-.138Z" fill="#2b4937"/>
      <path id="Caminho_668" data-name="Caminho 668" d="M8365.046,13551.852a2.8,2.8,0,0,1-.2.509c-.056.087-.187.126-.286.187-.061-.1-.17-.2-.176-.3a1.444,1.444,0,0,1,1.125-1.3,3.071,3.071,0,0,0,.743-.376l.023.423c.291-.169.5-.656.89-.254l.793-.417.15.191a10.355,10.355,0,0,1-.78.809c-.057.049-.272-.087-.4-.171-.327-.042-.4.812-.953.217a4.122,4.122,0,0,0-.244.426C8365.534,13552.254,8365.408,13552.277,8365.046,13551.852Z" fill="#2b4937"/>
      <path id="Caminho_669" data-name="Caminho 669" d="M8447.787,13572.954a1.555,1.555,0,0,1-1.316.721c-.529-.01-1.062-.125-1.587-.093a16.254,16.254,0,0,0-1.632.284,2.3,2.3,0,0,1-.455-.011c.077-.141.121-.326.238-.412a3.764,3.764,0,0,1,2.5-.454c.608.017,1.217-.028,1.826-.044C8447.471,13572.943,8447.579,13572.949,8447.787,13572.954Z" fill="#2b4937"/>
      <path id="Caminho_670" data-name="Caminho 670" d="M8419.928,13570.569a4.227,4.227,0,0,1-.544.845,3.194,3.194,0,0,1-2.577,1.007,2.9,2.9,0,0,1-.8-.239c-.085-.035-.123-.187-.183-.284.094-.047.186-.095.281-.137a.144.144,0,0,1,.083,0c1.415.354,2.441-.438,3.488-1.177a1.119,1.119,0,0,1,.168-.083Z" fill="#2b4937"/>
      <path id="Caminho_671" data-name="Caminho 671" d="M8448.766,13568.806a.767.767,0,0,1-.3-.065,2.133,2.133,0,0,1-.319-.33c.131-.072.263-.206.392-.2a1.832,1.832,0,0,0,1.268-.576c.353-.315.654-.687.99-1.021a.95.95,0,0,1,.309-.14c.029.1.1.2.083.289a3.268,3.268,0,0,1-2.229,2.029C8448.905,13568.795,8448.85,13568.8,8448.766,13568.806Z" fill="#2b4937"/>
      <path id="Caminho_672" data-name="Caminho 672" d="M8454.409,13563.938a2.317,2.317,0,0,1-1.247,2.217,1.11,1.11,0,0,1-.515.138.345.345,0,0,1-.273-.192.333.333,0,0,1,.158-.287,2.747,2.747,0,0,0,1.5-2.149,1.772,1.772,0,0,1,.231-.419c.045.146.1.293.133.441A1.345,1.345,0,0,1,8454.409,13563.938Z" fill="#2b4937"/>
      <path id="Caminho_673" data-name="Caminho 673" d="M8433.169,13575.856c-.155.173-.307.349-.465.519a3.975,3.975,0,0,0-1.223,2.475c-.009.126-.171.241-.262.362-.083-.1-.218-.186-.241-.3a3.585,3.585,0,0,1,1.884-3.137,1.075,1.075,0,0,1,.239-.02Z" fill="#2b4937"/>
      <path id="Caminho_674" data-name="Caminho 674" d="M8451.413,13571.561a3.248,3.248,0,0,1-.047.576,3.212,3.212,0,0,1-2.419,1.987,1.181,1.181,0,0,1-.407-.127c.081-.1.142-.247.247-.289a4.388,4.388,0,0,0,2.239-1.89.575.575,0,0,1,.146-.15A1.57,1.57,0,0,1,8451.413,13571.561Z" fill="#2b4937"/>
      <path id="Caminho_675" data-name="Caminho 675" d="M8397.159,13569.686l.255-2.049a2.181,2.181,0,0,1,.254,1.747c-.088.294-.233.542-.556.538-.1.424-.168.838-.3,1.232-.044.129-.247.2-.379.3a1.941,1.941,0,0,1-.058-.449c.054-.5.126-1,.205-1.493a1.825,1.825,0,0,1,.132-.354c.078.1.161.2.231.306a.873.873,0,0,1,.068.2Z" fill="#2b4937"/>
      <path id="Caminho_676" data-name="Caminho 676" d="M8440.053,13543.512c.521.21,1.012.4,1.49.612a.555.555,0,0,1,.279.3,3.839,3.839,0,0,1,.09.665c-.187-.074-.376-.142-.56-.224-.428-.19-.852-.389-1.277-.58-.037-.017-.084-.01-.124-.024-.229-.08-.634,0-.567-.377C8439.411,13543.737,8439.788,13543.651,8440.053,13543.512Z" fill="#2b4937"/>
      <path id="Caminho_677" data-name="Caminho 677" d="M8455.9,13562.156a18.762,18.762,0,0,0,.256-1.89,17.863,17.863,0,0,0-.121-1.863l.1-.054a1.549,1.549,0,0,1,.262.3,4.318,4.318,0,0,1,.189,2.718A.924.924,0,0,1,8455.9,13562.156Z" fill="#2b4937"/>
      <path id="Caminho_678" data-name="Caminho 678" d="M8458.808,13559.368c0,.042.013.091,0,.125-.078.149-.165.3-.248.443a1.676,1.676,0,0,1-.307-.434,3.842,3.842,0,0,1-.047-.625c-.028-.214.029-.48-.307-.541-.062-.011-.128-.147-.147-.236a8.127,8.127,0,0,1-.194-1.029c-.011-.118.119-.248.185-.373.1.075.207.148.31.225.01.008.012.025.018.038.212.54.177,1.16.614,1.636.151.164.11.506.156.767Z" fill="#2b4937"/>
      <path id="Caminho_679" data-name="Caminho 679" d="M8450.756,13570.188c.215.449.154.786-.1.991a17.047,17.047,0,0,1-1.5,1.041.413.413,0,0,1-.323.049,2.284,2.284,0,0,1-.425-.26,3.869,3.869,0,0,1,.344-.291c.518-.346,1.049-.674,1.559-1.03A3.152,3.152,0,0,0,8450.756,13570.188Z" fill="#2b4937"/>
      <path id="Caminho_680" data-name="Caminho 680" d="M8413.15,13544.188c.731.929,1.839.884,2.839,1.121a1.868,1.868,0,0,1,.37.179,1.749,1.749,0,0,1-.372.167,3.477,3.477,0,0,1-2.269-.384,1.736,1.736,0,0,1-.575-.47,1.619,1.619,0,0,1-.151-.566Z" fill="#2b4937"/>
      <path id="Caminho_681" data-name="Caminho 681" d="M8440.595,13581.219a6.9,6.9,0,0,0-2.151,2.939C8437.833,13583.315,8439.2,13581.359,8440.595,13581.219Z" fill="#2b4937"/>
      <path id="Caminho_682" data-name="Caminho 682" d="M8446.291,13575.144c-.225-.125-.637-.246-.639-.375-.006-.391.395-.269.646-.328.543-.131,1.084-.271,1.631-.386a1.262,1.262,0,0,1,.405.051,1.281,1.281,0,0,1-.2.363A3.422,3.422,0,0,1,8446.291,13575.144Z" fill="#2b4937"/>
      <path id="Caminho_683" data-name="Caminho 683" d="M8432.308,13554.71a6.605,6.605,0,0,1,.561-.878,3.718,3.718,0,0,0,1.033-1.506c.021-.093.169-.154.259-.23.063.111.191.232.176.331a2.252,2.252,0,0,1-.239.836,4.251,4.251,0,0,1-1.673,1.527Z" fill="#2b4937"/>
      <path id="Caminho_684" data-name="Caminho 684" d="M8457.255,13559.014c.888.554.748,2.363,0,2.908a.294.294,0,0,1-.259.036.257.257,0,0,1-.062-.244,4.878,4.878,0,0,0,.265-2.553A.566.566,0,0,1,8457.255,13559.014Z" fill="#2b4937"/>
      <path id="Caminho_685" data-name="Caminho 685" d="M8404.861,13559.488a2.206,2.206,0,0,1-.3.768,11.954,11.954,0,0,1-1.3,1.1.534.534,0,0,1-.395.093,1.915,1.915,0,0,1-.461-.246c.124-.083.253-.158.371-.248.506-.383,1.013-.767,1.511-1.158a4.9,4.9,0,0,0,.4-.395Z" fill="#2b4937"/>
      <path id="Caminho_686" data-name="Caminho 686" d="M8388.922,13583.04a1.433,1.433,0,0,1,.095.271c.04.625-1,1.746-1.614,1.711a.564.564,0,0,1-.429-.3c-.069-.264.165-.257.373-.3a1.18,1.18,0,0,0,.521-.321C8388.218,13583.776,8388.547,13583.423,8388.922,13583.04Z" fill="#2b4937"/>
      <path id="Caminho_687" data-name="Caminho 687" d="M8415.081,13546.845a2.791,2.791,0,0,1-2.7-.756.99.99,0,0,1-.237-.385.292.292,0,0,1,.09-.243.223.223,0,0,1,.219.021,4.557,4.557,0,0,0,2.112,1.124C8414.739,13546.675,8414.908,13546.764,8415.081,13546.845Z" fill="#2b4937"/>
      <path id="Caminho_688" data-name="Caminho 688" d="M8397.1,13542.37a10.291,10.291,0,0,1,1.09-.841,5.319,5.319,0,0,1,1.152-.457c.234-.071.53-.036.573.261s-.241.351-.477.417c-.763.213-1.521.439-2.279.66Z" fill="#2b4937"/>
      <path id="Caminho_689" data-name="Caminho 689" d="M8434.1,13570.294c.014.8-2.1,2.613-2.832,2.375Z" fill="#2b4937"/>
      <path id="Caminho_690" data-name="Caminho 690" d="M8409.2,13541.958a2.665,2.665,0,0,1,1.4,1.022,2.26,2.26,0,0,1,.243.642,3.145,3.145,0,0,1-.633-.266c-.4-.277-.775-.589-1.147-.9-.082-.068-.184-.235-.153-.286C8408.968,13542.069,8409.111,13542.016,8409.2,13541.958Z" fill="#2b4937"/>
      <path id="Caminho_691" data-name="Caminho 691" d="M8419.417,13545.3c.266-.017.615-.051.963-.055.1,0,.2.083.3.129-.061.082-.1.2-.187.242a2.468,2.468,0,0,1-1.99.145c-.131-.04-.22-.214-.328-.325a1.461,1.461,0,0,1,.446-.194A5.083,5.083,0,0,1,8419.417,13545.3Z" fill="#2b4937"/>
      <path id="Caminho_692" data-name="Caminho 692" d="M8405.666,13540.872c-.291-.044-.584-.081-.873-.135-.546-.1-1.092-.207-1.634-.328a1.547,1.547,0,0,1-.366-.2c.123-.079.24-.212.371-.229a4.008,4.008,0,0,1,2.26.5,1.672,1.672,0,0,1,.288.221Z" fill="#2b4937"/>
      <path id="Caminho_693" data-name="Caminho 693" d="M8391.459,13557.109a1.442,1.442,0,0,1-1.293-1.084c0-.147.147-.3.227-.444a3.262,3.262,0,0,1,.376.256q.4.359.775.741a2.788,2.788,0,0,1,.254.353Z" fill="#2b4937"/>
      <path id="Caminho_694" data-name="Caminho 694" d="M8455.6,13557.706a1.6,1.6,0,0,1,.2.384,2.011,2.011,0,0,1-.442,1.769c-.087.1-.28.115-.426.171a1.72,1.72,0,0,1,0-.442c.113-.429.255-.849.379-1.275.057-.194.1-.395.143-.593Z" fill="#2b4937"/>
      <path id="Caminho_695" data-name="Caminho 695" d="M8449.806,13557.355a1.68,1.68,0,0,1-.1-.381c.019-.485.043-.972.09-1.456a.4.4,0,0,1,.2-.271c.065-.029.215.045.278.116a1.794,1.794,0,0,1-.123,1.807A1.98,1.98,0,0,1,8449.806,13557.355Z" fill="#2b4937"/>
      <path id="Caminho_696" data-name="Caminho 696" d="M8456.21,13556.34a3.034,3.034,0,0,1-.19-.32c-.229-.536-.464-1.071-.669-1.618a1.233,1.233,0,0,1,.014-.453c.139.079.332.124.4.243a10.342,10.342,0,0,1,.645,1.217A.762.762,0,0,1,8456.21,13556.34Z" fill="#2b4937"/>
      <path id="Caminho_697" data-name="Caminho 697" d="M8442.2,13575.6a1.728,1.728,0,0,1,2.586-.951A5.129,5.129,0,0,0,8442.2,13575.6Z" fill="#2b4937"/>
      <path id="Caminho_698" data-name="Caminho 698" d="M8437.556,13592.871l.218-.339c.076.115.162.226.229.348.251.462.5.926.74,1.395a3.121,3.121,0,0,1,.141.389c-.18-.012-.418.045-.529-.048A2.409,2.409,0,0,1,8437.556,13592.871Z" fill="#2b4937"/>
      <path id="Caminho_699" data-name="Caminho 699" d="M8438.534,13544.765a1.88,1.88,0,0,1-.519.142c-.53-.031-1.061-.085-1.588-.157a.347.347,0,0,1-.236-.235.367.367,0,0,1,.206-.265A3,3,0,0,1,8438.534,13544.765Z" fill="#2b4937"/>
      <path id="Caminho_700" data-name="Caminho 700" d="M8406.23,13541.623a1.54,1.54,0,0,1,1.354.871,1.172,1.172,0,0,1-.079.453,2.068,2.068,0,0,1-.421-.149c-.29-.178-.572-.371-.844-.577a2.767,2.767,0,0,1-.336-.355Z" fill="#2b4937"/>
      <path id="Caminho_701" data-name="Caminho 701" d="M8434.5,13579.295l-1.645,2.668C8432.549,13581.323,8433.636,13579.527,8434.5,13579.295Z" fill="#2b4937"/>
      <path id="Caminho_702" data-name="Caminho 702" d="M8402.295,13566.15c-.167.313-.333.657-.535.979a.337.337,0,0,1-.319.094.35.35,0,0,1-.113-.31c.1-.543.227-1.082.353-1.62.014-.054.095-.133.138-.129a.254.254,0,0,1,.192.115C8402.108,13565.535,8402.183,13565.8,8402.295,13566.15Z" fill="#2b4937"/>
      <path id="Caminho_703" data-name="Caminho 703" d="M8391.98,13579.157a3.039,3.039,0,0,1,.065.637,2.421,2.421,0,0,1-.867,1.584c-.085.074-.266.039-.4.054a2.437,2.437,0,0,1,.121-.351c.214-.419.447-.829.654-1.252a6.9,6.9,0,0,0,.254-.688Z" fill="#2b4937"/>
      <path id="Caminho_704" data-name="Caminho 704" d="M8405.351,13564.346a1.566,1.566,0,0,1-.1.42,3.309,3.309,0,0,1-1.516,1.327c-.084.042-.224-.027-.338-.046.021-.089.011-.214.066-.261.593-.5,1.2-.984,1.8-1.473Z" fill="#2b4937"/>
      <path id="Caminho_705" data-name="Caminho 705" d="M8398.159,13571.354a1.783,1.783,0,0,1-.974,1.521.265.265,0,0,1-.253-.024.282.282,0,0,1-.048-.26c.078-.145.215-.257.3-.4.16-.26.295-.534.451-.794a4.982,4.982,0,0,1,.3-.412Z" fill="#2b4937"/>
      <path id="Caminho_706" data-name="Caminho 706" d="M8454.676,13555.024l-.3.418c-.131-.1-.323-.176-.382-.309a4.468,4.468,0,0,1-.306-1c-.022-.123.118-.274.186-.415.146.076.368.115.425.234A9.05,9.05,0,0,1,8454.676,13555.024Z" fill="#2b4937"/>
      <path id="Caminho_707" data-name="Caminho 707" d="M8401.84,13562.244a.61.61,0,0,1-.538.7,5.086,5.086,0,0,1-1.115-.04c-.094-.011-.174-.15-.26-.23.089-.09.17-.245.271-.259C8400.728,13562.338,8401.264,13562.3,8401.84,13562.244Z" fill="#2b4937"/>
      <path id="Caminho_708" data-name="Caminho 708" d="M8390.654,13580.375c.01.144.07.31.02.428-.229.534-.479,1.062-.753,1.572-.05.092-.253.1-.385.15a1.168,1.168,0,0,1,.01-.442c.216-.454.461-.894.705-1.335a4.968,4.968,0,0,1,.287-.414Z" fill="#2b4937"/>
      <path id="Caminho_709" data-name="Caminho 709" d="M8414.945,13572.8a1.779,1.779,0,0,1-2.214-.262.35.35,0,0,1-.037-.265c.014-.047.144-.1.206-.08.658.166,1.314.345,1.972.522C8414.893,13572.72,8414.907,13572.754,8414.945,13572.8Z" fill="#2b4937"/>
      <path id="Caminho_710" data-name="Caminho 710" d="M8434.052,13562.063a2.159,2.159,0,0,1-2.012,1.364C8432.055,13563.109,8433.4,13562.185,8434.052,13562.063Z" fill="#2b4937"/>
      <path id="Caminho_711" data-name="Caminho 711" d="M8403.364,13562.367a.81.81,0,0,1-.271-.057c-.087-.046-.2-.147-.2-.227a.3.3,0,0,1,.2-.219,1.7,1.7,0,0,0,1.147-.63c.076-.076.245-.061.371-.086a1.215,1.215,0,0,1,.035.4A1.459,1.459,0,0,1,8403.364,13562.367Z" fill="#2b4937"/>
      <path id="Caminho_712" data-name="Caminho 712" d="M8404.862,13562.6a1.972,1.972,0,0,1-.019.545,2.345,2.345,0,0,1-1.251,1.236c-.081.039-.235-.023-.326-.084a.277.277,0,0,1,.019-.254C8403.767,13563.584,8404.262,13563.141,8404.862,13562.6Z" fill="#2b4937"/>
      <path id="Caminho_713" data-name="Caminho 713" d="M8450.177,13568.757a.978.978,0,0,1,.258-.19,3.43,3.43,0,0,0,1.516-1.152c.067-.076.2-.1.3-.142a.806.806,0,0,1-.014.3,2.4,2.4,0,0,1-1.542,1.323,1.739,1.739,0,0,1-.5,0Z" fill="#2b4937"/>
      <path id="Caminho_714" data-name="Caminho 714" d="M8390.977,13554.427c-.732-.047-1.075-1.2-.77-1.833a.31.31,0,0,1,.224-.149.275.275,0,0,1,.212.154C8390.765,13553.205,8390.868,13553.816,8390.977,13554.427Z" fill="#2b4937"/>
      <path id="Caminho_715" data-name="Caminho 715" d="M8401.811,13540.975c.207.121.621.258.617.379-.012.36-.39.284-.651.323a6.488,6.488,0,0,1-.823.121c-.136,0-.275-.113-.412-.175.078-.117.131-.3.239-.34A10.336,10.336,0,0,1,8401.811,13540.975Z" fill="#2b4937"/>
      <path id="Caminho_716" data-name="Caminho 716" d="M8392.8,13578.37a1.822,1.822,0,0,1-.357,2.118c-.082.1-.275.107-.417.158a1.622,1.622,0,0,1,.044-.412C8392.3,13579.625,8392.545,13579.021,8392.8,13578.37Z" fill="#2b4937"/>
      <path id="Caminho_717" data-name="Caminho 717" d="M8440.335,13588.878c.036.46.056.817.094,1.171.033.3.1.6.129.905a1.316,1.316,0,0,1-.044.326,2.787,2.787,0,0,1-.348-.062c-.044-.014-.077-.079-.107-.125A2.576,2.576,0,0,1,8440.335,13588.878Z" fill="#2b4937"/>
      <path id="Caminho_718" data-name="Caminho 718" d="M8433.675,13551.327a1.8,1.8,0,0,1-.964,1.413.312.312,0,0,1-.261-.031.287.287,0,0,1,0-.26c.241-.421.489-.839.754-1.245.047-.073.218-.147.272-.116A.71.71,0,0,1,8433.675,13551.327Z" fill="#2b4937"/>
      <path id="Caminho_719" data-name="Caminho 719" d="M8389.37,13553.571c.027-.068.046-.231.138-.31a.339.339,0,0,1,.332.052c.239.4.449.82.657,1.239a1.059,1.059,0,0,1,.054.3.861.861,0,0,1-.3.021A1.557,1.557,0,0,1,8389.37,13553.571Z" fill="#2b4937"/>
      <path id="Caminho_720" data-name="Caminho 720" d="M8397.626,13573.491a.853.853,0,0,1-.3.915,10.45,10.45,0,0,1-1.081.7c-.07.041-.2-.021-.3-.033.016-.09,0-.218.053-.264C8396.522,13574.373,8397.059,13573.948,8397.626,13573.491Z" fill="#2b4937"/>
      <path id="Caminho_721" data-name="Caminho 721" d="M8424.073,13568.99c.006.146.071.332.008.435-.3.491-.634.967-.981,1.431-.053.069-.237.041-.362.058a1.183,1.183,0,0,1,.095-.323c.268-.422.549-.837.831-1.252.09-.134.194-.259.292-.387Z" fill="#2b4937"/>
      <path id="Caminho_722" data-name="Caminho 722" d="M8368.256,13556.482a1.07,1.07,0,0,1-.3.177,2.024,2.024,0,0,1-1.631-.333c-.1-.069-.112-.251-.165-.38a1.735,1.735,0,0,1,.383,0c.38.077.757.175,1.134.268.187.046.371.1.557.15Z" fill="#2b4937"/>
      <path id="Caminho_723" data-name="Caminho 723" d="M8406.8,13566.841a2.443,2.443,0,0,1-.6.467,4.127,4.127,0,0,1-1.021.174c-.079.008-.2-.1-.246-.183a.261.261,0,0,1,.113-.225c.537-.164,1.081-.309,1.623-.458Z" fill="#2b4937"/>
      <path id="Caminho_724" data-name="Caminho 724" d="M8426.6,13566.176a1.721,1.721,0,0,1-.666,1.316c-.071.06-.216.034-.326.048.008-.1-.024-.241.03-.3a2.68,2.68,0,0,0,.589-1.454c.014-.089.111-.165.17-.247a1.321,1.321,0,0,1,.174.28A1.708,1.708,0,0,1,8426.6,13566.176Z" fill="#2b4937"/>
      <path id="Caminho_725" data-name="Caminho 725" d="M8450.085,13570.116a1.831,1.831,0,0,1-1.623,1.072c-.115-.022-.212-.144-.317-.219a1.3,1.3,0,0,1,.271-.221c.446-.2.9-.383,1.349-.566A2.012,2.012,0,0,1,8450.085,13570.116Z" fill="#2b4937"/>
      <path id="Caminho_726" data-name="Caminho 726" d="M8401.709,13540.538c-.118.008-.236.01-.353.026-.5.067-.991.148-1.489.2a1.11,1.11,0,0,1-.369-.088c.08-.094.145-.249.243-.272a11.022,11.022,0,0,1,1.474-.284c.175-.018.368.146.552.228Z" fill="#2b4937"/>
      <path id="Caminho_727" data-name="Caminho 727" d="M8434.053,13578.169c-.178.2-.319.365-.464.526-.27.3-.535.608-.815.9a1.416,1.416,0,0,1-.327.19c-.024-.126-.1-.267-.063-.375A2.029,2.029,0,0,1,8434.053,13578.169Z" fill="#2b4937"/>
      <path id="Caminho_728" data-name="Caminho 728" d="M8451.348,13562.835a2.355,2.355,0,0,1-.93,2.533Z" fill="#2b4937"/>
      <path id="Caminho_729" data-name="Caminho 729" d="M8399.123,13540.338a1.412,1.412,0,0,1-.251.179c-.431.156-.862.317-1.3.447-.107.031-.246-.045-.369-.071.043-.119.051-.293.136-.35a2.006,2.006,0,0,1,1.5-.384C8398.921,13540.174,8399,13540.258,8399.123,13540.338Z" fill="#2b4937"/>
      <path id="Caminho_730" data-name="Caminho 730" d="M8373.973,13560.026c.011.23.066.39.012.48-.243.4-.511.788-.789,1.164-.046.063-.2.069-.3.056-.037,0-.1-.156-.081-.2A3.773,3.773,0,0,1,8373.973,13560.026Z" fill="#2b4937"/>
      <path id="Caminho_731" data-name="Caminho 731" d="M8382.366,13560.688c-.019-.594-.045-1.186-.044-1.778,0-.095.129-.191.2-.286.068.09.185.173.2.271a2.341,2.341,0,0,1-.2,1.8Z" fill="#2b4937"/>
      <path id="Caminho_732" data-name="Caminho 732" d="M8441.672,13578.194c-.314.646-.579,1.2-.856,1.746-.036.071-.14.109-.213.163-.058-.112-.181-.236-.164-.338a2.036,2.036,0,0,1,.817-1.365A3.2,3.2,0,0,1,8441.672,13578.194Z" fill="#2b4937"/>
      <path id="Caminho_733" data-name="Caminho 733" d="M8433.071,13584.71a6.877,6.877,0,0,1,.317-.788.367.367,0,0,1,.344-.114.386.386,0,0,1,.124.337,6.179,6.179,0,0,1-.268.919,1.237,1.237,0,0,1-.241.3,3.848,3.848,0,0,1-.251-.343C8433.066,13584.969,8433.083,13584.887,8433.071,13584.71Z" fill="#2b4937"/>
      <path id="Caminho_734" data-name="Caminho 734" d="M8391.69,13547.415a1.962,1.962,0,0,1,1.535-1.211.3.3,0,0,1,.221.146.259.259,0,0,1-.1.234C8392.822,13546.861,8392.286,13547.12,8391.69,13547.415Z" fill="#2b4937"/>
      <path id="Caminho_735" data-name="Caminho 735" d="M8405.242,13541.666a1.855,1.855,0,0,1-1.429-.217.331.331,0,0,1-.1-.312.511.511,0,0,1,.355-.214A1.25,1.25,0,0,1,8405.242,13541.666Z" fill="#2b4937"/>
      <path id="Caminho_736" data-name="Caminho 736" d="M8451.158,13553.306l-.181.322c-.087-.052-.215-.083-.255-.16a7.845,7.845,0,0,1-.461-1.021c-.036-.1.085-.257.135-.389.112.062.283.094.328.188C8450.893,13552.591,8451.019,13552.956,8451.158,13553.306Z" fill="#2b4937"/>
      <path id="Caminho_737" data-name="Caminho 737" d="M8392.241,13556.547c-.307-.231-.607-.436-.873-.679-.068-.062-.024-.245-.031-.373a.98.98,0,0,1,.375.006,5.124,5.124,0,0,1,.75.442,1.128,1.128,0,0,1,.217.312Z" fill="#2b4937"/>
      <path id="Caminho_738" data-name="Caminho 738" d="M8407.665,13564.253a2.214,2.214,0,0,1-.543.265,5.557,5.557,0,0,1-1.065.095c-.086,0-.172-.179-.258-.274.077-.068.15-.189.231-.2.521-.036,1.047-.049,1.57-.068Z" fill="#2b4937"/>
      <path id="Caminho_739" data-name="Caminho 739" d="M8399.059,13568.018a1.406,1.406,0,0,1,.1,1.031,3.83,3.83,0,0,1-.261.831c-.022.061-.151.14-.187.122-.075-.036-.18-.145-.168-.2.119-.581.258-1.158.4-1.734C8398.945,13568.05,8398.99,13568.044,8399.059,13568.018Z" fill="#2b4937"/>
      <path id="Caminho_740" data-name="Caminho 740" d="M8365.735,13557.19a.546.546,0,0,1-.808-.008,5.232,5.232,0,0,1-.614-.85.925.925,0,0,1,.229-.181C8364.941,13556.482,8365.326,13556.828,8365.735,13557.19Z" fill="#2b4937"/>
      <path id="Caminho_741" data-name="Caminho 741" d="M8400.614,13566.955c-.069.229-.134.5-.236.754-.032.08-.162.122-.247.181-.056-.084-.164-.173-.159-.254.026-.4.074-.8.135-1.2.012-.076.126-.2.176-.192a.341.341,0,0,1,.236.176A2.871,2.871,0,0,1,8400.614,13566.955Z" fill="#2b4937"/>
      <path id="Caminho_742" data-name="Caminho 742" d="M8430.178,13546.553c-.024.036-.068.17-.147.2a.33.33,0,0,1-.287-.1c-.226-.281-.433-.579-.63-.88a.231.231,0,0,1,.014-.224.364.364,0,0,1,.261-.064A1.35,1.35,0,0,1,8430.178,13546.553Z" fill="#2b4937"/>
      <path id="Caminho_743" data-name="Caminho 743" d="M8399.647,13569.488c.314.5-.1,1.448-.568,1.469-.079,0-.261-.259-.236-.3C8399.081,13570.27,8399.353,13569.9,8399.647,13569.488Z" fill="#2b4937"/>
      <path id="Caminho_744" data-name="Caminho 744" d="M8452.677,13570.844c.132.823-.634,1.641-1.241,1.379Z" fill="#2b4937"/>
      <path id="Caminho_745" data-name="Caminho 745" d="M8448.911,13557.261a6.689,6.689,0,0,1-.344.685.332.332,0,0,1-.288.077c-.047-.01-.1-.163-.093-.244a9.237,9.237,0,0,1,.16-1c.023-.1.144-.184.22-.273a1.286,1.286,0,0,1,.233.3,1.606,1.606,0,0,1,.047.415Z" fill="#2b4937"/>
      <path id="Caminho_746" data-name="Caminho 746" d="M8398.634,13571.874c.032.2.146.425.08.58a5.937,5.937,0,0,1-.575.967.232.232,0,0,1-.213.066.226.226,0,0,1-.1-.2c.189-.482.395-.958.6-1.437Z" fill="#2b4937"/>
      <path id="Caminho_747" data-name="Caminho 747" d="M8441.8,13580.588c-.5-.417-.241-1.314.615-1.947Z" fill="#2b4937"/>
      <path id="Caminho_748" data-name="Caminho 748" d="M8374.8,13561.584a1.253,1.253,0,0,1-.64,1.141c-.234.16-.484.285-.6.2Z" fill="#2b4937"/>
      <path id="Caminho_749" data-name="Caminho 749" d="M8412.056,13543.358c-.02.029-.053.146-.12.17a.313.313,0,0,1-.259-.065c-.25-.239-.491-.49-.719-.751a.305.305,0,0,1-.022-.261c.021-.052.135-.094.206-.094A1.29,1.29,0,0,1,8412.056,13543.358Z" fill="#2b4937"/>
      <path id="Caminho_750" data-name="Caminho 750" d="M8431.362,13549.241a2.116,2.116,0,0,1-.4-1.5c0-.075.1-.158.175-.208.026-.019.128.036.167.082A2.1,2.1,0,0,1,8431.362,13549.241Z" fill="#2b4937"/>
      <path id="Caminho_751" data-name="Caminho 751" d="M8456.531,13565.1a5.532,5.532,0,0,1-.267.781c-.052.1-.234.14-.358.207-.032-.125-.11-.26-.086-.373a7.368,7.368,0,0,1,.28-.962c.029-.079.156-.123.238-.183a.84.84,0,0,1,.15.222,1.043,1.043,0,0,1,0,.292Z" fill="#2b4937"/>
      <path id="Caminho_752" data-name="Caminho 752" d="M8376.677,13552.133l-.6.381c-.189.12-.373.248-.571.352a.347.347,0,0,1-.267.013.246.246,0,0,1-.094-.207C8375.191,13552.275,8376.235,13551.856,8376.677,13552.133Z" fill="#2b4937"/>
      <path id="Caminho_753" data-name="Caminho 753" d="M8394.144,13556.563a4.151,4.151,0,0,1-.7-.335c-.111-.078-.143-.267-.209-.405a1.393,1.393,0,0,1,.446-.048,1.9,1.9,0,0,1,.58.237,1.615,1.615,0,0,1,.3.325Z" fill="#2b4937"/>
      <path id="Caminho_754" data-name="Caminho 754" d="M8455.738,13563.561a7.268,7.268,0,0,1-.407.742c-.05.074-.218.066-.332.1a1.056,1.056,0,0,1-.03-.335,6.228,6.228,0,0,1,.262-.793,1.828,1.828,0,0,1,.231-.339c.063.126.135.249.188.381a.713.713,0,0,1,.016.206Z" fill="#2b4937"/>
      <path id="Caminho_755" data-name="Caminho 755" d="M8396.944,13543.451c-.44.266-.8.5-1.17.7a.322.322,0,0,1-.281-.083c-.043-.044-.027-.188.011-.263A1.183,1.183,0,0,1,8396.944,13543.451Z" fill="#2b4937"/>
      <path id="Caminho_756" data-name="Caminho 756" d="M8358.941,13558c.642.007.752.112.613.442-.093.224-.78.475-.832.31a1.113,1.113,0,0,1,.022-.595C8358.772,13558.06,8358.937,13558,8358.941,13558Z" fill="#2b4937"/>
      <path id="Caminho_757" data-name="Caminho 757" d="M8438.745,13584.773c-.054-.113-.176-.249-.146-.321a6.334,6.334,0,0,1,.467-.876.263.263,0,0,1,.251-.05c.069.03.161.174.141.22-.151.32-.327.629-.5.937C8438.934,13584.72,8438.859,13584.726,8438.745,13584.773Z" fill="#2b4937"/>
      <path id="Caminho_758" data-name="Caminho 758" d="M8447.343,13559.273c.035.08.162.239.124.306a4.911,4.911,0,0,1-.567.791c-.034.039-.28-.017-.315-.085C8446.473,13560.067,8447.006,13559.281,8447.343,13559.273Z" fill="#2b4937"/>
      <path id="Caminho_759" data-name="Caminho 759" d="M8429.938,13564.826l1.12-1.15c.219.51-.1.737-.31.98C8430.558,13564.876,8430.328,13565.078,8429.938,13564.826Z" fill="#2b4937"/>
      <path id="Caminho_760" data-name="Caminho 760" d="M8433.082,13555.711c.1.537-.413,1.293-.8,1.289-.071,0-.211-.228-.2-.242C8432.392,13556.416,8432.715,13556.089,8433.082,13555.711Z" fill="#2b4937"/>
      <path id="Caminho_761" data-name="Caminho 761" d="M8395.13,13575.712a1.6,1.6,0,0,1-.165,1.454c-.056.033-.31-.116-.3-.158A2.259,2.259,0,0,1,8395.13,13575.712Z" fill="#2b4937"/>
      <path id="Caminho_762" data-name="Caminho 762" d="M8369.661,13550.749c-.042-.087-.146-.2-.132-.294a.542.542,0,0,1,.8-.313c.032.025.051.078.084.086.163.042.383.06.231.3-.105.169-.251.289-.48.089C8370.1,13550.565,8369.885,13550.688,8369.661,13550.749Z" fill="#2b4937"/>
      <path id="Caminho_763" data-name="Caminho 763" d="M8378.273,13561.877c-.129.293-.243.59-.392.868-.036.064-.19.1-.285.086-.039,0-.1-.174-.083-.245.112-.344.242-.683.385-1.016.021-.052.189-.1.194-.088A3.912,3.912,0,0,1,8378.273,13561.877Z" fill="#2b4937"/>
      <path id="Caminho_764" data-name="Caminho 764" d="M8380.2,13551.957a6.175,6.175,0,0,1,.862.693c.141.156-.044.361-.231.275a3.531,3.531,0,0,1-.811-.555c-.057-.049.018-.25.031-.38Z" fill="#2b4937"/>
      <path id="Caminho_765" data-name="Caminho 765" d="M8432.5,13573.978a2.424,2.424,0,0,1-.747,1.362C8431.457,13574.895,8431.894,13574.127,8432.5,13573.978Z" fill="#2b4937"/>
      <path id="Caminho_766" data-name="Caminho 766" d="M8380.627,13550.871c.265.2.52.383.746.592.047.043.019.217-.03.294-.028.044-.187.047-.26.012a4.637,4.637,0,0,1-.653-.372c-.073-.053-.153-.2-.129-.267C8380.337,13551.04,8380.469,13550.989,8380.627,13550.871Z" fill="#2b4937"/>
      <path id="Caminho_767" data-name="Caminho 767" d="M8380.677,13556.363c-.094.136-.141.27-.231.313-.058.027-.218-.059-.265-.135a3.174,3.174,0,0,1-.328-.666.344.344,0,0,1,.107-.312.334.334,0,0,1,.315.078A7.376,7.376,0,0,1,8380.677,13556.363Z" fill="#2b4937"/>
      <path id="Caminho_768" data-name="Caminho 768" d="M8395.882,13563.095l-.9.941c-.088-.105-.257-.215-.25-.314C8394.753,13563.353,8395.382,13562.979,8395.882,13563.095Z" fill="#2b4937"/>
      <path id="Caminho_769" data-name="Caminho 769" d="M8439.779,13586.756c.011.44.029.88.023,1.319,0,.089-.1.175-.155.263-.078-.082-.215-.157-.225-.247a1.8,1.8,0,0,1,.222-1.345Z" fill="#2b4937"/>
      <path id="Caminho_770" data-name="Caminho 770" d="M8424.381,13543.538a.839.839,0,0,1,1.342-.157A1.409,1.409,0,0,1,8424.381,13543.538Z" fill="#2b4937"/>
      <path id="Caminho_771" data-name="Caminho 771" d="M8375.3,13563.043c-.022.315-.47.733-.735.7-.075-.01-.2-.239-.179-.276a3.92,3.92,0,0,1,.522-.587.289.289,0,0,1,.264-.017C8375.243,13562.894,8375.276,13563,8375.3,13563.043Z" fill="#2b4937"/>
      <path id="Caminho_772" data-name="Caminho 772" d="M8423,13544.287a1.81,1.81,0,0,1-1.189.413.261.261,0,0,1-.184-.13c-.021-.039.022-.136.064-.183A1.381,1.381,0,0,1,8423,13544.287Z" fill="#2b4937"/>
      <path id="Caminho_773" data-name="Caminho 773" d="M8381.412,13555.1a1.325,1.325,0,0,1,.514,1.72Z" fill="#2b4937"/>
      <path id="Caminho_774" data-name="Caminho 774" d="M8401.427,13563.32c.2.469-.143,1.3-.454,1.346-.059.009-.218-.175-.2-.2C8400.961,13564.1,8401.175,13563.749,8401.427,13563.32Z" fill="#2b4937"/>
      <path id="Caminho_775" data-name="Caminho 775" d="M8364.876,13557.585a.983.983,0,0,1-1.117-.827.276.276,0,0,1,.087-.213c.044-.03.144.019.216.041.022.006.034.042.053.064Z" fill="#2b4937"/>
      <path id="Caminho_776" data-name="Caminho 776" d="M8395.725,13576.526a.835.835,0,0,1-.272,1.249c-.071.021-.288-.175-.279-.194C8395.339,13577.228,8395.53,13576.887,8395.725,13576.526Z" fill="#2b4937"/>
      <path id="Caminho_777" data-name="Caminho 777" d="M8427.74,13544.988a1.106,1.106,0,0,1-1.221-.57A1.01,1.01,0,0,1,8427.74,13544.988Z" fill="#2b4937"/>
      <path id="Caminho_778" data-name="Caminho 778" d="M8442.9,13544.5a1.194,1.194,0,0,1-.945-.97A.974.974,0,0,1,8442.9,13544.5Z" fill="#2b4937"/>
      <path id="Caminho_779" data-name="Caminho 779" d="M8408.866,13543.183a1.661,1.661,0,0,1,.534.239.8.8,0,0,1,.216,1.024l-.8-1.115Z" fill="#2b4937"/>
      <path id="Caminho_780" data-name="Caminho 780" d="M8407.5,13565.343a.878.878,0,0,1-1.222.119.4.4,0,0,1-.081-.255c0-.034.107-.108.155-.1C8406.714,13565.172,8407.073,13565.253,8407.5,13565.343Z" fill="#2b4937"/>
      <path id="Caminho_781" data-name="Caminho 781" d="M8440.293,13585.137a7.832,7.832,0,0,1,.3.821.329.329,0,0,1-.178.272.342.342,0,0,1-.3-.129A.7.7,0,0,1,8440.293,13585.137Z" fill="#2b4937"/>
      <path id="Caminho_782" data-name="Caminho 782" d="M8366.078,13556.37a2.189,2.189,0,0,1-.361.237,6.231,6.231,0,0,1-.58-.642,1.507,1.507,0,0,1,.249-.237C8365.606,13555.909,8365.808,13556.111,8366.078,13556.37Z" fill="#2b4937"/>
      <path id="Caminho_783" data-name="Caminho 783" d="M8453.986,13559.5l-.537.518c-.1-.122-.313-.279-.286-.358a2.123,2.123,0,0,1,.367-.527Z" fill="#2b4937"/>
      <path id="Caminho_784" data-name="Caminho 784" d="M8369.493,13556.341c-.169-.172-.3-.248-.329-.35-.045-.182.441-.488.72-.442.093.016.169.137.252.21Z" fill="#2b4937"/>
      <path id="Caminho_785" data-name="Caminho 785" d="M8407.026,13541.258l-.57-.626c.11-.074.279-.234.319-.208a6.622,6.622,0,0,1,.629.544Z" fill="#2b4937"/>
      <path id="Caminho_786" data-name="Caminho 786" d="M8393.485,13557.539a1.111,1.111,0,0,1,1.176-.08c.038.033-.021.263-.036.263-.382,0-.763-.014-1.145-.026Z" fill="#2b4937"/>
      <path id="Caminho_787" data-name="Caminho 787" d="M8424.3,13545.4l-.416-.285c.157-.1.313-.2.472-.3a.144.144,0,0,1,.122,0c.163.092.321.191.481.29-.161.071-.32.147-.483.215a.33.33,0,0,1-.124,0Z" fill="#2b4937"/>
      <path id="Caminho_788" data-name="Caminho 788" d="M8410.409,13572.606a1.181,1.181,0,0,1-1.247-.6C8409.467,13571.848,8409.989,13572.091,8410.409,13572.606Z" fill="#2b4937"/>
      <path id="Caminho_789" data-name="Caminho 789" d="M8438.349,13587.176a.8.8,0,0,1-.222-1.043.311.311,0,0,1,.231-.126.258.258,0,0,1,.15.2C8438.472,13586.535,8438.405,13586.855,8438.349,13587.176Z" fill="#2b4937"/>
      <path id="Caminho_790" data-name="Caminho 790" d="M8391,13573.391c.319-.4.631-.8.966-1.185.051-.058.215-.031.323-.015.021,0,.058.179.027.206-.408.364-.827.717-1.244,1.071Z" fill="#2b4937"/>
      <path id="Caminho_791" data-name="Caminho 791" d="M8359.913,13558.617a2.654,2.654,0,0,1-.062-.666c.011-.059.252-.073.388-.11.154-.043.377-.233.408.072.013.12-.225.27-.354.4C8360.217,13558.387,8360.126,13558.448,8359.913,13558.617Z" fill="#2b4937"/>
      <path id="Caminho_792" data-name="Caminho 792" d="M8390.93,13575.519c-.105-.173-.18-.241-.189-.318-.031-.242.422-.693.653-.648a.411.411,0,0,1,.182.165C8391.385,13574.969,8391.182,13575.212,8390.93,13575.519Z" fill="#2b4937"/>
      <path id="Caminho_793" data-name="Caminho 793" d="M8373.513,13557.271a1.336,1.336,0,0,1-.549,1.5l.433-1.527Z" fill="#2b4937"/>
      <path id="Caminho_794" data-name="Caminho 794" d="M8428.232,13564.573a.9.9,0,0,1,.012-1.177A.852.852,0,0,1,8428.232,13564.573Z" fill="#2b4937"/>
      <path id="Caminho_795" data-name="Caminho 795" d="M8371.639,13552.852a1.6,1.6,0,0,1,.4,1.323C8371.661,13554.054,8371.475,13553.484,8371.639,13552.852Z" fill="#2b4937"/>
      <path id="Caminho_796" data-name="Caminho 796" d="M8433.2,13558.387c-.118-.189-.244-.341-.223-.367a4.422,4.422,0,0,1,.563-.543,1.139,1.139,0,0,1,.232.192C8433.609,13557.891,8433.432,13558.1,8433.2,13558.387Z" fill="#2b4937"/>
      <path id="Caminho_797" data-name="Caminho 797" d="M8376.98,13563.18c-.2.257-.39.524-.61.762-.053.057-.215.012-.327.014.024-.1.018-.227.079-.29.214-.224.451-.426.68-.636Z" fill="#2b4937"/>
      <path id="Caminho_798" data-name="Caminho 798" d="M8451.9,13547.86c.26.234.478.425.678.631.016.016-.091.149-.14.229-.236-.2-.475-.39-.7-.6A1.715,1.715,0,0,1,8451.9,13547.86Z" fill="#2b4937"/>
      <path id="Caminho_799" data-name="Caminho 799" d="M8391.081,13547.931c.161.16.294.283.289.289-.18.214-.373.418-.564.623-.072-.078-.222-.2-.206-.228C8390.729,13548.4,8390.888,13548.2,8391.081,13547.931Z" fill="#2b4937"/>
      <path id="Caminho_800" data-name="Caminho 800" d="M8379.143,13561.346a.705.705,0,0,1-.1,1.059A.779.779,0,0,1,8379.143,13561.346Z" fill="#2b4937"/>
      <path id="Caminho_801" data-name="Caminho 801" d="M8436.129,13546.109l-.345.391a1.7,1.7,0,0,1-.313-.477c-.021-.083.167-.222.26-.335Z" fill="#2b4937"/>
      <path id="Caminho_802" data-name="Caminho 802" d="M8406.843,13561.751a.727.727,0,0,1-.906.357.29.29,0,0,1-.14-.22c0-.047.106-.146.167-.149C8406.221,13561.727,8406.479,13561.743,8406.843,13561.751Z" fill="#2b4937"/>
      <path id="Caminho_803" data-name="Caminho 803" d="M8371.7,13548.292c.065.133.207.285.179.394-.035.135-.21.232-.325.347-.094-.118-.267-.239-.261-.353.006-.137.162-.268.254-.4Z" fill="#2b4937"/>
      <path id="Caminho_804" data-name="Caminho 804" d="M8395.663,13574a.875.875,0,0,1-.765.816C8394.84,13574.454,8395.134,13574.14,8395.663,13574Z" fill="#2b4937"/>
      <path id="Caminho_805" data-name="Caminho 805" d="M8369,13550.279c-.055.188-.056.328-.127.4a2.021,2.021,0,0,1-.446.307c-.011.006-.146-.146-.132-.168a2.053,2.053,0,0,1,.329-.438C8368.687,13550.317,8368.816,13550.324,8369,13550.279Z" fill="#2b4937"/>
      <path id="Caminho_806" data-name="Caminho 806" d="M8363.047,13556.557a6.625,6.625,0,0,1,.273.608c.017.049-.082.139-.128.209a4.2,4.2,0,0,1-.425-.512c-.029-.049.093-.192.145-.292Z" fill="#2b4937"/>
      <path id="Caminho_807" data-name="Caminho 807" d="M8434.843,13591.12a.7.7,0,0,1-.144-.964c.036-.033.127-.067.139-.054a.34.34,0,0,1,.1.2C8434.923,13590.558,8434.882,13590.817,8434.843,13591.12Z" fill="#2b4937"/>
      <path id="Caminho_808" data-name="Caminho 808" d="M8382.5,13557.026l.321-.392c.063.135.181.271.178.4s-.126.258-.2.387Z" fill="#2b4937"/>
      <path id="Caminho_809" data-name="Caminho 809" d="M8395.807,13558.082l.792-.156C8396.385,13558.358,8396.233,13558.4,8395.807,13558.082Z" fill="#2b4937"/>
      <path id="Caminho_810" data-name="Caminho 810" d="M8450.9,13585.379a1.541,1.541,0,0,1-.02-.405,3.156,3.156,0,0,1,1.481-2,15.393,15.393,0,0,0,2.418-1.876,12.749,12.749,0,0,0,1.354-2.006,1.368,1.368,0,0,1,.253-.225,1,1,0,0,1,.093.319,3.944,3.944,0,0,1-1.861,3.092c-.707.5-1.432.982-2.174,1.427a3.407,3.407,0,0,0-1.178,1.286c-.081.139-.169.273-.254.411Z" fill="#2b4937"/>
      <path id="Caminho_811" data-name="Caminho 811" d="M8451.34,13582.2a.66.66,0,0,1-.1-.837,3.245,3.245,0,0,1,1.564-1.469,2.892,2.892,0,0,0,1.327-1.344,9.32,9.32,0,0,1,.763-1.147c.053-.075.172-.105.26-.155.046.123.159.269.126.364a7.694,7.694,0,0,1-.62,1.537,3.564,3.564,0,0,1-1.715,1.424C8452.228,13580.87,8451.516,13581.238,8451.34,13582.2Z" fill="#2b4937"/>
      <path id="Caminho_812" data-name="Caminho 812" d="M8456.6,13578.993a3.163,3.163,0,0,1,.118-.44c.146-.333.3-.663.468-.985a.369.369,0,0,1,.213-.17c.042-.012.145.079.168.143C8457.7,13577.894,8457.065,13578.9,8456.6,13578.993Z" fill="#2b4937"/>
      <path id="Caminho_813" data-name="Caminho 813" d="M8457.545,13576.648c-.2.216-.4.426-.6.627-.007.006-.167-.11-.159-.132.115-.287.243-.572.382-.851.013-.026.155-.03.185,0A1.9,1.9,0,0,1,8457.545,13576.648Z" fill="#2b4937"/>
    </g>
  </g>
</svg>
