<svg xmlns="http://www.w3.org/2000/svg" width="94.44" height="119.092" viewBox="0 0 94.44 119.092">
  <g id="kPMiRn.tif" transform="translate(-134.38 -266.161)">
    <g id="Grupo_2015" data-name="Grupo 2015">
      <path id="Caminho_2878" data-name="Caminho 2878" d="M194.516,335.492a1.034,1.034,0,0,1-.956-.609c-.262-.432-.53-.861-.837-1.358-.108.18-.181.316-.267.443a45.523,45.523,0,0,1-2.688,3.892,27.469,27.469,0,0,0-2.469,3.559c-.154.254-.242.547-.4.8-.071.114-.235.17-.357.252-.044-.143-.151-.3-.121-.428a3.6,3.6,0,0,1,.354-1.011,26.717,26.717,0,0,0,1.419-3.787,8.534,8.534,0,0,1,1.551-2.6.453.453,0,0,0,.075-.658,1.993,1.993,0,0,1-.167-.317c-.257-.562.006-.939.615-1.03a2.073,2.073,0,0,0,.882-.431,2.394,2.394,0,0,0,.484-.639,10.936,10.936,0,0,1,2.246-2.537c.312-.257.333-.478.073-.826a3.454,3.454,0,0,1-.54-1.161c-.112-.422.113-.661.554-.663.521,0,1.043.031,1.564.067a2.267,2.267,0,0,0,1.618-.9.854.854,0,0,0-.043-.432,8.943,8.943,0,0,1-.223-.953c-.042-.4.183-.575.581-.5.073.013.146.032.218.052,1.716.467,1.2.536,2.481-.921a6.2,6.2,0,0,1,1.979-1.762c.555-.252,1.136-.447,1.7-.686a.8.8,0,0,0,.356-1.244,3.825,3.825,0,0,0-1.432-1.433,5.915,5.915,0,0,0-.656-.213,1.985,1.985,0,0,1-.363-.252c.13-.09.251-.241.39-.259a2.949,2.949,0,0,1,2.094.714,1.735,1.735,0,0,0,.876.344c.683.015,1.369-.069,2.054-.115a.55.55,0,0,0,.531-.458A2.13,2.13,0,0,1,209.282,316c.624-.2,1.246-.408,1.874-.594.232-.068.319-.187.273-.421-.039-.2-.051-.414-.1-.616-.132-.55.1-.862.632-.727a5.05,5.05,0,0,1,1.56.6,1.883,1.883,0,0,0,2.175-.078c.586-.328,1.174-.654,1.749-1a1.751,1.751,0,0,1,1.831.051,4.712,4.712,0,0,1,2.124,2.341.471.471,0,0,0,.615.329,5.1,5.1,0,0,1,.8-.1c.46-.022.687.175.649.638a2.132,2.132,0,0,1-.285.778,4.559,4.559,0,0,1-.456.6,11.382,11.382,0,0,1,2.143,5.779c.975-.81,1.657-1.64,1.442-2.921a3.241,3.241,0,0,1,.028-.665h.176l.064.762.076.037a4.163,4.163,0,0,0,.343-.848c.187-1.1.339-2.213.488-3.322a.605.605,0,0,0-.1-.411.811.811,0,0,1-.012-1.044,3.676,3.676,0,0,0,.509-2.9,3.285,3.285,0,0,0-.194-1.1,7.237,7.237,0,0,0-.845-1.244c-.356-.46-.748-.892-1.113-1.345a.566.566,0,0,0-.775-.21.74.74,0,0,1-1.029-.265,2.691,2.691,0,0,0-2.539-1.364,14.165,14.165,0,0,1-2.335-.565,6.739,6.739,0,0,0-3.127-.32,15.332,15.332,0,0,1-1.6.208c0,.495,0,.967,0,1.439,0,.91-.385,1.12-1.181.67-.519-.292-1.057-.549-1.573-.844a1.181,1.181,0,0,0-1.065-.073c-1.584.573-3.175,1.127-4.767,1.679-.365.127-.55.32-.419.731.166.523.324,1.049.456,1.582.1.4.151.817.236,1.289h.415l.053.1a6.12,6.12,0,0,1-.532.41,11.192,11.192,0,0,1-1.054.588.276.276,0,1,1-.262-.379,6.2,6.2,0,0,1,.675-.5c-.579-.251-.682-.8-.911-1.273a9.42,9.42,0,0,0-.768-1.23c-.133-.193-.314-.162-.5-.027-.524.371-1.07.71-1.585,1.091-.668.494-1.314,1.016-2,1.553a2.075,2.075,0,0,1,.324.559,1.013,1.013,0,0,1-.058.678c-.161.243-.441.179-.676.013-.592-.417-.6-.421-1.138.053a4.674,4.674,0,0,0-.821.818,1.189,1.189,0,0,0-.13.781c.086.559.276,1.1.364,1.661a1.915,1.915,0,0,1-.16.674,1.917,1.917,0,0,1-.666-.2c-.431-.352-.815-.762-1.311-1.238-.564.748-1.084,1.392-1.539,2.08-.082.123.116.422.165.645.044.2.061.4.091.608a3.362,3.362,0,0,1-.645-.029c-.344-.08-.678-.207-1.08-.335-.765,1.449-1.516,2.884-2.279,4.313-.752,1.407-1.516,2.808-2.274,4.212a8.188,8.188,0,0,0-.866,2.89,11.537,11.537,0,0,1-.8,2.4c-.033.088-.213.121-.325.18-.053-.128-.166-.267-.144-.38.05-.261.178-.505.253-.763a7.081,7.081,0,0,0,.353-1.378,13.039,13.039,0,0,1,1.382-4.459c.553-1.2,1.076-2.416,1.6-3.6a6.452,6.452,0,0,0-1,.016c-.155.024-.285.217-.381.3.29.205.519.36.733.533.015.012-.071.227-.13.237-.256.046-.518.051-.9.08l-.385,1.156h.039a2.75,2.75,0,0,0-.349.564c-.231.724-.424,1.46-.641,2.189-.067.226-.16.444-.259.713l-.18-.353L184.557,334l-.068.006c-.018-.166-.041-.331-.052-.5-.052-.758-.121-1.516-.142-2.274a10,10,0,0,1,.077-1.426c.123-1.08.3-2.154.4-3.236.1-1.054.147-2.114.214-3.171.01-.147,0-.294,0-.441l-.131-.02c-.1.514-.235,1.024-.287,1.543-.147,1.47-.246,2.944-.388,4.414-.106,1.1-.275,2.192-.366,3.291a9.108,9.108,0,0,0,.02,1.831,17,17,0,0,1-.211,4.057c-.021.179-.23.334-.352.5a2.456,2.456,0,0,1-.323-.49,1.964,1.964,0,0,1-.09-.618c-.034-1.416-.059-2.833-.085-4.25,0-.222,0-.445,0-.742a2.307,2.307,0,0,0-.506,1.873c.279,1.518.307,3.068.635,4.58a5.528,5.528,0,0,1-.082,1.042c0,.131.154.26.232.393.151.256.429.517.423.771-.019.937-.121,1.873-.225,2.806-.015.137-.207.253-.318.379-.092-.151-.263-.3-.264-.454,0-.73.054-1.461.058-2.192a3.591,3.591,0,0,0-.392-1.717,6.51,6.51,0,0,1-.4-1.59c-.192-.885-.364-1.774-.565-2.656-.025-.108-.157-.212-.263-.277-.538-.327-.828-.754-.615-1.336a1.417,1.417,0,0,0-.632-1.995c-.178-.1-.2-.494-.267-.76-.1-.416-.141-.846-.257-1.256a.948.948,0,0,0-.78-.713.586.586,0,0,1-.463-.823c.153-.46-.09-.7-.338-1.007a14.559,14.559,0,0,1-.891-1.3c-.322-.5-.628-1.01-.943-1.514a.516.516,0,0,0-.66-.212c-.17.053-.346.091-.521.129-.643.141-.912-.158-.708-.8a4.341,4.341,0,0,1,.212-.492c.074-.159.155-.314.241-.487-.647,0-1.252,0-1.856,0-.775,0-1.064-.437-.707-1.135.292-.57.65-1.106.99-1.651a.663.663,0,0,0-.015-.815,12.652,12.652,0,0,1-.85-1.523,8.18,8.18,0,0,0-2.91-3.495,1.67,1.67,0,0,0-.87-.186c-.43,0-.861.113-1.29.111-.6,0-.9-.293-.885-.887a3.194,3.194,0,0,0-1.411-2.79c-1.163-.856-2.381-1.652-3.46-2.6-1.151-1.015-2.582-1.545-3.8-2.429a.772.772,0,0,0-.57-.011c-.694.2-.764.189-1.227-.367a3.306,3.306,0,0,0-1.375-1.035c-1.115-.425-2.21-.9-3.318-1.347a.8.8,0,0,0-.433-.046c-.639.136-1.273.3-1.96.457a1.044,1.044,0,0,0,.182.124,29.145,29.145,0,0,1,5.717,3.213c.533.346.984.817,1.515,1.168.7.466,1.448.87,2.148,1.284l.754-.712.184.118a5.848,5.848,0,0,1-.22.817.431.431,0,0,0,.07.557c.767.747,1.509,1.521,2.293,2.249.656.609,1.363,1.162,2.039,1.749a3.461,3.461,0,0,1,.449.495c.655.85,1.311,1.7,1.948,2.562a1.537,1.537,0,0,1,.145.506c-.171-.064-.416-.078-.5-.2-.272-.395-.526-.324-.894-.132a12.046,12.046,0,0,0-2.908,1.994,5.1,5.1,0,0,1-.675.479l-.135-.1a2.272,2.272,0,0,1,.34-.649c.633-.6,1.279-1.2,1.962-1.744a10.948,10.948,0,0,1,1.29-.784,9.056,9.056,0,0,0-2.506-2.559q-1.606-1.4-3.171-2.836a7.341,7.341,0,0,1-.687-.877c-.4-.5-.613-.548-1.162-.279-.517.253-1.035.5-1.553.75l-.071-.091,1.344-1.273c-.361-.219-.715-.407-1.04-.636-.716-.506-1.42-1.028-2.12-1.554a.413.413,0,0,0-.55-.032c-.366.223-.769.383-1.157.57l-.108-.112.879-1.014c-.666-.437-1.256-1.1-2.176-.915a8.633,8.633,0,0,0-4.281,1.912.5.5,0,0,1-.364.141,2.055,2.055,0,0,1,.144-.359,3.688,3.688,0,0,1,1.664-1.314c.7-.327,1.4-.641,2.221-1.013-.912-.3-1.715-.564-2.519-.826a.2.2,0,0,0-.131-.011c-.887.431-1.76-.068-2.639-.031a1.769,1.769,0,0,0-.8.161c-1.324.78-2.648,1.565-3.928,2.415a4.811,4.811,0,0,0-1.181,1.208c-.539.75-1,1.556-1.491,2.341a.265.265,0,0,0-.008.243,9.346,9.346,0,0,0,.943-.79,2.65,2.65,0,0,1,2.976-.857.345.345,0,0,0,.475-.172.891.891,0,0,1,1.05-.4,10.061,10.061,0,0,1,2.9,1.088,2.629,2.629,0,0,0,2.9.288,6.911,6.911,0,0,1,1.322-.652,1.081,1.081,0,0,1,.78,0c.3.157.211.5.083.764-.227.467-.483.921-.729,1.382.621.441,1.24.872,1.849,1.317a.42.42,0,0,0,.625-.072c.251-.256.5-.512.766-.755.52-.478,1-.348,1.1.343A18.6,18.6,0,0,1,154.04,314a1.031,1.031,0,0,0,.788,1.067,12.914,12.914,0,0,1,1.9.988,2.157,2.157,0,0,1,1.1,1.563,1.9,1.9,0,0,0,1.167,1.562,4.057,4.057,0,0,1,1.96,2.175c.269.6.278.565.929.378.945-.272,1.9-.5,2.859-.734a1.064,1.064,0,0,1,.486-.005.613.613,0,0,1,.356.956c-.455.622-.935,1.231-1.332,1.889a6.774,6.774,0,0,0-.533,1.366c-.026.076.065.223.141.3.889.867,1.824,1.622,3.2,1.248a1.374,1.374,0,0,1,.357-.032c.567.005.774.379.482.871q-.364.615-.739,1.224c-.133.216-.091.344.12.514q1.637,1.322,3.237,2.691a2.1,2.1,0,0,1,.9,1.634.507.507,0,0,0,.157.3c.537.573,1.1,1.124,1.618,1.713a.465.465,0,0,0,.567.194c.58-.192,1.161-.379,1.747-.548.289-.084.6-.148.809.17s.01.566-.155.818c-.263.4-.514.807-.789,1.2a.4.4,0,0,0,.047.582c.6.676,1.178,1.377,1.783,2.051a.6.6,0,0,0,.419.132c.821-.018,1.1.376.77,1.133-.059.137-.179.268-.181.4a.64.64,0,0,0,.153.471,1.476,1.476,0,0,1,.8,1.439.453.453,0,0,0,.189.319,3.356,3.356,0,0,1,1.452,1.87c.017.075.264.138.4.136.858-.011,1.012.1,1.173.933.2,1.023.379,2.05.537,2.913.33-1.172-.164-2.66.591-3.936l.185-.024a5.645,5.645,0,0,1,.285.836,8.568,8.568,0,0,1,.043.938c.043.636.135,1.272.137,1.908a19.307,19.307,0,0,1-.108,2.637c-.327,2.409-.682,4.817-1.1,7.212a13.372,13.372,0,0,0-.134,2.753c.039,1.31-.024,2.625-.067,3.937-.043,1.283-.076,2.569-.192,3.846a8.915,8.915,0,0,1-.456,1.763.438.438,0,0,1-.334.2c-.06.005-.192-.186-.194-.291-.016-.593-.027-1.189,0-1.782a52.518,52.518,0,0,0,.116-7.162,4.471,4.471,0,0,0-.169-.921c-.089.62-.49,1.167-.3,1.843a5.515,5.515,0,0,1-.131,3.139,21.141,21.141,0,0,0-.666,3.692c-.179,1.447-.427,2.885-.643,4.327a5.062,5.062,0,0,1-.074.621,5.359,5.359,0,0,1-.351,1c-.262.514-.632.978-.85,1.507a2.053,2.053,0,0,1-1.977,1.473,2.77,2.77,0,0,0-1.9.661.572.572,0,0,1-.972-.151,2.816,2.816,0,0,1-2.067.565,2.945,2.945,0,0,0-2.311.876,1.635,1.635,0,0,1-1.637.188c-.1-.06-.2-.228-.182-.314.03-.119.187-.3.275-.3.742.065,1.132-.506,1.646-.86a3.4,3.4,0,0,1,2.009-.521,3.162,3.162,0,0,0,1.977-.549,5.633,5.633,0,0,1,2.447-.6,1.883,1.883,0,0,1,.492,0,.741.741,0,0,0,.856-.577c.249-.65.618-1.253.912-1.888a2.182,2.182,0,0,0,.2-.725,11.219,11.219,0,0,0,.075-1.745,39.375,39.375,0,0,1,.709-8.553,22.307,22.307,0,0,0-.021-5.4,18.912,18.912,0,0,1-.207-4.1,14.964,14.964,0,0,0-.6-5.248c-.079-.349-.221-.684-.3-1.033a6.4,6.4,0,0,0-1.692-2.779c-.508-.58-1.206-.306-1.728-.65-.04-.026-.157.064-.237.1-.626.282-1.248.572-1.879.841a1.257,1.257,0,0,1-1.42-.221c-.412-.367-.822-.738-1.217-1.124a.705.705,0,0,0-.72-.2c-.963.205-1.934.37-2.9.541a1.16,1.16,0,0,1-1.342-.656c-.522-.883-1.042-1.766-1.579-2.676-.037.03-.124.1-.208.167-.436.364-.857.745-1.308,1.087a1.391,1.391,0,0,1-1.4.225c-.587-.22-1.173-.442-1.765-.648a3.357,3.357,0,0,0-.694-.158.944.944,0,0,1-.94-.8c-.164-.519-.355-1.03-.557-1.613-.646.379-1.2.694-1.745,1.025a1.68,1.68,0,0,1-2.4-.264,2.682,2.682,0,0,0-.755-.539c.017.168.038.335.052.5a3.507,3.507,0,0,1-.276,1.879,1.909,1.909,0,0,0,.227,2.105,8.189,8.189,0,0,1,.633.81.73.73,0,0,1,.044.6.594.594,0,0,1-.525.2,11.657,11.657,0,0,1-3.568-1.237,8.1,8.1,0,0,1-2.173-2.4,5.771,5.771,0,0,0-.531-.709c-.59-.593-1.243-1.127-1.795-1.752a15.193,15.193,0,0,1-1.107-1.615c-.324-.483-.665-.957-.97-1.453a2.235,2.235,0,0,1-.115-2.6,3.384,3.384,0,0,0,.333-.967.376.376,0,0,0-.1-.274,10.428,10.428,0,0,1-.706-.863,2.751,2.751,0,0,1-.457-1.034c-.111-.856-.13-1.725-.181-2.59a3.941,3.941,0,0,1,0-.448c.067-1.222.31-1.53,1.508-1.616a15.126,15.126,0,0,1,2.044.116c.044,0,.087.023.131.027.961.092,1.928.149,2.883.287a8.731,8.731,0,0,1,1.856.478c.254.1.449.418.607.677.176.29.326.3.612.146a2.689,2.689,0,0,1,1.071-.376c.8-.03,1.611.033,2.416.079a1.475,1.475,0,0,1,1.4,1.005,1.241,1.241,0,0,0,.1.2.347.347,0,0,0,.067.065c.023,0,.065,0,.078-.012.721-.9,1.778-.818,2.756-.9a17.416,17.416,0,0,1,6.066.709,1.079,1.079,0,0,1,.794.885c.064.287.092.581.143.91a3.511,3.511,0,0,1,2.58-.7c-.28-.23-.518-.432-.763-.625-.152-.12-.327-.213-.471-.341a.662.662,0,0,1-.085-1.053c.328-.438.646-.882,1.021-1.4a1.438,1.438,0,0,0-.379.073,2.057,2.057,0,0,1-2.277-.25,11.473,11.473,0,0,1-1.756-1.507.8.8,0,0,1-.14-.728,10.41,10.41,0,0,1,.911-1.461c.259-.369.563-.707.848-1.059l-.087-.128a2.879,2.879,0,0,0-.448.067q-1.09.333-2.177.685c-.63.2-.9.144-1.267-.394a8.958,8.958,0,0,1-.718-1.236,2.709,2.709,0,0,0-1.392-1.328,2.746,2.746,0,0,1-1.608-2.17,1.248,1.248,0,0,0-.726-.953c-.854-.423-1.71-.843-2.581-1.229a.687.687,0,0,1-.505-.807c.085-.835.083-1.678.12-2.6-.248.226-.461.4-.657.6a.616.616,0,0,1-.844.109,10.026,10.026,0,0,0-5.108-1.2,13,13,0,0,0-5.7,1.5,1,1,0,0,1-.466.081c-.414-.024-.83-.056-1.239-.121a1.771,1.771,0,0,0-1.518.5c-.7.624-1.4,1.246-2.074,1.9-.283.274-.47.176-.586-.091a3.321,3.321,0,0,1-.249-.946,7.922,7.922,0,0,1,.96-4.535c.555-1.09,1.122-2.176,1.743-3.229a5.609,5.609,0,0,1,1.887-2.058c1.176-.708,2.343-1.431,3.492-2.181a2.519,2.519,0,0,1,2.123-.406,3.92,3.92,0,0,0,2.19-.144c1.172-.346,2.374-.6,3.57-.856a1.417,1.417,0,0,1,.789.04c1.3.526,2.616,1.031,3.863,1.666a4.18,4.18,0,0,1,1.177,1.249c.179.232.324.288.546.142a1.069,1.069,0,0,1,1.45.156,4.575,4.575,0,0,0,.978.626,18.5,18.5,0,0,1,3.037,2.12c.817.644,1.666,1.249,2.518,1.848,1.338.938,2.4,2.032,2.294,3.9l1.869-.153c-.289-.485-.262-1.035-.692-1.5a3.413,3.413,0,0,1-.876-2.862,3,3,0,0,1,.411-.976c.266-.478.183-.882-.315-1.093a1.125,1.125,0,0,1-.734-1.167,2.57,2.57,0,0,0-.463-1.674c-.4-.559-.335-.882.116-1.409a.412.412,0,0,0,.066-.511,1.844,1.844,0,0,1-.237-.932,1.96,1.96,0,0,0-.581-1.6,13.877,13.877,0,0,0-1.33-1.383c-.6-.588-1.218-1.164-1.837-1.735a1.471,1.471,0,0,0-.416-.257,1.167,1.167,0,0,1-.7-1.1,5.274,5.274,0,0,1,.848-2.786c.081-.174.19-.335.352-.617a4.229,4.229,0,0,0-.38.216c-.488.371-.988.727-1.453,1.125a1.477,1.477,0,0,1-1.7.275,1.768,1.768,0,0,1-1.078-1.486c-.022-.193-.029-.388-.057-.58a1.452,1.452,0,0,0-.835-1.187.935.935,0,0,1-.448-1.5,13.385,13.385,0,0,0,.839-1.488c-.391.14-.781.283-1.173.418a3.425,3.425,0,0,1-.724.215c-.688.073-1.017-.155-1.138-.841-.079-.444-.269-.494-.7-.5a1.623,1.623,0,0,0-1.679,1.126,2.06,2.06,0,0,1-1.487,1.117,1.2,1.2,0,0,0-.526.342.691.691,0,0,1-.953.181c-.306-.173-.618-.336-1.051-.57.116.5.206.85.28,1.206a1.158,1.158,0,0,1-.759,1.472c-.122.054-.249.1-.376.143a7.735,7.735,0,0,0-3.038,1.75,2.031,2.031,0,0,1-.33.228c-.251.166-.552.4-.8.144a1.109,1.109,0,0,1-.244-.79,14.5,14.5,0,0,1,.344-2.3,13.57,13.57,0,0,1,1.329-4.02c.353-.566.592-1.2.946-1.769a13.612,13.612,0,0,1,4.012-4.638,12.759,12.759,0,0,0,2.346-2.194,2.1,2.1,0,0,1,2.751-.469c1.1.515,2.164,1.144,3.3,1.575a28.625,28.625,0,0,1,4.635,2.623,4.77,4.77,0,0,1,1.1,1.034c.779.924,1.52,1.88,2.278,2.822.072.09.155.171.316.349a3.441,3.441,0,0,0-.4-2.037,2.493,2.493,0,0,1-.33-1.9,6.215,6.215,0,0,0-.03-2.7,1.088,1.088,0,0,1,.541-1.318c-.093-.111-.177-.214-.263-.314a1.935,1.935,0,0,1-.534-1.584,16.6,16.6,0,0,0-.093-1.959,8,8,0,0,1,.136-1.315q.246-1.566.528-3.125a3.835,3.835,0,0,1,.251-.668c.232.092.558.116.682.287a26.76,26.76,0,0,1,2.043,3.031,11.646,11.646,0,0,0,1.8,2.9,2.132,2.132,0,0,0,.449.433c.624.326.85.979,1.254,1.481.275.34.119.687-.174.952-.388.349-.795.678-1.193,1.015l.057.236c.942-.242,1.713-.212,1.728,1.008.852,0,1.669.029,2.483-.007a3.137,3.137,0,0,1,3.153,2.508,1.338,1.338,0,0,0,.8,1.113,1.407,1.407,0,0,1,.725,1.079,4.853,4.853,0,0,1,.154,2.862.5.5,0,0,0,.041.3c.133.377.277.75.444,1.2.306-.425.61-.8.862-1.211a.8.8,0,0,0-.063-.883,1.982,1.982,0,0,1-.317-.913c-.042-2.028-.03-4.057-.069-6.086a3.03,3.03,0,0,1,.725-1.878c.06-.083.124-.165.188-.248-.616-.373-.65-.712-.18-1.253.265-.306.487-.649.74-.989-.768-.378-.766-.454-.735-1.227.045-1.16.012-2.324.037-3.486a2.672,2.672,0,0,1,.161-1.045,8.593,8.593,0,0,1,2.265-2.966,2.955,2.955,0,0,1,.795-.333c.1-.041.2-.1.3-.132s.261-.129.353-.093a.383.383,0,0,1,.2.3,4.854,4.854,0,0,0,.664,2.336c.4,1.026.811,2.046,1.214,3.07.24.61.5,1.213.7,1.838a5.721,5.721,0,0,1,.4,1.807,34.907,34.907,0,0,1-.741,6.709,1.029,1.029,0,0,0,.033.466,6.937,6.937,0,0,1,.34,1.265c.08,1.5.1,3,.138,4.5l.186.052c.271-.465.582-.911.8-1.4.364-.794.478-.894,1.344-.847.006-.026.026-.064.016-.075-.6-.645-.445-1.253-.013-1.94.513-.816.919-1.7,1.37-2.555.077-.145.139-.3.219-.441.376-.668.477-.707,1.216-.5a3.081,3.081,0,0,0,.307.039c-.276-.434-.506-.771-.707-1.125a1.95,1.95,0,0,1-.13-.467,2.2,2.2,0,0,1,.515-.1c.379.016.756.07,1.182.114a11.984,11.984,0,0,0-.6-1.261c-.416-.672-.444-.769-.008-1.438.577-.887,1.206-1.744,1.732-2.66a6.587,6.587,0,0,1,2.475-2.338.8.8,0,0,1,1.221.282,15.493,15.493,0,0,1,.907,1.425,8.118,8.118,0,0,1,.406,1.271c.061.195.126.388.188.582a6.42,6.42,0,0,1,4.063-.672.918.918,0,0,1,.863.794,3.429,3.429,0,0,1-.729,3.3,2.781,2.781,0,0,0-.482.7,1.821,1.821,0,0,1-1.5,1.139,2.862,2.862,0,0,1-.59,1.911c-.324.57-.623,1.155-.921,1.739a.951.951,0,0,1-1.093.572c-.572-.084-.6-.036-.53.508a.465.465,0,0,1-.062.248c-.27.524-.575,1.032-.815,1.569a5.727,5.727,0,0,1-1.978,2.6c-.238.159-.353.5-.53.753-.293.421-.589.838-.857,1.218a10.36,10.36,0,0,1-.268,1.024q-.316.855-.7,1.686c-.192.419-.429.817-.649,1.222-.091.168-.19.33-.323.557a2.891,2.891,0,0,0,2.133-2.1,1.749,1.749,0,0,1,1.809-1.412.393.393,0,0,0,.3-.186,6.885,6.885,0,0,0,.407-1.389,1.105,1.105,0,0,1,.762-1.091c.32-.114.668-.147,1-.229.4-.1.8-.211,1.2-.318.158-.043.312-.1.47-.132.8-.166,1.6-.323,2.4-.5a.412.412,0,0,0,.225-.182c.419-.68.644-.786,1.432-.63.245.049.486.119.779.191.06-.34.1-.645.167-.945.18-.832.489-1.1,1.324-1.071a17.016,17.016,0,0,1,1.769.19,1.294,1.294,0,0,0,1.152-.768,6.528,6.528,0,0,0,.261-1.039.875.875,0,0,1,.531-.717,8.391,8.391,0,0,0,.794-.411,2.877,2.877,0,0,1,3.091-.017,6.126,6.126,0,0,0,.842.3,2.394,2.394,0,0,1,1.414,1.381,9.367,9.367,0,0,0,1.37,2.132,3.127,3.127,0,0,1,.714,2.281.5.5,0,0,0,.192.4c.967.438,1.058,1.326,1.156,2.2.222,1.984-.95,3.29-2.229,4.544a1.344,1.344,0,0,0-.343.538,4.349,4.349,0,0,1-1.148,1.941,14.328,14.328,0,0,0-2.541,2.814,4.134,4.134,0,0,1-.889.938.609.609,0,0,1-.55.1.577.577,0,0,1-.185-.521,18.408,18.408,0,0,0,.427-4.754,4.585,4.585,0,0,0-.189-1.075l-2.164.963c.312.625.238.865-.452,1.265a12.072,12.072,0,0,0-1.128.64c-.449.33-.85.724-1.272,1.091a2.907,2.907,0,0,1-.509.433,6.97,6.97,0,0,0-2.444,2.379,22.44,22.44,0,0,0-1.237,1.952,5.193,5.193,0,0,0-.351,1.1,1.866,1.866,0,0,1-1.184,1.312,1.141,1.141,0,0,0-.881,1.388,2.635,2.635,0,0,1-.035.55c.284-.167.523-.306.761-.448.09-.053.172-.148.266-.162,1.352-.2,2.333-1.219,3.6-1.609,1.24-.382,2.474-.787,3.727-1.12.723-.193,1.319.261,1.92.582.313.167.614.358,1.012.592-.076-.294-.137-.488-.174-.687a4.87,4.87,0,0,1-.134-.923.657.657,0,0,1,.669-.7,18.15,18.15,0,0,1,2.63-.206,23.042,23.042,0,0,1,2.94.5c1.022.2,2.032.481,3.061.6a1.726,1.726,0,0,1,1.408.7c.109.16.254.294.367.452.135.19.261.217.486.105a1.329,1.329,0,0,1,1.831.376,15.418,15.418,0,0,1,.907,1.326,6.5,6.5,0,0,1,.662,1.033,5.742,5.742,0,0,1,.3,1.25c.1.587.106,1.2.256,1.766a3.244,3.244,0,0,1-.392,2.325c-.045.091-.1.175-.181.3a1.215,1.215,0,0,1,.476,1.309,17.8,17.8,0,0,1-.4,3.366,8,8,0,0,1-2.552,4.174,2.1,2.1,0,0,1-.82.42.942.942,0,0,1-1.159-.927,5.929,5.929,0,0,0-1.23-2.969c-.4-.6-.829-1.167-1.256-1.741a.538.538,0,0,1-.019-.694.512.512,0,0,0,.006-.462,19.925,19.925,0,0,0-2.23-2.9.915.915,0,0,0-1.111-.238,22.725,22.725,0,0,1-2.14.793,7.7,7.7,0,0,1-1.662.232,3.554,3.554,0,0,0-1.5.331,7.179,7.179,0,0,1-1.9.628,2.756,2.756,0,0,0-1.529.761,2.1,2.1,0,0,0-.628.869,1.164,1.164,0,0,1-1.054.728c-.768.1-1.541.152-2.329.227-.01.02-.046.059-.045.1a1.694,1.694,0,0,1-1.135,1.669,10.98,10.98,0,0,0-3.823,2.887,1.529,1.529,0,0,1-1.95.478,4.767,4.767,0,0,0-.6-.162c.118.325.194.576.3.814a.8.8,0,0,1-.2.979,11.189,11.189,0,0,1-.925.845.9.9,0,0,1-.537.15c-.649-.019-1.3-.072-2.068-.119.195.3.313.517.466.707a1.173,1.173,0,0,1-.108,1.782,11.468,11.468,0,0,0-2.122,2.457l.061.126a5.052,5.052,0,0,0,.686-.32c.809-.527,1.606-1.072,2.4-1.615a1.345,1.345,0,0,0,.241-.236c.058-.066.086-.178.155-.214,1.4-.722,2.3-2.266,3.916-2.572a3.781,3.781,0,0,0,1.841-1.127,1.9,1.9,0,0,1,1.63-.572.868.868,0,0,0,.311-.024c.625-.123.744-.044.842.623.5-.945,1.359-.871,2.189-.839.791.03,1.579.1,2.369.137a.739.739,0,0,1,.809.877,4.728,4.728,0,0,0,.084.7,11.224,11.224,0,0,0,1.162-.006,4.892,4.892,0,0,1,3.076.774,4.728,4.728,0,0,1,2.281,3.079c.33,1.56.721,3.11.97,4.682a11.406,11.406,0,0,1,.051,2.764,19.056,19.056,0,0,1-.539,3.083,11.549,11.549,0,0,1-1.886,4.368,21.953,21.953,0,0,1-2.66,2.5.467.467,0,0,1-.718-.048.7.7,0,0,1,.008-.593,3.989,3.989,0,0,0-.1-4.349,8.352,8.352,0,0,1-.744-1.664,1.2,1.2,0,0,0-.664-.829c-1.177-.547-1.18-.568-.775-1.781.07-.211.146-.421.253-.728-.3.116-.543.2-.778.3a.784.784,0,0,1-1.14-.49c-.275-.6-.613-1.17-.96-1.822-.69.87-1.485.362-2.213.415.021.33.054.638.056.947a1.08,1.08,0,0,1-.818,1.185c-.182.067-.364.134-.545.2a.545.545,0,0,0-.434.48.845.845,0,0,1-.533.518,3.883,3.883,0,0,0-1.647,1.385,4.314,4.314,0,0,1-.331.418,4.993,4.993,0,0,0-1.645,2.6,1.136,1.136,0,0,1-1.026.871,1.617,1.617,0,0,0-1.211.891,4.018,4.018,0,0,1-.619.683,6.457,6.457,0,0,0-1.132,1.175,1.8,1.8,0,0,1-3.141.282,5.67,5.67,0,0,1-.858-1.354,1.533,1.533,0,0,0-.924-.845c-.581-.206-.936-.019-.98.581s0,1.19-.006,1.785c0,1.014-.027,2.029-.011,3.043.027,1.849.071,3.7.122,5.547.015.551.08,1.1.115,1.652.076,1.176.155,2.352.218,3.528q.147,2.748.269,5.5a5.008,5.008,0,0,1-.041,1.381,13.034,13.034,0,0,0-.037,4.627c.116,1.018.284,2.03.449,3.042a1.8,1.8,0,0,0,1.631,1.431,4.429,4.429,0,0,0,1.295.011,5.157,5.157,0,0,1,2.686.47,16.133,16.133,0,0,0,2.727.618,2.89,2.89,0,0,1,1.948.986l-.025.171c-.319-.018-.64-.019-.956-.057-.511-.063-1.025-.123-1.527-.234-.9-.2-1.8-.39-2.668-.671a2.862,2.862,0,0,0-2.1-.227c.357.035.714.082,1.072.1a4.594,4.594,0,0,1,2.059.918c.222.134.159.356-.064.381a1.143,1.143,0,0,1-.7-.147,1.963,1.963,0,0,0-1.686-.345,3.63,3.63,0,0,1-1.245.032,2.1,2.1,0,0,1-1.48-.742,4.469,4.469,0,0,0-.822-.756,2.182,2.182,0,0,1-.884-1.634c-.137-1.163-.341-2.318-.462-3.483-.09-.874-.088-1.758-.14-2.637a4.7,4.7,0,0,0-.22-1.264c-.018.2-.051.407-.052.611,0,1.131,0,2.263,0,3.395a1.344,1.344,0,0,1-.051.485c-.049.122-.187.21-.286.313-.1-.1-.259-.185-.292-.3a1.836,1.836,0,0,1-.081-.75,20.506,20.506,0,0,0-.023-4.24c-.114-2.565-.263-5.13-.334-7.7s-.057-5.135-.095-7.7c-.009-.625-.132-1.253-.1-1.875.063-1.28.236-2.555.285-3.836.031-.795-.107-1.6-.117-2.395a3.059,3.059,0,0,1,.21-.983,19.538,19.538,0,0,1,2.709-4.51c.316-.47.623-.948.912-1.435a6.49,6.49,0,0,1,1.907-2.027c.485-.34,1.1-.481,1.481-.965a2.428,2.428,0,0,0,.155-.268,2.326,2.326,0,0,0,.481-.184c.712-.463,1.414-.94,2.117-1.414.085-.057.159-.128.244-.2a.759.759,0,0,0-.078-.175,3.7,3.7,0,0,1-.87-2.117c-.014-.189-.2-.366-.319-.581-.174.158-.29.251-.392.357-.513.534-1.026,1.068-1.529,1.611a.391.391,0,0,0-.115.3c.2.618.421,1.23.644,1.841C194.781,335.17,194.864,335.4,194.516,335.492Zm.754-32.605-.006.154a4.76,4.76,0,0,1-.632.1c-.328.008-.658-.046-.984-.024a.628.628,0,0,0-.428.221c-.617.915-1.172,1.873-1.821,2.763-.806,1.108-1.683,2.164-2.531,3.241-.089.112-.188.217-.321.369a5.486,5.486,0,0,1,.574.149,1.231,1.231,0,0,1,.265.194c-.078.094-.137.227-.236.273a2.6,2.6,0,0,1-.758.257.615.615,0,0,0-.556.429c-.43,1.048-.874,2.09-1.3,3.141-.165.406-.29.829-.433,1.244l.145.068c.074-.123.2-.238.214-.368a2.019,2.019,0,0,1,.842-1.432c1.232-.844,2.308-1.971,3.823-2.327a10.434,10.434,0,0,1,2.246-.279,9.738,9.738,0,0,1,3.447.679c.284.1.5.05.475-.292a1.631,1.631,0,0,1,.718-1.363c.469-.427.9-.9,1.349-1.363a2.726,2.726,0,0,0-1.958-.855,23.515,23.515,0,0,0-3.3.169c-.411.036-.806.23-1.218.288a1.623,1.623,0,0,1-.592-.161c.143-.13.267-.339.432-.378,1.073-.251,2.148-.515,3.237-.679s2.2-.215,3.3-.326a.791.791,0,0,0,.331-.155c.361-.244.711-.505,1.076-.745a2.38,2.38,0,0,1,.414-.175,11.636,11.636,0,0,0-5.6-.362,2.882,2.882,0,0,1-.644.007l-.028-.144a1.19,1.19,0,0,1,.306-.211,12.023,12.023,0,0,1,1.982-.537,13.129,13.129,0,0,1,4.136.222.687.687,0,0,0,.7-.22,3.31,3.31,0,0,1,1.042-.824,6.233,6.233,0,0,0,2.39-1.9,6.69,6.69,0,0,1,2.58-2.059,11.037,11.037,0,0,0-1.92-1.1,10.4,10.4,0,0,0-2.113-.264l.005-.21c.325-.027.653-.037.975-.085a3.689,3.689,0,0,1,2.689.553,1.129,1.129,0,0,0,1.468,0,15.2,15.2,0,0,1,1.337-.813.564.564,0,0,0,.231-.32,1.126,1.126,0,0,1,1.218-.941,4.521,4.521,0,0,0,.649-.078l.028-.168c-.7-.433-1.412-.86-2.107-1.3a.6.6,0,0,1-.219-.343c-.012-.047.151-.186.247-.2a3.08,3.08,0,0,1,2.219.26.966.966,0,0,0,1.263-.093,2.452,2.452,0,0,1,1.783-.615,8.236,8.236,0,0,0,2.386-.471,3.252,3.252,0,0,1-.014-.966,1.128,1.128,0,0,1,1.425-.672c.31.1.622.184.932.275a1.592,1.592,0,0,0-1.015-1.671,6.646,6.646,0,0,1-.6-.376c-.561-.353-1.077-.818-1.823-.693-.084.014-.181-.06-.3-.1.237-.377.564-.267.86-.25.456.026.911.061,1.391.1a1.629,1.629,0,0,0-.425-1.2,6.788,6.788,0,0,1-1.594-2.512,1.3,1.3,0,0,0-.9-.951c-.278-.1-.541-.239-.811-.36a5.457,5.457,0,0,0-.665-.286,2.624,2.624,0,0,0-1.828.391,1.44,1.44,0,0,0-.866,1.139,4.76,4.76,0,0,0-.1,1.9,1.536,1.536,0,0,1-.549,1.551v-2.246l-.1-.11c-.722.792-1.623.6-2.5.572-.015,0-.03,0-.044,0-.316-.043-.453.089-.492.411a9.154,9.154,0,0,0-.232,2.647c.056.341.025.794-.418.8-.473.007-.391-.467-.423-.8-.048-.5-.1-1-.15-1.521-.47.034-.856.053-1.24.1a.312.312,0,0,0-.229.157c-.145.484-.54.6-.959.691q-2.128.486-4.253.981a.728.728,0,0,0-.325.139.553.553,0,0,0-.205.344,3.351,3.351,0,0,1-.487,1.742,3.815,3.815,0,0,0-.359,1.175c-.071.5-.046,1.013-.073,1.519-.017.313.081.775-.367.784-.473.011-.409-.474-.424-.794-.028-.564-.008-1.131-.008-1.692-.526-.028-.6,0-.754.435a3.307,3.307,0,0,1-1.415,1.794c-.817.486-1.659.933-2.506,1.368a2.151,2.151,0,0,0-.986,1.053c-.1.2-.186.407-.283.608a5.467,5.467,0,0,1-1.847,1.916,1.4,1.4,0,0,0-.632,1.388,10.483,10.483,0,0,0,.411,1.262,3.865,3.865,0,0,1,.086.64c-.216-.04-.507-.007-.634-.136a6.962,6.962,0,0,1-.7-.976.91.91,0,0,0-.115.135c-.815,1.337-1.634,2.672-2.44,4.014a2.964,2.964,0,0,0-.347,1.9,5.149,5.149,0,0,1-.015,1.985A22.19,22.19,0,0,1,184.5,313.7a6.282,6.282,0,0,0-.575,1.482c-.182,1-.261,2.01-.378,3.017a10.081,10.081,0,0,0-.118,1.246c.014,1.282.054,2.565.094,3.847.023.725.065,1.449.1,2.173h.132c.019-.159.042-.318.057-.477.124-1.278.239-2.556.371-3.833.143-1.4.338-2.786.441-4.183a9.638,9.638,0,0,1,.633-3.361c.435-.965.782-1.969,1.222-2.931a8.4,8.4,0,0,1,1.876-2.752,18.375,18.375,0,0,0,1.872-2.28q1.258-1.627,2.473-3.288a2.523,2.523,0,0,0,.337-.789c.1-.359.115-.755.525-1.041l.157.8c.34-.267.653-.495.943-.748a.885.885,0,0,0,.221-.37c.238-.674.455-1.355.7-2.027a1.585,1.585,0,0,1,.314-.481.309.309,0,0,1,.273-.082.3.3,0,0,1,.133.248,5.184,5.184,0,0,1-.2.772c-.118.352-.256.7-.386,1.046a7.283,7.283,0,0,0,1.69-.932,51.177,51.177,0,0,1,5.826-3.765,5.281,5.281,0,0,1,1.7-.827,5.527,5.527,0,0,0,2.4-1.212,10.48,10.48,0,0,1,3.275-1.617,2.952,2.952,0,0,1,.484-.062l.043.139c-.7.739-1.74.9-2.579,1.409s-1.725.928-2.579,1.381a4.725,4.725,0,0,1,2.37.6,1.44,1.44,0,0,1,.434.307c.273.242.156.428-.143.422a3.4,3.4,0,0,1-1.258-.191,5.522,5.522,0,0,0-2.455-.362,1.729,1.729,0,0,0-.792.239c-1.3.767-2.581,1.558-3.866,2.345-.3.182-.584.38-.88.575l.9.463a1.516,1.516,0,0,1-1.346.119.44.44,0,0,0-.347.029c-.6.39-1.188.8-1.773,1.2-.285.2-.555.419-.928.7.447.064.756.094,1.059.155a20.546,20.546,0,0,0,3.7.613,4.157,4.157,0,0,1,1.024.287l.006.22a2.365,2.365,0,0,1-.782.3c-.711,0-1.422-.088-2.132-.147-.692-.058-1.382-.152-2.074-.18-.573-.024-1.16.052-1.461-.666l-1.467,1.327Zm-15.49,13.456a3.653,3.653,0,0,1-.358-.947,2.294,2.294,0,0,0-.705-1.4,4.773,4.773,0,0,1-.542-.952,3.422,3.422,0,0,0-.2-.448,2.64,2.64,0,0,1-.478-1.9c.108-1.209,0-1.282-1.2-1.339-.149-.007-.378-.115-.415-.227a.569.569,0,0,1,.168-.453c.184-.19.45-.3.628-.5.144-.156.321-.4.292-.578-.166-.98-.358-1.959-.607-2.921a19.052,19.052,0,0,0-.685-1.839c-.794.012-1.681.736-2.619.06.5-.286,1.047-.451,1.525-.736a14.6,14.6,0,0,0,1.436-1.1c-.155-.316-.295-.594-.429-.876a4.79,4.79,0,0,1-.744-2.759,2.372,2.372,0,0,0-.451-1.647,3.635,3.635,0,0,1-.6-2.645c.022-.137.027-.277.047-.484a2.1,2.1,0,0,1-.53.293c-.212.039-.571.072-.632-.031a.968.968,0,0,1-.045-.723,1.515,1.515,0,0,1,.466-.59.849.849,0,0,0,.272-.925c-.27-1.132-.522-2.267-.811-3.394a9.968,9.968,0,0,1-.1-3.336,9.576,9.576,0,0,0,0-2.031,22.122,22.122,0,0,0-.532-2.214c-.062-.257-.2-.326-.455-.3-.489.049-.981.064-1.471.105-.378.032-.473-.16-.337-.461a3.117,3.117,0,0,1,.5-.826c.39-.424.832-.8,1.246-1.19a5.447,5.447,0,0,0-.78-1.071,13.6,13.6,0,0,1-2.652-3.509c-.493-.771-1.005-1.531-1.574-2.395-.2.917-.381,1.681-.53,2.452a4.788,4.788,0,0,0-.116,1.135,15.2,15.2,0,0,1,.187,1.68,1.622,1.622,0,0,0,1.067,1.755c.267.119.569.286.471.614a1.113,1.113,0,0,1-.5.648.451.451,0,0,0-.306.611,4.221,4.221,0,0,1-.152,2.469,1.41,1.41,0,0,0,.067,1.2,12.926,12.926,0,0,1,.47,1.37,5.58,5.58,0,0,0,1.362,2.562.8.8,0,0,1,.2,1.048,12.151,12.151,0,0,1-.644,1.074,2.164,2.164,0,0,0-.416,1.934,1.277,1.277,0,0,1-.153.873,2.069,2.069,0,0,0,.087,2.149,1.524,1.524,0,0,1,.2,2,.729.729,0,0,0-.069.165,1.269,1.269,0,0,0,.227,1.186c.11.152.4.175.6.259l.469.192c-.153.519-.558.515-.916.588-.453.092-.58.294-.577.747a9.694,9.694,0,0,1-.088,1.5,1.347,1.347,0,0,0,.895,1.6,1.47,1.47,0,0,1,.323.152,3.288,3.288,0,0,0,2.318.3,1.458,1.458,0,0,1,.442.1c-.07.148-.1.378-.216.429a3.391,3.391,0,0,1-2.763.2,1.8,1.8,0,0,0-1.02,0c-.131.032-.321.457-.259.549a3.078,3.078,0,0,1,.353,1.77.709.709,0,0,0,.275.5,1.7,1.7,0,0,1,.752,2.04c-.608,1.169,0,2,.625,2.85a.584.584,0,0,0,.479.209,12.18,12.18,0,0,0,1.27-.421,6.082,6.082,0,0,1,.841-.294.609.609,0,0,1,.511.124.646.646,0,0,1,0,.539,1.906,1.906,0,0,1-1.165,1.048c-.309.108-.631.18-.943.281a.374.374,0,0,0-.3.5.836.836,0,0,0,.47.614,10.992,10.992,0,0,0,1.309.921,3.332,3.332,0,0,1,1.917,2.157c.313.8.724,1.565,1.114,2.335a.528.528,0,0,0,.745.291c-.253-.434-.092-1.1-.814-1.245a.587.587,0,0,1-.018-.387c.029-.079.187-.11.286-.161a10.79,10.79,0,0,0-.347-3.388.85.85,0,0,1-.036-.441,1.347,1.347,0,0,1,.2-.361,2.24,2.24,0,0,1,.272.3.792.792,0,0,1,.056.261q.336,1.567.674,3.135c.04.181.093.359.147.567a4.546,4.546,0,0,1,2.414-1.274,6.153,6.153,0,0,1-2.34,1.871c.165.273.275.658.529.821.287.186.236.3.138.529-.088.2-.144.417-.215.627l.134.054,1.664-1.375c-.472-.4-.432-.674.118-1.047S179.272,316.729,179.78,316.343Zm-19.59,20.05c-1.188-.311-2.393-.633-3.6-.928-.084-.02-.275.14-.319.254-.182.473-.31.967-.495,1.438a3.162,3.162,0,0,1-.383.575l-.188-.084a7.741,7.741,0,0,1,.447-2.27c-.556-.138-1.087-.267-1.618-.4s-1.078-.278-1.538-.4c-.581.823-.549,1.827-1.288,2.4l-.194-.075.726-2.247-4.391-.961c-.541,1.079-1.044,2.107-1.572,3.122-.116.222-.347.463-.6.252-.1-.081,0-.41.021-.625.005-.053.066-.1.09-.152.366-.827.729-1.655,1.118-2.54a8.527,8.527,0,0,0-2.68.294c-.779.188-1.325.467-1.348,1.353,0,.112-.107.22-.119.334a1.084,1.084,0,0,0,.007.584c.444.774.929,1.526,1.4,2.283.007.011.049,0,.074,0,.093-.588.279-.937.632-.99a3.082,3.082,0,0,1,2.421.263,1.637,1.637,0,0,0,1.526.258,1.4,1.4,0,0,1,1.5.448,1.612,1.612,0,0,0,.818.494,3.837,3.837,0,0,1,2.563,1.321.582.582,0,0,0,.762.146q.977-.445,1.972-.852a.675.675,0,0,1,.982.333c.3.562.543,1.155.828,1.726a.513.513,0,0,0,.287.268,22.063,22.063,0,0,0,2.2.367,1.976,1.976,0,0,0,1.017-.209c.558-.277,1.064-.66,1.612-.962.528-.291.89-.134,1.17.4.483.922.994,1.831,1.483,2.75a.47.47,0,0,0,.618.268c.94-.234,1.891-.427,2.833-.653a1.377,1.377,0,0,1,1.4.358c.349.348.729.665,1.076,1.013a.547.547,0,0,0,.716.143c.573-.288,1.168-.532,1.734-.832a1.141,1.141,0,0,1,1.182-.007,3.765,3.765,0,0,0,.942.23l.089-.183-1.585-1.4c-.3.218-.507.384-.731.526a1.1,1.1,0,0,1-.322.084,1.85,1.85,0,0,1-.062-.324c-.008-.356,0-.712,0-1.026-.47.6-.925,1.2-1.4,1.786-.071.087-.243.09-.369.132a1,1,0,0,1,.06-.35c.4-.657.807-1.3,1.231-1.984a3.958,3.958,0,0,0-.671-.364.5.5,0,0,0-.417.134c-.373.38-.71.8-1.08,1.179-.079.082-.245.081-.37.118a1.472,1.472,0,0,1,.115-.343c.292-.458.6-.907.9-1.357l-.88-.645a5.684,5.684,0,0,1-2.5,2.319l-.112-.114,2.192-2.63-.682-.471-.417.825-.221-.016-.3-1.232c-.209.285-.236.791-.9.806l.539-1.274-3.23-1.162c-.323.863-.141,1.871-1.083,2.451-.323-.978.456-1.719.359-2.593l-1.562-.378-.514.8-.147-.045c-.026-.149-.114-.321-.069-.444.216-.593-.181-.719-.6-.842-.228-.067-.457-.128-.7-.2a1.586,1.586,0,0,1-.776,1.121l-.135-.069Zm-3.288-5,.205.048a5.689,5.689,0,0,1,.03.854c-.059.544-.152,1.086-.248,1.625-.07.4.086.567.481.607a13.134,13.134,0,0,1,3.463.858,18.445,18.445,0,0,0,2.232.564c-.005-.971.477-1.826.24-2.773a3.727,3.727,0,0,1-.1-.888,2.887,2.887,0,0,1,.127-.6l.223.006c.028.27.069.54.082.812.024.5.02,1.005.047,1.506.024.44.1.879.1,1.319a4.568,4.568,0,0,1-.133.809l1.114.266c.161-.4.3-.779.466-1.141a.37.37,0,0,1,.272-.174c.061,0,.184.137.186.215.008.336-.028.672-.029,1.008,0,.128.013.345.08.372.5.2,1.023.361,1.689.586L167,333.312l.116-.041c.123.255.259.505.366.767a7.509,7.509,0,0,1,.486,3.074c0,.153.008.382.1.447a8.452,8.452,0,0,0,1,.517c-.077-.671-.15-1.226-.2-1.784a1.535,1.535,0,0,1,.094-.441,1.8,1.8,0,0,1,.456.22.607.607,0,0,1,.143.366c.068.591.1,1.187.186,1.776a.839.839,0,0,0,.254.509c.514.4,1.054.772,1.6,1.136.26.174.547.309.814.457l.421-.946.15.021c.06.284.1.574.184.851.054.179.125.422.262.492.272.139.638.112.884.276s.2.594.532.813a8.867,8.867,0,0,1,2.314,1.959.2.2,0,0,0,.085.049c-.4-.823-.787-1.654-1.2-2.475a2.16,2.16,0,0,0-.856-1,2.718,2.718,0,0,1-1.177-1c-.277-.621-.8-.9-1.215-1.34-.644-.675-1.218-1.416-1.821-2.129a8.341,8.341,0,0,0-.777-.912,22.373,22.373,0,0,0-2.046-1.66c-.394-.272-.937-.32-1.356-.565a2.3,2.3,0,0,0-2.015-.17.553.553,0,0,1-.785-.369c-.113-.353-.152-.731-.279-1.077a.7.7,0,0,0-.382-.408,17.954,17.954,0,0,0-5.723-.583c-.827.069-1.694.029-2.228.859a.348.348,0,0,1-.1.083.727.727,0,0,1-1.133-.266,5.512,5.512,0,0,1-.3-.6.666.666,0,0,0-.635-.471c-.82-.034-1.639-.089-2.459-.11a1.134,1.134,0,0,0-.549.154c-.825.459-1.1.412-1.624-.373a.978.978,0,0,0-.8-.474c-.74-.071-1.473-.221-2.212-.309-1.179-.142-2.359-.3-3.544-.373-.673-.042-.738.053-.721.747.024.969.1,1.937.167,2.9a.443.443,0,0,0,.082.248c.357.4.73.785,1.085,1.186.19.215.384.183.639.126a21.213,21.213,0,0,1,2.364-.435c.854-.09.938-.155.658-.987a1.654,1.654,0,0,0-.228-.378c-.245-.357-.509-.7-.736-1.069a3.777,3.777,0,0,1-.251-.622l.149-.112a2.123,2.123,0,0,1,.538.445,12.737,12.737,0,0,1,.607,1.242c.3.646.424,1.486,1.462,1.31.054-.009.115.031.173.041.419.068.837.134,1.284.2a4.336,4.336,0,0,1-.023-.589,1.425,1.425,0,0,1,.138-.355c.128.058.31.083.372.182a5.739,5.739,0,0,1,.3.69c.044.1.1.233.184.259.422.134.854.238,1.42.389,0-.91,0-1.741,0-2.571,0-.272-.1-.642.287-.694s.443.324.493.616c.04.234.047.474.068.712.055.65.108,1.3.153,1.828.71.2,1.329.387,1.952.557.216.059.442.076.659.13.4.1.6-.046.7-.448.155-.62.345-1.233.548-1.84A3.263,3.263,0,0,1,156.9,331.4Zm15.907-50.863a7.082,7.082,0,0,1,.33,1.073c.143,1.09.254,2.185.362,3.28.03.3-.019.6.014.9a7.91,7.91,0,0,0,.229,1.358c.117.4-.012.949.572,1.116.018,0,.029.051.036.08a30.138,30.138,0,0,1,.646,3.187,8.57,8.57,0,0,0,.5,2.392,8.773,8.773,0,0,1,.812,3.464,2.852,2.852,0,0,0,.126.749c.2.779.43,1.551.618,2.334a1.425,1.425,0,0,1,.006.747,1.976,1.976,0,0,0-.02,1.127c.1.448.139.909.231,1.359.109.535.262,1.061.362,1.6.052.275.012.566.041.847.079.761.172,1.521.251,2.209a2.051,2.051,0,0,1,.551.169,4.749,4.749,0,0,1,.848.657,1.1,1.1,0,0,0,1.073.282c0-.1,0-.192,0-.28a.723.723,0,0,0-.5-.849,7.66,7.66,0,0,1-1.4-.786c-.111-.071-.145-.262-.215-.4a1.766,1.766,0,0,1,.482-.064,1.3,1.3,0,0,1,.4.191c.313.167.624.337.956.516-.061-.7-.11-1.371-.189-2.034-.011-.092-.157-.2-.264-.244-.373-.15-.761-.261-1.132-.416a3.124,3.124,0,0,1-.495-.325c.705-.352,1.22.1,1.852.242-.027-.48-.055-.921-.076-1.363-.011-.247-.121-.333-.377-.389a4.15,4.15,0,0,1-1.013-.42c-.1-.053-.134-.235-.2-.358a1.457,1.457,0,0,1,.4-.064c.3.035.6.1.946.167l-.161-1.056a7.025,7.025,0,0,1-.862-.236c-.125-.052-.2-.219-.3-.333a1.421,1.421,0,0,1,.39-.12,7.047,7.047,0,0,1,.766.081c-.186-.65-.359-1.219-.512-1.793-.44-1.658-.88-3.315-1.3-4.977a1.463,1.463,0,0,1,.176-1.3,3.31,3.31,0,0,1,.388.86c.1.36.131.735.211,1.1a25.933,25.933,0,0,0,1.036,4.022,19.139,19.139,0,0,1,.679,2.864c.054.238.1.48.161.816.355-.251.633-.445.908-.643s.539-.391.808-.587l.107.119a1.852,1.852,0,0,1-.234.464,13.119,13.119,0,0,1-.99.97c-.554.484-.578.6-.173,1.252.033.053.046.177.016.2-.41.325-.079.7-.038,1.085l1.413-1.521.136.1a1.474,1.474,0,0,1-.136.445c-.363.5-.75.991-1.128,1.485-.077.1-.227.207-.219.3.033.358.116.71.19,1.119.4-.455.71-.878,1.087-1.234s.819-.649,1.233-.969l.083.076v-.4c0-.4.027-.768-.563-.8-.349-.021-.456-.465-.221-.782.168-.227.392-.412.557-.64a.5.5,0,0,0,.08-.391c-.263-.775-.588-1.53-.819-2.313a19.934,19.934,0,0,1-.648-2.692c-.121-.812-.455-1.136-1.293-1.071-.52.04-.724-.4-.46-.874a7.473,7.473,0,0,1,.571-.8c.187-.251.38-.5.628-.821-.439-.03-.75-.06-1.062-.068-.279-.008-.606-.016-.647-.335-.027-.2.15-.445.261-.655a.525.525,0,0,1,.242-.192c.247-.117.238-.264.154-.505-.2-.588-.367-1.19-.529-1.791q-.279-1.033-.524-2.076a1.573,1.573,0,0,1-.062-.7,4.924,4.924,0,0,0-.086-2.123,1.289,1.289,0,0,0-.978-1.126c-.212.408-.312.923-.978.953a1.735,1.735,0,0,1,.081-.524,2.5,2.5,0,0,0,.046-2.1,1.867,1.867,0,0,0-.816-1.072C175.183,280.625,173.964,280.924,172.809,280.534Zm-17.026,5.675c.527-.23,1.171-.53,1.832-.791a5.42,5.42,0,0,1,1.389-.426c.509-.052.711.4.4.816-.222.3-.528.53-.749.828-.537.722-1.045,1.465-1.563,2.2.1.085.12.106.144.123a.5.5,0,0,0,.079.041c1.079.431,1.968,1,1.965,2.355,0,.409.307.519.655.285.471-.316.912-.682,1.4-.962a7.386,7.386,0,0,1,1.573-.712c.65-.187,1.045.182.909.848a11.929,11.929,0,0,1-.554,1.354c-.181.531-.311,1.08-.446,1.625a.328.328,0,0,0,.08.279,9.054,9.054,0,0,0,1.992,1.624,2.147,2.147,0,0,1,1.1,1.182,4.143,4.143,0,0,0,.769.911l.2-.113a3.009,3.009,0,0,0-.142-.476,2.07,2.07,0,0,1,.07-2.1.765.765,0,0,0,.018-.858,3.411,3.411,0,0,1-.277-3.007.846.846,0,0,0-.055-.554c-.1-.285-.255-.552-.388-.83a11.7,11.7,0,0,0-2.188,3.314c-.052.122-.205.2-.311.3a1.487,1.487,0,0,1-.084-.435,5.935,5.935,0,0,1,1.45-2.883c.523-.681,1.083-1.334,1.615-1.985l-.754-.771-1.181.708-.173-.157c.162-.367.33-.731.482-1.1.049-.118.124-.3.073-.372-.265-.357-.567-.686-.872-1.043a11.8,11.8,0,0,0-4.025,4.012l-.175-.164a15.093,15.093,0,0,1,3.782-4.418L161.8,282.4l-1.5,1.19-.118-.129c.058-.633.54-1.057.838-1.565-.728-.726-.728-.726-1.467-.063l-.767.691-.143-.106.934-1.627a1.473,1.473,0,0,0-.139-.12,2.06,2.06,0,0,0-.411-.269.843.843,0,0,0-.5-.076,5.966,5.966,0,0,0-3.268,2.295,3.113,3.113,0,0,1-.654.548l-.157-.1a2.269,2.269,0,0,1,.225-.712c.319-.427.709-.8,1.055-1.209.45-.531.886-1.076,1.31-1.594h-.913c-.174-.238-.247-.439-.385-.507-.609-.3-1.235-.57-1.861-.837a1.908,1.908,0,0,0-2.193.507c-.6.616-1.245,1.193-1.9,1.747-.49.411-1.035.757-1.554,1.135a3.746,3.746,0,0,0-1.307,1.6c-.343.807-.813,1.559-1.215,2.34-.242.469-.461.95-.69,1.425a16.659,16.659,0,0,0,1.358-1.731c.37-.536.667-1.126,1.067-1.637a7.428,7.428,0,0,1,1.325-1.372c.73-.55,1.037-.493,1.765.047.18.133.39.226.561.368a2.7,2.7,0,0,1,.665.647.819.819,0,0,0,.638.472,3.346,3.346,0,0,1,.742.16,4.218,4.218,0,0,1,1.306.628A13.6,13.6,0,0,1,155.783,286.209Zm48.726,43.822a.5.5,0,0,0,.11.1,19.35,19.35,0,0,1,3.315,2.879.86.86,0,0,1,.189.246c.14.276.015.444-.259.474a.947.947,0,0,1-.47-.1,9.919,9.919,0,0,1-3.744-3.116.421.421,0,0,0-.35-.131,3.922,3.922,0,0,0-2.729,1.881c.372.576.8,1.166,1.15,1.8a2.41,2.41,0,0,1,.269,2.27L199.9,332.9l-2.726,2.037a1.707,1.707,0,0,1,.622.219,5.872,5.872,0,0,1,1.624,1.99c.311.758.629,1.513.946,2.269.048.114.112.221.149.293.353-.25.667-.489,1-.7.5-.321,1.026-.6,1.5-.949a1.041,1.041,0,0,0,.267-.615c.09-.468.12-.947.2-1.416.077-.426.444-.635.745-.4a2.267,2.267,0,0,0,1.505.273.433.433,0,0,0,.293-.219,1.883,1.883,0,0,1,1.041-.869,6.766,6.766,0,0,0,1.155-.48,1.386,1.386,0,0,0,.563-.681,1.152,1.152,0,0,1,1.87-.738,6.176,6.176,0,0,0,.584.262c.457-1.2.726-1.37,1.938-1.441.71-.041,1.414-.159,2.132-.245a.13.13,0,0,0,.019-.06,5.359,5.359,0,0,0-1.765-3.029c-.065-.071-.19-.084-.277-.139a5.241,5.241,0,0,0-2.451-.61,4.151,4.151,0,0,0-1.118.147,2.816,2.816,0,0,1-1.13.173l-.081-.142.684-.594c0-.719-.005-.709-.728-.8-.353-.044-.7-.133-1.052-.2a11.971,11.971,0,0,0-1.477-.262c-.724-.042-.843.106-1.037.822a3.231,3.231,0,0,1-.4.882c-.072.113-.29.133-.441.195a1.854,1.854,0,0,1-.155-.426c-.044-.4-.058-.81-.089-1.292a5.067,5.067,0,0,0-.659.3c-.532.354-1.046.736-1.578,1.092-.6.4-.621.463-.392,1.164a4.078,4.078,0,0,1,.207.863.44.44,0,0,1-.214.369.449.449,0,0,1-.394-.187,2.736,2.736,0,0,1-.169-.726c-.063-.391-.109-.784-.171-1.244-.152.125-.229.19-.309.251a21.018,21.018,0,0,1-2.938,2.4.6.6,0,0,0-.134.558c.323.759.7,1.5,1.048,2.223.563-.472,1.156-.9,1.67-1.414a7.356,7.356,0,0,1,3.33-2.01c.255-.068.458-.155.42-.509-.016-.141.168-.3.262-.457.1.111.208.221.307.336a1.842,1.842,0,0,1,.128.193c.538-.235,1.06-.453,1.571-.694a.688.688,0,0,0,.261-.287c.275-.487.536-.982.8-1.473a1.922,1.922,0,0,1-.323,1.984c1.163-.041,1.432.951,2.058,1.505-.789-.513-1.788-.678-2.423-1.455ZM184.7,300.943a2.723,2.723,0,0,1,.221-.334c.466-.495.917-1.007,1.416-1.469a1.354,1.354,0,0,0,.543-1.153,4.4,4.4,0,0,1,.126-.837,3.447,3.447,0,0,0,.1-1.058,11.568,11.568,0,0,1-.237-3.159.575.575,0,0,0-.128-.4c-.4-.418-.458-.739-.067-1.191a2.218,2.218,0,0,0,.5-1.706,44.631,44.631,0,0,1-.357-5.755,1.577,1.577,0,0,0-.551-1.36c-.1-.088-.165-.382-.1-.449a.826.826,0,0,1,.494-.163,1.383,1.383,0,0,1,.416.112c.164-1.263.354-2.471.465-3.687a12.538,12.538,0,0,0-.055-1.876,7.489,7.489,0,0,0-.184-1.857c-.487-1.484-1.083-2.933-1.639-4.4a2.1,2.1,0,0,0-.183-.295c-.043.175-.077.288-.1.4q-.349,2.072-.7,4.143a2.681,2.681,0,0,0-.041.356q-.058,1.722-.111,3.444c-.054,1.726-.122,3.452-.155,5.179-.015.817.064,1.636.049,2.453-.015.773-.119,1.544-.144,2.318-.028.879-.007,1.76-.019,2.64-.01.68-.04,1.361-.058,2.042a.5.5,0,0,0,.044.138h.275l-.316,1.213.558.118c-.535.446-.412.986-.412,1.5,0,.448,0,.9.02,1.344.019.39.07.779.12,1.307l2.126-1.974.112.072a2.7,2.7,0,0,1-.275.67,13.2,13.2,0,0,1-1.167,1.352A2.05,2.05,0,0,0,184.7,300.943Zm3.8-4.436a2.351,2.351,0,0,0,.216-.27,6.422,6.422,0,0,1,1.354-2.041c.088-.082.073-.328.039-.483a1.962,1.962,0,0,1,0-1.327l.642,1.2c.456-.719.863-1.369,1.279-2.014a.466.466,0,0,0-.041-.664,1.165,1.165,0,0,1-.317-1.192l.829,1.115c.113-.483.2-.837.277-1.193.116-.521.225-1.044.343-1.565.086-.378.193-.751.272-1.13a4.865,4.865,0,0,1,1.256-2.379,14.384,14.384,0,0,0,2.318-3.217,6.279,6.279,0,0,1,.638-.909c.388-.5.8-.982,1.187-1.476.043-.054.037-.145.07-.209a10.019,10.019,0,0,1,.534-1,11.671,11.671,0,0,1,.774-.979.873.873,0,0,0,.126-1.057,9.157,9.157,0,0,0-1.762-3.073,5.585,5.585,0,0,0-1.9,1.508c-.634.938-1.235,1.9-1.835,2.858a.474.474,0,0,0-.035.39c.312.66.668,1.3.964,1.965.09.2.132.575.02.678a1.133,1.133,0,0,1-.758.2,5.165,5.165,0,0,1-1-.272c.284.395.5.677.7.97.247.369.138.7-.295.763a2.651,2.651,0,0,1-.964-.084c-.229-.056-.354-.038-.474.172-.558.97-1.139,1.926-1.688,2.9-.312.554-.263.686.192,1.116a1.745,1.745,0,0,1,.449.546c.1.24.2.607.083.767s-.489.187-.752.2a2.975,2.975,0,0,1-.684-.123c-.263.541-.47,1.036-.736,1.5a8.8,8.8,0,0,0-1.17,3.118,4.508,4.508,0,0,1-.283.8,1.165,1.165,0,0,0-.13.423C188.311,294.148,188.406,295.268,188.505,296.507Zm.667,1.855a2.865,2.865,0,0,0,1.91-.945,2.206,2.206,0,0,1,.528-.413,3.176,3.176,0,0,0,1.242-1.479c.465-.832.967-1.644,1.452-2.465.2-.341.4-.684.593-1.018a3.072,3.072,0,0,1-.323-.334c-.245-.353-.141-.819.234-.864.826-.1,1-.679,1.143-1.336a2.149,2.149,0,0,1,.324-.767c.371-.52.807-.993,1.175-1.515a7.425,7.425,0,0,0,.5-.978l-.761-.275-.033-.138a2.955,2.955,0,0,1,.732-.441.814.814,0,0,0,.675-.859,5.1,5.1,0,0,1-.839-.3,2.044,2.044,0,0,1-.438-.459c.166-.115.33-.232.5-.342a.275.275,0,0,1,.13-.035c.832-.053,1.665-.1,2.5-.162a.592.592,0,0,0,.4-.179c.448-.632.876-1.279,1.295-1.932a.884.884,0,0,0,.165-.491c-.054-.779-.022-.837.736-1.045.329-.09.66-.157.832-.526.291-.622.659-1.21.906-1.847a3.446,3.446,0,0,0,.149-1.213.526.526,0,0,0-.578-.551c-.551-.018-1.1-.076-1.654-.06a2.27,2.27,0,0,0-1.948,1.429,3.26,3.26,0,0,1-.715,1.21c-.522.691-.981,1.43-1.527,2.239l1.5-.281.052.126a2.17,2.17,0,0,1-.384.326c-.329.173-.695.281-1.007.477a2.09,2.09,0,0,0-.771.681,16.2,16.2,0,0,1-2.48,3.376,3.851,3.851,0,0,0-1.177,2.976l2.028-.663a3.21,3.21,0,0,1-1.913,1,.534.534,0,0,0-.555.457,3.6,3.6,0,0,0-.117.568,8.685,8.685,0,0,1-2.414,5.316c-.194.214-.349.463-.55.735l.658.139.032.146-.69.272c-.116.047-.292.062-.337.146C189.945,296.819,189.57,297.576,189.172,298.362Zm-5.9-5.9c.1-.818.2-1.568.271-2.322a9.592,9.592,0,0,0,.052-1.606,10.738,10.738,0,0,1,.33-3.636,1.952,1.952,0,0,0-.017-.7c-.052-.428-.17-.852-.179-1.28-.016-.7.03-1.4.055-2.1.07-1.952.05-3.913.241-5.853a48.262,48.262,0,0,1,.894-5.157,3.68,3.68,0,0,0-.369-2.14,10.349,10.349,0,0,0-.9.907,5.1,5.1,0,0,0-1.383,3.621,20.036,20.036,0,0,1-.085,2.143.446.446,0,0,0,.195.347c.488.234.543.311.326.82a9.076,9.076,0,0,1-.471.859c-.074.131-.155.259-.266.445a1.243,1.243,0,0,1,.312-.028c.2.052.474.066.581.2a.682.682,0,0,1-.043.572,3.156,3.156,0,0,1-.5.681,1.844,1.844,0,0,0-.565,1.483c.107,1.128.119,2.265.2,3.4.088,1.186.221,2.369.322,3.554a2.245,2.245,0,0,1-.049.576,2.589,2.589,0,0,1-.836,1.344,2.61,2.61,0,0,0-.5,2.824c.151.489.332.922-.186,1.343.177.028.279.05.382.06.359.035.73.04.883.467s-.09.712-.329,1l-.594.724c.225,0,.357,0,.489,0,.856-.013,1.164.277,1.327,1.117a8.449,8.449,0,0,1,.334,2.687.48.48,0,0,0,.039.16c.1-1.708.1-3.408.091-5.108a.908.908,0,0,0-.155-.389c-.318-.574-.643-1.144-.966-1.716l.14-.1Zm8.52,47.636a5.591,5.591,0,0,1,.747.711c.4.557.748,1.151,1.123,1.726a3.261,3.261,0,0,1,.525,2.044,1.217,1.217,0,0,1-.152.365,1.15,1.15,0,0,1-.219-.293,6.556,6.556,0,0,0-1.368-2.443c-.18-.195-.287-.455-.455-.663-.2-.244-.422-.463-.686-.749l-.707,1.022c.551.674,1.082,1.279,1.56,1.923a2.489,2.489,0,0,1,.509,2.244c-.389-.6-.667-1.264-1.057-1.849a21.9,21.9,0,0,0-1.4-1.719l-.541.766.623,1.234-.062.034-.9-.693a10.537,10.537,0,0,0-.233,1.048.392.392,0,0,0,.23.308,2.568,2.568,0,0,1,1.957,1.47,3.908,3.908,0,0,0,.759.924.969.969,0,0,0,1.269.021,7.009,7.009,0,0,1,1.836-1.623.554.554,0,0,0,.175-.435,14.322,14.322,0,0,0-.193-1.731,9.821,9.821,0,0,0-.433-1.486c-.156-.433-.383-.841-.548-1.272a1.308,1.308,0,0,1,.005-.462c.145.049.344.055.423.156a5.568,5.568,0,0,1,.532.864,5.789,5.789,0,0,1,.26.664c.329.882,1.005,1.635.979,2.649a.659.659,0,0,0,.066.187c.142-.088.264-.168.391-.239s.279-.147.336-.176c-.393-2.18-1.943-3.553-3.272-5.212-.055.329-.038.7-.368.409a3.414,3.414,0,0,1-.511-.82c-.072-.118-.152-.232-.29-.442Zm5.957,4.144c.005-.021.038-.147.065-.274a4.333,4.333,0,0,1,1.6-2.84c.28-.2.2-.432.12-.675-.367-1.135-.773-2.259-1.089-3.408a2.444,2.444,0,0,0-.916-1.22,6.584,6.584,0,0,0-.88-.539l-2.421,1.893.291.621-.125.091-.526-.445-.386.415A10.679,10.679,0,0,1,197.748,344.239Zm-12.083-16.417c.244-.666.49-1.332.73-2,.1-.265.184-.532.267-.8.126-.411.241-.824.365-1.235.047-.155.124-.3.158-.459.188-.871.372-1.742.545-2.615a12.2,12.2,0,0,0,.223-1.4c.012-.156-.15-.326-.232-.49-.127.126-.309.229-.372.382q-.445,1.074-.826,2.174a.5.5,0,0,0,.112.4c.176.21.154.385-.089.44-.316.071-.345.285-.37.525-.034.341-.074.683-.082,1.026a.465.465,0,0,0,.15.313c.247.22.245.384-.055.547-.089.048-.205.142-.215.226C185.859,325.859,185.762,326.867,185.665,327.822Zm-4.007-16.887L182.7,309.9l.2.136c-.116.286-.216.58-.354.855s-.325.558-.49.835l.119.085a5.6,5.6,0,0,0,.991-.735c.145-.162.087-.5.123-.765.008-.059.03-.116.037-.175a4.923,4.923,0,0,0-.247-2.741l-1.929,1.785.083.544c.53-.592.908-1.219,1.624-1.483a5.473,5.473,0,0,1-1.424,2.126Zm-5.01,10.486a6.083,6.083,0,0,0,.657-.416q1.383-1.137,2.747-2.3c.546-.469.535-.481.069-1.084-.316.163-.632.328-.95.49-.4.2-.86.323-.914.912a1.186,1.186,0,0,1-.373.6,10.158,10.158,0,0,1-1.1,1.043C176.5,320.88,176.4,321.064,176.648,321.421Zm36.934,17.645a7.961,7.961,0,0,0-1.571-5.382l-.668.29a8.914,8.914,0,0,1,2.239,5.092Zm-32.974-20.085a13.033,13.033,0,0,1-3.5,3.124c.12.322.281.356.524.182.8-.57,1.611-1.128,2.413-1.7a.5.5,0,0,0,.182-.239C180.363,319.9,180.482,319.438,180.608,318.981Zm4.033-15.788c.107-.136.154-.192.2-.251.579-.792,1.186-1.566,1.721-2.387a3.146,3.146,0,0,0,.25-1l-.161-.059c-.22.276-.449.544-.658.828a13.687,13.687,0,0,1-1.047,1.434A1.494,1.494,0,0,0,184.641,303.193Zm-1.375,2.235c-.745.867-1.46,1.691-2.157,2.529-.062.075-.009.246-.009.433a13.068,13.068,0,0,1,1.516-1.305A1.493,1.493,0,0,0,183.266,305.428Zm-32.994,40.086.082-.027-1.227-2.773-.181.05a5.709,5.709,0,0,0-.035,1,1.724,1.724,0,0,0,.306.88A7.563,7.563,0,0,0,150.272,345.514Zm34.862-40.9c.379-.407.73-.844,1.142-1.212.514-.458.442-1,.383-1.635A6.913,6.913,0,0,0,185.134,304.609Zm6.854,11.854c.592.083,1.157.165,1.724.237a.339.339,0,0,0,.24-.054c.252-.22.491-.454.791-.738A3.554,3.554,0,0,0,191.988,316.463Zm1.418.8c-1.294-.027-2.24.289-2.435.789a6.482,6.482,0,0,1,1.45-.129C192.986,318,193.176,317.7,193.406,317.267Zm-3.654,2.376c.518-.041,1.019-.073,1.518-.127a.5.5,0,0,0,.283-.163c.164-.182.306-.383.514-.649a7.991,7.991,0,0,1-1.531.311C190.029,319.018,189.89,319.292,189.752,319.643Zm-1.328,2.721,1.052.221.614-1.129a5.135,5.135,0,0,1-.966.247C188.645,321.723,188.507,322.014,188.424,322.364Zm.954-2.041-.274.554,1.177.23.552-.784Zm-10.762-11.074-.1.067c.1.267.138.694.32.77a6.452,6.452,0,0,0,1.472.31c.055.009.131-.11.2-.169a.974.974,0,0,0-.218-.145,7.2,7.2,0,0,1-.92-.3A5.276,5.276,0,0,1,178.616,309.249Zm1.949,3.482-1.208-.249-.117.126c.14.209.245.551.428.6A.681.681,0,0,0,180.565,312.731Zm-1.765-1.976-.05.116,1.983.466.062-.1c-.073-.088-.136-.242-.222-.255C179.985,310.893,179.392,310.829,178.8,310.755Zm-.815,12.321a1.774,1.774,0,0,0,1.668-1.119Zm7.533-17.493.089.055.832-1.311-.1-.064Z" fill="#2b4937"/>
      <path id="Caminho_2879" data-name="Caminho 2879" d="M185.943,336.661c.332-.938.644-1.761.905-2.6.058-.185-.074-.425-.092-.642a4.924,4.924,0,0,1,.011-.556l.564.058a2.955,2.955,0,0,0,.345-1.607,2.519,2.519,0,0,1,.009-.582c.031-.221.1-.437.154-.655l.508.431c.279-.454.68-.9.253-1.55a1.924,1.924,0,0,1-.169-.776c-.011-.08.067-.172.1-.258a.913.913,0,0,1,.229.167c.14.186.26.386.465.7.092-.7.767-1.051.631-1.749,1.249-.641,1.868-1.962,2.906-2.856a.549.549,0,0,0,.085-.462c-.088-.33-.247-.64-.353-.966a3.493,3.493,0,0,1-.088-.546l.14-.056.768,1.414c.117-.17.207-.3.3-.429a16.161,16.161,0,0,1,2.525-3.179c.978-.874,1.869-1.844,2.82-2.748a11.668,11.668,0,0,1,1.1-.844.609.609,0,0,1,.271-.151,4.731,4.731,0,0,1,.594.02c-.057.19-.056.44-.18.56-.482.464-1,.885-1.417,1.242l.129.9-.988-.05-.675.768a4.973,4.973,0,0,0,2.164,1.278c.041.018.094.02.124.049.145.141.285.289.426.435-.2.072-.445.254-.607.2-1.041-.343-2.065-.738-3.161-1.14l-.979,1.423.211.937-.738-.225c-.032.041-.145.173-.25.311-1.031,1.351-2.053,2.709-3.1,4.051a.442.442,0,0,0-.023.651,2.8,2.8,0,0,1,.29.727l-.159.112-.837-.535c-.222.27-.569.5-.363.995.031.072-.065.286-.108.287-.371.012-.379.326-.481.552-.7,1.564-1.4,3.131-2.093,4.675.41.417.4.455-.041.69a.647.647,0,0,0-.268.321c-.2.529-.367,1.074-.572,1.6-.393,1.013-.84,2.005-1.2,3.03-.332.956-.564,1.946-.863,2.914a6.748,6.748,0,0,1-.433,1.023c-.049.1-.2.144-.3.214-.054-.114-.162-.235-.151-.342a12.94,12.94,0,0,1,.211-1.415c.152-.7.344-1.391.516-2.086.043-.178.158-.378-.132-.476-.043-.014-.079-.127-.074-.191.053-.695.114-1.389.173-2.083.023-.265.031-.533.073-.8.055-.351.125-.7.213-1.044.02-.076.145-.124.222-.185a1.182,1.182,0,0,1,.171.235C185.754,336.082,185.827,336.321,185.943,336.661Z" fill="#2b4937"/>
      <path id="Caminho_2880" data-name="Caminho 2880" d="M174.663,329a1.2,1.2,0,0,1,.321-.155.476.476,0,0,1,.321.063.3.3,0,0,1-.03.279c-.4.306-.165.559.043.823.191.243.287.622.734.5.061-.018.141.031.248.058-.406.672.124,1.041.436,1.5.816,1.209,1.618,2.428,2.4,3.663a1.5,1.5,0,0,1,.031,1.414l-3.024-3.538a3.466,3.466,0,0,1-1.781,1.241,5.591,5.591,0,0,1,.4-.783c.266-.359.565-.7.863-1.029a.4.4,0,0,0,.049-.557c-.265-.406-.5-.829-.8-1.322-.826.812-1.577,1.554-2.337,2.287a1.3,1.3,0,0,1-.352.172,1.711,1.711,0,0,1,.092-.4,7.4,7.4,0,0,1,1.909-2.29c.1-.085.192-.182.3-.287l-.445-.752-2.479,1.908-.124-.122c.4-.518.8-1.038,1.206-1.551a3.464,3.464,0,0,1,.344-.352c.619-.589.652-.607.227-1.334q-1.363-2.334-2.795-4.628a9.152,9.152,0,0,0-.907-1.065,6.38,6.38,0,0,1-2.482,1.42c.5-.933,1.421-1.3,2.123-1.946-.832-1-1.66-1.99-2.475-2.989a1.018,1.018,0,0,1-.143-.435c-.006-.026.13-.122.16-.107.124.064.316.144.331.242.08.517.514.749.815,1.086.506.566,1.061,1.093,1.521,1.693,1.027,1.338,2.017,2.7,3,4.072.663.919,1.3,1.859,1.945,2.787C174.408,328.709,174.532,328.839,174.663,329Z" fill="#2b4937"/>
      <path id="Caminho_2881" data-name="Caminho 2881" d="M186.249,365.764c.033.4.093.8.1,1.2.008,1.594-.008,3.188,0,4.782,0,.655.033,1.309.065,1.963a.625.625,0,0,0,.118.41,1.228,1.228,0,0,1,.333,1.146,13.26,13.26,0,0,0,.031,1.381c.008.112.131.218.208.322a2.3,2.3,0,0,1,.391.536c.26.784.466,1.585.73,2.367a.721.721,0,0,0,.422.343,11.955,11.955,0,0,1,2.417.829,9.488,9.488,0,0,0,1.482.725c.054.022.128.046.151.091.113.224.213.455.318.684a1.934,1.934,0,0,1-.619.06,22.821,22.821,0,0,0-2.415-.639,27.221,27.221,0,0,1-3.321-1.008,1.382,1.382,0,0,0-.521.028c-.633.091-1.263.2-1.9.279a.489.489,0,0,1-.608-.45c-.037-.346.213-.469.49-.532.474-.107.922-.219,1.116-.759a.692.692,0,0,1,.409-.314c.857-.286.991-.633.7-1.456a7.464,7.464,0,0,1-.453-2c-.1-1.725-.168-3.456-.147-5.183.019-1.535.174-3.068.273-4.6a.727.727,0,0,1,.078-.2Z" fill="#2b4937"/>
      <path id="Caminho_2882" data-name="Caminho 2882" d="M221.917,313.835c.289-.445.567-.9.871-1.335.292-.418.612-.817,1-1.326-.59-.139-1.032-.2-1.446-.35-.476-.168-.919-.431-1.393-.605a3.334,3.334,0,0,0-.7-.06,2.3,2.3,0,0,1-.519-.124c-.145-.056-.265-.2-.41-.227a11.645,11.645,0,0,0-4.316.1c-.106.022-.278.265-.254.3.406.675.535,1.551,1.358,1.931a.582.582,0,0,1,.188.12c.092.1.169.219.267.35-.771.2-2.683-1.421-2.943-2.422l-1.658.2-.061-.16a4.529,4.529,0,0,1,.764-.431c.436-.147.9-.222,1.344-.339.212-.056.417-.139.624-.211a.732.732,0,0,1,.206-.077c.541,0,1.083.014,1.624.02,1.073.013,2.146.03,3.219.028.105,0,.215-.118.312-.2a3.77,3.77,0,0,1,.692-.548,2.914,2.914,0,0,1,.821-.119l.059.155-.724.847c.453.217.885.44,1.33.632.791.34,1.59.66,2.385.99.333.138.5.333.353.731a.683.683,0,0,0,.435.895c.462.207.929.406,1.382.632.113.056.182.2.271.3-.127.077-.249.211-.382.222-.382.03-.768.011-1.157.011.36.92.733,1.828,1.069,2.749a3.811,3.811,0,0,1-.117,2.617,25.98,25.98,0,0,0-1.7-5.557l-1.889,1.522-.086-.077a1.56,1.56,0,0,1,.258-.3,3.526,3.526,0,0,0,1.084-1.56,4.211,4.211,0,0,0,.391-.839,1.867,1.867,0,0,0-.109-.869,6.5,6.5,0,0,1-2.328,2.467Z" fill="#2b4937"/>
      <path id="Caminho_2883" data-name="Caminho 2883" d="M178.358,384.459c-.468-.131-.857-.255-1.254-.343a.963.963,0,0,0-.466.037c-.324.1-.651.171-.779-.239s.183-.567.5-.658c.5-.143,1.011-.26,1.518-.385a1.874,1.874,0,0,0,.922-.565,4.729,4.729,0,0,1,2.874-1.323c.806-.1,1.1.3,1,1.158a6.677,6.677,0,0,1-.163.788c-.081.333-.309.454-.64.526-.665.145-1.319.347-1.975.535C179.377,384.14,178.861,384.3,178.358,384.459Z" fill="#2b4937"/>
      <path id="Caminho_2884" data-name="Caminho 2884" d="M184.312,361.872c.076.526.183,1.05.224,1.579.126,1.605.325,3.213.311,4.818-.018,2.054-.215,4.107-.34,6.16a14.39,14.39,0,0,1-.139,1.47c-.026.159-.21.292-.321.437a2.978,2.978,0,0,1-.253-.453.724.724,0,0,1,0-.355c.346-1.9.027-3.808.1-5.712a46.636,46.636,0,0,1,.3-5.75,5.6,5.6,0,0,0-.076-1.11c-.016-.364,0-.729,0-1.093Z" fill="#2b4937"/>
      <path id="Caminho_2885" data-name="Caminho 2885" d="M173.193,381.527c.191-.081.38-.167.572-.244.477-.192.95-.394,1.433-.567a4.879,4.879,0,0,1,1.187-.344,2.758,2.758,0,0,0,1.965-.682,1.269,1.269,0,0,1,.725-.308,1.4,1.4,0,0,0,1.157-.864c.144-.294.28-.592.427-.886a1.506,1.506,0,0,1,.27-.458,1.309,1.309,0,0,1,.45-.165c.027.147.12.325.069.437a9.067,9.067,0,0,1-.853,1.668,21.744,21.744,0,0,1-1.678,1.9,1.472,1.472,0,0,1-1.642.4,3.035,3.035,0,0,0-2.348.111,3.012,3.012,0,0,1-.857.248,5.136,5.136,0,0,1-.84-.014Z" fill="#2b4937"/>
      <path id="Caminho_2886" data-name="Caminho 2886" d="M186.366,349.376q-.111,2.907-.225,5.814a1.51,1.51,0,0,1-.084.527,1.71,1.71,0,0,1-.319.379c-.072-.149-.2-.3-.205-.448a8.053,8.053,0,0,1,.068-1.16,61.043,61.043,0,0,0,.092-6.258,5.373,5.373,0,0,1,.093-.931,1.363,1.363,0,0,1,.232-.4c.085.125.231.244.244.375.065.7.1,1.4.14,2.093Z" fill="#2b4937"/>
      <path id="Caminho_2887" data-name="Caminho 2887" d="M180.824,340.035a2.344,2.344,0,0,1,.4.615c.236.889.425,1.789.635,2.684.037.158.1.311.143.468a4.67,4.67,0,0,1,.19.684c.044.332.037.762-.339.818s-.424-.363-.481-.672c-.254-1.364-.514-2.726-.76-4.092a1.585,1.585,0,0,1,.048-.448Z" fill="#2b4937"/>
      <path id="Caminho_2888" data-name="Caminho 2888" d="M202.423,313.713c.017.035.049.07.047.1-.041,1,.647,1.535,1.348,2.025.592.414,1.234.754,1.829,1.175a4.2,4.2,0,0,1-3.219-1.578,2.2,2.2,0,0,1-.493.45,1.425,1.425,0,0,1-.559.011c.03-.175,0-.4.1-.511a3.115,3.115,0,0,1,.626-.425l.218-1.259Z" fill="#2b4937"/>
      <path id="Caminho_2889" data-name="Caminho 2889" d="M211.4,310.512a8.032,8.032,0,0,1-.845.457c-.523.209-1.073.352-1.591.571a9.323,9.323,0,0,0-1.117.611c-.2.117-.414.292-.567.028-.055-.095.084-.386.213-.488a3.009,3.009,0,0,1,.717-.346c.658-.272,1.312-.558,1.983-.794a8.6,8.6,0,0,1,1.139-.242Z" fill="#2b4937"/>
      <path id="Caminho_2890" data-name="Caminho 2890" d="M207.674,315.122a1.983,1.983,0,0,1-1.783-.911.435.435,0,0,1,.544-.568,1.52,1.52,0,0,1,.667.475A7.536,7.536,0,0,1,207.674,315.122Z" fill="#2b4937"/>
      <path id="Caminho_2891" data-name="Caminho 2891" d="M160.977,317.75a5.361,5.361,0,0,1,2.13-2c.141-.078.369,0,.556,0-.077.165-.11.4-.24.482C162.62,316.759,161.795,317.249,160.977,317.75Z" fill="#2b4937"/>
      <path id="Caminho_2892" data-name="Caminho 2892" d="M186.217,384.808c-.184.151-.348.379-.557.434-.321.084-.665-.3-.67-.681,0-.323.2-.445.491-.454A.771.771,0,0,1,186.217,384.808Z" fill="#2b4937"/>
      <path id="Caminho_2893" data-name="Caminho 2893" d="M181.375,374.214c.036-.37.054-.744.117-1.109.02-.113.162-.205.248-.307.074.11.217.225.21.33a11.373,11.373,0,0,1-.172,1.364c-.024.125-.178.226-.273.337-.043-.13-.094-.258-.126-.391A.983.983,0,0,1,181.375,374.214Z" fill="#2b4937"/>
      <path id="Caminho_2894" data-name="Caminho 2894" d="M183.913,358.448a2.858,2.858,0,0,1,.2,2.234A2.382,2.382,0,0,1,183.913,358.448Z" fill="#2b4937"/>
      <path id="Caminho_2895" data-name="Caminho 2895" d="M180.011,338.116a9.61,9.61,0,0,1,.686.9c.052.085-.08.283-.127.429-.132-.044-.3-.051-.388-.139a1.237,1.237,0,0,1-.351-1.075Z" fill="#2b4937"/>
      <path id="Caminho_2896" data-name="Caminho 2896" d="M204.067,314.235a3.878,3.878,0,0,1-.659.4c-.054.021-.208-.215-.316-.333a3.24,3.24,0,0,1,.569-.467c.074-.039.256.129.389.2Z" fill="#2b4937"/>
      <path id="Caminho_2897" data-name="Caminho 2897" d="M182.992,339.933c.047-.375.017-.692.393-.7.085,0,.27.246.243.323a4.377,4.377,0,0,1-.377.707Z" fill="#2b4937"/>
      <path id="Caminho_2898" data-name="Caminho 2898" d="M186.087,359.969c-.1-.129-.2-.211-.216-.307a2.922,2.922,0,0,1,0-.634.638.638,0,0,1,.262-.013,3.152,3.152,0,0,1,.144.656C186.288,359.747,186.179,359.833,186.087,359.969Z" fill="#2b4937"/>
      <path id="Caminho_2899" data-name="Caminho 2899" d="M186.661,361.909l-.5.544c-.069-.131-.213-.277-.189-.389a1.62,1.62,0,0,1,.29-.472Z" fill="#2b4937"/>
      <path id="Caminho_2900" data-name="Caminho 2900" d="M163.342,312.412c.034.331-.089.525-.386.558-.068.007-.224-.145-.217-.212C162.772,312.429,163.01,312.378,163.342,312.412Z" fill="#2b4937"/>
      <path id="Caminho_2901" data-name="Caminho 2901" d="M216.522,292.189a1.752,1.752,0,0,1-1.446.362c-.759-.156-1.508-.355-2.266-.516a7.281,7.281,0,0,0-.8-.072c-.489-.048-.564-.339-.379-.776.235-.552.741-.567,1.158-.766.655-.312,1.317-.608,1.979-.9a8.1,8.1,0,0,1,1.029-.415c.112-.033.274.112.413.176-.077.117-.127.285-.236.343a9.639,9.639,0,0,1-1.216.564c-.713.261-1.44.484-2.214.74C213.82,291.509,215.265,291.4,216.522,292.189Z" fill="#2b4937"/>
      <path id="Caminho_2902" data-name="Caminho 2902" d="M204.923,300.6a2.777,2.777,0,0,1-.808.115c-1.38-.218-2.755-.469-4.129-.726a1.454,1.454,0,0,1-.558-.273c-.083-.061-.1-.216-.145-.328a.973.973,0,0,1,.36-.053c.819.211,1.626.479,2.453.649.639.132,1.3.14,1.954.22.3.037.588.114.881.173Z" fill="#2b4937"/>
      <path id="Caminho_2903" data-name="Caminho 2903" d="M203.573,291.7c-.077.559-.142,1.12-.24,1.675-.02.113-.163.206-.248.308-.057-.119-.167-.24-.163-.358q.05-1.425.143-2.849c.007-.1.135-.193.206-.289.088.088.245.17.251.263.027.414.012.83.012,1.246Z" fill="#2b4937"/>
      <path id="Caminho_2904" data-name="Caminho 2904" d="M194.22,309.516a5.074,5.074,0,0,1,.58.042.317.317,0,0,1,.224.163.323.323,0,0,1-.111.256,1.872,1.872,0,0,1-1.629.04c-.223-.163-.163-.325.055-.388a7.067,7.067,0,0,1,.875-.144Z" fill="#2b4937"/>
      <path id="Caminho_2905" data-name="Caminho 2905" d="M191.477,310.051a1.536,1.536,0,0,1-1.281.28c-.089-.014-.159-.147-.238-.226.1-.1.192-.272.291-.275.4-.013.808.028,1.211.048Z" fill="#2b4937"/>
      <path id="Caminho_2906" data-name="Caminho 2906" d="M172.818,303.047c-.286-.891-.54-1.668-.782-2.45-.11-.355-.179-.723-.3-1.074a.432.432,0,0,0-.286-.207c-.583-.126-1.17-.231-1.755-.343-.088-.017-.2,0-.26-.049a2.7,2.7,0,0,1-.314-.335c.133-.092.263-.258.4-.264.649-.028,1.3-.013,1.982-.013-.1-.513-.225-1.071-.322-1.634-.08-.467-.14-.939-.189-1.41a9.954,9.954,0,0,1-.057-1.064,1.167,1.167,0,0,1,.136-.372c.094.1.232.183.272.3a4.775,4.775,0,0,1,.145.7c.173.919.344,1.839.521,2.758a2.784,2.784,0,0,0,.122.428c.187.508.175.476.644.257a1.928,1.928,0,0,1,.772-.08c.038,0,.135.216.106.251-.172.21-.338.484-.569.575-.67.264-.734.242-.627.906.114.7.341,1.383.517,2.074A.965.965,0,0,1,172.818,303.047Z" fill="#2b4937"/>
      <path id="Caminho_2907" data-name="Caminho 2907" d="M169.068,282.044c-.047-.355-.107-.663-.12-.972-.005-.106.106-.216.165-.324.1.067.248.112.308.208a5.634,5.634,0,0,1,.3.647c.021,0,.054.014.076,0,.2-.1.473-.339.594-.012a.807.807,0,0,1-.177.737.567.567,0,0,0-.211.673,31.852,31.852,0,0,1,.688,4.367c.03.841.328,1.668.419,2.511a24.916,24.916,0,0,1,.092,2.536c0,.138-.16.277-.247.416-.085-.141-.251-.288-.241-.422a16.721,16.721,0,0,0-.364-3.415c-.214-1.636-.459-3.269-.712-4.9a6.188,6.188,0,0,0-.318-1.07.528.528,0,0,0-.226-.24C168.624,282.5,168.618,282.362,169.068,282.044Z" fill="#2b4937"/>
      <path id="Caminho_2908" data-name="Caminho 2908" d="M174.2,309.55q.171.939.34,1.878a.919.919,0,0,1,.046.394c-.041.135-.16.329-.261.339a.454.454,0,0,1-.347-.255,3.289,3.289,0,0,1-.138-.746c-.126-.982-.252-1.965-.361-2.95a1.5,1.5,0,0,1,.092-.454c.126.106.309.188.365.323.191.459.337.936.5,1.406Z" fill="#2b4937"/>
      <path id="Caminho_2909" data-name="Caminho 2909" d="M171.05,306.269l1.53-.132a.52.52,0,1,1,.006,1.029c-.146-.016-.286-.094-.432-.109-.543-.052-1.087-.107-1.631-.126-.247-.009-.518.051-.567-.27s.226-.386.463-.428a5.645,5.645,0,0,1,.624-.047Z" fill="#2b4937"/>
      <path id="Caminho_2910" data-name="Caminho 2910" d="M168.924,278.046c-.042-.106-.2-.327-.146-.4a4.647,4.647,0,0,1,.693-.717c.029-.026.208.043.243.108C169.857,277.3,169.335,278.072,168.924,278.046Z" fill="#2b4937"/>
      <path id="Caminho_2911" data-name="Caminho 2911" d="M173.06,295.638a6,6,0,0,1-.349.571.31.31,0,0,1-.261.049c-.033-.006-.08-.179-.047-.222.144-.193.315-.367.476-.547Z" fill="#2b4937"/>
      <path id="Caminho_2912" data-name="Caminho 2912" d="M167.029,343.241c-.023-.013-.128-.038-.135-.08a.378.378,0,0,1,.042-.279,8,8,0,0,1,.663-.652c.05-.044.2-.058.235-.022a.464.464,0,0,1,.115.3A1.143,1.143,0,0,1,167.029,343.241Z" fill="#2b4937"/>
      <path id="Caminho_2913" data-name="Caminho 2913" d="M178.084,287.575c.494.694,0,2.336-.863,3.076.115.291.254.588.344.9.031.11-.056.255-.09.384-.1-.075-.244-.131-.282-.229a9.772,9.772,0,0,1-.339-1.061.383.383,0,0,1,.069-.288,5.309,5.309,0,0,0,.908-2.152A4.047,4.047,0,0,1,178.084,287.575Z" fill="#2b4937"/>
      <path id="Caminho_2914" data-name="Caminho 2914" d="M176.426,287.393a5.193,5.193,0,0,1-.008.624c-.01.086-.113.23-.164.226-.1-.007-.262-.1-.269-.162-.068-.646-.112-1.294-.147-1.943,0-.053.13-.169.166-.157a.344.344,0,0,1,.207.185c.1.4.175.81.259,1.216Z" fill="#2b4937"/>
    </g>
  </g>
</svg>
