<?xml version="1.0" encoding="utf-8"?>
<!-- Generator: Adobe Illustrator 24.0.2, SVG Export Plug-In . SVG Version: 6.00 Build 0)  -->
<svg version="1.1" id="Layer_1" xmlns="http://www.w3.org/2000/svg" xmlns:xlink="http://www.w3.org/1999/xlink" x="0px" y="0px"
	 viewBox="0 0 411.5 139.4" style="enable-background:new 0 0 411.5 139.4;" xml:space="preserve">
<style type="text/css">
	.st0{fill:#F4EDE1;}
	.st1{fill:#2B4937;}
</style>
<g>
	<rect x="138.2" y="0.4" class="st0" width="272.5" height="138.1"/>
	<g>
		<path class="st1" d="M411.5,139.4H0V0h411.5V139.4z M1.1,138.3h409.3V1.1H1.1V138.3z"/>
	</g>
	<rect x="0.5" y="0.5" class="st1" width="138.3" height="138.3"/>
	<g>
		<rect x="132.7" y="69.1" class="st1" width="278.3" height="1.1"/>
	</g>
	<g>
		<g>
			<g>
				<g>
					<g>
						<path class="st0" d="M87.9,81.9c-18,0-26.2-12.4-26.2-24c0-14.1,11-24,26.7-24c6,0,10.3,0.8,15.3,2.8l0.6,0.2l0.1,0.6
							c0.2,1.6,0.2,3.3,0.2,5c0,2.3-0.1,5.6-0.8,8.5l-0.7,2.8l-1.2-2.7c-2-4.2-3.5-6.7-5.1-8.3c-2.1-2.1-4.7-3-8.4-3
							c-9.2,0-15.4,7.2-15.4,17.8c0,12.5,8.1,18.2,15.6,18.2c5,0,7.5-1.2,10.2-4.9c1.6-2.2,2.8-4.5,4.4-7.6l1.5-2.9l0.4,3.2
							c0.3,1.9,0.3,3.4,0.3,5.9c0,2.7-0.3,5.9-0.8,8.3l-0.1,0.5l-0.4,0.2C100,80.6,93.8,81.9,87.9,81.9z"/>
					</g>
				</g>
			</g>
			<g>
				<g>
					<g>
						<path class="st0" d="M90.3,66.3h-2.6l-4.6-8.5l4.6-8.5h2.6l4.6,8.5L90.3,66.3z"/>
					</g>
				</g>
			</g>
			<g>
				<g>
					<g>
						<path class="st0" d="M85.8,105.5c-0.9,0-2,0-3.2-0.1c-1.2-0.1-2.9-0.4-5.1-1c-2.2-0.6-4.1-1.1-5.7-1.7
							c-1.6-0.6-3.6-1.4-5.7-2.3c-2.2-1-4-1.8-5.4-2.5l-5-2.6c-1.9-1-3.6-1.8-5.1-2.6c-1.4-0.7-2.9-1.3-4.2-1.8
							c-3.8-1.5-7.7-2.3-11.7-2.3h-0.4V87h1.3c1.1,0,2-0.4,2.8-1.1c0.8-0.8,1.2-1.7,1.2-2.9l0-38.9c0-1.2-0.5-2.1-1.2-2.9
							c-0.8-0.8-1.7-1.1-2.8-1.1h-1.3v-1.5h22.2L56.4,40h-1.1c-1.6,0-2.8,0.6-3.7,2c-0.4,0.6-0.6,1.3-0.6,2v40.8
							c0,1.4,0.3,2.4,0.8,2.9c0.6,0.5,1.2,0.9,1.9,1.1c17.5,5.7,30.3,8.6,38.1,8.6c4.8,0,8.7-0.9,11.6-2.8l0.3-0.2l0.9,1.1l-0.2,0.3
							c-4.1,5.7-9.2,8.8-15.3,9.5C87.8,105.4,86.7,105.5,85.8,105.5z"/>
					</g>
				</g>
			</g>
		</g>
	</g>
	<g>
		<g>
			<path class="st1" d="M170.2,37.3v1.2h3.1v1.7h-3.1v3.6h-5v-9.5h11.1v3H170.2z"/>
			<path class="st1" d="M190.6,43.8c-0.6,0-1.1-0.6-1.1-1.5v-0.9c0-0.7-0.1-1-0.9-1h-0.8v3.4h-4.9v-9.5h7.6c2.6,0,4.1,1.1,4.1,2.7
				v0.1c0,0.9-0.9,1.9-2.3,2.1c1.7,0.2,2.1,1.1,2.1,2.2v0.8c0,0.6,0.1,1,0.5,1.4v0.1H190.6z M189.6,37.9c0-0.5-0.3-0.7-1-0.7h-0.8
				v1.5h0.8C189.3,38.7,189.6,38.4,189.6,37.9L189.6,37.9z"/>
			<path class="st1" d="M207.4,44.2c-4.1,0-6.5-2.3-6.5-5V39c0-2.8,2.4-5,6.5-5c4.1,0,6.4,2.2,6.4,5v0.2
				C213.9,41.9,211.5,44.2,207.4,44.2z M208.8,38.9c0-1.1-0.2-2-1.4-2c-1.2,0-1.4,1-1.4,2v0.2c0,1,0.2,2,1.4,2c1.2,0,1.4-1,1.4-2
				V38.9z"/>
			<path class="st1" d="M232.6,43.8v-5.1l-0.4,1.2l-1.4,4h-4.3l-1.4-4l-0.4-1.2v5.1h-4.2v-9.5h7l1.3,3.7l0.2,0.8l0.2-0.8l1.3-3.7
				h6.8v9.5H232.6z"/>
			<path class="st1" d="M298.7,43.8h-7.9v-9.5h7.8c2.6,0,3.8,1,3.8,2.5v0.1c0,1-0.9,1.8-2.5,2.2c1.8,0.3,2.6,1.1,2.6,2.2v0.1
				C302.4,42.7,301.2,43.8,298.7,43.8z M297.5,37.7c0-0.4-0.3-0.6-1-0.6h-0.8v1.2h0.8C297.2,38.4,297.5,38.2,297.5,37.7L297.5,37.7z
				 M297.5,40.4c0-0.4-0.3-0.6-1-0.6h-0.8V41h0.8C297.2,41,297.5,40.9,297.5,40.4L297.5,40.4z"/>
			<path class="st1" d="M316.7,43.8c-0.6,0-1.1-0.6-1.1-1.5v-0.9c0-0.7-0.1-1-0.9-1h-0.8v3.4h-4.9v-9.5h7.6c2.6,0,4.1,1.1,4.1,2.7
				v0.1c0,0.9-0.9,1.9-2.3,2.1c1.7,0.2,2.1,1.1,2.1,2.2v0.8c0,0.6,0.1,1,0.5,1.4v0.1H316.7z M315.7,37.9c0-0.5-0.3-0.7-1-0.7h-0.8
				v1.5h0.8C315.4,38.7,315.7,38.4,315.7,37.9L315.7,37.9z"/>
			<path class="st1" d="M334.8,43.8l-0.6-1.7h-2.9l-0.6,1.7h-4.3l4.2-9.5h5.1l4.3,9.5H334.8z M333,38.2l-0.7,1.8h1.3L333,38.2z"/>
			<path class="st1" d="M352.7,40.3h4.9v3.5h-11.9v-1.1l5.1-5.2h-4.9v-3.2h11.7v1.1L352.7,40.3z"/>
			<path class="st1" d="M364.2,43.8v-9.5h5v9.5H364.2z"/>
			<path class="st1" d="M376.1,43.8v-9.5h5v6.2h6v3.3H376.1z"/>
		</g>
	</g>
	<g>
		<path class="st1" d="M167.7,108.7c-0.8,0-1.1-0.6-1.1-1.5v-1.6c0-0.5-0.3-0.9-0.8-0.9h-1.1v3.9h-2v-9.5h3.4c1.5,0,2.5,0.9,2.5,2.3
			v1c0,0.8-0.4,1.4-1.2,1.6c0.9,0.2,1.3,0.9,1.3,1.6v1.6c0,0.4,0.1,0.7,0.4,1v0.6H167.7z M166.5,101.5c0-0.5-0.2-0.8-0.7-0.8h-1.2
			v2.6h1.1c0.5,0,0.8-0.3,0.8-0.8V101.5z"/>
		<path class="st1" d="M174.8,108.6v-9.5h5.3v1.7h-3.3v2.1h2.2v1.5h-2.2v2.4h3.3v1.8H174.8z"/>
		<path class="st1" d="M190.2,108.6l-0.4-1.9h-2l-0.4,1.9h-1.9l2.2-9.5h2.3l2.2,9.5H190.2z M188.9,101.8l-0.7,3.5h1.4L188.9,101.8z"
			/>
		<path class="st1" d="M201.2,108.6H198v-9.5h3.2c2,0,3,1.3,3,2.9v3.9C204.2,107.5,203.1,108.6,201.2,108.6z M202.2,102
			c0-0.8-0.4-1.2-1.1-1.2h-1v6.1h1c0.8,0,1.1-0.4,1.1-1.2V102z"/>
		<path class="st1" d="M214.2,104.7v3.9h-2v-3.9l-2.5-5.6h2.1l1.4,3.8l1.4-3.8h2L214.2,104.7z"/>
		<path class="st1" d="M231.8,100.8v2.3h2.3v1.6h-2.3v3.9h-2v-9.5h5.2v1.7H231.8z"/>
		<path class="st1" d="M243.8,108.9c-2,0-3.1-1.2-3.1-2.9v-4.2c0-1.7,1.2-2.9,3.1-2.9c2,0,3.1,1.2,3.1,2.9v4.2
			C246.9,107.7,245.8,108.9,243.8,108.9z M244.9,101.7c0-0.6-0.4-1.1-1.1-1.1c-0.7,0-1.1,0.4-1.1,1.1v4.4c0,0.6,0.4,1.1,1.1,1.1
			c0.7,0,1.1-0.4,1.1-1.1V101.7z"/>
		<path class="st1" d="M258.3,108.7c-0.8,0-1.1-0.6-1.1-1.5v-1.6c0-0.5-0.3-0.9-0.8-0.9h-1.1v3.9h-2v-9.5h3.4c1.5,0,2.5,0.9,2.5,2.3
			v1c0,0.8-0.4,1.4-1.2,1.6c0.9,0.2,1.3,0.9,1.3,1.6v1.6c0,0.4,0.1,0.7,0.4,1v0.6H258.3z M257.1,101.5c0-0.5-0.2-0.8-0.7-0.8h-1.2
			v2.6h1.1c0.5,0,0.8-0.3,0.8-0.8V101.5z"/>
		<path class="st1" d="M272.9,108.6v-9.5h5.3v1.7h-3.3v2.1h2.2v1.5h-2.2v2.4h3.3v1.8H272.9z"/>
		<path class="st1" d="M288,108.6h-1.9l-2.4-9.5h2.1l1.4,6.5l1.4-6.5h2L288,108.6z"/>
		<path class="st1" d="M296.2,108.6v-9.5h5.3v1.7h-3.3v2.1h2.2v1.5h-2.2v2.4h3.3v1.8H296.2z"/>
		<path class="st1" d="M312.7,108.7c-0.8,0-1.1-0.6-1.1-1.5v-1.6c0-0.5-0.3-0.9-0.8-0.9h-1.1v3.9h-2v-9.5h3.4c1.5,0,2.5,0.9,2.5,2.3
			v1c0,0.8-0.4,1.4-1.2,1.6c0.9,0.2,1.3,0.9,1.3,1.6v1.6c0,0.4,0.1,0.7,0.4,1v0.6H312.7z M311.5,101.5c0-0.5-0.2-0.8-0.7-0.8h-1.2
			v2.6h1.1c0.5,0,0.8-0.3,0.8-0.8V101.5z"/>
		<path class="st1" d="M323.5,104.7v3.9h-2v-3.9l-2.5-5.6h2.1l1.4,3.8l1.4-3.8h2L323.5,104.7z"/>
		<path class="st1" d="M338.9,108.6h-1.8l-1.1-5.5l-1.2,5.5H333l-2-9.5h2l1,6.2l1.2-6.2h1.6l1.1,6.2l1.1-6.2h1.9L338.9,108.6z"/>
		<path class="st1" d="M351.1,108.6v-3.8h-2.4v3.8h-2v-9.5h2v3.9h2.4v-3.9h2v9.5H351.1z"/>
		<path class="st1" d="M359.5,108.6v-9.5h5.3v1.7h-3.3v2.1h2.2v1.5h-2.2v2.4h3.3v1.8H359.5z"/>
		<path class="st1" d="M376,108.7c-0.8,0-1.1-0.6-1.1-1.5v-1.6c0-0.5-0.3-0.9-0.8-0.9h-1.1v3.9h-2v-9.5h3.4c1.5,0,2.5,0.9,2.5,2.3v1
			c0,0.8-0.4,1.4-1.2,1.6c0.9,0.2,1.3,0.9,1.3,1.6v1.6c0,0.4,0.1,0.7,0.4,1v0.6H376z M374.8,101.5c0-0.5-0.2-0.8-0.7-0.8h-1.2v2.6
			h1.1c0.5,0,0.8-0.3,0.8-0.8V101.5z"/>
		<path class="st1" d="M383.1,108.6v-9.5h5.3v1.7h-3.3v2.1h2.2v1.5h-2.2v2.4h3.3v1.8H383.1z"/>
	</g>
	<g>
		<g>
			<path class="st1" d="M278.9,47.9h-26.8V31.5h26.8V47.9z M253,47h25.1V32.4H253V47z"/>
			<path class="st1" d="M279,48h-27V31.4h27V48z M252.3,47.7h26.5V31.7h-26.5V47.7z M278.2,47.2h-25.4V32.2h25.4V47.2z M253.1,46.9
				H278V32.5h-24.9V46.9z"/>
		</g>
	</g>
	<g>
		<path class="st1" d="M265.5,34.3l-8.1,4.4v2.1c1.1,0.6,2,1.1,2.8,1.5c0.8,0.4,1.6,0.9,2.4,1.3c0.8,0.4,1.7,0.9,2.8,1.5l8-4.4v-2.1
			L265.5,34.3z M265.5,41.6c-1.1,0-1.9-0.9-1.9-1.9s0.9-1.9,1.9-1.9c1.1,0,1.9,0.9,1.9,1.9S266.6,41.6,265.5,41.6z"/>
	</g>
</g>
</svg>
