<svg xmlns="http://www.w3.org/2000/svg" width="401.16" height="184.176" viewBox="0 0 401.16 184.176">
  <g id="Grupo_798" data-name="Grupo 798" transform="translate(-5626.818 -10302.98)">
    <rect id="Retângulo_64" data-name="Retângulo 64" width="401.16" height="184.176" transform="translate(5626.818 10302.98)" fill="#2b4937"/>
    <g id="Grupo_794" data-name="Grupo 794">
      <path id="Caminho_1216" data-name="Caminho 1216" d="M5657.563,10333.719l-.932-2.257h-4.645l-.948,2.257h-2.945l4.776-10.892h3.239l4.841,10.892Zm-3.205-7.98-1.587,3.794h3.124Z" fill="#f1eade"/>
      <path id="Caminho_1217" data-name="Caminho 1217" d="M5670.854,10333.719v-10.892h3.173v8.423h6.983v2.469Z" fill="#f1eade"/>
      <path id="Caminho_1218" data-name="Caminho 1218" d="M5704.134,10333.719h-3.01l-2.519-7.016-2.665,7.016h-2.9l-4.072-10.892h3.386l2.453,7.328,2.584-7.328h2.813l2.6,7.409,2.454-7.409h3.026Z" fill="#f1eade"/>
      <path id="Caminho_1219" data-name="Caminho 1219" d="M5725.4,10333.719l-.932-2.257h-4.646l-.948,2.257h-2.944l4.776-10.892h3.238l4.841,10.892Zm-3.206-7.98-1.586,3.794h3.123Z" fill="#f1eade"/>
      <path id="Caminho_1220" data-name="Caminho 1220" d="M5744.092,10329.4v4.316h-3.172v-4.316l-4.826-6.575h3.533l3.026,4.432,2.9-4.432h3.386Z" fill="#f1eade"/>
      <path id="Caminho_1221" data-name="Caminho 1221" d="M5763.4,10334.079a11.012,11.012,0,0,1-5.954-1.717l1.276-1.914a9.547,9.547,0,0,0,4.743,1.472c1.636,0,2.29-.556,2.29-1.194,0-1.814-7.769-.734-7.769-4.71,0-1.962,2.191-3.549,5.43-3.549a8.616,8.616,0,0,1,5.414,1.783l-1.456,1.7a7.48,7.48,0,0,0-4.04-1.324c-1.456,0-2.306.491-2.306,1.144,0,1.768,7.835.834,7.835,4.7C5768.865,10332.591,5766.509,10334.079,5763.4,10334.079Z" fill="#f1eade"/>
      <path id="Caminho_1222" data-name="Caminho 1222" d="M5798.982,10325.264v8.455h-3.189v-8.455h-4.023v-2.437h11.219v2.437Z" fill="#f1eade"/>
      <path id="Caminho_1223" data-name="Caminho 1223" d="M5821.677,10333.719v-4.252h-5.1v4.252H5813.4v-10.892h3.173v4.383h5.1v-4.383h3.189v10.892Z" fill="#f1eade"/>
      <path id="Caminho_1224" data-name="Caminho 1224" d="M5835.917,10333.719v-10.892h9.862v2.354h-6.689v2.045h4.775v1.831h-4.775v2.177h6.689v2.484Z" fill="#f1eade"/>
      <path id="Caminho_1225" data-name="Caminho 1225" d="M5873.459,10334.079a5.559,5.559,0,0,1-4.842-2.191l1.767-1.6a3.88,3.88,0,0,0,2.927,1.406c1.227,0,1.784-.621,1.784-1.685v-7.18h3.172v7.213C5878.267,10332.428,5876.582,10334.079,5873.459,10334.079Z" fill="#f1eade"/>
      <path id="Caminho_1226" data-name="Caminho 1226" d="M5894.584,10334.079c-3.647,0-6.018-2.339-6.018-5.217v-1.179c0-2.894,2.371-5.217,6.018-5.217s6.02,2.323,6.02,5.217v1.179C5900.6,10331.74,5898.232,10334.079,5894.584,10334.079Zm2.781-6.526a2.781,2.781,0,0,0-5.561,0v1.423a2.781,2.781,0,0,0,5.561,0Z" fill="#f1eade"/>
      <path id="Caminho_1227" data-name="Caminho 1227" d="M5916.658,10334.079c-3.893,0-5.692-2.011-5.692-4.579v-6.673h3.189v6.542c0,1.438.9,2.306,2.666,2.306,1.783,0,2.584-.867,2.584-2.306v-6.542h2.912v6.673C5922.317,10332.019,5920.583,10334.079,5916.658,10334.079Z" fill="#f1eade"/>
      <path id="Caminho_1228" data-name="Caminho 1228" d="M5941.757,10333.736c-.687,0-1.031-.721-1.046-1.718l-.033-1.293c-.017-.8-.344-1.177-1.62-1.177h-2.682v4.17H5933.2v-10.892h6.444c2.8,0,4.22,1.292,4.22,2.977v.229c0,1.11-.7,2.108-2.356,2.436,1.751.2,2.34,1.194,2.34,2.356l.016,1.063a2.146,2.146,0,0,0,.589,1.651v.2Zm-1.079-7.409c0-.737-.475-1.228-1.766-1.228h-2.536v2.7h2.584c1.194,0,1.718-.425,1.718-1.194Z" fill="#f1eade"/>
      <path id="Caminho_1229" data-name="Caminho 1229" d="M5963.438,10333.719l-4.939-5.626-.769-.932v6.558h-2.993v-10.892h2.764l4.858,5.642.752.934v-6.575h2.993v10.892Z" fill="#f1eade"/>
      <path id="Caminho_1230" data-name="Caminho 1230" d="M5977.154,10333.719v-10.892h9.862v2.354h-6.689v2.045h4.775v1.831h-4.775v2.177h6.689v2.484Z" fill="#f1eade"/>
      <path id="Caminho_1231" data-name="Caminho 1231" d="M6004.331,10329.4v4.316h-3.173v-4.316l-4.825-6.575h3.532l3.027,4.432,2.894-4.432h3.386Z" fill="#f1eade"/>
    </g>
    <g id="Grupo_795" data-name="Grupo 795">
      <path id="Caminho_1232" data-name="Caminho 1232" d="M5653.2,10464.586l-4.94-5.627-.768-.932v6.559H5644.5v-10.893h2.764l4.858,5.642.752.932v-6.573h2.993v10.893Z" fill="#f1eade"/>
      <path id="Caminho_1233" data-name="Caminho 1233" d="M5664.954,10464.586v-10.893h9.861v2.354h-6.688v2.044h4.775v1.832h-4.775v2.175h6.688v2.487Z" fill="#f1eade"/>
      <path id="Caminho_1234" data-name="Caminho 1234" d="M5690.348,10464.586H5687.4l-5.037-10.893h3.467l3.3,7.54,3.238-7.54h3.141Z" fill="#f1eade"/>
      <path id="Caminho_1235" data-name="Caminho 1235" d="M5703.394,10464.586v-10.893h9.862v2.354h-6.689v2.044h4.775v1.832h-4.775v2.175h6.689v2.487Z" fill="#f1eade"/>
      <path id="Caminho_1236" data-name="Caminho 1236" d="M5730.523,10464.6c-.687,0-1.031-.719-1.047-1.717l-.033-1.291c-.017-.8-.344-1.178-1.62-1.178h-2.681v4.171h-3.173v-10.893h6.443c2.8,0,4.22,1.291,4.22,2.976v.229c0,1.112-.7,2.109-2.355,2.437,1.75.2,2.339,1.194,2.339,2.355l.016,1.063a2.151,2.151,0,0,0,.589,1.653v.194Zm-1.08-7.408c0-.735-.474-1.227-1.766-1.227h-2.535v2.7h2.583c1.194,0,1.718-.425,1.718-1.194Z" fill="#f1eade"/>
      <path id="Caminho_1237" data-name="Caminho 1237" d="M5759.218,10456.13v8.456h-3.19v-8.456H5752v-2.437h11.22v2.437Z" fill="#f1eade"/>
      <path id="Caminho_1238" data-name="Caminho 1238" d="M5779.951,10464.586v-4.253h-5.1v4.253h-3.173v-10.893h3.173v4.383h5.1v-4.383h3.189v10.893Z" fill="#f1eade"/>
      <path id="Caminho_1239" data-name="Caminho 1239" d="M5792.228,10464.586v-10.893h9.862v2.354H5795.4v2.044h4.775v1.832H5795.4v2.175h6.689v2.487Z" fill="#f1eade"/>
      <path id="Caminho_1240" data-name="Caminho 1240" d="M5827.6,10464.586h-5.675v-10.893h5.675c3.713,0,5.872,2.142,5.872,4.808v1.309C5833.468,10462.459,5831.309,10464.586,5827.6,10464.586Zm2.65-6.118a2.5,2.5,0,0,0-2.813-2.535h-2.339v6.411h2.339a2.507,2.507,0,0,0,2.813-2.55Z" fill="#f1eade"/>
      <path id="Caminho_1241" data-name="Caminho 1241" d="M5842.033,10464.586v-10.893h9.861v2.354h-6.689v2.044h4.776v1.832h-4.776v2.175h6.689v2.487Z" fill="#f1eade"/>
      <path id="Caminho_1242" data-name="Caminho 1242" d="M5865.677,10464.945a11.008,11.008,0,0,1-5.954-1.718l1.276-1.913a9.573,9.573,0,0,0,4.743,1.473c1.636,0,2.29-.559,2.29-1.194,0-1.816-7.769-.736-7.769-4.711,0-1.963,2.192-3.549,5.43-3.549a8.609,8.609,0,0,1,5.414,1.783l-1.456,1.7a7.478,7.478,0,0,0-4.04-1.325c-1.455,0-2.306.49-2.306,1.145,0,1.767,7.835.834,7.835,4.693C5871.14,10463.457,5868.784,10464.945,5865.677,10464.945Z" fill="#f1eade"/>
      <path id="Caminho_1243" data-name="Caminho 1243" d="M5886.114,10456.13v8.456h-3.19v-8.456H5878.9v-2.437h11.22v2.437Z" fill="#f1eade"/>
      <path id="Caminho_1244" data-name="Caminho 1244" d="M5898.572,10464.586v-10.893h3.173v10.893Z" fill="#f1eade"/>
      <path id="Caminho_1245" data-name="Caminho 1245" d="M5919.536,10464.586l-4.94-5.627-.768-.932v6.559h-2.993v-10.893h2.763l4.858,5.642.752.932v-6.573h2.993v10.893Z" fill="#f1eade"/>
      <path id="Caminho_1246" data-name="Caminho 1246" d="M5939.581,10464.586l-.932-2.258H5934l-.949,2.258h-2.944l4.776-10.893h3.238l4.841,10.893Zm-3.205-7.983-1.587,3.8h3.124Z" fill="#f1eade"/>
      <path id="Caminho_1247" data-name="Caminho 1247" d="M5956.47,10456.13v8.456h-3.189v-8.456h-4.023v-2.437h11.219v2.437Z" fill="#f1eade"/>
      <path id="Caminho_1248" data-name="Caminho 1248" d="M5968.928,10464.586v-10.893h3.173v10.893Z" fill="#f1eade"/>
      <path id="Caminho_1249" data-name="Caminho 1249" d="M5986.686,10464.945c-3.647,0-6.019-2.338-6.019-5.218v-1.178c0-2.895,2.372-5.217,6.019-5.217s6.019,2.322,6.019,5.217v1.178C5992.705,10462.607,5990.333,10464.945,5986.686,10464.945Zm2.78-6.525a2.781,2.781,0,0,0-5.561,0v1.422a2.781,2.781,0,0,0,5.561,0Z" fill="#f1eade"/>
      <path id="Caminho_1250" data-name="Caminho 1250" d="M6009.971,10464.586l-4.94-5.627-.768-.932v6.559h-2.993v-10.893h2.764l4.858,5.642.752.932v-6.573h2.993v10.893Z" fill="#f1eade"/>
    </g>
    <g id="rhid1S.tif">
      <g id="Grupo_796" data-name="Grupo 796">
        <path id="Caminho_1251" data-name="Caminho 1251" d="M5834.54,10420.159c.263.366.4.727.652.88a13.021,13.021,0,0,1,3.344,3.067,1.552,1.552,0,0,0,1.145.446,4.053,4.053,0,0,1,4.226,2.607c.478,1.058-.54,3.182-1.935,3.589a5.725,5.725,0,0,1-3.6-.262c-.994-.357-1.882-2.022-1.166-3.86.364-.935.161-1.263-.718-1.691-2.139-1.041-4.192-2.258-6.291-3.384a13.479,13.479,0,0,0-3.176-1.557,34.488,34.488,0,0,0-5.364-.605q-4.483-.277-8.975-.4c-2.489-.073-4.98-.038-7.47-.079-2.615-.044-5.228-.153-7.843-.172-1.487-.011-2.974.13-4.462.155-2.027.035-4.055.052-6.082.031-3.081-.029-6.162-.119-9.244-.14-2.46-.018-4.921.045-7.382.043-3.333,0-6.67.054-10-.083-2.381-.1-4.751-.473-7.176-.73,1.007.658,2.036,1.354,3.09,2.012.921.574,1.872,1.1,2.8,1.659,1.331.8,2.63,1.649,3.992,2.388,1.12.605,1.849,2.261,1.209,3.185a1.37,1.37,0,0,1-1.029.475c-2.149-.1-4.3-.23-6.438-.432-1.714-.16-3.416-.438-5.125-.65-.19-.023-.539,0-.567.082-.228.68-.728,1.509-.517,2.046.445,1.129-.3,1.49-.927,1.639a16.383,16.383,0,0,1-4.883.72,8.679,8.679,0,0,1-5.607-2.644,3.286,3.286,0,0,1-.445-1.855c-.059-.72-.213-1.167-1.071-1.186-1.706-.038-3.409-.186-5.114-.238a2.127,2.127,0,0,1-1.794-1.8,7.544,7.544,0,0,1,3.4-6.694c.69-.5,1.305-1.112,2.12-1.814-1.284-.232-2.5-.423-3.7-.675-3.107-.652-6.216-1.3-9.307-2.02-1.371-.32-1.483-.334-2.5,1.2-.961,1.461-1.931,2.915-2.893,4.375-.186.282-.353.578-.647,1.063,1.946,1,3.823,1.936,5.671,2.923,2.19,1.171,4.338,2.42,6.542,3.563.66.342.892.74.71,1.413-.195.724-.594,1.321-1.415,1.268-1.052-.066-2.095-.27-3.143-.407-1.608-.212-3.219-.412-4.826-.632-.368-.05-.726-.179-1.093-.23-2.558-.365-5.118-.72-7.727-1.085-.025,2.154-1.662,3.282-3.555,3.66a6.628,6.628,0,0,1-6.023-1.81,4.121,4.121,0,0,1-1.064-3.22c-.354-.051-.73-.107-1.106-.161-1.076-.157-2.16-.278-3.223-.5-.224-.046-.478-.432-.539-.7a7.128,7.128,0,0,1,2.728-7.046,8.715,8.715,0,0,1,7.286-1.383,34.63,34.63,0,0,1,4.086.827,36.374,36.374,0,0,1,3.935,1.787l3.829-5.652a13.693,13.693,0,0,0-1.747-.861c-2.348-.774-4.064-2.53-6.03-3.883a7.909,7.909,0,0,1-1.773-2.209,1.511,1.511,0,0,0-1.4-.825,5.51,5.51,0,0,0-.59-1.218c-1.115-1.279-2.385-2.437-3.4-3.79a20.338,20.338,0,0,1-3.017-7.023c-.057-.211-.132-.417-.239-.752-1.71,1.96-3.372,3.84-5,5.746-.752.877-1.432,1.814-2.171,2.7a2.049,2.049,0,0,0,.163,3.137,21.834,21.834,0,0,0,6.206,3.747,8.2,8.2,0,0,0,1.48.255c.271.051.535.141.8.212l-.059.32c-.75-.1-1.511-.139-2.247-.3a18.4,18.4,0,0,1-6.425-2.656,3.962,3.962,0,0,1-1.658-4.162,4.449,4.449,0,0,1,.814-1.106c1.3-1.62,2.607-3.242,3.924-4.851,1.207-1.474,2.433-2.931,3.647-4.4a2.935,2.935,0,0,0,.212-.354l-.795-.621c-2.5,2.262-5.024,4.481-7.464,6.8a49.3,49.3,0,0,0-3.331,3.688,1.31,1.31,0,0,0-.038,1.785,15.472,15.472,0,0,0,5.234,4.868,14.288,14.288,0,0,0,5.554,1.963c1.785.165,3.551.534,5.325.813l.053.256a3.008,3.008,0,0,1-.948.315,26.663,26.663,0,0,1-5.553-.267,32.911,32.911,0,0,1-5.264-2.243c-2.258-.979-3.735-2.865-5.28-4.633-1.308-1.5-1.157-2.831.7-4.6,1.069-1.017,2.226-1.941,3.283-2.969,1.49-1.449,2.894-2.988,4.4-4.424a13.729,13.729,0,0,1,2.1-1.485c.644-.415.709-.865.057-1.278a3.165,3.165,0,0,0-1.227-.406q-5.057-.7-10.118-1.34a15.465,15.465,0,0,0-1.671-.008l1.367,6.545c-.818.17-.943-.3-1-.836-.151-1.517-.264-3.036-.449-4.548-.088-.721-.13-1.555-1.358-1.643a28.125,28.125,0,0,0,.637,6.278c.6,2.016,1.205,4.032,1.827,6.117-.644.556-1.066.194-1.4-.526a19.84,19.84,0,0,1-1.929-10.764c.151-1.339-.333-1.931-1.705-2.128a1.738,1.738,0,0,1-.539-.08c-1.671-.9-3.359-1.777-4.992-2.744-2.206-1.309-4.583-2.256-6.869-3.395-2.056-1.022-4.028-2.214-6.03-3.345a38.83,38.83,0,0,1-3.467-2.045,21.878,21.878,0,0,1-2.729-2.414c-.508-.508.183-2.157,1.01-2.62a11.671,11.671,0,0,1,7.009-1.077c3.861.369,7.7.942,11.549,1.454,3.973.529,7.936,1.133,11.914,1.617,2.411.294,4.844.4,7.262.647.631.063,1.232.393,1.864.484,2.941.424,5.887.808,8.831,1.207.154.021.378.011.447.1.791,1.081,2.044.751,3.093,1.016.857.218,1.244-.5,1.529-1.087.091-.188-.294-.706-.568-.956a9.106,9.106,0,0,0-3.963-2.264.89.89,0,0,1-.311-.2c-.043-.035-.055-.107-.2-.42,1.33.425,2.5.752,3.631,1.175a17.039,17.039,0,0,1,2.529,1.177c.86.494.88,1.035.3,1.855a8.884,8.884,0,0,0-.893,1.618c-.474,1.109-1.079,1.636-2.256,1.487-2.919-.366-5.823-.849-8.737-1.262-3.091-.437-6.192-.81-9.278-1.282-3.034-.463-6.054-1.022-9.083-1.525-1.978-.328-3.95-.758-5.943-.916-2.985-.236-5.986-.281-8.981-.394a35.193,35.193,0,0,0-3.809-.058c-.9.065-1.878.364-1.959,1.51a1.887,1.887,0,0,0,.5,1.36,3.415,3.415,0,0,0,1.434.454c.03.008.111-.189.19-.33a5.12,5.12,0,0,1-.888-.5c-.518-.45-.435-.9.223-1.075a7.378,7.378,0,0,1,2.034-.335c2.453.065,4.908.154,7.353.345,2.509.2,5.016.472,7.51.808,1.945.263,3.862.739,5.807,1,2.645.354,5.258.9,7.907,1.241,2.908.373,5.8.871,8.7,1.294,2.091.3,4.187.569,6.28.864a1.345,1.345,0,0,1,.4.224l-5.047,6.907.161.279a4.585,4.585,0,0,0,1.441-.55c1.035-.9,1.987-1.89,2.95-2.866a1.52,1.52,0,0,0,.4-.724c.317-1.633,1.617-2.421,2.781-3.345,1.288-1.021,2.6-2.021,3.8-3.143.985-.923.832-1.853-.184-2.711-.5-.423-.918-.943-1.381-1.412-1.392-1.407-3.292-1.888-5.033-2.589a16.828,16.828,0,0,0-4.207-.886,23.734,23.734,0,0,0-4.012-.142c-1.334.062-2.659.315-4.247.519a5.111,5.111,0,0,1,1.171-.717c2.123-.516,4.205-1.283,6.454-1.054a17.5,17.5,0,0,1,6.714,1.75c1.311.71,2.641,1.388,3.918,2.151a13.029,13.029,0,0,1,2.291,1.694,2.792,2.792,0,0,1,.61,1.417,6.534,6.534,0,0,1,.022,1.4c1.844.376,3.626.794,5.428,1.092,2.3.38,4.62.64,6.924,1,.659.1,1.281.425,1.935.586a3.3,3.3,0,0,0,1.087.055c3.7-.336,7.423-.52,11.086-1.095a58.75,58.75,0,0,0,6.832-2c2.492-.714,5-1.366,7.5-2.046l7.267-1.973q1.265-.346,2.529-.7,6.193-1.726,12.388-3.455c2.53-.7,5.07-1.378,7.59-2.114,2.751-.8,5.468-1.728,8.232-2.485,2.8-.769,5.646-1.393,8.468-2.094,1.83-.455,3.651-.952,5.483-1.4,2.6-.635,5.229-1.166,7.807-1.88,3.341-.925,6.618-.25,9.854.372a65.414,65.414,0,0,1,8.948,2.411,21.7,21.7,0,0,1,7.5,4.35,21.425,21.425,0,0,1,2.075,2.089c1.338,1.59.37,2.731-1.223,3.486-2.822,1.336-5.9,1.734-8.908,2.412-2.611.588-5.179,1.365-7.776,2.02-2.554.645-5.135,1.187-7.678,1.87-2.776.745-5.517,1.624-8.284,2.4-2.958.834-5.934,1.6-8.892,2.436-2.2.618-4.385,1.277-6.566,1.954a4.508,4.508,0,0,0-1.143.644c-2.212,1.516-4.362,3.133-6.639,4.544-2.033,1.259-4.216,2.273-6.307,3.443-.786.439-1.5,1.011-2.277,1.544a3.38,3.38,0,0,0,.349.623,24.066,24.066,0,0,0,8.227,5.922c3.352,1.483,6.932,2.225,10.351,3.475a39.188,39.188,0,0,0,4.7,1.247,6.617,6.617,0,0,0,6.506-1.606c1.489-1.423,3.221-2.592,4.733-3.994,2.267-2.1,4.4-4.349,6.659-6.468,1.608-1.512,3.331-2.9,4.975-4.372,1-.9,1.934-1.88,2.94-2.775.869-.773,1.355-.687,2.378-.164,1.274.649,2.637,1.122,3.944,1.71,1.448.653,2.9,1.3,4.295,2.06a1.668,1.668,0,0,1,.764,1.192c.036,2.649-.024,5.3-.067,7.953-.03,1.843-.059,3.686-.14,5.526-.029.666.348.755.819.725,1.465-.094,2.928-.232,4.393-.335,3.455-.243,5.38.429,7.027,3.839a30.192,30.192,0,0,1,1.352,2.959c.407,1.14.219,1.663-.936,2.08-2.3.831-4.641,1.531-6.978,2.243s-4.67,1.341-6.987,2.065a1.255,1.255,0,0,0-.673.827c-.283,1.362-.441,2.751-.715,4.115-.226,1.122-.694,1.4-1.865,1.337C5835.816,10420.134,5835.261,10420.159,5834.54,10420.159Zm3.334-5.993c-.97-.261-1.755-.457-2.532-.683-1.433-.417-2.875-.812-4.288-1.291-1.164-.395-2.275-.945-3.439-1.343-1.827-.624-3.7-1.125-5.514-1.775-1.578-.565-3.129-1.216-4.647-1.928a1.836,1.836,0,0,1-1.107-1.914c.094-.728.7-.862,1.358-.735.053.011.117-.036.176-.057a28.686,28.686,0,0,1,6.731-1.464c3.623-.353,7.217-1,10.828-1.491,1.148-.156,2.311-.192,3.464-.315.533-.057.994-.115.957-.937-.062-1.392.076-2.791.106-4.187.053-2.527.113-5.054.119-7.581,0-.9-.042-1.848-1.031-2.338-.664-.33-1.322-.675-2-.964-1.9-.806-3.8-1.6-5.719-2.356a1.05,1.05,0,0,0-.883.167q-2.958,2.5-5.86,5.076a24.326,24.326,0,0,0-3.118,2.905,40.083,40.083,0,0,1-7.271,6.9,14.445,14.445,0,0,0-1.44,1.046c-1.489,1.459-2.914,2.985-5.015,3.6-.39.113-.76.546-1.1.51a15.613,15.613,0,0,1-2.754-.58c-3.5-1.021-7.009-2.023-10.48-3.141a51.621,51.621,0,0,1-6.655-2.5,20.747,20.747,0,0,1-6.962-5.482c-.423-.511-.731-.584-1.21-.148.111,1.262.188,2.511.342,3.75.128,1.044-.2,1.5-1.28,1.385-1.883-.207-3.753-.525-5.633-.754a2.377,2.377,0,0,0-1.329.124c-2.44,1.3-4.866,2.633-7.254,4.027a31.639,31.639,0,0,0-2.7,1.976,4.964,4.964,0,0,0,.691.278c4.452.864,8.9,1.743,13.36,2.57,1.436.268,2.905.353,4.343.607,1.558.276,3.1.659,4.647.984.3.063.624.04.924.108,2.27.52,4.523,1.129,6.809,1.563,3.687.7,7.4,1.291,11.1,1.923,2.318.4,4.638.779,6.955,1.177,1.907.327,3.818.636,5.715,1.012,1.823.361,3.624.836,5.449,1.184a21.961,21.961,0,0,0,2.333.126c.958.074,2.2,1.091,1.892,1.306a3.828,3.828,0,0,1-2.058.665,30.081,30.081,0,0,1-3.634-.337c-.892-.1-1.793-.168-2.669-.35-2.167-.449-4.309-1.034-6.488-1.414-1.629-.284-3.31-.264-4.949-.506s-3.228-.668-4.848-.968c-1.138-.21-2.3-.291-3.433-.517-2.643-.527-5.277-1.1-7.911-1.667-3.625-.785-7.247-1.586-10.87-2.379a2.064,2.064,0,0,0-.366-.062,38.2,38.2,0,0,1-10.477-1.728,1.458,1.458,0,0,0-.371-.048c-.864-.058-1.739-.041-2.589-.18-2.1-.342-4.192-.8-6.3-1.105a3.107,3.107,0,0,0-1.959.343c-1.685,1.075-3.26,2.322-4.911,3.455a7.657,7.657,0,0,1-2.017,1.051,2.06,2.06,0,0,1-2.47-1.461c-.235-.909.535-2.555,1.376-2.705,1.189-.213,1.655-1.179,2.537-1.978-.547-.177-.892-.32-1.251-.4-1.668-.372-3.339-.728-5.01-1.086-2.1-.448-4.2-.9-6.3-1.334-1.157-.239-2.327-.414-3.48-.668-1.126-.247-2.228-.613-3.359-.825-1.032-.192-2.1-.208-3.136-.372-2.154-.339-4.3-.743-6.451-1.076a1.057,1.057,0,0,1-1-.941c-.1-.589-.254-1.064-.965-1.147-.135-.016-.365-.332-.331-.44.059-.191.278-.45.449-.465a2.886,2.886,0,0,1,1.107.134c.6.187.791-.077.879-.609.138-.833.376-1.652.458-2.489.121-1.231.174-2.472.193-3.707a.938.938,0,0,0-1.037-1.067,16.653,16.653,0,0,0-2.724.036c-1.645.294-3.051,1.011-3.387,2.884-.14.777-.2,1.569-.3,2.354a5.63,5.63,0,0,0,1.463,4.393c.631.775,1.345,1.486,1.942,2.285,1.6,2.144,3.12,4.346,4.744,6.47a9.479,9.479,0,0,0,2.5,2.64c2.589,1.464,4.386,3.9,6.981,5.351a6.169,6.169,0,0,0,2.311.894c-1.37-1.261-2.782-2.529-4.155-3.84-.66-.629-.695-1.316-.2-1.812.855-.853,1.5-.914,2.271-.3.832.665,1.74,1.236,2.55,1.925,1.285,1.092,2.574,2.191,3.743,3.4a1.3,1.3,0,0,0,1.368.528,8.752,8.752,0,0,1,6.362,1.147,18,18,0,0,0,4.7,1.975,37.461,37.461,0,0,0,4.686.779,22.616,22.616,0,0,0,2.872.417c3.338.074,6.677.074,10.016.1,2.9.019,5.789.039,8.684.04,2.8,0,5.607-.042,8.41-.028,2.6.013,5.189.116,7.783.1,2.1-.012,4.2-.193,6.294-.193,2.56,0,5.12.12,7.679.171,3.644.074,7.289.1,10.931.209,2.412.075,4.821.282,7.232.4a1.084,1.084,0,0,0,.672-.3,15.332,15.332,0,0,1,1.319-1.279,2.185,2.185,0,0,1,3.238.525,4.091,4.091,0,0,0,1.757,1.475,20.454,20.454,0,0,0,3.694.24Zm-115.487-19.986a8.049,8.049,0,0,0,.826.242c1.229.238,2.464.445,3.692.69,2.689.539,5.372,1.107,8.063,1.64,3.954.782,7.913,1.544,11.87,2.313,1.839.356,3.676.729,5.522,1.042a1.29,1.29,0,0,0,.984-.276c1.723-1.727,3.413-3.486,5.089-5.258a5.842,5.842,0,0,0,.639-1.037c-.331-.037-.663-.066-.993-.115-.184-.027-.362-.1-.546-.128-.7-.121-1.405-.226-2.1-.351-1.939-.349-3.914-.57-5.807-1.089-2.948-.806-5.833-1.84-8.759-2.729-1.1-.332-2.237-.521-3.354-.788-1.823-.436-3.622-1.035-5.469-1.286-2.029-.276-4.1-.229-6.155-.347-.226-.012-.437-.222-.667-.257a2.365,2.365,0,0,0-1.267-.057c-.276.141-.393.677-.493,1.06-.083.319,0,.68-.059,1.011C5723.078,10390.336,5722.738,10392.208,5722.387,10394.18Zm6.638,18.213.081-.192c-.7-.584-1.422-1.149-2.1-1.755q-2.478-2.2-4.921-4.441a20.59,20.59,0,0,1-1.688-1.766c-1.129-1.32-2.233-2.662-3.334-4.006-.606-.741-1.136-1.553-1.786-2.25-1.514-1.625-2.622-3.4-2.436-5.733.017-.214-.024-.431-.014-.646a16.8,16.8,0,0,1,.184-3.079,19.285,19.285,0,0,1,1.248-3.012l-7.96-.895c.622.722,1.072,1.486.65,2.339a16.329,16.329,0,0,1-1.82,2.94,2.316,2.316,0,0,1-2.272,1.168c-.746-.151-.858.17-.757.828a10.209,10.209,0,0,0,1.994,4.88c1.718,2.131,3.239,4.533,5.853,5.786a.778.778,0,0,1,.2.192c.7.752,1.393,1.51,2.1,2.258.983,1.045,1.909,2.156,2.976,3.108,2.164,1.93,5.062,2.132,7.66,3.008a37.377,37.377,0,0,0,4.948.972C5728.231,10412.174,5728.626,10412.293,5729.025,10412.393Zm30.393-28.857-.21-.035a6.072,6.072,0,0,0-.025-1.308,1,1,0,0,0-.566-.664c-1.276-.3-2.568-.536-3.859-.766-1.724-.3-3.456-.567-5.178-.88-.517-.094-1.007-.353-1.524-.427-1.325-.19-2.659-.312-3.988-.471-.994-.119-2.084-.638-2.707.693-.024.052-.1.075-.143.12-1.2,1.266-2.415,2.511-3.581,3.8-.557.618-1.013,1.328-1.522,1.991-.421.548-.329.786.394.889a32.085,32.085,0,0,1,3.6.681c2.509.652,4.987,1.427,7.5,2.063,2.816.714,5.656,1.332,8.487,1.985,1.327.3,1.983.146,2.113-.575C5758.639,10388.273,5759.02,10385.9,5759.418,10383.535Zm-6.968-6.959.061.318a3.51,3.51,0,0,0,2.6.22c2.192-.725,4.376-1.471,6.572-2.18,1.63-.525,3.27-1.021,4.913-1.5q3.185-.936,6.384-1.826c1.564-.433,3.148-.793,4.706-1.242,1.243-.36,2.456-.818,3.691-1.208.5-.16,1.036-.238,1.548-.384,2.721-.769,5.454-1.5,8.155-2.337,2.088-.644,4.131-1.432,6.2-2.125,1.189-.4,2.4-.744,3.6-1.09,3.214-.921,6.441-1.8,9.645-2.754,1.65-.49,3.234-1.216,4.9-1.627,1.7-.418,3.473-.5,5.179-.877,1.853-.415,3.532.516,5.614.37a5.568,5.568,0,0,0-1.357-.668c-1.4-.211-2.825-.327-4.238-.488a17.094,17.094,0,0,0-7.454.859c-1.689.566-3.34,1.26-5.048,1.755-3.9,1.13-7.833,2.151-11.741,3.259-3.154.9-6.065,2.528-9.378,2.987a29.669,29.669,0,0,0-3.935,1.189c-1.414.405-2.851.729-4.263,1.14-.564.163-1.069.535-1.635.686-1.961.523-3.943.965-5.9,1.487-1.556.414-3.1.886-4.636,1.354-1.95.594-3.9,1.181-5.836,1.823-1.419.472-2.8,1.053-4.217,1.541C5755.211,10375.726,5753.826,10376.138,5752.45,10376.576Zm10.323,16.122c1.9.279,3.649.567,5.409.776a2.46,2.46,0,0,0,1.411-.234c2.173-1.214,4.3-2.506,6.464-3.742.439-.25.5-.5.261-.9q-.661-1.138-1.294-2.293c-.333-.607-.646-1.227-.963-1.832a2.994,2.994,0,0,0-4.041,1.019,56.844,56.844,0,0,1-5.514,5.311C5763.927,10391.354,5763.42,10391.984,5762.773,10392.7Zm-23.616-14.354-.1-.272c-.328-.018-.657-.049-.985-.048-1.484,0-2.972.093-4.451.01a7.054,7.054,0,0,0-4.784,1.437c-1.416,1.056-2.818,2.13-4.268,3.136-1.328.92-1.4.982-1.087,2.489,2.28.1,4.561.188,6.839.319a3.4,3.4,0,0,0,2.983-1.328c1.244-1.435,2.661-2.722,4.02-4.056C5737.912,10379.449,5738.543,10378.906,5739.157,10378.345Zm21.9,13.052,7.441-8.062c-.045-.041-.085-.11-.136-.119-1.922-.35-3.837-.751-5.773-.987-.358-.044-.94.507-1.16.921a3.672,3.672,0,0,0-.1,1.458C5761.243,10386.91,5761.15,10389.214,5761.062,10391.4Zm-60.919-7.369c-.619.229-1.056.393-1.494.553-.847.309-1.042.743-.457,1.436.862,1.022,1.482,2.357,3.042,2.6.2.032.369.374.526.59a1.486,1.486,0,0,0,2.171.272,18.088,18.088,0,0,0,1.921-2.844c.351-.638-.271-1.31-1.057-1.374a9.433,9.433,0,0,1-1.778-.338C5702.014,10384.645,5701.028,10384.307,5700.143,10384.027Zm66.821,10.8-.011-.2c-1.724-.207-3.445-.441-5.174-.592-.286-.025-.66.27-.9.511-1.116,1.13-2.195,2.3-3.294,3.443-.8.841-1.621,1.67-2.487,2.562a2.286,2.286,0,0,0,2.381-.087C5760.621,10398.554,5763.8,10396.7,5766.964,10394.828Zm20.81-12.319-.084-.218c-.9.18-1.814.308-2.7.553-2.005.557-3.973,1.256-6,1.734-1.928.456-2.127.767-1.035,2.395.583.871.87.925,1.741.391q3.357-2.057,6.728-4.094C5786.872,10383,5787.327,10382.762,5787.774,10382.509Zm-75.057-5.546c1.512.21,2.86.419,4.214.581,1.412.17,2.829.3,4.245.437,1.334.125,2.669.262,4.006.313a3.69,3.69,0,0,0,1.182-.381l-.047-.418c-1.194-.205-2.381-.465-3.583-.6-2.639-.3-5.293-.491-7.926-.843A1.88,1.88,0,0,0,5712.717,10376.963Zm30.48,48.945a17.581,17.581,0,0,0,2.022,2.268,1.81,1.81,0,0,0,1.548.17,29.361,29.361,0,0,0,3.072-1.752Zm97.455.454a1.4,1.4,0,0,0-1.469,1.381c-.107.738.523.846,1.048.909a1.186,1.186,0,0,0,1.167-1.363C5841.318,10426.9,5840.847,10426.59,5840.652,10426.362Zm-99.2,2.426c-.2-.905-.35-1.751-.592-2.572-.069-.237-.4-.4-.611-.594-.205.253-.559.489-.591.763C5739.521,10427.556,5740.062,10428.249,5741.454,10428.788Zm32.459-34.828.066.238c.9-.111,1.89.664,2.687-.2.316-.344.263-1.027.431-1.8Zm-69.831,33.337c-.134-.818-.22-1.617-.422-2.385a.883.883,0,0,0-.694-.482c-.248.011-.673.309-.692.512A2.385,2.385,0,0,0,5704.082,10427.3Zm1-2.573-.248.277a3,3,0,0,0,.657.361c.249.065.633-.087.776.048,1.12,1.055,2.259.17,3.381.243l.027-.317Z" fill="#f1eade"/>
        <path id="Caminho_1252" data-name="Caminho 1252" d="M5695.344,10400.423l5.617,3.09c-.351.075-.627.231-.8.155-1.389-.606-2.785-1.208-4.117-1.926C5695.714,10401.565,5695.615,10400.964,5695.344,10400.423Z" fill="#f1eade"/>
        <path id="Caminho_1253" data-name="Caminho 1253" d="M5832.658,10385.219c-.127.382-.134.8-.326.918-2.1,1.273-3.184,3.515-4.915,5.108-1.652,1.521-2.412,3.532-3.486,5.372a7.155,7.155,0,0,0-.439,1.765,7.654,7.654,0,0,1-.426,1.289c-.168.359-.508.645-.65,1.01a1.026,1.026,0,0,1-1.53.579,1.491,1.491,0,0,1-.6-1.285,6.23,6.23,0,0,1,1.414-3.471c.852-.868,1.263-2.151,2-3.147.788-1.06,1.758-1.98,2.611-2.992.819-.974,1.622-1.962,2.376-2.985A5.12,5.12,0,0,1,5832.658,10385.219Z" fill="#f1eade"/>
      </g>
    </g>
    <g id="Grupo_797" data-name="Grupo 797">
      <path id="Caminho_1254" data-name="Caminho 1254" d="M5946.16,10400.961c4.881,0,10.032-1.031,13.123-2.625l.218-.113.047-.24a38.6,38.6,0,0,0,.639-6.856,33.428,33.428,0,0,0-.215-4.89l-.221-1.6-.734,1.439a47.161,47.161,0,0,1-3.68,6.379c-2.288,3.172-4.416,4.189-8.758,4.189-6.417,0-13.325-4.857-13.325-15.524,0-9.1,5.292-15.211,13.168-15.211,3.146,0,5.446.835,7.239,2.629,1.418,1.419,2.68,3.457,4.353,7.034l.616,1.318.338-1.416a32.069,32.069,0,0,0,.694-7.034,34.9,34.9,0,0,0-.16-4.1l-.036-.3-.278-.112a30.976,30.976,0,0,0-12.661-2.343c-12.886,0-21.886,8.094-21.886,19.685C5924.641,10390.756,5931.375,10400.961,5946.16,10400.961Z" fill="#f1eade"/>
      <path id="Caminho_1255" data-name="Caminho 1255" d="M5942.538,10381.272l3.646,6.718h1.755q.737-1.359,1.279-2.36t1.085-2q.541-1,1.279-2.358l-3.643-6.711h-1.755Z" fill="#f1eade"/>
      <path id="Caminho_1256" data-name="Caminho 1256" d="M5949.415,10414.68q-9.8,0-31.847-7.214a4.287,4.287,0,0,1-1.7-1.025,3.656,3.656,0,0,1-.763-2.669v-34.018a3.394,3.394,0,0,1,.528-1.877,3.667,3.667,0,0,1,3.343-1.818h.587l.058-.587h-17.829v.587h.762a3.609,3.609,0,0,1,2.61,1.057,3.738,3.738,0,0,1,1.144,2.639v32.493a3.743,3.743,0,0,1-1.144,2.639,3.612,3.612,0,0,1-2.61,1.056h-.762v.587a26.176,26.176,0,0,1,9.853,1.935q1.7.645,3.519,1.525t4.252,2.141l4.194,2.17q1.76.91,4.457,2.111t4.751,1.936q2.052.732,4.75,1.438a23.465,23.465,0,0,0,4.194.792q1.495.086,2.639.087a25.43,25.43,0,0,0,2.727-.175q7.507-.765,12.552-7.743l-.411-.469Q5955.514,10414.681,5949.415,10414.68Z" fill="#f1eade"/>
    </g>
  </g>
</svg>
